%TF.GenerationSoftware,KiCad,Pcbnew,(6.0.6)*%
%TF.CreationDate,2023-03-15T14:04:20+01:00*%
%TF.ProjectId,Shield_D_port_,53686965-6c64-45f4-94e9-706f7274e92e,rev?*%
%TF.SameCoordinates,Original*%
%TF.FileFunction,Copper,L1,Top*%
%TF.FilePolarity,Positive*%
%FSLAX46Y46*%
G04 Gerber Fmt 4.6, Leading zero omitted, Abs format (unit mm)*
G04 Created by KiCad (PCBNEW (6.0.6)) date 2023-03-15 14:04:20*
%MOMM*%
%LPD*%
G01*
G04 APERTURE LIST*
G04 Aperture macros list*
%AMRoundRect*
0 Rectangle with rounded corners*
0 $1 Rounding radius*
0 $2 $3 $4 $5 $6 $7 $8 $9 X,Y pos of 4 corners*
0 Add a 4 corners polygon primitive as box body*
4,1,4,$2,$3,$4,$5,$6,$7,$8,$9,$2,$3,0*
0 Add four circle primitives for the rounded corners*
1,1,$1+$1,$2,$3*
1,1,$1+$1,$4,$5*
1,1,$1+$1,$6,$7*
1,1,$1+$1,$8,$9*
0 Add four rect primitives between the rounded corners*
20,1,$1+$1,$2,$3,$4,$5,0*
20,1,$1+$1,$4,$5,$6,$7,0*
20,1,$1+$1,$6,$7,$8,$9,0*
20,1,$1+$1,$8,$9,$2,$3,0*%
%AMRotRect*
0 Rectangle, with rotation*
0 The origin of the aperture is its center*
0 $1 length*
0 $2 width*
0 $3 Rotation angle, in degrees counterclockwise*
0 Add horizontal line*
21,1,$1,$2,0,0,$3*%
G04 Aperture macros list end*
%TA.AperFunction,ComponentPad*%
%ADD10R,1.700000X1.700000*%
%TD*%
%TA.AperFunction,ComponentPad*%
%ADD11RotRect,1.700000X1.700000X60.000000*%
%TD*%
%TA.AperFunction,ComponentPad*%
%ADD12RotRect,1.700000X1.700000X30.000000*%
%TD*%
%TA.AperFunction,ComponentPad*%
%ADD13O,1.950000X1.700000*%
%TD*%
%TA.AperFunction,ComponentPad*%
%ADD14RoundRect,0.250000X0.725000X-0.600000X0.725000X0.600000X-0.725000X0.600000X-0.725000X-0.600000X0*%
%TD*%
%TA.AperFunction,ComponentPad*%
%ADD15O,1.700000X1.700000*%
%TD*%
%TA.AperFunction,ComponentPad*%
%ADD16R,1.198000X1.198000*%
%TD*%
%TA.AperFunction,ComponentPad*%
%ADD17C,1.198000*%
%TD*%
%TA.AperFunction,ComponentPad*%
%ADD18RoundRect,0.250000X0.750000X-0.600000X0.750000X0.600000X-0.750000X0.600000X-0.750000X-0.600000X0*%
%TD*%
%TA.AperFunction,ComponentPad*%
%ADD19O,2.000000X1.700000*%
%TD*%
G04 APERTURE END LIST*
D10*
%TO.P,U3,1,VDD*%
%TO.N,+5V*%
X130810000Y-116052600D03*
%TO.P,U3,2,GND*%
%TO.N,GND*%
X130860800Y-102362000D03*
D11*
%TO.P,U3,3,SDA*%
%TO.N,I2C1_SDA*%
X136753600Y-112649000D03*
D12*
X124866400Y-112649000D03*
D11*
%TO.P,U3,4,SCL*%
%TO.N,I2C1_SCL*%
X124866400Y-105791000D03*
D12*
X136753600Y-105791000D03*
%TD*%
D13*
%TO.P,J3,3,Pin_3*%
%TO.N,Ack_UV*%
X102870000Y-83860000D03*
%TO.P,J3,2,Pin_2*%
%TO.N,GND_Sky_Temperature*%
X102870000Y-86360000D03*
D14*
%TO.P,J3,1,Pin_1*%
%TO.N,GND_Pluviom\u00E8tre*%
X102870000Y-88860000D03*
%TD*%
D10*
%TO.P,U2,1,VCC*%
%TO.N,+5V*%
X107890000Y-99060000D03*
D15*
%TO.P,U2,2,GND*%
%TO.N,GND*%
X107890000Y-101600000D03*
%TO.P,U2,3,SCL*%
%TO.N,I2C1_SCL*%
X107890000Y-104140000D03*
%TO.P,U2,4,SDA*%
%TO.N,I2C1_SDA*%
X107890000Y-106680000D03*
%TO.P,U2,5,ACK*%
%TO.N,Ack_UV*%
X107890000Y-109220000D03*
%TD*%
D10*
%TO.P,U1,1,VCC*%
%TO.N,+5V*%
X110430000Y-85060000D03*
D15*
%TO.P,U1,2,GND*%
%TO.N,GND_Pluviom\u00E8tre*%
X110430000Y-87600000D03*
%TO.P,U1,3,D0*%
%TO.N,Pluviom\u00E8tre_Trigger*%
X110430000Y-90140000D03*
%TO.P,U1,4,A0*%
%TO.N,Pluviom\u00E8tre_Mesure*%
X110430000Y-92680000D03*
%TD*%
D16*
%TO.P,M1,1,SCL/VZ*%
%TO.N,I2C2_SCL*%
X111760000Y-119380000D03*
D17*
%TO.P,M1,3,VDD*%
%TO.N,+5V*%
X116840000Y-119380000D03*
%TO.P,M1,4,VSS*%
%TO.N,GND_Sky_Temperature*%
X114300000Y-116840000D03*
%TO.P,M1,2,SDA/PWM*%
%TO.N,I2C2_SDA*%
X114300000Y-121920000D03*
%TD*%
D18*
%TO.P,J5,1,Pin_1*%
%TO.N,I2C2_SDA*%
X102870000Y-124460000D03*
D19*
%TO.P,J5,2,Pin_2*%
%TO.N,I2C2_SCL*%
X102870000Y-121960000D03*
%TD*%
D18*
%TO.P,J4,1,Pin_1*%
%TO.N,I2C1_SDA*%
X102870000Y-106680000D03*
D19*
%TO.P,J4,2,Pin_2*%
%TO.N,I2C1_SCL*%
X102870000Y-104180000D03*
%TD*%
D18*
%TO.P,J2,1,Pin_1*%
%TO.N,+5V*%
X102870000Y-115570000D03*
D19*
%TO.P,J2,2,Pin_2*%
%TO.N,GND*%
X102870000Y-113070000D03*
%TD*%
D18*
%TO.P,J1,1,Pin_1*%
%TO.N,Pluviom\u00E8tre_Mesure*%
X102870000Y-97790000D03*
D19*
%TO.P,J1,2,Pin_2*%
%TO.N,Pluviom\u00E8tre_Trigger*%
X102870000Y-95290000D03*
%TD*%
%TA.AperFunction,Conductor*%
%TO.N,+5V*%
G36*
X141673621Y-80538502D02*
G01*
X141720114Y-80592158D01*
X141731500Y-80644500D01*
X141731500Y-128905500D01*
X141711498Y-128973621D01*
X141657842Y-129020114D01*
X141605500Y-129031500D01*
X98424500Y-129031500D01*
X98356379Y-129011498D01*
X98309886Y-128957842D01*
X98298500Y-128905500D01*
X98298500Y-121895774D01*
X101358102Y-121895774D01*
X101358302Y-121901103D01*
X101358302Y-121901105D01*
X101361197Y-121978210D01*
X101366751Y-122126158D01*
X101414093Y-122351791D01*
X101416051Y-122356750D01*
X101416052Y-122356752D01*
X101461123Y-122470877D01*
X101498776Y-122566221D01*
X101618377Y-122763317D01*
X101621874Y-122767347D01*
X101765852Y-122933267D01*
X101769477Y-122937445D01*
X101805120Y-122966670D01*
X101845114Y-123025329D01*
X101847046Y-123096299D01*
X101810302Y-123157048D01*
X101791532Y-123171248D01*
X101660579Y-123252285D01*
X101645652Y-123261522D01*
X101520695Y-123386697D01*
X101427885Y-123537262D01*
X101372203Y-123705139D01*
X101361500Y-123809600D01*
X101361500Y-125110400D01*
X101372474Y-125216166D01*
X101428450Y-125383946D01*
X101521522Y-125534348D01*
X101646697Y-125659305D01*
X101652927Y-125663145D01*
X101652928Y-125663146D01*
X101790090Y-125747694D01*
X101797262Y-125752115D01*
X101877005Y-125778564D01*
X101958611Y-125805632D01*
X101958613Y-125805632D01*
X101965139Y-125807797D01*
X101971975Y-125808497D01*
X101971978Y-125808498D01*
X102015031Y-125812909D01*
X102069600Y-125818500D01*
X103670400Y-125818500D01*
X103673646Y-125818163D01*
X103673650Y-125818163D01*
X103769308Y-125808238D01*
X103769312Y-125808237D01*
X103776166Y-125807526D01*
X103782702Y-125805345D01*
X103782704Y-125805345D01*
X103914806Y-125761272D01*
X103943946Y-125751550D01*
X104094348Y-125658478D01*
X104219305Y-125533303D01*
X104312115Y-125382738D01*
X104367797Y-125214861D01*
X104378500Y-125110400D01*
X104378500Y-123809600D01*
X104367526Y-123703834D01*
X104311550Y-123536054D01*
X104218478Y-123385652D01*
X104093303Y-123260695D01*
X103947660Y-123170919D01*
X103900168Y-123118148D01*
X103888744Y-123048076D01*
X103917018Y-122982952D01*
X103926805Y-122972490D01*
X104037278Y-122867103D01*
X104041135Y-122863424D01*
X104178754Y-122678458D01*
X104195068Y-122646372D01*
X104238342Y-122561256D01*
X104283240Y-122472949D01*
X104314465Y-122372391D01*
X104350024Y-122257871D01*
X104351607Y-122252773D01*
X104362057Y-122173926D01*
X104381198Y-122029511D01*
X104381198Y-122029506D01*
X104381898Y-122024226D01*
X104380171Y-121978210D01*
X104376892Y-121890885D01*
X113188136Y-121890885D01*
X113201449Y-122093993D01*
X113251552Y-122291275D01*
X113336768Y-122476122D01*
X113454242Y-122642345D01*
X113600042Y-122784377D01*
X113604838Y-122787582D01*
X113604841Y-122787584D01*
X113672720Y-122832939D01*
X113769283Y-122897460D01*
X113774586Y-122899738D01*
X113774589Y-122899740D01*
X113930370Y-122966669D01*
X113956297Y-122977808D01*
X114052851Y-122999656D01*
X114149187Y-123021455D01*
X114149190Y-123021455D01*
X114154823Y-123022730D01*
X114160594Y-123022957D01*
X114160596Y-123022957D01*
X114220973Y-123025329D01*
X114358210Y-123030721D01*
X114476476Y-123013573D01*
X114553926Y-123002344D01*
X114553930Y-123002343D01*
X114559648Y-123001514D01*
X114565120Y-122999656D01*
X114565122Y-122999656D01*
X114746927Y-122937941D01*
X114746929Y-122937940D01*
X114752391Y-122936086D01*
X114929983Y-122836630D01*
X115086476Y-122706476D01*
X115216630Y-122549983D01*
X115316086Y-122372391D01*
X115324851Y-122346572D01*
X115379656Y-122185122D01*
X115379656Y-122185120D01*
X115381514Y-122179648D01*
X115410721Y-121978210D01*
X115412245Y-121920000D01*
X115393620Y-121717309D01*
X115379496Y-121667227D01*
X115353041Y-121573428D01*
X115338370Y-121521407D01*
X115248345Y-121338854D01*
X115226567Y-121309689D01*
X115130012Y-121180387D01*
X115130011Y-121180386D01*
X115126559Y-121175763D01*
X114977092Y-121037597D01*
X114804949Y-120928982D01*
X114615895Y-120853558D01*
X114416261Y-120813848D01*
X114410486Y-120813772D01*
X114410482Y-120813772D01*
X114308924Y-120812443D01*
X114212734Y-120811184D01*
X114207037Y-120812163D01*
X114207036Y-120812163D01*
X114046431Y-120839760D01*
X114012130Y-120845654D01*
X113821166Y-120916104D01*
X113646239Y-121020175D01*
X113493206Y-121154381D01*
X113367193Y-121314228D01*
X113364502Y-121319344D01*
X113364500Y-121319346D01*
X113351511Y-121344035D01*
X113272420Y-121494362D01*
X113212060Y-121688751D01*
X113188136Y-121890885D01*
X104376892Y-121890885D01*
X104373449Y-121799173D01*
X104373249Y-121793842D01*
X104325907Y-121568209D01*
X104296743Y-121494362D01*
X104243185Y-121358744D01*
X104243184Y-121358742D01*
X104241224Y-121353779D01*
X104232168Y-121338854D01*
X104124390Y-121161243D01*
X104121623Y-121156683D01*
X104034755Y-121056576D01*
X103974023Y-120986588D01*
X103974021Y-120986586D01*
X103970523Y-120982555D01*
X103902576Y-120926842D01*
X103796373Y-120839760D01*
X103796367Y-120839756D01*
X103792245Y-120836376D01*
X103787609Y-120833737D01*
X103787606Y-120833735D01*
X103596529Y-120724968D01*
X103591886Y-120722325D01*
X103375175Y-120643663D01*
X103369926Y-120642714D01*
X103369923Y-120642713D01*
X103152392Y-120603377D01*
X103152385Y-120603376D01*
X103148308Y-120602639D01*
X103130586Y-120601803D01*
X103125644Y-120601570D01*
X103125637Y-120601570D01*
X103124156Y-120601500D01*
X102662110Y-120601500D01*
X102595191Y-120607178D01*
X102495591Y-120615629D01*
X102495587Y-120615630D01*
X102490280Y-120616080D01*
X102485125Y-120617418D01*
X102485119Y-120617419D01*
X102272297Y-120672657D01*
X102272293Y-120672658D01*
X102267128Y-120673999D01*
X102262262Y-120676191D01*
X102262259Y-120676192D01*
X102153980Y-120724968D01*
X102056925Y-120768688D01*
X101865681Y-120897441D01*
X101861824Y-120901120D01*
X101861822Y-120901122D01*
X101829386Y-120932065D01*
X101698865Y-121056576D01*
X101561246Y-121241542D01*
X101558830Y-121246293D01*
X101558828Y-121246297D01*
X101521688Y-121319346D01*
X101456760Y-121447051D01*
X101455178Y-121452145D01*
X101455177Y-121452148D01*
X101393115Y-121652020D01*
X101388393Y-121667227D01*
X101387692Y-121672516D01*
X101372304Y-121788623D01*
X101358102Y-121895774D01*
X98298500Y-121895774D01*
X98298500Y-120027134D01*
X110652500Y-120027134D01*
X110659255Y-120089316D01*
X110710385Y-120225705D01*
X110797739Y-120342261D01*
X110914295Y-120429615D01*
X111050684Y-120480745D01*
X111112866Y-120487500D01*
X112407134Y-120487500D01*
X112469316Y-120480745D01*
X112605705Y-120429615D01*
X112722261Y-120342261D01*
X112738515Y-120320573D01*
X116263787Y-120320573D01*
X116273669Y-120333062D01*
X116304722Y-120353810D01*
X116314830Y-120359298D01*
X116491150Y-120435051D01*
X116502083Y-120438603D01*
X116689254Y-120480956D01*
X116700662Y-120482458D01*
X116892415Y-120489991D01*
X116903899Y-120489389D01*
X117093817Y-120461853D01*
X117105000Y-120459168D01*
X117286718Y-120397483D01*
X117297221Y-120392807D01*
X117407297Y-120331162D01*
X117417160Y-120321087D01*
X117414204Y-120313415D01*
X116852811Y-119752021D01*
X116838868Y-119744408D01*
X116837034Y-119744539D01*
X116830420Y-119748790D01*
X116269980Y-120309231D01*
X116263787Y-120320573D01*
X112738515Y-120320573D01*
X112809615Y-120225705D01*
X112860745Y-120089316D01*
X112867500Y-120027134D01*
X112867500Y-119356664D01*
X115729017Y-119356664D01*
X115741567Y-119548148D01*
X115743367Y-119559516D01*
X115790605Y-119745512D01*
X115794443Y-119756350D01*
X115874785Y-119930626D01*
X115880536Y-119940587D01*
X115886505Y-119949034D01*
X115897095Y-119957422D01*
X115910394Y-119950395D01*
X116467979Y-119392811D01*
X116474356Y-119381132D01*
X117204408Y-119381132D01*
X117204539Y-119382965D01*
X117208790Y-119389580D01*
X117769504Y-119950293D01*
X117781879Y-119957050D01*
X117788459Y-119952124D01*
X117852807Y-119837221D01*
X117857483Y-119826718D01*
X117919168Y-119645000D01*
X117921853Y-119633817D01*
X117949685Y-119441858D01*
X117950315Y-119434475D01*
X117951645Y-119383704D01*
X117951402Y-119376305D01*
X117933655Y-119183158D01*
X117931557Y-119171837D01*
X117879470Y-118987152D01*
X117875345Y-118976405D01*
X117791370Y-118806121D01*
X117784152Y-118800704D01*
X117771735Y-118807475D01*
X117212022Y-119367188D01*
X117204408Y-119381132D01*
X116474356Y-119381132D01*
X116475592Y-119378868D01*
X116475461Y-119377034D01*
X116471210Y-119370420D01*
X115909279Y-118808490D01*
X115896904Y-118801733D01*
X115890938Y-118806199D01*
X115815576Y-118949438D01*
X115811171Y-118960073D01*
X115754265Y-119143339D01*
X115751873Y-119154593D01*
X115729318Y-119345163D01*
X115729017Y-119356664D01*
X112867500Y-119356664D01*
X112867500Y-118732866D01*
X112860745Y-118670684D01*
X112809615Y-118534295D01*
X112738499Y-118439405D01*
X116263518Y-118439405D01*
X116267005Y-118447794D01*
X116827189Y-119007979D01*
X116841132Y-119015592D01*
X116842966Y-119015461D01*
X116849580Y-119011210D01*
X117409559Y-118451230D01*
X117416316Y-118438855D01*
X117410286Y-118430799D01*
X117349604Y-118392512D01*
X117339356Y-118387291D01*
X117161120Y-118316182D01*
X117150084Y-118312913D01*
X116961875Y-118275475D01*
X116950430Y-118274272D01*
X116758556Y-118271761D01*
X116747076Y-118272664D01*
X116557957Y-118305161D01*
X116546837Y-118308141D01*
X116366799Y-118374560D01*
X116356421Y-118379510D01*
X116273116Y-118429072D01*
X116263518Y-118439405D01*
X112738499Y-118439405D01*
X112722261Y-118417739D01*
X112605705Y-118330385D01*
X112469316Y-118279255D01*
X112407134Y-118272500D01*
X111112866Y-118272500D01*
X111050684Y-118279255D01*
X110914295Y-118330385D01*
X110797739Y-118417739D01*
X110710385Y-118534295D01*
X110659255Y-118670684D01*
X110652500Y-118732866D01*
X110652500Y-120027134D01*
X98298500Y-120027134D01*
X98298500Y-116217095D01*
X101362001Y-116217095D01*
X101362338Y-116223614D01*
X101372257Y-116319206D01*
X101375149Y-116332600D01*
X101426588Y-116486784D01*
X101432761Y-116499962D01*
X101518063Y-116637807D01*
X101527099Y-116649208D01*
X101641829Y-116763739D01*
X101653240Y-116772751D01*
X101791243Y-116857816D01*
X101804424Y-116863963D01*
X101958710Y-116915138D01*
X101972086Y-116918005D01*
X102066438Y-116927672D01*
X102072854Y-116928000D01*
X102597885Y-116928000D01*
X102613124Y-116923525D01*
X102614329Y-116922135D01*
X102616000Y-116914452D01*
X102616000Y-116909884D01*
X103124000Y-116909884D01*
X103128475Y-116925123D01*
X103129865Y-116926328D01*
X103137548Y-116927999D01*
X103667095Y-116927999D01*
X103673614Y-116927662D01*
X103769206Y-116917743D01*
X103782600Y-116914851D01*
X103936784Y-116863412D01*
X103949962Y-116857239D01*
X104024868Y-116810885D01*
X113188136Y-116810885D01*
X113201449Y-117013993D01*
X113251552Y-117211275D01*
X113336768Y-117396122D01*
X113454242Y-117562345D01*
X113600042Y-117704377D01*
X113604838Y-117707582D01*
X113604841Y-117707584D01*
X113672720Y-117752939D01*
X113769283Y-117817460D01*
X113774586Y-117819738D01*
X113774589Y-117819740D01*
X113950990Y-117895528D01*
X113956297Y-117897808D01*
X114052851Y-117919656D01*
X114149187Y-117941455D01*
X114149190Y-117941455D01*
X114154823Y-117942730D01*
X114160594Y-117942957D01*
X114160596Y-117942957D01*
X114222771Y-117945400D01*
X114358210Y-117950721D01*
X114476476Y-117933573D01*
X114553926Y-117922344D01*
X114553930Y-117922343D01*
X114559648Y-117921514D01*
X114565120Y-117919656D01*
X114565122Y-117919656D01*
X114746927Y-117857941D01*
X114746929Y-117857940D01*
X114752391Y-117856086D01*
X114929983Y-117756630D01*
X115086476Y-117626476D01*
X115216630Y-117469983D01*
X115316086Y-117292391D01*
X115323387Y-117270885D01*
X115379656Y-117105122D01*
X115379656Y-117105120D01*
X115381514Y-117099648D01*
X115393033Y-117020206D01*
X115403608Y-116947269D01*
X129452001Y-116947269D01*
X129452371Y-116954090D01*
X129457895Y-117004952D01*
X129461521Y-117020204D01*
X129506676Y-117140654D01*
X129515214Y-117156249D01*
X129591715Y-117258324D01*
X129604276Y-117270885D01*
X129706351Y-117347386D01*
X129721946Y-117355924D01*
X129842394Y-117401078D01*
X129857649Y-117404705D01*
X129908514Y-117410231D01*
X129915328Y-117410600D01*
X130537885Y-117410600D01*
X130553124Y-117406125D01*
X130554329Y-117404735D01*
X130556000Y-117397052D01*
X130556000Y-117392484D01*
X131064000Y-117392484D01*
X131068475Y-117407723D01*
X131069865Y-117408928D01*
X131077548Y-117410599D01*
X131704669Y-117410599D01*
X131711490Y-117410229D01*
X131762352Y-117404705D01*
X131777604Y-117401079D01*
X131898054Y-117355924D01*
X131913649Y-117347386D01*
X132015724Y-117270885D01*
X132028285Y-117258324D01*
X132104786Y-117156249D01*
X132113324Y-117140654D01*
X132158478Y-117020206D01*
X132162105Y-117004951D01*
X132167631Y-116954086D01*
X132168000Y-116947272D01*
X132168000Y-116324715D01*
X132163525Y-116309476D01*
X132162135Y-116308271D01*
X132154452Y-116306600D01*
X131082115Y-116306600D01*
X131066876Y-116311075D01*
X131065671Y-116312465D01*
X131064000Y-116320148D01*
X131064000Y-117392484D01*
X130556000Y-117392484D01*
X130556000Y-116324715D01*
X130551525Y-116309476D01*
X130550135Y-116308271D01*
X130542452Y-116306600D01*
X129470116Y-116306600D01*
X129454877Y-116311075D01*
X129453672Y-116312465D01*
X129452001Y-116320148D01*
X129452001Y-116947269D01*
X115403608Y-116947269D01*
X115410721Y-116898210D01*
X115412245Y-116840000D01*
X115393620Y-116637309D01*
X115338370Y-116441407D01*
X115274783Y-116312465D01*
X115250900Y-116264035D01*
X115248345Y-116258854D01*
X115226567Y-116229689D01*
X115130012Y-116100387D01*
X115130011Y-116100386D01*
X115126559Y-116095763D01*
X114977092Y-115957597D01*
X114804949Y-115848982D01*
X114633258Y-115780485D01*
X129452000Y-115780485D01*
X129456475Y-115795724D01*
X129457865Y-115796929D01*
X129465548Y-115798600D01*
X130537885Y-115798600D01*
X130553124Y-115794125D01*
X130554329Y-115792735D01*
X130556000Y-115785052D01*
X130556000Y-115780485D01*
X131064000Y-115780485D01*
X131068475Y-115795724D01*
X131069865Y-115796929D01*
X131077548Y-115798600D01*
X132149884Y-115798600D01*
X132165123Y-115794125D01*
X132166328Y-115792735D01*
X132167999Y-115785052D01*
X132167999Y-115157931D01*
X132167629Y-115151110D01*
X132162105Y-115100248D01*
X132158479Y-115084996D01*
X132113324Y-114964546D01*
X132104786Y-114948951D01*
X132028285Y-114846876D01*
X132015724Y-114834315D01*
X131913649Y-114757814D01*
X131898054Y-114749276D01*
X131777606Y-114704122D01*
X131762351Y-114700495D01*
X131711486Y-114694969D01*
X131704672Y-114694600D01*
X131082115Y-114694600D01*
X131066876Y-114699075D01*
X131065671Y-114700465D01*
X131064000Y-114708148D01*
X131064000Y-115780485D01*
X130556000Y-115780485D01*
X130556000Y-114712716D01*
X130551525Y-114697477D01*
X130550135Y-114696272D01*
X130542452Y-114694601D01*
X129915331Y-114694601D01*
X129908510Y-114694971D01*
X129857648Y-114700495D01*
X129842396Y-114704121D01*
X129721946Y-114749276D01*
X129706351Y-114757814D01*
X129604276Y-114834315D01*
X129591715Y-114846876D01*
X129515214Y-114948951D01*
X129506676Y-114964546D01*
X129461522Y-115084994D01*
X129457895Y-115100249D01*
X129452369Y-115151114D01*
X129452000Y-115157928D01*
X129452000Y-115780485D01*
X114633258Y-115780485D01*
X114615895Y-115773558D01*
X114416261Y-115733848D01*
X114410486Y-115733772D01*
X114410482Y-115733772D01*
X114308924Y-115732443D01*
X114212734Y-115731184D01*
X114207037Y-115732163D01*
X114207036Y-115732163D01*
X114017827Y-115764675D01*
X114012130Y-115765654D01*
X113821166Y-115836104D01*
X113646239Y-115940175D01*
X113493206Y-116074381D01*
X113489635Y-116078911D01*
X113380700Y-116217095D01*
X113367193Y-116234228D01*
X113364502Y-116239344D01*
X113364500Y-116239346D01*
X113316126Y-116331290D01*
X113272420Y-116414362D01*
X113212060Y-116608751D01*
X113188136Y-116810885D01*
X104024868Y-116810885D01*
X104087807Y-116771937D01*
X104099208Y-116762901D01*
X104213739Y-116648171D01*
X104222751Y-116636760D01*
X104307816Y-116498757D01*
X104313963Y-116485576D01*
X104365138Y-116331290D01*
X104368005Y-116317914D01*
X104377672Y-116223562D01*
X104378000Y-116217146D01*
X104378000Y-115842115D01*
X104373525Y-115826876D01*
X104372135Y-115825671D01*
X104364452Y-115824000D01*
X103142115Y-115824000D01*
X103126876Y-115828475D01*
X103125671Y-115829865D01*
X103124000Y-115837548D01*
X103124000Y-116909884D01*
X102616000Y-116909884D01*
X102616000Y-115842115D01*
X102611525Y-115826876D01*
X102610135Y-115825671D01*
X102602452Y-115824000D01*
X101380116Y-115824000D01*
X101364877Y-115828475D01*
X101363672Y-115829865D01*
X101362001Y-115837548D01*
X101362001Y-116217095D01*
X98298500Y-116217095D01*
X98298500Y-113005774D01*
X101358102Y-113005774D01*
X101366751Y-113236158D01*
X101414093Y-113461791D01*
X101498776Y-113676221D01*
X101618377Y-113873317D01*
X101621874Y-113877347D01*
X101708438Y-113977103D01*
X101769477Y-114047445D01*
X101773608Y-114050832D01*
X101805529Y-114077006D01*
X101845524Y-114135666D01*
X101847455Y-114206636D01*
X101810710Y-114267384D01*
X101791941Y-114281584D01*
X101652193Y-114368063D01*
X101640792Y-114377099D01*
X101526261Y-114491829D01*
X101517249Y-114503240D01*
X101432184Y-114641243D01*
X101426037Y-114654424D01*
X101374862Y-114808710D01*
X101371995Y-114822086D01*
X101362328Y-114916438D01*
X101362000Y-114922855D01*
X101362000Y-115297885D01*
X101366475Y-115313124D01*
X101367865Y-115314329D01*
X101375548Y-115316000D01*
X104359884Y-115316000D01*
X104375123Y-115311525D01*
X104376328Y-115310135D01*
X104377999Y-115302452D01*
X104377999Y-114922905D01*
X104377662Y-114916386D01*
X104367743Y-114820794D01*
X104364851Y-114807400D01*
X104313412Y-114653216D01*
X104307239Y-114640038D01*
X104221937Y-114502193D01*
X104212901Y-114490792D01*
X104098171Y-114376261D01*
X104086757Y-114367247D01*
X103947287Y-114281277D01*
X103899793Y-114228505D01*
X103888369Y-114158434D01*
X103916643Y-114093310D01*
X103926430Y-114082847D01*
X103959991Y-114050832D01*
X104041135Y-113973424D01*
X104178754Y-113788458D01*
X104283240Y-113582949D01*
X104319321Y-113466752D01*
X104350024Y-113367871D01*
X104351607Y-113362773D01*
X104355502Y-113333383D01*
X104381198Y-113139511D01*
X104381198Y-113139506D01*
X104381898Y-113134226D01*
X104380354Y-113093084D01*
X104373449Y-112909173D01*
X104373249Y-112903842D01*
X104325907Y-112678209D01*
X104276181Y-112552296D01*
X104243185Y-112468744D01*
X104243184Y-112468742D01*
X104241224Y-112463779D01*
X104171898Y-112349533D01*
X123191682Y-112349533D01*
X123193156Y-112358389D01*
X123193156Y-112358391D01*
X123210697Y-112463779D01*
X123215596Y-112493214D01*
X123240837Y-112550443D01*
X124138971Y-114106057D01*
X124175912Y-114156531D01*
X124182015Y-114161553D01*
X124182017Y-114161555D01*
X124220990Y-114193624D01*
X124288387Y-114249082D01*
X124296638Y-114252610D01*
X124296640Y-114252611D01*
X124347983Y-114274563D01*
X124422316Y-114306345D01*
X124431225Y-114307415D01*
X124431228Y-114307416D01*
X124522678Y-114318402D01*
X124566933Y-114323718D01*
X124575789Y-114322244D01*
X124575791Y-114322244D01*
X124702824Y-114301101D01*
X124702827Y-114301100D01*
X124710614Y-114299804D01*
X124767843Y-114274563D01*
X126323457Y-113376429D01*
X126373931Y-113339488D01*
X126466482Y-113227013D01*
X126523745Y-113093084D01*
X126541118Y-112948467D01*
X135078882Y-112948467D01*
X135096255Y-113093084D01*
X135153518Y-113227013D01*
X135246069Y-113339488D01*
X135296543Y-113376429D01*
X136852157Y-114274563D01*
X136909386Y-114299804D01*
X136917173Y-114301100D01*
X136917176Y-114301101D01*
X137044209Y-114322244D01*
X137044211Y-114322244D01*
X137053067Y-114323718D01*
X137097322Y-114318402D01*
X137188772Y-114307416D01*
X137188775Y-114307415D01*
X137197684Y-114306345D01*
X137272017Y-114274563D01*
X137323360Y-114252611D01*
X137323362Y-114252610D01*
X137331613Y-114249082D01*
X137399010Y-114193624D01*
X137437983Y-114161555D01*
X137437985Y-114161553D01*
X137444088Y-114156531D01*
X137481029Y-114106057D01*
X138379163Y-112550443D01*
X138404404Y-112493214D01*
X138409304Y-112463779D01*
X138426844Y-112358391D01*
X138426844Y-112358389D01*
X138428318Y-112349533D01*
X138410945Y-112204916D01*
X138353682Y-112070987D01*
X138261131Y-111958512D01*
X138210657Y-111921571D01*
X136655043Y-111023437D01*
X136597814Y-110998196D01*
X136590027Y-110996900D01*
X136590024Y-110996899D01*
X136462991Y-110975756D01*
X136462989Y-110975756D01*
X136454133Y-110974282D01*
X136409878Y-110979598D01*
X136318428Y-110990584D01*
X136318425Y-110990585D01*
X136309516Y-110991655D01*
X136294218Y-110998196D01*
X136183840Y-111045389D01*
X136183838Y-111045390D01*
X136175587Y-111048918D01*
X136168653Y-111054623D01*
X136168654Y-111054623D01*
X136069217Y-111136445D01*
X136069215Y-111136447D01*
X136063112Y-111141469D01*
X136026171Y-111191943D01*
X135128037Y-112747557D01*
X135102796Y-112804786D01*
X135078882Y-112948467D01*
X126541118Y-112948467D01*
X126517204Y-112804786D01*
X126491963Y-112747557D01*
X125593829Y-111191943D01*
X125556888Y-111141469D01*
X125550785Y-111136447D01*
X125550783Y-111136445D01*
X125451346Y-111054623D01*
X125451347Y-111054623D01*
X125444413Y-111048918D01*
X125436162Y-111045390D01*
X125436160Y-111045389D01*
X125325782Y-110998196D01*
X125310484Y-110991655D01*
X125301575Y-110990585D01*
X125301572Y-110990584D01*
X125210122Y-110979598D01*
X125165867Y-110974282D01*
X125157011Y-110975756D01*
X125157009Y-110975756D01*
X125029976Y-110996899D01*
X125029973Y-110996900D01*
X125022186Y-110998196D01*
X124964957Y-111023437D01*
X123409343Y-111921571D01*
X123358869Y-111958512D01*
X123266318Y-112070987D01*
X123209055Y-112204916D01*
X123191682Y-112349533D01*
X104171898Y-112349533D01*
X104121623Y-112266683D01*
X104034755Y-112166576D01*
X103974023Y-112096588D01*
X103974021Y-112096586D01*
X103970523Y-112092555D01*
X103928970Y-112058484D01*
X103796373Y-111949760D01*
X103796367Y-111949756D01*
X103792245Y-111946376D01*
X103787609Y-111943737D01*
X103787606Y-111943735D01*
X103596529Y-111834968D01*
X103591886Y-111832325D01*
X103375175Y-111753663D01*
X103369926Y-111752714D01*
X103369923Y-111752713D01*
X103152392Y-111713377D01*
X103152385Y-111713376D01*
X103148308Y-111712639D01*
X103130586Y-111711803D01*
X103125644Y-111711570D01*
X103125637Y-111711570D01*
X103124156Y-111711500D01*
X102662110Y-111711500D01*
X102595191Y-111717178D01*
X102495591Y-111725629D01*
X102495587Y-111725630D01*
X102490280Y-111726080D01*
X102485125Y-111727418D01*
X102485119Y-111727419D01*
X102272297Y-111782657D01*
X102272293Y-111782658D01*
X102267128Y-111783999D01*
X102262262Y-111786191D01*
X102262259Y-111786192D01*
X102153980Y-111834968D01*
X102056925Y-111878688D01*
X101865681Y-112007441D01*
X101698865Y-112166576D01*
X101561246Y-112351542D01*
X101558830Y-112356293D01*
X101558828Y-112356297D01*
X101509003Y-112454297D01*
X101456760Y-112557051D01*
X101455178Y-112562145D01*
X101455177Y-112562148D01*
X101398524Y-112744601D01*
X101388393Y-112777227D01*
X101387692Y-112782516D01*
X101372304Y-112898623D01*
X101358102Y-113005774D01*
X98298500Y-113005774D01*
X98298500Y-109186695D01*
X106527251Y-109186695D01*
X106527548Y-109191848D01*
X106527548Y-109191851D01*
X106533011Y-109286590D01*
X106540110Y-109409715D01*
X106541247Y-109414761D01*
X106541248Y-109414767D01*
X106561119Y-109502939D01*
X106589222Y-109627639D01*
X106673266Y-109834616D01*
X106789987Y-110025088D01*
X106936250Y-110193938D01*
X107108126Y-110336632D01*
X107301000Y-110449338D01*
X107509692Y-110529030D01*
X107514760Y-110530061D01*
X107514763Y-110530062D01*
X107622017Y-110551883D01*
X107728597Y-110573567D01*
X107733772Y-110573757D01*
X107733774Y-110573757D01*
X107946673Y-110581564D01*
X107946677Y-110581564D01*
X107951837Y-110581753D01*
X107956957Y-110581097D01*
X107956959Y-110581097D01*
X108168288Y-110554025D01*
X108168289Y-110554025D01*
X108173416Y-110553368D01*
X108178366Y-110551883D01*
X108382429Y-110490661D01*
X108382434Y-110490659D01*
X108387384Y-110489174D01*
X108587994Y-110390896D01*
X108769860Y-110261173D01*
X108928096Y-110103489D01*
X108987594Y-110020689D01*
X109055435Y-109926277D01*
X109058453Y-109922077D01*
X109157430Y-109721811D01*
X109222370Y-109508069D01*
X109251529Y-109286590D01*
X109253156Y-109220000D01*
X109234852Y-108997361D01*
X109180431Y-108780702D01*
X109091354Y-108575840D01*
X108970014Y-108388277D01*
X108819670Y-108223051D01*
X108815619Y-108219852D01*
X108815615Y-108219848D01*
X108648414Y-108087800D01*
X108648410Y-108087798D01*
X108644359Y-108084598D01*
X108603053Y-108061796D01*
X108553084Y-108011364D01*
X108538312Y-107941921D01*
X108563428Y-107875516D01*
X108590780Y-107848909D01*
X108634603Y-107817650D01*
X108769860Y-107721173D01*
X108928096Y-107563489D01*
X108987594Y-107480689D01*
X109055435Y-107386277D01*
X109058453Y-107382077D01*
X109085608Y-107327134D01*
X109155136Y-107186453D01*
X109155137Y-107186451D01*
X109157430Y-107181811D01*
X109222370Y-106968069D01*
X109251529Y-106746590D01*
X109253156Y-106680000D01*
X109234852Y-106457361D01*
X109180431Y-106240702D01*
X109115107Y-106090467D01*
X123191682Y-106090467D01*
X123192753Y-106099381D01*
X123206558Y-106214297D01*
X123209055Y-106235084D01*
X123266318Y-106369013D01*
X123272023Y-106375946D01*
X123343263Y-106462522D01*
X123358869Y-106481488D01*
X123409343Y-106518429D01*
X124964957Y-107416563D01*
X125022186Y-107441804D01*
X125029973Y-107443100D01*
X125029976Y-107443101D01*
X125157009Y-107464244D01*
X125157011Y-107464244D01*
X125165867Y-107465718D01*
X125210122Y-107460402D01*
X125301572Y-107449416D01*
X125301575Y-107449415D01*
X125310484Y-107448345D01*
X125384817Y-107416563D01*
X125436160Y-107394611D01*
X125436162Y-107394610D01*
X125444413Y-107391082D01*
X125514272Y-107333598D01*
X125550783Y-107303555D01*
X125550785Y-107303553D01*
X125556888Y-107298531D01*
X125593829Y-107248057D01*
X126491963Y-105692443D01*
X126517204Y-105635214D01*
X126520914Y-105612928D01*
X126539644Y-105500391D01*
X126539644Y-105500389D01*
X126541118Y-105491533D01*
X135078882Y-105491533D01*
X135080356Y-105500389D01*
X135080356Y-105500391D01*
X135099087Y-105612928D01*
X135102796Y-105635214D01*
X135128037Y-105692443D01*
X136026171Y-107248057D01*
X136063112Y-107298531D01*
X136069215Y-107303553D01*
X136069217Y-107303555D01*
X136105728Y-107333598D01*
X136175587Y-107391082D01*
X136183838Y-107394610D01*
X136183840Y-107394611D01*
X136235183Y-107416563D01*
X136309516Y-107448345D01*
X136318425Y-107449415D01*
X136318428Y-107449416D01*
X136409878Y-107460402D01*
X136454133Y-107465718D01*
X136462989Y-107464244D01*
X136462991Y-107464244D01*
X136590024Y-107443101D01*
X136590027Y-107443100D01*
X136597814Y-107441804D01*
X136655043Y-107416563D01*
X138210657Y-106518429D01*
X138261131Y-106481488D01*
X138276738Y-106462522D01*
X138347977Y-106375946D01*
X138353682Y-106369013D01*
X138410945Y-106235084D01*
X138413443Y-106214297D01*
X138427247Y-106099381D01*
X138428318Y-106090467D01*
X138418723Y-106032817D01*
X138405701Y-105954576D01*
X138405700Y-105954573D01*
X138404404Y-105946786D01*
X138379163Y-105889557D01*
X137481029Y-104333943D01*
X137444088Y-104283469D01*
X137437985Y-104278447D01*
X137437983Y-104278445D01*
X137338546Y-104196623D01*
X137338547Y-104196623D01*
X137331613Y-104190918D01*
X137323362Y-104187390D01*
X137323360Y-104187389D01*
X137212982Y-104140196D01*
X137197684Y-104133655D01*
X137188775Y-104132585D01*
X137188772Y-104132584D01*
X137093215Y-104121105D01*
X137053067Y-104116282D01*
X137044211Y-104117756D01*
X137044209Y-104117756D01*
X136917176Y-104138899D01*
X136917173Y-104138900D01*
X136909386Y-104140196D01*
X136852157Y-104165437D01*
X135296543Y-105063571D01*
X135246069Y-105100512D01*
X135153518Y-105212987D01*
X135096255Y-105346916D01*
X135095185Y-105355825D01*
X135095184Y-105355828D01*
X135087072Y-105423357D01*
X135078882Y-105491533D01*
X126541118Y-105491533D01*
X126532928Y-105423357D01*
X126524816Y-105355828D01*
X126524815Y-105355825D01*
X126523745Y-105346916D01*
X126466482Y-105212987D01*
X126373931Y-105100512D01*
X126323457Y-105063571D01*
X124767843Y-104165437D01*
X124710614Y-104140196D01*
X124702827Y-104138900D01*
X124702824Y-104138899D01*
X124575791Y-104117756D01*
X124575789Y-104117756D01*
X124566933Y-104116282D01*
X124526785Y-104121105D01*
X124431228Y-104132584D01*
X124431225Y-104132585D01*
X124422316Y-104133655D01*
X124407018Y-104140196D01*
X124296640Y-104187389D01*
X124296638Y-104187390D01*
X124288387Y-104190918D01*
X124281453Y-104196623D01*
X124281454Y-104196623D01*
X124182017Y-104278445D01*
X124182015Y-104278447D01*
X124175912Y-104283469D01*
X124138971Y-104333943D01*
X123240837Y-105889557D01*
X123215596Y-105946786D01*
X123214300Y-105954573D01*
X123214299Y-105954576D01*
X123201277Y-106032817D01*
X123191682Y-106090467D01*
X109115107Y-106090467D01*
X109091354Y-106035840D01*
X109015515Y-105918611D01*
X108972822Y-105852617D01*
X108972820Y-105852614D01*
X108970014Y-105848277D01*
X108819670Y-105683051D01*
X108815619Y-105679852D01*
X108815615Y-105679848D01*
X108648414Y-105547800D01*
X108648410Y-105547798D01*
X108644359Y-105544598D01*
X108603053Y-105521796D01*
X108553084Y-105471364D01*
X108538312Y-105401921D01*
X108563428Y-105335516D01*
X108590780Y-105308909D01*
X108648026Y-105268076D01*
X108769860Y-105181173D01*
X108928096Y-105023489D01*
X108987594Y-104940689D01*
X109055435Y-104846277D01*
X109058453Y-104842077D01*
X109088513Y-104781256D01*
X109155136Y-104646453D01*
X109155137Y-104646451D01*
X109157430Y-104641811D01*
X109222370Y-104428069D01*
X109251529Y-104206590D01*
X109252493Y-104167144D01*
X109253074Y-104143365D01*
X109253074Y-104143361D01*
X109253156Y-104140000D01*
X109252635Y-104133655D01*
X109235276Y-103922522D01*
X109234852Y-103917361D01*
X109180431Y-103700702D01*
X109091354Y-103495840D01*
X108983883Y-103329715D01*
X108972822Y-103312617D01*
X108972820Y-103312614D01*
X108970014Y-103308277D01*
X108926207Y-103260134D01*
X129502300Y-103260134D01*
X129509055Y-103322316D01*
X129560185Y-103458705D01*
X129647539Y-103575261D01*
X129764095Y-103662615D01*
X129900484Y-103713745D01*
X129962666Y-103720500D01*
X131758934Y-103720500D01*
X131821116Y-103713745D01*
X131957505Y-103662615D01*
X132074061Y-103575261D01*
X132161415Y-103458705D01*
X132212545Y-103322316D01*
X132219300Y-103260134D01*
X132219300Y-101463866D01*
X132212545Y-101401684D01*
X132161415Y-101265295D01*
X132074061Y-101148739D01*
X131957505Y-101061385D01*
X131821116Y-101010255D01*
X131758934Y-101003500D01*
X129962666Y-101003500D01*
X129900484Y-101010255D01*
X129764095Y-101061385D01*
X129647539Y-101148739D01*
X129560185Y-101265295D01*
X129509055Y-101401684D01*
X129502300Y-101463866D01*
X129502300Y-103260134D01*
X108926207Y-103260134D01*
X108819670Y-103143051D01*
X108815619Y-103139852D01*
X108815615Y-103139848D01*
X108648414Y-103007800D01*
X108648410Y-103007798D01*
X108644359Y-103004598D01*
X108603053Y-102981796D01*
X108553084Y-102931364D01*
X108538312Y-102861921D01*
X108563428Y-102795516D01*
X108590780Y-102768909D01*
X108634603Y-102737650D01*
X108769860Y-102641173D01*
X108928096Y-102483489D01*
X108987594Y-102400689D01*
X109055435Y-102306277D01*
X109058453Y-102302077D01*
X109157430Y-102101811D01*
X109222370Y-101888069D01*
X109251529Y-101666590D01*
X109253156Y-101600000D01*
X109234852Y-101377361D01*
X109180431Y-101160702D01*
X109091354Y-100955840D01*
X108970014Y-100768277D01*
X108966540Y-100764459D01*
X108966533Y-100764450D01*
X108822435Y-100606088D01*
X108791383Y-100542242D01*
X108799779Y-100471744D01*
X108844956Y-100416976D01*
X108871400Y-100403307D01*
X108978052Y-100363325D01*
X108993649Y-100354786D01*
X109095724Y-100278285D01*
X109108285Y-100265724D01*
X109184786Y-100163649D01*
X109193324Y-100148054D01*
X109238478Y-100027606D01*
X109242105Y-100012351D01*
X109247631Y-99961486D01*
X109248000Y-99954672D01*
X109248000Y-99332115D01*
X109243525Y-99316876D01*
X109242135Y-99315671D01*
X109234452Y-99314000D01*
X106550116Y-99314000D01*
X106534877Y-99318475D01*
X106533672Y-99319865D01*
X106532001Y-99327548D01*
X106532001Y-99954669D01*
X106532371Y-99961490D01*
X106537895Y-100012352D01*
X106541521Y-100027604D01*
X106586676Y-100148054D01*
X106595214Y-100163649D01*
X106671715Y-100265724D01*
X106684276Y-100278285D01*
X106786351Y-100354786D01*
X106801946Y-100363324D01*
X106910827Y-100404142D01*
X106967591Y-100446784D01*
X106992291Y-100513345D01*
X106977083Y-100582694D01*
X106957691Y-100609175D01*
X106834200Y-100738401D01*
X106830629Y-100742138D01*
X106704743Y-100926680D01*
X106610688Y-101129305D01*
X106550989Y-101344570D01*
X106527251Y-101566695D01*
X106527548Y-101571848D01*
X106527548Y-101571851D01*
X106533011Y-101666590D01*
X106540110Y-101789715D01*
X106541247Y-101794761D01*
X106541248Y-101794767D01*
X106561119Y-101882939D01*
X106589222Y-102007639D01*
X106673266Y-102214616D01*
X106789987Y-102405088D01*
X106936250Y-102573938D01*
X107108126Y-102716632D01*
X107178595Y-102757811D01*
X107181445Y-102759476D01*
X107230169Y-102811114D01*
X107243240Y-102880897D01*
X107216509Y-102946669D01*
X107176055Y-102980027D01*
X107163607Y-102986507D01*
X107159474Y-102989610D01*
X107159471Y-102989612D01*
X107070550Y-103056376D01*
X106984965Y-103120635D01*
X106981393Y-103124373D01*
X106851657Y-103260134D01*
X106830629Y-103282138D01*
X106704743Y-103466680D01*
X106689003Y-103500590D01*
X106655030Y-103573779D01*
X106610688Y-103669305D01*
X106550989Y-103884570D01*
X106527251Y-104106695D01*
X106527548Y-104111848D01*
X106527548Y-104111851D01*
X106537811Y-104289849D01*
X106540110Y-104329715D01*
X106541247Y-104334761D01*
X106541248Y-104334767D01*
X106561119Y-104422939D01*
X106589222Y-104547639D01*
X106673266Y-104754616D01*
X106789987Y-104945088D01*
X106936250Y-105113938D01*
X107108126Y-105256632D01*
X107178595Y-105297811D01*
X107181445Y-105299476D01*
X107230169Y-105351114D01*
X107243240Y-105420897D01*
X107216509Y-105486669D01*
X107176055Y-105520027D01*
X107163607Y-105526507D01*
X107159474Y-105529610D01*
X107159471Y-105529612D01*
X106989100Y-105657530D01*
X106984965Y-105660635D01*
X106981393Y-105664373D01*
X106898580Y-105751032D01*
X106830629Y-105822138D01*
X106827715Y-105826410D01*
X106827714Y-105826411D01*
X106765717Y-105917296D01*
X106704743Y-106006680D01*
X106610688Y-106209305D01*
X106550989Y-106424570D01*
X106527251Y-106646695D01*
X106527548Y-106651848D01*
X106527548Y-106651851D01*
X106533011Y-106746590D01*
X106540110Y-106869715D01*
X106541247Y-106874761D01*
X106541248Y-106874767D01*
X106561119Y-106962939D01*
X106589222Y-107087639D01*
X106673266Y-107294616D01*
X106697154Y-107333598D01*
X106763463Y-107441804D01*
X106789987Y-107485088D01*
X106936250Y-107653938D01*
X107108126Y-107796632D01*
X107178595Y-107837811D01*
X107181445Y-107839476D01*
X107230169Y-107891114D01*
X107243240Y-107960897D01*
X107216509Y-108026669D01*
X107176055Y-108060027D01*
X107163607Y-108066507D01*
X107159474Y-108069610D01*
X107159471Y-108069612D01*
X107135247Y-108087800D01*
X106984965Y-108200635D01*
X106830629Y-108362138D01*
X106704743Y-108546680D01*
X106610688Y-108749305D01*
X106550989Y-108964570D01*
X106527251Y-109186695D01*
X98298500Y-109186695D01*
X98298500Y-104115774D01*
X101358102Y-104115774D01*
X101358302Y-104121103D01*
X101358302Y-104121105D01*
X101360923Y-104190918D01*
X101366751Y-104346158D01*
X101414093Y-104571791D01*
X101416051Y-104576750D01*
X101416052Y-104576752D01*
X101486295Y-104754616D01*
X101498776Y-104786221D01*
X101618377Y-104983317D01*
X101621874Y-104987347D01*
X101731724Y-105113938D01*
X101769477Y-105157445D01*
X101805120Y-105186670D01*
X101845114Y-105245329D01*
X101847046Y-105316299D01*
X101810302Y-105377048D01*
X101791532Y-105391248D01*
X101743620Y-105420897D01*
X101645652Y-105481522D01*
X101520695Y-105606697D01*
X101516855Y-105612927D01*
X101516854Y-105612928D01*
X101473630Y-105683051D01*
X101427885Y-105757262D01*
X101372203Y-105925139D01*
X101361500Y-106029600D01*
X101361500Y-107330400D01*
X101361837Y-107333646D01*
X101361837Y-107333650D01*
X101370583Y-107417939D01*
X101372474Y-107436166D01*
X101374655Y-107442702D01*
X101374655Y-107442704D01*
X101418728Y-107574806D01*
X101428450Y-107603946D01*
X101521522Y-107754348D01*
X101646697Y-107879305D01*
X101652927Y-107883145D01*
X101652928Y-107883146D01*
X101790090Y-107967694D01*
X101797262Y-107972115D01*
X101810899Y-107976638D01*
X101958611Y-108025632D01*
X101958613Y-108025632D01*
X101965139Y-108027797D01*
X101971975Y-108028497D01*
X101971978Y-108028498D01*
X102015031Y-108032909D01*
X102069600Y-108038500D01*
X103670400Y-108038500D01*
X103673646Y-108038163D01*
X103673650Y-108038163D01*
X103769308Y-108028238D01*
X103769312Y-108028237D01*
X103776166Y-108027526D01*
X103782702Y-108025345D01*
X103782704Y-108025345D01*
X103928695Y-107976638D01*
X103943946Y-107971550D01*
X104094348Y-107878478D01*
X104219305Y-107753303D01*
X104241357Y-107717529D01*
X104308275Y-107608968D01*
X104308276Y-107608966D01*
X104312115Y-107602738D01*
X104357562Y-107465718D01*
X104365632Y-107441389D01*
X104365632Y-107441387D01*
X104367797Y-107434861D01*
X104378500Y-107330400D01*
X104378500Y-106029600D01*
X104370716Y-105954576D01*
X104368238Y-105930692D01*
X104368237Y-105930688D01*
X104367526Y-105923834D01*
X104333598Y-105822138D01*
X104313868Y-105763002D01*
X104311550Y-105756054D01*
X104218478Y-105605652D01*
X104093303Y-105480695D01*
X104078166Y-105471364D01*
X104051363Y-105454843D01*
X103947660Y-105390919D01*
X103900168Y-105338148D01*
X103888744Y-105268076D01*
X103917018Y-105202952D01*
X103926805Y-105192490D01*
X104009148Y-105113938D01*
X104041135Y-105083424D01*
X104178754Y-104898458D01*
X104283240Y-104692949D01*
X104319321Y-104576752D01*
X104350024Y-104477871D01*
X104351607Y-104472773D01*
X104358212Y-104422939D01*
X104381198Y-104249511D01*
X104381198Y-104249506D01*
X104381898Y-104244226D01*
X104378889Y-104164061D01*
X104373449Y-104019173D01*
X104373249Y-104013842D01*
X104325907Y-103788209D01*
X104299022Y-103720131D01*
X104243185Y-103578744D01*
X104243184Y-103578742D01*
X104241224Y-103573779D01*
X104237767Y-103568081D01*
X104124390Y-103381243D01*
X104121623Y-103376683D01*
X104118126Y-103372653D01*
X103974023Y-103206588D01*
X103974021Y-103206586D01*
X103970523Y-103202555D01*
X103897953Y-103143051D01*
X103796373Y-103059760D01*
X103796367Y-103059756D01*
X103792245Y-103056376D01*
X103787609Y-103053737D01*
X103787606Y-103053735D01*
X103596529Y-102944968D01*
X103591886Y-102942325D01*
X103375175Y-102863663D01*
X103369926Y-102862714D01*
X103369923Y-102862713D01*
X103152392Y-102823377D01*
X103152385Y-102823376D01*
X103148308Y-102822639D01*
X103130586Y-102821803D01*
X103125644Y-102821570D01*
X103125637Y-102821570D01*
X103124156Y-102821500D01*
X102662110Y-102821500D01*
X102595191Y-102827178D01*
X102495591Y-102835629D01*
X102495587Y-102835630D01*
X102490280Y-102836080D01*
X102485125Y-102837418D01*
X102485119Y-102837419D01*
X102272297Y-102892657D01*
X102272293Y-102892658D01*
X102267128Y-102893999D01*
X102262262Y-102896191D01*
X102262259Y-102896192D01*
X102153980Y-102944968D01*
X102056925Y-102988688D01*
X101865681Y-103117441D01*
X101861824Y-103121120D01*
X101861822Y-103121122D01*
X101792464Y-103187287D01*
X101698865Y-103276576D01*
X101695682Y-103280854D01*
X101678121Y-103304457D01*
X101561246Y-103461542D01*
X101558830Y-103466293D01*
X101558828Y-103466297D01*
X101543808Y-103495840D01*
X101456760Y-103667051D01*
X101455178Y-103672145D01*
X101455177Y-103672148D01*
X101393115Y-103872020D01*
X101388393Y-103887227D01*
X101387692Y-103892516D01*
X101359986Y-104101562D01*
X101358102Y-104115774D01*
X98298500Y-104115774D01*
X98298500Y-95225774D01*
X101358102Y-95225774D01*
X101366751Y-95456158D01*
X101414093Y-95681791D01*
X101498776Y-95896221D01*
X101618377Y-96093317D01*
X101621874Y-96097347D01*
X101708438Y-96197103D01*
X101769477Y-96267445D01*
X101805120Y-96296670D01*
X101845114Y-96355329D01*
X101847046Y-96426299D01*
X101810302Y-96487048D01*
X101791532Y-96501248D01*
X101660579Y-96582285D01*
X101645652Y-96591522D01*
X101520695Y-96716697D01*
X101427885Y-96867262D01*
X101372203Y-97035139D01*
X101361500Y-97139600D01*
X101361500Y-98440400D01*
X101372474Y-98546166D01*
X101428450Y-98713946D01*
X101521522Y-98864348D01*
X101646697Y-98989305D01*
X101652927Y-98993145D01*
X101652928Y-98993146D01*
X101790090Y-99077694D01*
X101797262Y-99082115D01*
X101877005Y-99108564D01*
X101958611Y-99135632D01*
X101958613Y-99135632D01*
X101965139Y-99137797D01*
X101971975Y-99138497D01*
X101971978Y-99138498D01*
X102015031Y-99142909D01*
X102069600Y-99148500D01*
X103670400Y-99148500D01*
X103673646Y-99148163D01*
X103673650Y-99148163D01*
X103769308Y-99138238D01*
X103769312Y-99138237D01*
X103776166Y-99137526D01*
X103782702Y-99135345D01*
X103782704Y-99135345D01*
X103914806Y-99091272D01*
X103943946Y-99081550D01*
X104094348Y-98988478D01*
X104219305Y-98863303D01*
X104257386Y-98801525D01*
X104265794Y-98787885D01*
X106532000Y-98787885D01*
X106536475Y-98803124D01*
X106537865Y-98804329D01*
X106545548Y-98806000D01*
X107617885Y-98806000D01*
X107633124Y-98801525D01*
X107634329Y-98800135D01*
X107636000Y-98792452D01*
X107636000Y-98787885D01*
X108144000Y-98787885D01*
X108148475Y-98803124D01*
X108149865Y-98804329D01*
X108157548Y-98806000D01*
X109229884Y-98806000D01*
X109245123Y-98801525D01*
X109246328Y-98800135D01*
X109247999Y-98792452D01*
X109247999Y-98165331D01*
X109247629Y-98158510D01*
X109242105Y-98107648D01*
X109238479Y-98092396D01*
X109193324Y-97971946D01*
X109184786Y-97956351D01*
X109108285Y-97854276D01*
X109095724Y-97841715D01*
X108993649Y-97765214D01*
X108978054Y-97756676D01*
X108857606Y-97711522D01*
X108842351Y-97707895D01*
X108791486Y-97702369D01*
X108784672Y-97702000D01*
X108162115Y-97702000D01*
X108146876Y-97706475D01*
X108145671Y-97707865D01*
X108144000Y-97715548D01*
X108144000Y-98787885D01*
X107636000Y-98787885D01*
X107636000Y-97720116D01*
X107631525Y-97704877D01*
X107630135Y-97703672D01*
X107622452Y-97702001D01*
X106995331Y-97702001D01*
X106988510Y-97702371D01*
X106937648Y-97707895D01*
X106922396Y-97711521D01*
X106801946Y-97756676D01*
X106786351Y-97765214D01*
X106684276Y-97841715D01*
X106671715Y-97854276D01*
X106595214Y-97956351D01*
X106586676Y-97971946D01*
X106541522Y-98092394D01*
X106537895Y-98107649D01*
X106532369Y-98158514D01*
X106532000Y-98165328D01*
X106532000Y-98787885D01*
X104265794Y-98787885D01*
X104308275Y-98718968D01*
X104308276Y-98718966D01*
X104312115Y-98712738D01*
X104367797Y-98544861D01*
X104378500Y-98440400D01*
X104378500Y-97139600D01*
X104367526Y-97033834D01*
X104311550Y-96866054D01*
X104218478Y-96715652D01*
X104093303Y-96590695D01*
X103947660Y-96500919D01*
X103900168Y-96448148D01*
X103888744Y-96378076D01*
X103917018Y-96312952D01*
X103926805Y-96302490D01*
X104037278Y-96197103D01*
X104041135Y-96193424D01*
X104178754Y-96008458D01*
X104283240Y-95802949D01*
X104319321Y-95686752D01*
X104350024Y-95587871D01*
X104351607Y-95582773D01*
X104352308Y-95577484D01*
X104381198Y-95359511D01*
X104381198Y-95359506D01*
X104381898Y-95354226D01*
X104373249Y-95123842D01*
X104325907Y-94898209D01*
X104241224Y-94683779D01*
X104121623Y-94486683D01*
X104034755Y-94386576D01*
X103974023Y-94316588D01*
X103974021Y-94316586D01*
X103970523Y-94312555D01*
X103928970Y-94278484D01*
X103796373Y-94169760D01*
X103796367Y-94169756D01*
X103792245Y-94166376D01*
X103787609Y-94163737D01*
X103787606Y-94163735D01*
X103596529Y-94054968D01*
X103591886Y-94052325D01*
X103375175Y-93973663D01*
X103369926Y-93972714D01*
X103369923Y-93972713D01*
X103152392Y-93933377D01*
X103152385Y-93933376D01*
X103148308Y-93932639D01*
X103130586Y-93931803D01*
X103125644Y-93931570D01*
X103125637Y-93931570D01*
X103124156Y-93931500D01*
X102662110Y-93931500D01*
X102595191Y-93937178D01*
X102495591Y-93945629D01*
X102495587Y-93945630D01*
X102490280Y-93946080D01*
X102485125Y-93947418D01*
X102485119Y-93947419D01*
X102272297Y-94002657D01*
X102272293Y-94002658D01*
X102267128Y-94003999D01*
X102262262Y-94006191D01*
X102262259Y-94006192D01*
X102153980Y-94054968D01*
X102056925Y-94098688D01*
X101865681Y-94227441D01*
X101698865Y-94386576D01*
X101561246Y-94571542D01*
X101456760Y-94777051D01*
X101455178Y-94782145D01*
X101455177Y-94782148D01*
X101393115Y-94982020D01*
X101388393Y-94997227D01*
X101387692Y-95002516D01*
X101372304Y-95118623D01*
X101358102Y-95225774D01*
X98298500Y-95225774D01*
X98298500Y-92646695D01*
X109067251Y-92646695D01*
X109067548Y-92651848D01*
X109067548Y-92651851D01*
X109073011Y-92746590D01*
X109080110Y-92869715D01*
X109081247Y-92874761D01*
X109081248Y-92874767D01*
X109101119Y-92962939D01*
X109129222Y-93087639D01*
X109213266Y-93294616D01*
X109329987Y-93485088D01*
X109476250Y-93653938D01*
X109648126Y-93796632D01*
X109841000Y-93909338D01*
X109845825Y-93911180D01*
X109845826Y-93911181D01*
X109901508Y-93932444D01*
X110049692Y-93989030D01*
X110054760Y-93990061D01*
X110054763Y-93990062D01*
X110134045Y-94006192D01*
X110268597Y-94033567D01*
X110273772Y-94033757D01*
X110273774Y-94033757D01*
X110486673Y-94041564D01*
X110486677Y-94041564D01*
X110491837Y-94041753D01*
X110496957Y-94041097D01*
X110496959Y-94041097D01*
X110708288Y-94014025D01*
X110708289Y-94014025D01*
X110713416Y-94013368D01*
X110737335Y-94006192D01*
X110922429Y-93950661D01*
X110922434Y-93950659D01*
X110927384Y-93949174D01*
X111127994Y-93850896D01*
X111309860Y-93721173D01*
X111468096Y-93563489D01*
X111527594Y-93480689D01*
X111595435Y-93386277D01*
X111598453Y-93382077D01*
X111697430Y-93181811D01*
X111762370Y-92968069D01*
X111791529Y-92746590D01*
X111793156Y-92680000D01*
X111774852Y-92457361D01*
X111720431Y-92240702D01*
X111631354Y-92035840D01*
X111510014Y-91848277D01*
X111359670Y-91683051D01*
X111355619Y-91679852D01*
X111355615Y-91679848D01*
X111188414Y-91547800D01*
X111188410Y-91547798D01*
X111184359Y-91544598D01*
X111143053Y-91521796D01*
X111093084Y-91471364D01*
X111078312Y-91401921D01*
X111103428Y-91335516D01*
X111130780Y-91308909D01*
X111174603Y-91277650D01*
X111309860Y-91181173D01*
X111468096Y-91023489D01*
X111527594Y-90940689D01*
X111595435Y-90846277D01*
X111598453Y-90842077D01*
X111697430Y-90641811D01*
X111762370Y-90428069D01*
X111791529Y-90206590D01*
X111793156Y-90140000D01*
X111774852Y-89917361D01*
X111720431Y-89700702D01*
X111631354Y-89495840D01*
X111510014Y-89308277D01*
X111359670Y-89143051D01*
X111355619Y-89139852D01*
X111355615Y-89139848D01*
X111188414Y-89007800D01*
X111188410Y-89007798D01*
X111184359Y-89004598D01*
X111143053Y-88981796D01*
X111093084Y-88931364D01*
X111078312Y-88861921D01*
X111103428Y-88795516D01*
X111130780Y-88768909D01*
X111174603Y-88737650D01*
X111309860Y-88641173D01*
X111468096Y-88483489D01*
X111527594Y-88400689D01*
X111595435Y-88306277D01*
X111598453Y-88302077D01*
X111697430Y-88101811D01*
X111762370Y-87888069D01*
X111791529Y-87666590D01*
X111793156Y-87600000D01*
X111774852Y-87377361D01*
X111720431Y-87160702D01*
X111631354Y-86955840D01*
X111510014Y-86768277D01*
X111506540Y-86764459D01*
X111506533Y-86764450D01*
X111362435Y-86606088D01*
X111331383Y-86542242D01*
X111339779Y-86471744D01*
X111384956Y-86416976D01*
X111411400Y-86403307D01*
X111518052Y-86363325D01*
X111533649Y-86354786D01*
X111635724Y-86278285D01*
X111648285Y-86265724D01*
X111724786Y-86163649D01*
X111733324Y-86148054D01*
X111778478Y-86027606D01*
X111782105Y-86012351D01*
X111787631Y-85961486D01*
X111788000Y-85954672D01*
X111788000Y-85332115D01*
X111783525Y-85316876D01*
X111782135Y-85315671D01*
X111774452Y-85314000D01*
X109090116Y-85314000D01*
X109074877Y-85318475D01*
X109073672Y-85319865D01*
X109072001Y-85327548D01*
X109072001Y-85954669D01*
X109072371Y-85961490D01*
X109077895Y-86012352D01*
X109081521Y-86027604D01*
X109126676Y-86148054D01*
X109135214Y-86163649D01*
X109211715Y-86265724D01*
X109224276Y-86278285D01*
X109326351Y-86354786D01*
X109341946Y-86363324D01*
X109450827Y-86404142D01*
X109507591Y-86446784D01*
X109532291Y-86513345D01*
X109517083Y-86582694D01*
X109497691Y-86609175D01*
X109456028Y-86652773D01*
X109370629Y-86742138D01*
X109244743Y-86926680D01*
X109226389Y-86966221D01*
X109172303Y-87082740D01*
X109150688Y-87129305D01*
X109090989Y-87344570D01*
X109067251Y-87566695D01*
X109067548Y-87571848D01*
X109067548Y-87571851D01*
X109072969Y-87665866D01*
X109080110Y-87789715D01*
X109081247Y-87794761D01*
X109081248Y-87794767D01*
X109101119Y-87882939D01*
X109129222Y-88007639D01*
X109190673Y-88158976D01*
X109209931Y-88206402D01*
X109213266Y-88214616D01*
X109329987Y-88405088D01*
X109476250Y-88573938D01*
X109648126Y-88716632D01*
X109718595Y-88757811D01*
X109721445Y-88759476D01*
X109770169Y-88811114D01*
X109783240Y-88880897D01*
X109756509Y-88946669D01*
X109716055Y-88980027D01*
X109703607Y-88986507D01*
X109699474Y-88989610D01*
X109699471Y-88989612D01*
X109675247Y-89007800D01*
X109524965Y-89120635D01*
X109370629Y-89282138D01*
X109244743Y-89466680D01*
X109197715Y-89567993D01*
X109178538Y-89609308D01*
X109150688Y-89669305D01*
X109090989Y-89884570D01*
X109067251Y-90106695D01*
X109067548Y-90111848D01*
X109067548Y-90111851D01*
X109079812Y-90324547D01*
X109080110Y-90329715D01*
X109081247Y-90334761D01*
X109081248Y-90334767D01*
X109101119Y-90422939D01*
X109129222Y-90547639D01*
X109213266Y-90754616D01*
X109329987Y-90945088D01*
X109476250Y-91113938D01*
X109648126Y-91256632D01*
X109718595Y-91297811D01*
X109721445Y-91299476D01*
X109770169Y-91351114D01*
X109783240Y-91420897D01*
X109756509Y-91486669D01*
X109716055Y-91520027D01*
X109703607Y-91526507D01*
X109699474Y-91529610D01*
X109699471Y-91529612D01*
X109675247Y-91547800D01*
X109524965Y-91660635D01*
X109370629Y-91822138D01*
X109244743Y-92006680D01*
X109150688Y-92209305D01*
X109090989Y-92424570D01*
X109067251Y-92646695D01*
X98298500Y-92646695D01*
X98298500Y-86295774D01*
X101383102Y-86295774D01*
X101391751Y-86526158D01*
X101392846Y-86531377D01*
X101415422Y-86638974D01*
X101439093Y-86751791D01*
X101441051Y-86756750D01*
X101441052Y-86756752D01*
X101510015Y-86931375D01*
X101523776Y-86966221D01*
X101643377Y-87163317D01*
X101646874Y-87167347D01*
X101733438Y-87267103D01*
X101794477Y-87337445D01*
X101830120Y-87366670D01*
X101870114Y-87425329D01*
X101872046Y-87496299D01*
X101835302Y-87557048D01*
X101816532Y-87571248D01*
X101815558Y-87571851D01*
X101670652Y-87661522D01*
X101545695Y-87786697D01*
X101541855Y-87792927D01*
X101541854Y-87792928D01*
X101540721Y-87794767D01*
X101452885Y-87937262D01*
X101397203Y-88105139D01*
X101386500Y-88209600D01*
X101386500Y-89510400D01*
X101397474Y-89616166D01*
X101399655Y-89622702D01*
X101399655Y-89622704D01*
X101427352Y-89705720D01*
X101453450Y-89783946D01*
X101546522Y-89934348D01*
X101671697Y-90059305D01*
X101677927Y-90063145D01*
X101677928Y-90063146D01*
X101815090Y-90147694D01*
X101822262Y-90152115D01*
X101902005Y-90178564D01*
X101983611Y-90205632D01*
X101983613Y-90205632D01*
X101990139Y-90207797D01*
X101996975Y-90208497D01*
X101996978Y-90208498D01*
X102040031Y-90212909D01*
X102094600Y-90218500D01*
X103645400Y-90218500D01*
X103648646Y-90218163D01*
X103648650Y-90218163D01*
X103744308Y-90208238D01*
X103744312Y-90208237D01*
X103751166Y-90207526D01*
X103757702Y-90205345D01*
X103757704Y-90205345D01*
X103889806Y-90161272D01*
X103918946Y-90151550D01*
X104069348Y-90058478D01*
X104194305Y-89933303D01*
X104287115Y-89782738D01*
X104342797Y-89614861D01*
X104353500Y-89510400D01*
X104353500Y-88209600D01*
X104342526Y-88103834D01*
X104340199Y-88096857D01*
X104288868Y-87943002D01*
X104286550Y-87936054D01*
X104193478Y-87785652D01*
X104068303Y-87660695D01*
X103922660Y-87570919D01*
X103875168Y-87518148D01*
X103863744Y-87448076D01*
X103892018Y-87382952D01*
X103901805Y-87372490D01*
X104012278Y-87267103D01*
X104016135Y-87263424D01*
X104153754Y-87078458D01*
X104258240Y-86872949D01*
X104294321Y-86756752D01*
X104325024Y-86657871D01*
X104326607Y-86652773D01*
X104336168Y-86580635D01*
X104356198Y-86429511D01*
X104356198Y-86429506D01*
X104356898Y-86424226D01*
X104348249Y-86193842D01*
X104300907Y-85968209D01*
X104216224Y-85753779D01*
X104096623Y-85556683D01*
X104009755Y-85456576D01*
X103949023Y-85386588D01*
X103949021Y-85386586D01*
X103945523Y-85382555D01*
X103863952Y-85315671D01*
X103771373Y-85239760D01*
X103771367Y-85239756D01*
X103767245Y-85236376D01*
X103735750Y-85218448D01*
X103686445Y-85167368D01*
X103672583Y-85097738D01*
X103698566Y-85031667D01*
X103727716Y-85004427D01*
X103763642Y-84980240D01*
X103849319Y-84922559D01*
X103990493Y-84787885D01*
X109072000Y-84787885D01*
X109076475Y-84803124D01*
X109077865Y-84804329D01*
X109085548Y-84806000D01*
X110157885Y-84806000D01*
X110173124Y-84801525D01*
X110174329Y-84800135D01*
X110176000Y-84792452D01*
X110176000Y-84787885D01*
X110684000Y-84787885D01*
X110688475Y-84803124D01*
X110689865Y-84804329D01*
X110697548Y-84806000D01*
X111769884Y-84806000D01*
X111785123Y-84801525D01*
X111786328Y-84800135D01*
X111787999Y-84792452D01*
X111787999Y-84165331D01*
X111787629Y-84158510D01*
X111782105Y-84107648D01*
X111778479Y-84092396D01*
X111733324Y-83971946D01*
X111724786Y-83956351D01*
X111648285Y-83854276D01*
X111635724Y-83841715D01*
X111533649Y-83765214D01*
X111518054Y-83756676D01*
X111397606Y-83711522D01*
X111382351Y-83707895D01*
X111331486Y-83702369D01*
X111324672Y-83702000D01*
X110702115Y-83702000D01*
X110686876Y-83706475D01*
X110685671Y-83707865D01*
X110684000Y-83715548D01*
X110684000Y-84787885D01*
X110176000Y-84787885D01*
X110176000Y-83720116D01*
X110171525Y-83704877D01*
X110170135Y-83703672D01*
X110162452Y-83702001D01*
X109535331Y-83702001D01*
X109528510Y-83702371D01*
X109477648Y-83707895D01*
X109462396Y-83711521D01*
X109341946Y-83756676D01*
X109326351Y-83765214D01*
X109224276Y-83841715D01*
X109211715Y-83854276D01*
X109135214Y-83956351D01*
X109126676Y-83971946D01*
X109081522Y-84092394D01*
X109077895Y-84107649D01*
X109072369Y-84158514D01*
X109072000Y-84165328D01*
X109072000Y-84787885D01*
X103990493Y-84787885D01*
X104016135Y-84763424D01*
X104153754Y-84578458D01*
X104258240Y-84372949D01*
X104294321Y-84256752D01*
X104325024Y-84157871D01*
X104326607Y-84152773D01*
X104334609Y-84092396D01*
X104356198Y-83929511D01*
X104356198Y-83929506D01*
X104356898Y-83924226D01*
X104348249Y-83693842D01*
X104300907Y-83468209D01*
X104216224Y-83253779D01*
X104096623Y-83056683D01*
X104009755Y-82956576D01*
X103949023Y-82886588D01*
X103949021Y-82886586D01*
X103945523Y-82882555D01*
X103903970Y-82848484D01*
X103771373Y-82739760D01*
X103771367Y-82739756D01*
X103767245Y-82736376D01*
X103762609Y-82733737D01*
X103762606Y-82733735D01*
X103571529Y-82624968D01*
X103566886Y-82622325D01*
X103350175Y-82543663D01*
X103344926Y-82542714D01*
X103344923Y-82542713D01*
X103127392Y-82503377D01*
X103127385Y-82503376D01*
X103123308Y-82502639D01*
X103105586Y-82501803D01*
X103100644Y-82501570D01*
X103100637Y-82501570D01*
X103099156Y-82501500D01*
X102687110Y-82501500D01*
X102620191Y-82507178D01*
X102520591Y-82515629D01*
X102520587Y-82515630D01*
X102515280Y-82516080D01*
X102510125Y-82517418D01*
X102510119Y-82517419D01*
X102297297Y-82572657D01*
X102297293Y-82572658D01*
X102292128Y-82573999D01*
X102287262Y-82576191D01*
X102287259Y-82576192D01*
X102178980Y-82624968D01*
X102081925Y-82668688D01*
X101890681Y-82797441D01*
X101723865Y-82956576D01*
X101586246Y-83141542D01*
X101481760Y-83347051D01*
X101480178Y-83352145D01*
X101480177Y-83352148D01*
X101418115Y-83552020D01*
X101413393Y-83567227D01*
X101412692Y-83572516D01*
X101393130Y-83720116D01*
X101383102Y-83795774D01*
X101391751Y-84026158D01*
X101439093Y-84251791D01*
X101523776Y-84466221D01*
X101643377Y-84663317D01*
X101646874Y-84667347D01*
X101767191Y-84806000D01*
X101794477Y-84837445D01*
X101798608Y-84840832D01*
X101968627Y-84980240D01*
X101968633Y-84980244D01*
X101972755Y-84983624D01*
X102004250Y-85001552D01*
X102053555Y-85052632D01*
X102067417Y-85122262D01*
X102041434Y-85188333D01*
X102012284Y-85215573D01*
X101890681Y-85297441D01*
X101886824Y-85301120D01*
X101886822Y-85301122D01*
X101859121Y-85327548D01*
X101723865Y-85456576D01*
X101586246Y-85641542D01*
X101481760Y-85847051D01*
X101480178Y-85852145D01*
X101480177Y-85852148D01*
X101430433Y-86012351D01*
X101413393Y-86067227D01*
X101412692Y-86072516D01*
X101385994Y-86273955D01*
X101383102Y-86295774D01*
X98298500Y-86295774D01*
X98298500Y-80644500D01*
X98318502Y-80576379D01*
X98372158Y-80529886D01*
X98424500Y-80518500D01*
X141605500Y-80518500D01*
X141673621Y-80538502D01*
G37*
%TD.AperFunction*%
%TD*%
M02*
