M48
; DRILL file {KiCad (6.0.6)} date Wed Mar 15 14:04:23 2023
; FORMAT={-:-/ absolute / inch / decimal}
; #@! TF.CreationDate,2023-03-15T14:04:23+01:00
; #@! TF.GenerationSoftware,Kicad,Pcbnew,(6.0.6)
; #@! TF.FileFunction,Plated,1,2,PTH
FMAT,2
INCH
; #@! TA.AperFunction,Plated,PTH,ComponentDrill
T1C0.0272
; #@! TA.AperFunction,Plated,PTH,ComponentDrill
T2C0.0374
; #@! TA.AperFunction,Plated,PTH,ComponentDrill
T3C0.0394
%
G90
G05
T1
X4.4Y-4.7
X4.5Y-4.6
X4.5Y-4.8
X4.6Y-4.7
T2
X4.05Y-3.3016
X4.05Y-3.4
X4.05Y-3.4984
T3
X4.05Y-3.7516
X4.05Y-3.85
X4.05Y-4.1016
X4.05Y-4.2
X4.05Y-4.4516
X4.05Y-4.55
X4.05Y-4.8016
X4.05Y-4.9
X4.2476Y-3.9
X4.2476Y-4.0
X4.2476Y-4.1
X4.2476Y-4.2
X4.2476Y-4.3
X4.3476Y-3.3488
X4.3476Y-3.4488
X4.3476Y-3.5488
X4.3476Y-3.6488
X4.916Y-4.165
X4.916Y-4.435
X5.15Y-4.569
X5.152Y-4.03
X5.384Y-4.165
X5.384Y-4.435
T0
M30
