%TF.GenerationSoftware,KiCad,Pcbnew,(6.0.6)*%
%TF.CreationDate,2023-03-15T14:09:06+01:00*%
%TF.ProjectId,Shield_Raspy,53686965-6c64-45f5-9261-7370792e6b69,rev?*%
%TF.SameCoordinates,Original*%
%TF.FileFunction,Copper,L1,Top*%
%TF.FilePolarity,Positive*%
%FSLAX46Y46*%
G04 Gerber Fmt 4.6, Leading zero omitted, Abs format (unit mm)*
G04 Created by KiCad (PCBNEW (6.0.6)) date 2023-03-15 14:09:06*
%MOMM*%
%LPD*%
G01*
G04 APERTURE LIST*
%TA.AperFunction,ComponentPad*%
%ADD10R,1.530000X1.530000*%
%TD*%
%TA.AperFunction,ComponentPad*%
%ADD11C,1.530000*%
%TD*%
%TA.AperFunction,ComponentPad*%
%ADD12R,1.000000X1.000000*%
%TD*%
%TA.AperFunction,ComponentPad*%
%ADD13O,1.000000X1.000000*%
%TD*%
%TA.AperFunction,ComponentPad*%
%ADD14R,1.524000X1.524000*%
%TD*%
%TA.AperFunction,ComponentPad*%
%ADD15C,1.524000*%
%TD*%
%TA.AperFunction,ComponentPad*%
%ADD16C,6.200000*%
%TD*%
%TA.AperFunction,ComponentPad*%
%ADD17R,1.700000X1.700000*%
%TD*%
%TA.AperFunction,ComponentPad*%
%ADD18O,1.700000X1.700000*%
%TD*%
G04 APERTURE END LIST*
D10*
%TO.P,U2,CN3_1,PA9*%
%TO.N,UART2_Nucleo_TX_PM25_RX*%
X180086000Y-87335000D03*
D11*
%TO.P,U2,CN3_2,PA10*%
%TO.N,UART2_Nucleo_RX_PM25_TX*%
X180086000Y-84795000D03*
%TO.P,U2,CN3_3,NRST_CN3*%
%TO.N,unconnected-(U2-PadCN3_3)*%
X180086000Y-82255000D03*
%TO.P,U2,CN3_4,GND_CN3*%
%TO.N,unconnected-(U2-PadCN3_4)*%
X180086000Y-79715000D03*
%TO.P,U2,CN3_5,PA12*%
%TO.N,UART3_Nucleo_RX_CO2_TX*%
X180086000Y-77175000D03*
%TO.P,U2,CN3_6,PB0*%
%TO.N,UART3_Nucleo_TX_CO2_RX*%
X180086000Y-74635000D03*
%TO.P,U2,CN3_7,PB7*%
%TO.N,unconnected-(U2-PadCN3_7)*%
X180086000Y-72095000D03*
%TO.P,U2,CN3_8,PB6*%
%TO.N,unconnected-(U2-PadCN3_8)*%
X180086000Y-69555000D03*
%TO.P,U2,CN3_9,PB1*%
%TO.N,unconnected-(U2-PadCN3_9)*%
X180086000Y-67015000D03*
%TO.P,U2,CN3_10,PC14*%
%TO.N,unconnected-(U2-PadCN3_10)*%
X180086000Y-64475000D03*
%TO.P,U2,CN3_11,PC15*%
%TO.N,unconnected-(U2-PadCN3_11)*%
X180086000Y-61935000D03*
%TO.P,U2,CN3_12,PA8*%
%TO.N,unconnected-(U2-PadCN3_12)*%
X180086000Y-59395000D03*
%TO.P,U2,CN3_13,PA11*%
%TO.N,unconnected-(U2-PadCN3_13)*%
X180086000Y-56855000D03*
%TO.P,U2,CN3_14,PB5*%
%TO.N,unconnected-(U2-PadCN3_14)*%
X180086000Y-54315000D03*
%TO.P,U2,CN3_15,PB4*%
%TO.N,unconnected-(U2-PadCN3_15)*%
X180086000Y-51775000D03*
D10*
%TO.P,U2,CN4_1,VIN*%
%TO.N,+5V*%
X164846000Y-87335000D03*
D11*
%TO.P,U2,CN4_2,GND_CN4*%
%TO.N,GND*%
X164846000Y-84795000D03*
%TO.P,U2,CN4_3,NRST_CN4*%
%TO.N,unconnected-(U2-PadCN4_3)*%
X164846000Y-82255000D03*
%TO.P,U2,CN4_4,+5V*%
%TO.N,unconnected-(U2-PadCN4_4)*%
X164846000Y-79715000D03*
%TO.P,U2,CN4_5,PA2*%
%TO.N,UART_Nucleo_TX_RPi_RX*%
X164846000Y-77175000D03*
%TO.P,U2,CN4_6,PA7*%
%TO.N,unconnected-(U2-PadCN4_6)*%
X164846000Y-74635000D03*
%TO.P,U2,CN4_7,PA6*%
%TO.N,unconnected-(U2-PadCN4_7)*%
X164846000Y-72095000D03*
%TO.P,U2,CN4_8,PA5*%
%TO.N,unconnected-(U2-PadCN4_8)*%
X164846000Y-69555000D03*
%TO.P,U2,CN4_9,PA4*%
%TO.N,unconnected-(U2-PadCN4_9)*%
X164846000Y-67015000D03*
%TO.P,U2,CN4_10,PA3*%
%TO.N,UART_Nucleo_RX_RPi_TX*%
X164846000Y-64475000D03*
%TO.P,U2,CN4_11,PA1*%
%TO.N,unconnected-(U2-PadCN4_11)*%
X164846000Y-61935000D03*
%TO.P,U2,CN4_12,PA0*%
%TO.N,unconnected-(U2-PadCN4_12)*%
X164846000Y-59395000D03*
%TO.P,U2,CN4_13,AREF*%
%TO.N,unconnected-(U2-PadCN4_13)*%
X164846000Y-56855000D03*
%TO.P,U2,CN4_14,+3V3*%
%TO.N,unconnected-(U2-PadCN4_14)*%
X164846000Y-54315000D03*
%TO.P,U2,CN4_15,PB3*%
%TO.N,unconnected-(U2-PadCN4_15)*%
X164846000Y-51775000D03*
%TD*%
D12*
%TO.P,K1,1*%
%TO.N,+5V*%
X170180000Y-129540000D03*
D13*
%TO.P,K1,2*%
X168910000Y-129540000D03*
%TO.P,K1,3*%
%TO.N,GND*%
X170180000Y-128270000D03*
%TO.P,K1,4*%
X168910000Y-128270000D03*
%TO.P,K1,5*%
%TO.N,unconnected-(K1-Pad5)*%
X170180000Y-127000000D03*
%TO.P,K1,6*%
%TO.N,unconnected-(K1-Pad6)*%
X168910000Y-127000000D03*
%TO.P,K1,7*%
%TO.N,unconnected-(K1-Pad7)*%
X170180000Y-125730000D03*
%TO.P,K1,8*%
%TO.N,UART2_Nucleo_TX_PM25_RX*%
X168910000Y-125730000D03*
%TO.P,K1,9*%
%TO.N,unconnected-(K1-Pad9)*%
X170180000Y-124460000D03*
%TO.P,K1,10*%
%TO.N,UART2_Nucleo_RX_PM25_TX*%
X168910000Y-124460000D03*
%TD*%
D14*
%TO.P,J1,1,3V3*%
%TO.N,unconnected-(J1-Pad1)*%
X153024000Y-54770000D03*
D15*
%TO.P,J1,2,5V*%
%TO.N,+5V*%
X155564000Y-54770000D03*
%TO.P,J1,3,SDA/GPIO2*%
%TO.N,unconnected-(J1-Pad3)*%
X153024000Y-57310000D03*
%TO.P,J1,4,5V*%
%TO.N,unconnected-(J1-Pad4)*%
X155564000Y-57310000D03*
%TO.P,J1,5,SCL/GPIO3*%
%TO.N,unconnected-(J1-Pad5)*%
X153024000Y-59850000D03*
%TO.P,J1,6,GND*%
%TO.N,GND*%
X155564000Y-59850000D03*
%TO.P,J1,7,GCLK0/GPIO4*%
%TO.N,unconnected-(J1-Pad7)*%
X153024000Y-62390000D03*
%TO.P,J1,8,GPIO14/TXD*%
%TO.N,UART_Nucleo_RX_RPi_TX*%
X155564000Y-62390000D03*
%TO.P,J1,9,GND*%
%TO.N,unconnected-(J1-Pad9)*%
X153024000Y-64930000D03*
%TO.P,J1,10,GPIO15/RXD*%
%TO.N,UART_Nucleo_TX_RPi_RX*%
X155564000Y-64930000D03*
%TO.P,J1,11,GPIO17*%
%TO.N,unconnected-(J1-Pad11)*%
X153024000Y-67470000D03*
%TO.P,J1,12,GPIO18/PWM0*%
%TO.N,unconnected-(J1-Pad12)*%
X155564000Y-67470000D03*
%TO.P,J1,13,GPIO27*%
%TO.N,unconnected-(J1-Pad13)*%
X153024000Y-70010000D03*
%TO.P,J1,14,GND*%
%TO.N,unconnected-(J1-Pad14)*%
X155564000Y-70010000D03*
%TO.P,J1,15,GPIO22*%
%TO.N,unconnected-(J1-Pad15)*%
X153024000Y-72550000D03*
%TO.P,J1,16,GPIO23*%
%TO.N,unconnected-(J1-Pad16)*%
X155564000Y-72550000D03*
%TO.P,J1,17,3V3*%
%TO.N,unconnected-(J1-Pad17)*%
X153024000Y-75090000D03*
%TO.P,J1,18,GPIO24*%
%TO.N,unconnected-(J1-Pad18)*%
X155564000Y-75090000D03*
%TO.P,J1,19,MOSI0/GPIO10*%
%TO.N,unconnected-(J1-Pad19)*%
X153024000Y-77630000D03*
%TO.P,J1,20,GND*%
%TO.N,unconnected-(J1-Pad20)*%
X155564000Y-77630000D03*
%TO.P,J1,21,MISO0/GPIO9*%
%TO.N,unconnected-(J1-Pad21)*%
X153024000Y-80170000D03*
%TO.P,J1,22,GPIO25*%
%TO.N,unconnected-(J1-Pad22)*%
X155564000Y-80170000D03*
%TO.P,J1,23,SCLK0/GPIO11*%
%TO.N,unconnected-(J1-Pad23)*%
X153024000Y-82710000D03*
%TO.P,J1,24,~{CE0}/GPIO8*%
%TO.N,unconnected-(J1-Pad24)*%
X155564000Y-82710000D03*
%TO.P,J1,25,GND*%
%TO.N,unconnected-(J1-Pad25)*%
X153024000Y-85250000D03*
%TO.P,J1,26,~{CE1}/GPIO7*%
%TO.N,unconnected-(J1-Pad26)*%
X155564000Y-85250000D03*
%TO.P,J1,27,ID_SD/GPIO0*%
%TO.N,unconnected-(J1-Pad27)*%
X153024000Y-87790000D03*
%TO.P,J1,28,ID_SC/GPIO1*%
%TO.N,unconnected-(J1-Pad28)*%
X155564000Y-87790000D03*
%TO.P,J1,29,GCLK1/GPIO5*%
%TO.N,unconnected-(J1-Pad29)*%
X153024000Y-90330000D03*
%TO.P,J1,30,GND*%
%TO.N,unconnected-(J1-Pad30)*%
X155564000Y-90330000D03*
%TO.P,J1,31,GCLK2/GPIO6*%
%TO.N,unconnected-(J1-Pad31)*%
X153024000Y-92870000D03*
%TO.P,J1,32,PWM0/GPIO12*%
%TO.N,unconnected-(J1-Pad32)*%
X155564000Y-92870000D03*
%TO.P,J1,33,PWM1/GPIO13*%
%TO.N,unconnected-(J1-Pad33)*%
X153024000Y-95410000D03*
%TO.P,J1,34,GND*%
%TO.N,unconnected-(J1-Pad34)*%
X155564000Y-95410000D03*
%TO.P,J1,35,GPIO19/MISO1*%
%TO.N,unconnected-(J1-Pad35)*%
X153024000Y-97950000D03*
%TO.P,J1,36,GPIO16*%
%TO.N,unconnected-(J1-Pad36)*%
X155564000Y-97950000D03*
%TO.P,J1,37,GPIO26*%
%TO.N,unconnected-(J1-Pad37)*%
X153024000Y-100490000D03*
%TO.P,J1,38,GPIO20/MOSI1*%
%TO.N,unconnected-(J1-Pad38)*%
X155564000Y-100490000D03*
%TO.P,J1,39,GND*%
%TO.N,unconnected-(J1-Pad39)*%
X153024000Y-103030000D03*
%TO.P,J1,40,GPIO21/SCLK1*%
%TO.N,unconnected-(J1-Pad40)*%
X155564000Y-103030000D03*
%TO.P,J1,41*%
%TO.N,N/C*%
X146901000Y-109130000D03*
%TO.P,J1,42*%
X149441000Y-109130000D03*
%TO.P,J1,43*%
X146901000Y-106590000D03*
%TO.P,J1,44*%
X149441000Y-106590000D03*
D16*
%TO.P,J1,S1*%
X154294000Y-49900000D03*
%TO.P,J1,S2*%
X154294000Y-107900000D03*
%TO.P,J1,S3*%
X105294000Y-107900000D03*
%TO.P,J1,S4*%
X105294000Y-49900000D03*
%TD*%
D17*
%TO.P,U1,1,Vin*%
%TO.N,+5V*%
X196852000Y-93196000D03*
D18*
%TO.P,U1,2,Rx*%
%TO.N,UART3_Nucleo_TX_CO2_RX*%
X194310000Y-63694000D03*
%TO.P,U1,3,Tx*%
%TO.N,UART3_Nucleo_RX_CO2_TX*%
X191770000Y-63694000D03*
%TO.P,U1,4,Gnd*%
%TO.N,GND*%
X194312000Y-93196000D03*
%TO.P,U1,5*%
%TO.N,N/C*%
X191772000Y-93196000D03*
%TO.P,U1,6*%
X189232000Y-93196000D03*
D17*
%TO.P,U1,7*%
X196850000Y-63694000D03*
D18*
%TO.P,U1,8*%
X189230000Y-63694000D03*
%TO.P,U1,9*%
X186690000Y-63694000D03*
%TD*%
%TA.AperFunction,Conductor*%
%TO.N,GND*%
G36*
X200093621Y-43708502D02*
G01*
X200140114Y-43762158D01*
X200151500Y-43814500D01*
X200151500Y-133985500D01*
X200131498Y-134053621D01*
X200077842Y-134100114D01*
X200025500Y-134111500D01*
X97154500Y-134111500D01*
X97086379Y-134091498D01*
X97039886Y-134037842D01*
X97028500Y-133985500D01*
X97028500Y-129525851D01*
X167896719Y-129525851D01*
X167913268Y-129722934D01*
X167967783Y-129913050D01*
X168058187Y-130088956D01*
X168181035Y-130243953D01*
X168185728Y-130247947D01*
X168185729Y-130247948D01*
X168231269Y-130286705D01*
X168331650Y-130372136D01*
X168504294Y-130468624D01*
X168692392Y-130529740D01*
X168888777Y-130553158D01*
X168894912Y-130552686D01*
X168894914Y-130552686D01*
X169079830Y-130538457D01*
X169079834Y-130538456D01*
X169085972Y-130537984D01*
X169276463Y-130484798D01*
X169281959Y-130482022D01*
X169281961Y-130482021D01*
X169295716Y-130475073D01*
X169365538Y-130462214D01*
X169417368Y-130482514D01*
X169418240Y-130480921D01*
X169426109Y-130485229D01*
X169433295Y-130490615D01*
X169569684Y-130541745D01*
X169631866Y-130548500D01*
X170728134Y-130548500D01*
X170790316Y-130541745D01*
X170926705Y-130490615D01*
X171043261Y-130403261D01*
X171130615Y-130286705D01*
X171181745Y-130150316D01*
X171188500Y-130088134D01*
X171188500Y-128991866D01*
X171181745Y-128929684D01*
X171130615Y-128793295D01*
X171125229Y-128786108D01*
X171120921Y-128778240D01*
X171122789Y-128777217D01*
X171102139Y-128721945D01*
X171108255Y-128673117D01*
X171152142Y-128541189D01*
X171152643Y-128527097D01*
X171146454Y-128524000D01*
X167952282Y-128524000D01*
X167938751Y-128527973D01*
X167937601Y-128535975D01*
X167966552Y-128636941D01*
X167971067Y-128648345D01*
X168055794Y-128813207D01*
X168062432Y-128823507D01*
X168064131Y-128825650D01*
X168064667Y-128826975D01*
X168065774Y-128828692D01*
X168065448Y-128828902D01*
X168090770Y-128891460D01*
X168077600Y-128961224D01*
X168073979Y-128967316D01*
X168073846Y-128967474D01*
X167978567Y-129140787D01*
X167918765Y-129329306D01*
X167896719Y-129525851D01*
X97028500Y-129525851D01*
X97028500Y-126985851D01*
X167896719Y-126985851D01*
X167913268Y-127182934D01*
X167967783Y-127373050D01*
X168058187Y-127548956D01*
X168064164Y-127556497D01*
X168064843Y-127558174D01*
X168065353Y-127558966D01*
X168065203Y-127559063D01*
X168090802Y-127622304D01*
X168077633Y-127692069D01*
X168074254Y-127697754D01*
X168074262Y-127697758D01*
X167981998Y-127865585D01*
X167977166Y-127876858D01*
X167938506Y-127998731D01*
X167938202Y-128012831D01*
X167944763Y-128016000D01*
X171138183Y-128016000D01*
X171151714Y-128012027D01*
X171152806Y-128004433D01*
X171118231Y-127889919D01*
X171113560Y-127878586D01*
X171026537Y-127714918D01*
X171019435Y-127704228D01*
X170998398Y-127636420D01*
X171014827Y-127572264D01*
X171022327Y-127559063D01*
X171048783Y-127512492D01*
X171102723Y-127417542D01*
X171102725Y-127417537D01*
X171105769Y-127412179D01*
X171168197Y-127224513D01*
X171192985Y-127028295D01*
X171193380Y-127000000D01*
X171174080Y-126803167D01*
X171116916Y-126613831D01*
X171024066Y-126439204D01*
X171020167Y-126434424D01*
X171019715Y-126433743D01*
X170998676Y-126365935D01*
X171015105Y-126301775D01*
X171102723Y-126147542D01*
X171102725Y-126147537D01*
X171105769Y-126142179D01*
X171168197Y-125954513D01*
X171192985Y-125758295D01*
X171193380Y-125730000D01*
X171174080Y-125533167D01*
X171116916Y-125343831D01*
X171024066Y-125169204D01*
X171020167Y-125164424D01*
X171019715Y-125163743D01*
X170998676Y-125095935D01*
X171015105Y-125031775D01*
X171102723Y-124877542D01*
X171102725Y-124877537D01*
X171105769Y-124872179D01*
X171168197Y-124684513D01*
X171192985Y-124488295D01*
X171193380Y-124460000D01*
X171174080Y-124263167D01*
X171116916Y-124073831D01*
X171024066Y-123899204D01*
X170953709Y-123812938D01*
X170902960Y-123750713D01*
X170902957Y-123750710D01*
X170899065Y-123745938D01*
X170892724Y-123740692D01*
X170751425Y-123623799D01*
X170751421Y-123623797D01*
X170746675Y-123619870D01*
X170572701Y-123525802D01*
X170383768Y-123467318D01*
X170377643Y-123466674D01*
X170377642Y-123466674D01*
X170193204Y-123447289D01*
X170193202Y-123447289D01*
X170187075Y-123446645D01*
X170104576Y-123454153D01*
X169996251Y-123464011D01*
X169996248Y-123464012D01*
X169990112Y-123464570D01*
X169984206Y-123466308D01*
X169984202Y-123466309D01*
X169879076Y-123497249D01*
X169800381Y-123520410D01*
X169794923Y-123523263D01*
X169794919Y-123523265D01*
X169699135Y-123573340D01*
X169625110Y-123612040D01*
X169620310Y-123615900D01*
X169615153Y-123619274D01*
X169613769Y-123617158D01*
X169558365Y-123640027D01*
X169488512Y-123627334D01*
X169478898Y-123621709D01*
X169476675Y-123619870D01*
X169302701Y-123525802D01*
X169113768Y-123467318D01*
X169107643Y-123466674D01*
X169107642Y-123466674D01*
X168923204Y-123447289D01*
X168923202Y-123447289D01*
X168917075Y-123446645D01*
X168834576Y-123454153D01*
X168726251Y-123464011D01*
X168726248Y-123464012D01*
X168720112Y-123464570D01*
X168714206Y-123466308D01*
X168714202Y-123466309D01*
X168609076Y-123497249D01*
X168530381Y-123520410D01*
X168524923Y-123523263D01*
X168524919Y-123523265D01*
X168434147Y-123570720D01*
X168355110Y-123612040D01*
X168200975Y-123735968D01*
X168073846Y-123887474D01*
X168070879Y-123892872D01*
X168070875Y-123892877D01*
X168067397Y-123899204D01*
X167978567Y-124060787D01*
X167976706Y-124066654D01*
X167976705Y-124066656D01*
X167920627Y-124243436D01*
X167918765Y-124249306D01*
X167896719Y-124445851D01*
X167913268Y-124642934D01*
X167967783Y-124833050D01*
X168058187Y-125008956D01*
X168062016Y-125013787D01*
X168063839Y-125016088D01*
X168064414Y-125017509D01*
X168065353Y-125018966D01*
X168065076Y-125019144D01*
X168090474Y-125081898D01*
X168077301Y-125151662D01*
X168073846Y-125157474D01*
X167978567Y-125330787D01*
X167976706Y-125336654D01*
X167976705Y-125336656D01*
X167920627Y-125513436D01*
X167918765Y-125519306D01*
X167896719Y-125715851D01*
X167913268Y-125912934D01*
X167967783Y-126103050D01*
X168058187Y-126278956D01*
X168062016Y-126283787D01*
X168063839Y-126286088D01*
X168064414Y-126287509D01*
X168065353Y-126288966D01*
X168065076Y-126289144D01*
X168090474Y-126351898D01*
X168077301Y-126421662D01*
X168073846Y-126427474D01*
X167978567Y-126600787D01*
X167976706Y-126606654D01*
X167976705Y-126606656D01*
X167920627Y-126783436D01*
X167918765Y-126789306D01*
X167896719Y-126985851D01*
X97028500Y-126985851D01*
X97028500Y-107900000D01*
X101680548Y-107900000D01*
X101700343Y-108277709D01*
X101700856Y-108280949D01*
X101700857Y-108280957D01*
X101723916Y-108426540D01*
X101759511Y-108651279D01*
X101857403Y-109016618D01*
X101858588Y-109019706D01*
X101858589Y-109019708D01*
X101900926Y-109130000D01*
X101992947Y-109369723D01*
X101994445Y-109372663D01*
X102139642Y-109657627D01*
X102164659Y-109706726D01*
X102166455Y-109709492D01*
X102166457Y-109709495D01*
X102301382Y-109917262D01*
X102370656Y-110023934D01*
X102608682Y-110317871D01*
X102876129Y-110585318D01*
X103170066Y-110823344D01*
X103487274Y-111029341D01*
X103490208Y-111030836D01*
X103490215Y-111030840D01*
X103821337Y-111199555D01*
X103824277Y-111201053D01*
X104177382Y-111336597D01*
X104542721Y-111434489D01*
X104741158Y-111465918D01*
X104913043Y-111493143D01*
X104913051Y-111493144D01*
X104916291Y-111493657D01*
X105294000Y-111513452D01*
X105671709Y-111493657D01*
X105674949Y-111493144D01*
X105674957Y-111493143D01*
X105846842Y-111465918D01*
X106045279Y-111434489D01*
X106410618Y-111336597D01*
X106763723Y-111201053D01*
X106766663Y-111199555D01*
X107097785Y-111030840D01*
X107097792Y-111030836D01*
X107100726Y-111029341D01*
X107417934Y-110823344D01*
X107711871Y-110585318D01*
X107979318Y-110317871D01*
X108217344Y-110023934D01*
X108286618Y-109917262D01*
X108421543Y-109709495D01*
X108421545Y-109709492D01*
X108423341Y-109706726D01*
X108448359Y-109657627D01*
X108593555Y-109372663D01*
X108595053Y-109369723D01*
X108687074Y-109130000D01*
X145625647Y-109130000D01*
X145645022Y-109351463D01*
X145702560Y-109566196D01*
X145704882Y-109571177D01*
X145704883Y-109571178D01*
X145794186Y-109762689D01*
X145794189Y-109762694D01*
X145796512Y-109767676D01*
X145924023Y-109949781D01*
X146081219Y-110106977D01*
X146085727Y-110110134D01*
X146085730Y-110110136D01*
X146161495Y-110163187D01*
X146263323Y-110234488D01*
X146268305Y-110236811D01*
X146268310Y-110236814D01*
X146447165Y-110320215D01*
X146464804Y-110328440D01*
X146470112Y-110329862D01*
X146470114Y-110329863D01*
X146535949Y-110347503D01*
X146679537Y-110385978D01*
X146901000Y-110405353D01*
X147122463Y-110385978D01*
X147266051Y-110347503D01*
X147331886Y-110329863D01*
X147331888Y-110329862D01*
X147337196Y-110328440D01*
X147354835Y-110320215D01*
X147533690Y-110236814D01*
X147533695Y-110236811D01*
X147538677Y-110234488D01*
X147640505Y-110163187D01*
X147716270Y-110110136D01*
X147716273Y-110110134D01*
X147720781Y-110106977D01*
X147877977Y-109949781D01*
X148005488Y-109767676D01*
X148007811Y-109762694D01*
X148007814Y-109762689D01*
X148056805Y-109657627D01*
X148103723Y-109604342D01*
X148172000Y-109584881D01*
X148239960Y-109605423D01*
X148285195Y-109657627D01*
X148334186Y-109762689D01*
X148334189Y-109762694D01*
X148336512Y-109767676D01*
X148464023Y-109949781D01*
X148621219Y-110106977D01*
X148625727Y-110110134D01*
X148625730Y-110110136D01*
X148701495Y-110163187D01*
X148803323Y-110234488D01*
X148808305Y-110236811D01*
X148808310Y-110236814D01*
X148987165Y-110320215D01*
X149004804Y-110328440D01*
X149010112Y-110329862D01*
X149010114Y-110329863D01*
X149075949Y-110347503D01*
X149219537Y-110385978D01*
X149441000Y-110405353D01*
X149662463Y-110385978D01*
X149806051Y-110347503D01*
X149871886Y-110329863D01*
X149871888Y-110329862D01*
X149877196Y-110328440D01*
X149894835Y-110320215D01*
X150073690Y-110236814D01*
X150073695Y-110236811D01*
X150078677Y-110234488D01*
X150180505Y-110163187D01*
X150256270Y-110110136D01*
X150256273Y-110110134D01*
X150260781Y-110106977D01*
X150417977Y-109949781D01*
X150545488Y-109767676D01*
X150547811Y-109762694D01*
X150547814Y-109762689D01*
X150637117Y-109571178D01*
X150637118Y-109571177D01*
X150639440Y-109566196D01*
X150696978Y-109351463D01*
X150697458Y-109345981D01*
X150697459Y-109345973D01*
X150703047Y-109282108D01*
X150728910Y-109215990D01*
X150786414Y-109174350D01*
X150857301Y-109170410D01*
X150919065Y-109205420D01*
X150946197Y-109247934D01*
X150992947Y-109369723D01*
X150994445Y-109372663D01*
X151139642Y-109657627D01*
X151164659Y-109706726D01*
X151166455Y-109709492D01*
X151166457Y-109709495D01*
X151301382Y-109917262D01*
X151370656Y-110023934D01*
X151608682Y-110317871D01*
X151876129Y-110585318D01*
X152170066Y-110823344D01*
X152487274Y-111029341D01*
X152490208Y-111030836D01*
X152490215Y-111030840D01*
X152821337Y-111199555D01*
X152824277Y-111201053D01*
X153177382Y-111336597D01*
X153542721Y-111434489D01*
X153741158Y-111465918D01*
X153913043Y-111493143D01*
X153913051Y-111493144D01*
X153916291Y-111493657D01*
X154294000Y-111513452D01*
X154671709Y-111493657D01*
X154674949Y-111493144D01*
X154674957Y-111493143D01*
X154846842Y-111465918D01*
X155045279Y-111434489D01*
X155410618Y-111336597D01*
X155763723Y-111201053D01*
X155766663Y-111199555D01*
X156097785Y-111030840D01*
X156097792Y-111030836D01*
X156100726Y-111029341D01*
X156417934Y-110823344D01*
X156711871Y-110585318D01*
X156979318Y-110317871D01*
X157217344Y-110023934D01*
X157286618Y-109917262D01*
X157421543Y-109709495D01*
X157421545Y-109709492D01*
X157423341Y-109706726D01*
X157448359Y-109657627D01*
X157593555Y-109372663D01*
X157595053Y-109369723D01*
X157687074Y-109130000D01*
X157729411Y-109019708D01*
X157729412Y-109019706D01*
X157730597Y-109016618D01*
X157828489Y-108651279D01*
X157864084Y-108426540D01*
X157887143Y-108280957D01*
X157887144Y-108280949D01*
X157887657Y-108277709D01*
X157907452Y-107900000D01*
X157887657Y-107522291D01*
X157828489Y-107148721D01*
X157730597Y-106783382D01*
X157595053Y-106430277D01*
X157560888Y-106363224D01*
X157424840Y-106096215D01*
X157424836Y-106096208D01*
X157423341Y-106093274D01*
X157217344Y-105776066D01*
X156979318Y-105482129D01*
X156711871Y-105214682D01*
X156417934Y-104976656D01*
X156100726Y-104770659D01*
X156097792Y-104769164D01*
X156097785Y-104769160D01*
X155766663Y-104600445D01*
X155763723Y-104598947D01*
X155613294Y-104541203D01*
X155556866Y-104498117D01*
X155532689Y-104431364D01*
X155548440Y-104362137D01*
X155599118Y-104312415D01*
X155647466Y-104298051D01*
X155686210Y-104294661D01*
X155785463Y-104285978D01*
X155929051Y-104247503D01*
X155994886Y-104229863D01*
X155994888Y-104229862D01*
X156000196Y-104228440D01*
X156005178Y-104226117D01*
X156196690Y-104136814D01*
X156196695Y-104136811D01*
X156201677Y-104134488D01*
X156303505Y-104063187D01*
X156379270Y-104010136D01*
X156379273Y-104010134D01*
X156383781Y-104006977D01*
X156540977Y-103849781D01*
X156668488Y-103667676D01*
X156670811Y-103662694D01*
X156670814Y-103662689D01*
X156760117Y-103471178D01*
X156760118Y-103471177D01*
X156762440Y-103466196D01*
X156819978Y-103251463D01*
X156839353Y-103030000D01*
X156819978Y-102808537D01*
X156762440Y-102593804D01*
X156719805Y-102502373D01*
X156670814Y-102397311D01*
X156670811Y-102397306D01*
X156668488Y-102392324D01*
X156540977Y-102210219D01*
X156383781Y-102053023D01*
X156379273Y-102049866D01*
X156379270Y-102049864D01*
X156303505Y-101996813D01*
X156201677Y-101925512D01*
X156196695Y-101923189D01*
X156196690Y-101923186D01*
X156091627Y-101874195D01*
X156038342Y-101827278D01*
X156018881Y-101759001D01*
X156039423Y-101691041D01*
X156091627Y-101645805D01*
X156196690Y-101596814D01*
X156196695Y-101596811D01*
X156201677Y-101594488D01*
X156303505Y-101523187D01*
X156379270Y-101470136D01*
X156379273Y-101470134D01*
X156383781Y-101466977D01*
X156540977Y-101309781D01*
X156668488Y-101127676D01*
X156670811Y-101122694D01*
X156670814Y-101122689D01*
X156760117Y-100931178D01*
X156760118Y-100931177D01*
X156762440Y-100926196D01*
X156819978Y-100711463D01*
X156839353Y-100490000D01*
X156819978Y-100268537D01*
X156762440Y-100053804D01*
X156719805Y-99962373D01*
X156670814Y-99857311D01*
X156670811Y-99857306D01*
X156668488Y-99852324D01*
X156540977Y-99670219D01*
X156383781Y-99513023D01*
X156379273Y-99509866D01*
X156379270Y-99509864D01*
X156303505Y-99456813D01*
X156201677Y-99385512D01*
X156196695Y-99383189D01*
X156196690Y-99383186D01*
X156091627Y-99334195D01*
X156038342Y-99287278D01*
X156018881Y-99219001D01*
X156039423Y-99151041D01*
X156091627Y-99105805D01*
X156196690Y-99056814D01*
X156196695Y-99056811D01*
X156201677Y-99054488D01*
X156303505Y-98983187D01*
X156379270Y-98930136D01*
X156379273Y-98930134D01*
X156383781Y-98926977D01*
X156540977Y-98769781D01*
X156668488Y-98587676D01*
X156670811Y-98582694D01*
X156670814Y-98582689D01*
X156760117Y-98391178D01*
X156760118Y-98391177D01*
X156762440Y-98386196D01*
X156819978Y-98171463D01*
X156839353Y-97950000D01*
X156819978Y-97728537D01*
X156762440Y-97513804D01*
X156719805Y-97422373D01*
X156670814Y-97317311D01*
X156670811Y-97317306D01*
X156668488Y-97312324D01*
X156540977Y-97130219D01*
X156383781Y-96973023D01*
X156379273Y-96969866D01*
X156379270Y-96969864D01*
X156303505Y-96916813D01*
X156201677Y-96845512D01*
X156196695Y-96843189D01*
X156196690Y-96843186D01*
X156091627Y-96794195D01*
X156038342Y-96747278D01*
X156018881Y-96679001D01*
X156039423Y-96611041D01*
X156091627Y-96565805D01*
X156196690Y-96516814D01*
X156196695Y-96516811D01*
X156201677Y-96514488D01*
X156303505Y-96443187D01*
X156379270Y-96390136D01*
X156379273Y-96390134D01*
X156383781Y-96386977D01*
X156540977Y-96229781D01*
X156668488Y-96047676D01*
X156670811Y-96042694D01*
X156670814Y-96042689D01*
X156760117Y-95851178D01*
X156760118Y-95851177D01*
X156762440Y-95846196D01*
X156819978Y-95631463D01*
X156839353Y-95410000D01*
X156819978Y-95188537D01*
X156762440Y-94973804D01*
X156719805Y-94882373D01*
X156670814Y-94777311D01*
X156670811Y-94777306D01*
X156668488Y-94772324D01*
X156540977Y-94590219D01*
X156383781Y-94433023D01*
X156379273Y-94429866D01*
X156379270Y-94429864D01*
X156284441Y-94363464D01*
X156201677Y-94305512D01*
X156196695Y-94303189D01*
X156196690Y-94303186D01*
X156091627Y-94254195D01*
X156038342Y-94207278D01*
X156018881Y-94139001D01*
X156039423Y-94071041D01*
X156091627Y-94025805D01*
X156196690Y-93976814D01*
X156196695Y-93976811D01*
X156201677Y-93974488D01*
X156349933Y-93870678D01*
X156379270Y-93850136D01*
X156379273Y-93850134D01*
X156383781Y-93846977D01*
X156540977Y-93689781D01*
X156604826Y-93598596D01*
X156665331Y-93512185D01*
X156665332Y-93512183D01*
X156668488Y-93507676D01*
X156670811Y-93502694D01*
X156670814Y-93502689D01*
X156760117Y-93311178D01*
X156760118Y-93311177D01*
X156762440Y-93306196D01*
X156800891Y-93162695D01*
X187869251Y-93162695D01*
X187882110Y-93385715D01*
X187883247Y-93390761D01*
X187883248Y-93390767D01*
X187904275Y-93484069D01*
X187931222Y-93603639D01*
X188015266Y-93810616D01*
X188066942Y-93894944D01*
X188129291Y-93996688D01*
X188131987Y-94001088D01*
X188278250Y-94169938D01*
X188354846Y-94233529D01*
X188445353Y-94308669D01*
X188450126Y-94312632D01*
X188643000Y-94425338D01*
X188851692Y-94505030D01*
X188856760Y-94506061D01*
X188856763Y-94506062D01*
X188951862Y-94525410D01*
X189070597Y-94549567D01*
X189075772Y-94549757D01*
X189075774Y-94549757D01*
X189288673Y-94557564D01*
X189288677Y-94557564D01*
X189293837Y-94557753D01*
X189298957Y-94557097D01*
X189298959Y-94557097D01*
X189510288Y-94530025D01*
X189510289Y-94530025D01*
X189515416Y-94529368D01*
X189520366Y-94527883D01*
X189724429Y-94466661D01*
X189724434Y-94466659D01*
X189729384Y-94465174D01*
X189929994Y-94366896D01*
X190111860Y-94237173D01*
X190270096Y-94079489D01*
X190276167Y-94071041D01*
X190400453Y-93898077D01*
X190401776Y-93899028D01*
X190448645Y-93855857D01*
X190518580Y-93843625D01*
X190584026Y-93871144D01*
X190611875Y-93902994D01*
X190671987Y-94001088D01*
X190818250Y-94169938D01*
X190894846Y-94233529D01*
X190985353Y-94308669D01*
X190990126Y-94312632D01*
X191183000Y-94425338D01*
X191391692Y-94505030D01*
X191396760Y-94506061D01*
X191396763Y-94506062D01*
X191491862Y-94525410D01*
X191610597Y-94549567D01*
X191615772Y-94549757D01*
X191615774Y-94549757D01*
X191828673Y-94557564D01*
X191828677Y-94557564D01*
X191833837Y-94557753D01*
X191838957Y-94557097D01*
X191838959Y-94557097D01*
X192050288Y-94530025D01*
X192050289Y-94530025D01*
X192055416Y-94529368D01*
X192060366Y-94527883D01*
X192264429Y-94466661D01*
X192264434Y-94466659D01*
X192269384Y-94465174D01*
X192469994Y-94366896D01*
X192651860Y-94237173D01*
X192810096Y-94079489D01*
X192816167Y-94071041D01*
X192940453Y-93898077D01*
X192941640Y-93898930D01*
X192988960Y-93855362D01*
X193058897Y-93843145D01*
X193124338Y-93870678D01*
X193152166Y-93902511D01*
X193209694Y-93996388D01*
X193215777Y-94004699D01*
X193355213Y-94165667D01*
X193362580Y-94172883D01*
X193526434Y-94308916D01*
X193534881Y-94314831D01*
X193718756Y-94422279D01*
X193728042Y-94426729D01*
X193927001Y-94502703D01*
X193936899Y-94505579D01*
X194040250Y-94526606D01*
X194054299Y-94525410D01*
X194058000Y-94515065D01*
X194058000Y-94514517D01*
X194566000Y-94514517D01*
X194570064Y-94528359D01*
X194583478Y-94530393D01*
X194590184Y-94529534D01*
X194600262Y-94527392D01*
X194804255Y-94466191D01*
X194813842Y-94462433D01*
X195005095Y-94368739D01*
X195013945Y-94363464D01*
X195187328Y-94239792D01*
X195195193Y-94233145D01*
X195299897Y-94128805D01*
X195362268Y-94094889D01*
X195433075Y-94100077D01*
X195489837Y-94142723D01*
X195506819Y-94173826D01*
X195551385Y-94292705D01*
X195638739Y-94409261D01*
X195755295Y-94496615D01*
X195891684Y-94547745D01*
X195953866Y-94554500D01*
X197750134Y-94554500D01*
X197812316Y-94547745D01*
X197948705Y-94496615D01*
X198065261Y-94409261D01*
X198152615Y-94292705D01*
X198203745Y-94156316D01*
X198210500Y-94094134D01*
X198210500Y-92297866D01*
X198203745Y-92235684D01*
X198152615Y-92099295D01*
X198065261Y-91982739D01*
X197948705Y-91895385D01*
X197812316Y-91844255D01*
X197750134Y-91837500D01*
X195953866Y-91837500D01*
X195891684Y-91844255D01*
X195755295Y-91895385D01*
X195638739Y-91982739D01*
X195551385Y-92099295D01*
X195548233Y-92107703D01*
X195548232Y-92107705D01*
X195506722Y-92218433D01*
X195464081Y-92275198D01*
X195397519Y-92299898D01*
X195328170Y-92284691D01*
X195295546Y-92259004D01*
X195244799Y-92203234D01*
X195237273Y-92196215D01*
X195070139Y-92064222D01*
X195061552Y-92058517D01*
X194875117Y-91955599D01*
X194865705Y-91951369D01*
X194664959Y-91880280D01*
X194654988Y-91877646D01*
X194583837Y-91864972D01*
X194570540Y-91866432D01*
X194566000Y-91880989D01*
X194566000Y-94514517D01*
X194058000Y-94514517D01*
X194058000Y-91879102D01*
X194054082Y-91865758D01*
X194039806Y-91863771D01*
X194001324Y-91869660D01*
X193991288Y-91872051D01*
X193788868Y-91938212D01*
X193779359Y-91942209D01*
X193590463Y-92040542D01*
X193581738Y-92046036D01*
X193411433Y-92173905D01*
X193403726Y-92180748D01*
X193256590Y-92334717D01*
X193250109Y-92342722D01*
X193145498Y-92496074D01*
X193090587Y-92541076D01*
X193020062Y-92549247D01*
X192956315Y-92517993D01*
X192935618Y-92493509D01*
X192854822Y-92368617D01*
X192854820Y-92368614D01*
X192852014Y-92364277D01*
X192701670Y-92199051D01*
X192697619Y-92195852D01*
X192697615Y-92195848D01*
X192530414Y-92063800D01*
X192530410Y-92063798D01*
X192526359Y-92060598D01*
X192507558Y-92050219D01*
X192474136Y-92031769D01*
X192330789Y-91952638D01*
X192325920Y-91950914D01*
X192325916Y-91950912D01*
X192125087Y-91879795D01*
X192125083Y-91879794D01*
X192120212Y-91878069D01*
X192115119Y-91877162D01*
X192115116Y-91877161D01*
X191905373Y-91839800D01*
X191905367Y-91839799D01*
X191900284Y-91838894D01*
X191826452Y-91837992D01*
X191682081Y-91836228D01*
X191682079Y-91836228D01*
X191676911Y-91836165D01*
X191456091Y-91869955D01*
X191243756Y-91939357D01*
X191045607Y-92042507D01*
X191041474Y-92045610D01*
X191041471Y-92045612D01*
X190958771Y-92107705D01*
X190866965Y-92176635D01*
X190712629Y-92338138D01*
X190605201Y-92495621D01*
X190550293Y-92540621D01*
X190479768Y-92548792D01*
X190416021Y-92517538D01*
X190395324Y-92493054D01*
X190314822Y-92368617D01*
X190314820Y-92368614D01*
X190312014Y-92364277D01*
X190161670Y-92199051D01*
X190157619Y-92195852D01*
X190157615Y-92195848D01*
X189990414Y-92063800D01*
X189990410Y-92063798D01*
X189986359Y-92060598D01*
X189967558Y-92050219D01*
X189934136Y-92031769D01*
X189790789Y-91952638D01*
X189785920Y-91950914D01*
X189785916Y-91950912D01*
X189585087Y-91879795D01*
X189585083Y-91879794D01*
X189580212Y-91878069D01*
X189575119Y-91877162D01*
X189575116Y-91877161D01*
X189365373Y-91839800D01*
X189365367Y-91839799D01*
X189360284Y-91838894D01*
X189286452Y-91837992D01*
X189142081Y-91836228D01*
X189142079Y-91836228D01*
X189136911Y-91836165D01*
X188916091Y-91869955D01*
X188703756Y-91939357D01*
X188505607Y-92042507D01*
X188501474Y-92045610D01*
X188501471Y-92045612D01*
X188418771Y-92107705D01*
X188326965Y-92176635D01*
X188172629Y-92338138D01*
X188169720Y-92342403D01*
X188169714Y-92342411D01*
X188120116Y-92415119D01*
X188046743Y-92522680D01*
X187952688Y-92725305D01*
X187892989Y-92940570D01*
X187869251Y-93162695D01*
X156800891Y-93162695D01*
X156819978Y-93091463D01*
X156839353Y-92870000D01*
X156819978Y-92648537D01*
X156762440Y-92433804D01*
X156716235Y-92334717D01*
X156670814Y-92237311D01*
X156670811Y-92237306D01*
X156668488Y-92232324D01*
X156665331Y-92227815D01*
X156544136Y-92054730D01*
X156544134Y-92054727D01*
X156540977Y-92050219D01*
X156383781Y-91893023D01*
X156379273Y-91889866D01*
X156379270Y-91889864D01*
X156302580Y-91836165D01*
X156201677Y-91765512D01*
X156196695Y-91763189D01*
X156196690Y-91763186D01*
X156091627Y-91714195D01*
X156038342Y-91667278D01*
X156018881Y-91599001D01*
X156039423Y-91531041D01*
X156091627Y-91485805D01*
X156196690Y-91436814D01*
X156196695Y-91436811D01*
X156201677Y-91434488D01*
X156303505Y-91363187D01*
X156379270Y-91310136D01*
X156379273Y-91310134D01*
X156383781Y-91306977D01*
X156540977Y-91149781D01*
X156668488Y-90967676D01*
X156670811Y-90962694D01*
X156670814Y-90962689D01*
X156760117Y-90771178D01*
X156760118Y-90771177D01*
X156762440Y-90766196D01*
X156819978Y-90551463D01*
X156839353Y-90330000D01*
X156819978Y-90108537D01*
X156762440Y-89893804D01*
X156719805Y-89802373D01*
X156670814Y-89697311D01*
X156670811Y-89697306D01*
X156668488Y-89692324D01*
X156540977Y-89510219D01*
X156383781Y-89353023D01*
X156379273Y-89349866D01*
X156379270Y-89349864D01*
X156303505Y-89296813D01*
X156201677Y-89225512D01*
X156196695Y-89223189D01*
X156196690Y-89223186D01*
X156091627Y-89174195D01*
X156038342Y-89127278D01*
X156018881Y-89059001D01*
X156039423Y-88991041D01*
X156091627Y-88945805D01*
X156196690Y-88896814D01*
X156196695Y-88896811D01*
X156201677Y-88894488D01*
X156303505Y-88823187D01*
X156379270Y-88770136D01*
X156379273Y-88770134D01*
X156383781Y-88766977D01*
X156540977Y-88609781D01*
X156548547Y-88598971D01*
X156665331Y-88432185D01*
X156665332Y-88432183D01*
X156668488Y-88427676D01*
X156670811Y-88422694D01*
X156670814Y-88422689D01*
X156760117Y-88231178D01*
X156760118Y-88231177D01*
X156762440Y-88226196D01*
X156764713Y-88217715D01*
X156783357Y-88148134D01*
X163572500Y-88148134D01*
X163579255Y-88210316D01*
X163630385Y-88346705D01*
X163717739Y-88463261D01*
X163834295Y-88550615D01*
X163970684Y-88601745D01*
X164032866Y-88608500D01*
X165659134Y-88608500D01*
X165721316Y-88601745D01*
X165857705Y-88550615D01*
X165974261Y-88463261D01*
X166061615Y-88346705D01*
X166112745Y-88210316D01*
X166119500Y-88148134D01*
X166119500Y-86521866D01*
X166112745Y-86459684D01*
X166061615Y-86323295D01*
X165974261Y-86206739D01*
X165857705Y-86119385D01*
X165721316Y-86068255D01*
X165659134Y-86061500D01*
X165640760Y-86061500D01*
X165572639Y-86041498D01*
X165526146Y-85987842D01*
X165516042Y-85917568D01*
X165542305Y-85856904D01*
X165535226Y-85843436D01*
X164858812Y-85167022D01*
X164844868Y-85159408D01*
X164843035Y-85159539D01*
X164836420Y-85163790D01*
X164156053Y-85844157D01*
X164149623Y-85855933D01*
X164151533Y-85858402D01*
X164177395Y-85924521D01*
X164163405Y-85994125D01*
X164114004Y-86045117D01*
X164051874Y-86061500D01*
X164032866Y-86061500D01*
X163970684Y-86068255D01*
X163834295Y-86119385D01*
X163717739Y-86206739D01*
X163630385Y-86323295D01*
X163579255Y-86459684D01*
X163572500Y-86521866D01*
X163572500Y-88148134D01*
X156783357Y-88148134D01*
X156818554Y-88016776D01*
X156819978Y-88011463D01*
X156839353Y-87790000D01*
X156819978Y-87568537D01*
X156762440Y-87353804D01*
X156719805Y-87262373D01*
X156670814Y-87157311D01*
X156670811Y-87157306D01*
X156668488Y-87152324D01*
X156540977Y-86970219D01*
X156383781Y-86813023D01*
X156379273Y-86809866D01*
X156379270Y-86809864D01*
X156303505Y-86756813D01*
X156201677Y-86685512D01*
X156196695Y-86683189D01*
X156196690Y-86683186D01*
X156091627Y-86634195D01*
X156038342Y-86587278D01*
X156018881Y-86519001D01*
X156039423Y-86451041D01*
X156091627Y-86405805D01*
X156196690Y-86356814D01*
X156196695Y-86356811D01*
X156201677Y-86354488D01*
X156303505Y-86283187D01*
X156379270Y-86230136D01*
X156379273Y-86230134D01*
X156383781Y-86226977D01*
X156540977Y-86069781D01*
X156546776Y-86061500D01*
X156665331Y-85892185D01*
X156665332Y-85892183D01*
X156668488Y-85887676D01*
X156670811Y-85882694D01*
X156670814Y-85882689D01*
X156760117Y-85691178D01*
X156760118Y-85691177D01*
X156762440Y-85686196D01*
X156819978Y-85471463D01*
X156839353Y-85250000D01*
X156819978Y-85028537D01*
X156762440Y-84813804D01*
X156756224Y-84800475D01*
X163568616Y-84800475D01*
X163587072Y-85011419D01*
X163588975Y-85022214D01*
X163643779Y-85226745D01*
X163647525Y-85237037D01*
X163737012Y-85428944D01*
X163742495Y-85438439D01*
X163773640Y-85482919D01*
X163784117Y-85491294D01*
X163797564Y-85484226D01*
X164473978Y-84807812D01*
X164480356Y-84796132D01*
X165210408Y-84796132D01*
X165210539Y-84797965D01*
X165214790Y-84804580D01*
X165895157Y-85484947D01*
X165906932Y-85491377D01*
X165918947Y-85482081D01*
X165949505Y-85438439D01*
X165954988Y-85428944D01*
X166044475Y-85237037D01*
X166048221Y-85226745D01*
X166103025Y-85022214D01*
X166104928Y-85011419D01*
X166123384Y-84800475D01*
X166123384Y-84795000D01*
X178807635Y-84795000D01*
X178827056Y-85016986D01*
X178884730Y-85232227D01*
X178887052Y-85237208D01*
X178887053Y-85237209D01*
X178976577Y-85429195D01*
X178976580Y-85429200D01*
X178978903Y-85434182D01*
X179106716Y-85616717D01*
X179264283Y-85774284D01*
X179268792Y-85777441D01*
X179268794Y-85777443D01*
X179347119Y-85832287D01*
X179391447Y-85887745D01*
X179398756Y-85958364D01*
X179366725Y-86021724D01*
X179305523Y-86057709D01*
X179279658Y-86060906D01*
X179279680Y-86061316D01*
X179276282Y-86061500D01*
X179272866Y-86061500D01*
X179210684Y-86068255D01*
X179074295Y-86119385D01*
X178957739Y-86206739D01*
X178870385Y-86323295D01*
X178819255Y-86459684D01*
X178812500Y-86521866D01*
X178812500Y-88148134D01*
X178819255Y-88210316D01*
X178870385Y-88346705D01*
X178957739Y-88463261D01*
X179074295Y-88550615D01*
X179210684Y-88601745D01*
X179272866Y-88608500D01*
X180899134Y-88608500D01*
X180961316Y-88601745D01*
X181097705Y-88550615D01*
X181214261Y-88463261D01*
X181301615Y-88346705D01*
X181352745Y-88210316D01*
X181359500Y-88148134D01*
X181359500Y-86521866D01*
X181352745Y-86459684D01*
X181301615Y-86323295D01*
X181214261Y-86206739D01*
X181097705Y-86119385D01*
X180961316Y-86068255D01*
X180899134Y-86061500D01*
X180895718Y-86061500D01*
X180892320Y-86061316D01*
X180892386Y-86060101D01*
X180829031Y-86041498D01*
X180782538Y-85987842D01*
X180772434Y-85917568D01*
X180801928Y-85852988D01*
X180824881Y-85832287D01*
X180903206Y-85777443D01*
X180903208Y-85777441D01*
X180907717Y-85774284D01*
X181065284Y-85616717D01*
X181193097Y-85434182D01*
X181195420Y-85429200D01*
X181195423Y-85429195D01*
X181284947Y-85237209D01*
X181284948Y-85237208D01*
X181287270Y-85232227D01*
X181344944Y-85016986D01*
X181364365Y-84795000D01*
X181344944Y-84573014D01*
X181287270Y-84357773D01*
X181249568Y-84276920D01*
X181195423Y-84160805D01*
X181195420Y-84160800D01*
X181193097Y-84155818D01*
X181070687Y-83980999D01*
X181068443Y-83977794D01*
X181068441Y-83977791D01*
X181065284Y-83973283D01*
X180907717Y-83815716D01*
X180725183Y-83687903D01*
X180720201Y-83685580D01*
X180720196Y-83685577D01*
X180620728Y-83639195D01*
X180567443Y-83592278D01*
X180547982Y-83524001D01*
X180568524Y-83456041D01*
X180620728Y-83410805D01*
X180720196Y-83364423D01*
X180720201Y-83364420D01*
X180725183Y-83362097D01*
X180907717Y-83234284D01*
X181065284Y-83076717D01*
X181193097Y-82894182D01*
X181195420Y-82889200D01*
X181195423Y-82889195D01*
X181284947Y-82697209D01*
X181284948Y-82697208D01*
X181287270Y-82692227D01*
X181344944Y-82476986D01*
X181364365Y-82255000D01*
X181344944Y-82033014D01*
X181287270Y-81817773D01*
X181249568Y-81736920D01*
X181195423Y-81620805D01*
X181195420Y-81620800D01*
X181193097Y-81615818D01*
X181070687Y-81440999D01*
X181068443Y-81437794D01*
X181068441Y-81437791D01*
X181065284Y-81433283D01*
X180907717Y-81275716D01*
X180725183Y-81147903D01*
X180720201Y-81145580D01*
X180720196Y-81145577D01*
X180620728Y-81099195D01*
X180567443Y-81052278D01*
X180547982Y-80984001D01*
X180568524Y-80916041D01*
X180620728Y-80870805D01*
X180720196Y-80824423D01*
X180720201Y-80824420D01*
X180725183Y-80822097D01*
X180907717Y-80694284D01*
X181065284Y-80536717D01*
X181193097Y-80354182D01*
X181195420Y-80349200D01*
X181195423Y-80349195D01*
X181284947Y-80157209D01*
X181284948Y-80157208D01*
X181287270Y-80152227D01*
X181344944Y-79936986D01*
X181364365Y-79715000D01*
X181344944Y-79493014D01*
X181287270Y-79277773D01*
X181249568Y-79196920D01*
X181195423Y-79080805D01*
X181195420Y-79080800D01*
X181193097Y-79075818D01*
X181070687Y-78900999D01*
X181068443Y-78897794D01*
X181068441Y-78897791D01*
X181065284Y-78893283D01*
X180907717Y-78735716D01*
X180725183Y-78607903D01*
X180720201Y-78605580D01*
X180720196Y-78605577D01*
X180620728Y-78559195D01*
X180567443Y-78512278D01*
X180547982Y-78444001D01*
X180568524Y-78376041D01*
X180620728Y-78330805D01*
X180720196Y-78284423D01*
X180720201Y-78284420D01*
X180725183Y-78282097D01*
X180907717Y-78154284D01*
X181065284Y-77996717D01*
X181193097Y-77814182D01*
X181195420Y-77809200D01*
X181195423Y-77809195D01*
X181284947Y-77617209D01*
X181284948Y-77617208D01*
X181287270Y-77612227D01*
X181344944Y-77396986D01*
X181364365Y-77175000D01*
X181344944Y-76953014D01*
X181287270Y-76737773D01*
X181249568Y-76656920D01*
X181195423Y-76540805D01*
X181195420Y-76540800D01*
X181193097Y-76535818D01*
X181070687Y-76360999D01*
X181068443Y-76357794D01*
X181068441Y-76357791D01*
X181065284Y-76353283D01*
X180907717Y-76195716D01*
X180725183Y-76067903D01*
X180720201Y-76065580D01*
X180720196Y-76065577D01*
X180620728Y-76019195D01*
X180567443Y-75972278D01*
X180547982Y-75904001D01*
X180568524Y-75836041D01*
X180620728Y-75790805D01*
X180720196Y-75744423D01*
X180720201Y-75744420D01*
X180725183Y-75742097D01*
X180907717Y-75614284D01*
X181065284Y-75456717D01*
X181193097Y-75274182D01*
X181195420Y-75269200D01*
X181195423Y-75269195D01*
X181284947Y-75077209D01*
X181284948Y-75077208D01*
X181287270Y-75072227D01*
X181344944Y-74856986D01*
X181364365Y-74635000D01*
X181344944Y-74413014D01*
X181287270Y-74197773D01*
X181249568Y-74116920D01*
X181195423Y-74000805D01*
X181195420Y-74000800D01*
X181193097Y-73995818D01*
X181070687Y-73820999D01*
X181068443Y-73817794D01*
X181068441Y-73817791D01*
X181065284Y-73813283D01*
X180907717Y-73655716D01*
X180725183Y-73527903D01*
X180720201Y-73525580D01*
X180720196Y-73525577D01*
X180620728Y-73479195D01*
X180567443Y-73432278D01*
X180547982Y-73364001D01*
X180568524Y-73296041D01*
X180620728Y-73250805D01*
X180720196Y-73204423D01*
X180720201Y-73204420D01*
X180725183Y-73202097D01*
X180907717Y-73074284D01*
X181065284Y-72916717D01*
X181193097Y-72734182D01*
X181195420Y-72729200D01*
X181195423Y-72729195D01*
X181284947Y-72537209D01*
X181284948Y-72537208D01*
X181287270Y-72532227D01*
X181344944Y-72316986D01*
X181364365Y-72095000D01*
X181344944Y-71873014D01*
X181287270Y-71657773D01*
X181249568Y-71576920D01*
X181195423Y-71460805D01*
X181195420Y-71460800D01*
X181193097Y-71455818D01*
X181070687Y-71280999D01*
X181068443Y-71277794D01*
X181068441Y-71277791D01*
X181065284Y-71273283D01*
X180907717Y-71115716D01*
X180725183Y-70987903D01*
X180720201Y-70985580D01*
X180720196Y-70985577D01*
X180620728Y-70939195D01*
X180567443Y-70892278D01*
X180547982Y-70824001D01*
X180568524Y-70756041D01*
X180620728Y-70710805D01*
X180720196Y-70664423D01*
X180720201Y-70664420D01*
X180725183Y-70662097D01*
X180907717Y-70534284D01*
X181065284Y-70376717D01*
X181193097Y-70194182D01*
X181195420Y-70189200D01*
X181195423Y-70189195D01*
X181284947Y-69997209D01*
X181284948Y-69997208D01*
X181287270Y-69992227D01*
X181344944Y-69776986D01*
X181364365Y-69555000D01*
X181344944Y-69333014D01*
X181287270Y-69117773D01*
X181249568Y-69036920D01*
X181195423Y-68920805D01*
X181195420Y-68920800D01*
X181193097Y-68915818D01*
X181070687Y-68740999D01*
X181068443Y-68737794D01*
X181068441Y-68737791D01*
X181065284Y-68733283D01*
X180907717Y-68575716D01*
X180725183Y-68447903D01*
X180720201Y-68445580D01*
X180720196Y-68445577D01*
X180620728Y-68399195D01*
X180567443Y-68352278D01*
X180547982Y-68284001D01*
X180568524Y-68216041D01*
X180620728Y-68170805D01*
X180720196Y-68124423D01*
X180720201Y-68124420D01*
X180725183Y-68122097D01*
X180907717Y-67994284D01*
X181065284Y-67836717D01*
X181193097Y-67654182D01*
X181195420Y-67649200D01*
X181195423Y-67649195D01*
X181284947Y-67457209D01*
X181284948Y-67457208D01*
X181287270Y-67452227D01*
X181344944Y-67236986D01*
X181364365Y-67015000D01*
X181344944Y-66793014D01*
X181287270Y-66577773D01*
X181249568Y-66496920D01*
X181195423Y-66380805D01*
X181195420Y-66380800D01*
X181193097Y-66375818D01*
X181070687Y-66200999D01*
X181068443Y-66197794D01*
X181068441Y-66197791D01*
X181065284Y-66193283D01*
X180907717Y-66035716D01*
X180725183Y-65907903D01*
X180720201Y-65905580D01*
X180720196Y-65905577D01*
X180620728Y-65859195D01*
X180567443Y-65812278D01*
X180547982Y-65744001D01*
X180568524Y-65676041D01*
X180620728Y-65630805D01*
X180720196Y-65584423D01*
X180720201Y-65584420D01*
X180725183Y-65582097D01*
X180907717Y-65454284D01*
X181065284Y-65296717D01*
X181193097Y-65114182D01*
X181195420Y-65109200D01*
X181195423Y-65109195D01*
X181284947Y-64917209D01*
X181284948Y-64917208D01*
X181287270Y-64912227D01*
X181344944Y-64696986D01*
X181364365Y-64475000D01*
X181344944Y-64253014D01*
X181287270Y-64037773D01*
X181249568Y-63956920D01*
X181195423Y-63840805D01*
X181195420Y-63840800D01*
X181193097Y-63835818D01*
X181079806Y-63674022D01*
X181070474Y-63660695D01*
X185327251Y-63660695D01*
X185340110Y-63883715D01*
X185341247Y-63888761D01*
X185341248Y-63888767D01*
X185355729Y-63953023D01*
X185389222Y-64101639D01*
X185394538Y-64114730D01*
X185468676Y-64297311D01*
X185473266Y-64308616D01*
X185510685Y-64369678D01*
X185587291Y-64494688D01*
X185589987Y-64499088D01*
X185736250Y-64667938D01*
X185908126Y-64810632D01*
X186101000Y-64923338D01*
X186105825Y-64925180D01*
X186105826Y-64925181D01*
X186178612Y-64952975D01*
X186309692Y-65003030D01*
X186314760Y-65004061D01*
X186314763Y-65004062D01*
X186422017Y-65025883D01*
X186528597Y-65047567D01*
X186533772Y-65047757D01*
X186533774Y-65047757D01*
X186746673Y-65055564D01*
X186746677Y-65055564D01*
X186751837Y-65055753D01*
X186756957Y-65055097D01*
X186756959Y-65055097D01*
X186968288Y-65028025D01*
X186968289Y-65028025D01*
X186973416Y-65027368D01*
X186978366Y-65025883D01*
X187182429Y-64964661D01*
X187182434Y-64964659D01*
X187187384Y-64963174D01*
X187387994Y-64864896D01*
X187569860Y-64735173D01*
X187728096Y-64577489D01*
X187787594Y-64494689D01*
X187858453Y-64396077D01*
X187859776Y-64397028D01*
X187906645Y-64353857D01*
X187976580Y-64341625D01*
X188042026Y-64369144D01*
X188069875Y-64400994D01*
X188129987Y-64499088D01*
X188276250Y-64667938D01*
X188448126Y-64810632D01*
X188641000Y-64923338D01*
X188645825Y-64925180D01*
X188645826Y-64925181D01*
X188718612Y-64952975D01*
X188849692Y-65003030D01*
X188854760Y-65004061D01*
X188854763Y-65004062D01*
X188962017Y-65025883D01*
X189068597Y-65047567D01*
X189073772Y-65047757D01*
X189073774Y-65047757D01*
X189286673Y-65055564D01*
X189286677Y-65055564D01*
X189291837Y-65055753D01*
X189296957Y-65055097D01*
X189296959Y-65055097D01*
X189508288Y-65028025D01*
X189508289Y-65028025D01*
X189513416Y-65027368D01*
X189518366Y-65025883D01*
X189722429Y-64964661D01*
X189722434Y-64964659D01*
X189727384Y-64963174D01*
X189927994Y-64864896D01*
X190109860Y-64735173D01*
X190268096Y-64577489D01*
X190327594Y-64494689D01*
X190398453Y-64396077D01*
X190399776Y-64397028D01*
X190446645Y-64353857D01*
X190516580Y-64341625D01*
X190582026Y-64369144D01*
X190609875Y-64400994D01*
X190669987Y-64499088D01*
X190816250Y-64667938D01*
X190988126Y-64810632D01*
X191181000Y-64923338D01*
X191185825Y-64925180D01*
X191185826Y-64925181D01*
X191258612Y-64952975D01*
X191389692Y-65003030D01*
X191394760Y-65004061D01*
X191394763Y-65004062D01*
X191502017Y-65025883D01*
X191608597Y-65047567D01*
X191613772Y-65047757D01*
X191613774Y-65047757D01*
X191826673Y-65055564D01*
X191826677Y-65055564D01*
X191831837Y-65055753D01*
X191836957Y-65055097D01*
X191836959Y-65055097D01*
X192048288Y-65028025D01*
X192048289Y-65028025D01*
X192053416Y-65027368D01*
X192058366Y-65025883D01*
X192262429Y-64964661D01*
X192262434Y-64964659D01*
X192267384Y-64963174D01*
X192467994Y-64864896D01*
X192649860Y-64735173D01*
X192808096Y-64577489D01*
X192867594Y-64494689D01*
X192938453Y-64396077D01*
X192939776Y-64397028D01*
X192986645Y-64353857D01*
X193056580Y-64341625D01*
X193122026Y-64369144D01*
X193149875Y-64400994D01*
X193209987Y-64499088D01*
X193356250Y-64667938D01*
X193528126Y-64810632D01*
X193721000Y-64923338D01*
X193725825Y-64925180D01*
X193725826Y-64925181D01*
X193798612Y-64952975D01*
X193929692Y-65003030D01*
X193934760Y-65004061D01*
X193934763Y-65004062D01*
X194042017Y-65025883D01*
X194148597Y-65047567D01*
X194153772Y-65047757D01*
X194153774Y-65047757D01*
X194366673Y-65055564D01*
X194366677Y-65055564D01*
X194371837Y-65055753D01*
X194376957Y-65055097D01*
X194376959Y-65055097D01*
X194588288Y-65028025D01*
X194588289Y-65028025D01*
X194593416Y-65027368D01*
X194598366Y-65025883D01*
X194802429Y-64964661D01*
X194802434Y-64964659D01*
X194807384Y-64963174D01*
X195007994Y-64864896D01*
X195189860Y-64735173D01*
X195298091Y-64627319D01*
X195360462Y-64593404D01*
X195431268Y-64598592D01*
X195488030Y-64641238D01*
X195505012Y-64672341D01*
X195527201Y-64731529D01*
X195549385Y-64790705D01*
X195636739Y-64907261D01*
X195753295Y-64994615D01*
X195889684Y-65045745D01*
X195951866Y-65052500D01*
X197748134Y-65052500D01*
X197810316Y-65045745D01*
X197946705Y-64994615D01*
X198063261Y-64907261D01*
X198150615Y-64790705D01*
X198201745Y-64654316D01*
X198208500Y-64592134D01*
X198208500Y-62795866D01*
X198201745Y-62733684D01*
X198150615Y-62597295D01*
X198063261Y-62480739D01*
X197946705Y-62393385D01*
X197810316Y-62342255D01*
X197748134Y-62335500D01*
X195951866Y-62335500D01*
X195889684Y-62342255D01*
X195753295Y-62393385D01*
X195636739Y-62480739D01*
X195549385Y-62597295D01*
X195546233Y-62605703D01*
X195504919Y-62715907D01*
X195462277Y-62772671D01*
X195395716Y-62797371D01*
X195326367Y-62782163D01*
X195293743Y-62756476D01*
X195243151Y-62700875D01*
X195243142Y-62700866D01*
X195239670Y-62697051D01*
X195235619Y-62693852D01*
X195235615Y-62693848D01*
X195068414Y-62561800D01*
X195068410Y-62561798D01*
X195064359Y-62558598D01*
X194868789Y-62450638D01*
X194863920Y-62448914D01*
X194863916Y-62448912D01*
X194663087Y-62377795D01*
X194663083Y-62377794D01*
X194658212Y-62376069D01*
X194653119Y-62375162D01*
X194653116Y-62375161D01*
X194443373Y-62337800D01*
X194443367Y-62337799D01*
X194438284Y-62336894D01*
X194364452Y-62335992D01*
X194220081Y-62334228D01*
X194220079Y-62334228D01*
X194214911Y-62334165D01*
X193994091Y-62367955D01*
X193781756Y-62437357D01*
X193583607Y-62540507D01*
X193579474Y-62543610D01*
X193579471Y-62543612D01*
X193489102Y-62611463D01*
X193404965Y-62674635D01*
X193365525Y-62715907D01*
X193311280Y-62772671D01*
X193250629Y-62836138D01*
X193143201Y-62993621D01*
X193088293Y-63038621D01*
X193017768Y-63046792D01*
X192954021Y-63015538D01*
X192933324Y-62991054D01*
X192852822Y-62866617D01*
X192852820Y-62866614D01*
X192850014Y-62862277D01*
X192699670Y-62697051D01*
X192695619Y-62693852D01*
X192695615Y-62693848D01*
X192528414Y-62561800D01*
X192528410Y-62561798D01*
X192524359Y-62558598D01*
X192328789Y-62450638D01*
X192323920Y-62448914D01*
X192323916Y-62448912D01*
X192123087Y-62377795D01*
X192123083Y-62377794D01*
X192118212Y-62376069D01*
X192113119Y-62375162D01*
X192113116Y-62375161D01*
X191903373Y-62337800D01*
X191903367Y-62337799D01*
X191898284Y-62336894D01*
X191824452Y-62335992D01*
X191680081Y-62334228D01*
X191680079Y-62334228D01*
X191674911Y-62334165D01*
X191454091Y-62367955D01*
X191241756Y-62437357D01*
X191043607Y-62540507D01*
X191039474Y-62543610D01*
X191039471Y-62543612D01*
X190949102Y-62611463D01*
X190864965Y-62674635D01*
X190825525Y-62715907D01*
X190771280Y-62772671D01*
X190710629Y-62836138D01*
X190603201Y-62993621D01*
X190548293Y-63038621D01*
X190477768Y-63046792D01*
X190414021Y-63015538D01*
X190393324Y-62991054D01*
X190312822Y-62866617D01*
X190312820Y-62866614D01*
X190310014Y-62862277D01*
X190159670Y-62697051D01*
X190155619Y-62693852D01*
X190155615Y-62693848D01*
X189988414Y-62561800D01*
X189988410Y-62561798D01*
X189984359Y-62558598D01*
X189788789Y-62450638D01*
X189783920Y-62448914D01*
X189783916Y-62448912D01*
X189583087Y-62377795D01*
X189583083Y-62377794D01*
X189578212Y-62376069D01*
X189573119Y-62375162D01*
X189573116Y-62375161D01*
X189363373Y-62337800D01*
X189363367Y-62337799D01*
X189358284Y-62336894D01*
X189284452Y-62335992D01*
X189140081Y-62334228D01*
X189140079Y-62334228D01*
X189134911Y-62334165D01*
X188914091Y-62367955D01*
X188701756Y-62437357D01*
X188503607Y-62540507D01*
X188499474Y-62543610D01*
X188499471Y-62543612D01*
X188409102Y-62611463D01*
X188324965Y-62674635D01*
X188285525Y-62715907D01*
X188231280Y-62772671D01*
X188170629Y-62836138D01*
X188063201Y-62993621D01*
X188008293Y-63038621D01*
X187937768Y-63046792D01*
X187874021Y-63015538D01*
X187853324Y-62991054D01*
X187772822Y-62866617D01*
X187772820Y-62866614D01*
X187770014Y-62862277D01*
X187619670Y-62697051D01*
X187615619Y-62693852D01*
X187615615Y-62693848D01*
X187448414Y-62561800D01*
X187448410Y-62561798D01*
X187444359Y-62558598D01*
X187248789Y-62450638D01*
X187243920Y-62448914D01*
X187243916Y-62448912D01*
X187043087Y-62377795D01*
X187043083Y-62377794D01*
X187038212Y-62376069D01*
X187033119Y-62375162D01*
X187033116Y-62375161D01*
X186823373Y-62337800D01*
X186823367Y-62337799D01*
X186818284Y-62336894D01*
X186744452Y-62335992D01*
X186600081Y-62334228D01*
X186600079Y-62334228D01*
X186594911Y-62334165D01*
X186374091Y-62367955D01*
X186161756Y-62437357D01*
X185963607Y-62540507D01*
X185959474Y-62543610D01*
X185959471Y-62543612D01*
X185869102Y-62611463D01*
X185784965Y-62674635D01*
X185745525Y-62715907D01*
X185691280Y-62772671D01*
X185630629Y-62836138D01*
X185627720Y-62840403D01*
X185627714Y-62840411D01*
X185610652Y-62865423D01*
X185504743Y-63020680D01*
X185472192Y-63090805D01*
X185415157Y-63213678D01*
X185410688Y-63223305D01*
X185350989Y-63438570D01*
X185327251Y-63660695D01*
X181070474Y-63660695D01*
X181068443Y-63657794D01*
X181068441Y-63657791D01*
X181065284Y-63653283D01*
X180907717Y-63495716D01*
X180725183Y-63367903D01*
X180720201Y-63365580D01*
X180720196Y-63365577D01*
X180620728Y-63319195D01*
X180567443Y-63272278D01*
X180547982Y-63204001D01*
X180568524Y-63136041D01*
X180620728Y-63090805D01*
X180720196Y-63044423D01*
X180720201Y-63044420D01*
X180725183Y-63042097D01*
X180907717Y-62914284D01*
X181065284Y-62756717D01*
X181193097Y-62574182D01*
X181195420Y-62569200D01*
X181195423Y-62569195D01*
X181284947Y-62377209D01*
X181284948Y-62377208D01*
X181287270Y-62372227D01*
X181344944Y-62156986D01*
X181364365Y-61935000D01*
X181344944Y-61713014D01*
X181287270Y-61497773D01*
X181249568Y-61416920D01*
X181195423Y-61300805D01*
X181195420Y-61300800D01*
X181193097Y-61295818D01*
X181070494Y-61120723D01*
X181068443Y-61117794D01*
X181068441Y-61117791D01*
X181065284Y-61113283D01*
X180907717Y-60955716D01*
X180900837Y-60950898D01*
X180822836Y-60896281D01*
X180725183Y-60827903D01*
X180720201Y-60825580D01*
X180720196Y-60825577D01*
X180620728Y-60779195D01*
X180567443Y-60732278D01*
X180547982Y-60664001D01*
X180568524Y-60596041D01*
X180620728Y-60550805D01*
X180720196Y-60504423D01*
X180720201Y-60504420D01*
X180725183Y-60502097D01*
X180907717Y-60374284D01*
X181065284Y-60216717D01*
X181193097Y-60034182D01*
X181195420Y-60029200D01*
X181195423Y-60029195D01*
X181284947Y-59837209D01*
X181284948Y-59837208D01*
X181287270Y-59832227D01*
X181344944Y-59616986D01*
X181364365Y-59395000D01*
X181344944Y-59173014D01*
X181287270Y-58957773D01*
X181249568Y-58876920D01*
X181195423Y-58760805D01*
X181195420Y-58760800D01*
X181193097Y-58755818D01*
X181070687Y-58580999D01*
X181068443Y-58577794D01*
X181068441Y-58577791D01*
X181065284Y-58573283D01*
X180907717Y-58415716D01*
X180725183Y-58287903D01*
X180720201Y-58285580D01*
X180720196Y-58285577D01*
X180620728Y-58239195D01*
X180567443Y-58192278D01*
X180547982Y-58124001D01*
X180568524Y-58056041D01*
X180620728Y-58010805D01*
X180720196Y-57964423D01*
X180720201Y-57964420D01*
X180725183Y-57962097D01*
X180907717Y-57834284D01*
X181065284Y-57676717D01*
X181193097Y-57494182D01*
X181195420Y-57489200D01*
X181195423Y-57489195D01*
X181284947Y-57297209D01*
X181284948Y-57297208D01*
X181287270Y-57292227D01*
X181344944Y-57076986D01*
X181364365Y-56855000D01*
X181344944Y-56633014D01*
X181287270Y-56417773D01*
X181249568Y-56336920D01*
X181195423Y-56220805D01*
X181195420Y-56220800D01*
X181193097Y-56215818D01*
X181070687Y-56040999D01*
X181068443Y-56037794D01*
X181068441Y-56037791D01*
X181065284Y-56033283D01*
X180907717Y-55875716D01*
X180725183Y-55747903D01*
X180720201Y-55745580D01*
X180720196Y-55745577D01*
X180620728Y-55699195D01*
X180567443Y-55652278D01*
X180547982Y-55584001D01*
X180568524Y-55516041D01*
X180620728Y-55470805D01*
X180720196Y-55424423D01*
X180720201Y-55424420D01*
X180725183Y-55422097D01*
X180907717Y-55294284D01*
X181065284Y-55136717D01*
X181193097Y-54954182D01*
X181195420Y-54949200D01*
X181195423Y-54949195D01*
X181284947Y-54757209D01*
X181284948Y-54757208D01*
X181287270Y-54752227D01*
X181344944Y-54536986D01*
X181364365Y-54315000D01*
X181344944Y-54093014D01*
X181287270Y-53877773D01*
X181249568Y-53796920D01*
X181195423Y-53680805D01*
X181195420Y-53680800D01*
X181193097Y-53675818D01*
X181079806Y-53514022D01*
X181068443Y-53497794D01*
X181068441Y-53497791D01*
X181065284Y-53493283D01*
X180907717Y-53335716D01*
X180855218Y-53298955D01*
X180793685Y-53255869D01*
X180725183Y-53207903D01*
X180720201Y-53205580D01*
X180720196Y-53205577D01*
X180620728Y-53159195D01*
X180567443Y-53112278D01*
X180547982Y-53044001D01*
X180568524Y-52976041D01*
X180620728Y-52930805D01*
X180720196Y-52884423D01*
X180720201Y-52884420D01*
X180725183Y-52882097D01*
X180907717Y-52754284D01*
X181065284Y-52596717D01*
X181193097Y-52414182D01*
X181195420Y-52409200D01*
X181195423Y-52409195D01*
X181284947Y-52217209D01*
X181284948Y-52217208D01*
X181287270Y-52212227D01*
X181344944Y-51996986D01*
X181364365Y-51775000D01*
X181344944Y-51553014D01*
X181295831Y-51369723D01*
X181288693Y-51343083D01*
X181288692Y-51343081D01*
X181287270Y-51337773D01*
X181284947Y-51332791D01*
X181195423Y-51140805D01*
X181195420Y-51140800D01*
X181193097Y-51135818D01*
X181065284Y-50953283D01*
X180907717Y-50795716D01*
X180725183Y-50667903D01*
X180720201Y-50665580D01*
X180720196Y-50665577D01*
X180528209Y-50576053D01*
X180528208Y-50576053D01*
X180523227Y-50573730D01*
X180517919Y-50572308D01*
X180517917Y-50572307D01*
X180451536Y-50554520D01*
X180307986Y-50516056D01*
X180086000Y-50496635D01*
X179864014Y-50516056D01*
X179720465Y-50554520D01*
X179654083Y-50572307D01*
X179654081Y-50572308D01*
X179648773Y-50573730D01*
X179643792Y-50576052D01*
X179643791Y-50576053D01*
X179451805Y-50665577D01*
X179451800Y-50665580D01*
X179446818Y-50667903D01*
X179264283Y-50795716D01*
X179106716Y-50953283D01*
X178978903Y-51135818D01*
X178976580Y-51140800D01*
X178976577Y-51140805D01*
X178887053Y-51332791D01*
X178884730Y-51337773D01*
X178883308Y-51343081D01*
X178883307Y-51343083D01*
X178876169Y-51369723D01*
X178827056Y-51553014D01*
X178807635Y-51775000D01*
X178827056Y-51996986D01*
X178884730Y-52212227D01*
X178887052Y-52217208D01*
X178887053Y-52217209D01*
X178976577Y-52409195D01*
X178976580Y-52409200D01*
X178978903Y-52414182D01*
X179106716Y-52596717D01*
X179264283Y-52754284D01*
X179446817Y-52882097D01*
X179451802Y-52884421D01*
X179451808Y-52884425D01*
X179551272Y-52930805D01*
X179604558Y-52977722D01*
X179624019Y-53045999D01*
X179603478Y-53113959D01*
X179551273Y-53159195D01*
X179451805Y-53205577D01*
X179451800Y-53205580D01*
X179446818Y-53207903D01*
X179264283Y-53335716D01*
X179106716Y-53493283D01*
X179103559Y-53497791D01*
X179103557Y-53497794D01*
X179092194Y-53514022D01*
X178978903Y-53675818D01*
X178976580Y-53680800D01*
X178976577Y-53680805D01*
X178922432Y-53796920D01*
X178884730Y-53877773D01*
X178827056Y-54093014D01*
X178807635Y-54315000D01*
X178827056Y-54536986D01*
X178884730Y-54752227D01*
X178887052Y-54757208D01*
X178887053Y-54757209D01*
X178976577Y-54949195D01*
X178976580Y-54949200D01*
X178978903Y-54954182D01*
X179106716Y-55136717D01*
X179264283Y-55294284D01*
X179446817Y-55422097D01*
X179451802Y-55424421D01*
X179451808Y-55424425D01*
X179551272Y-55470805D01*
X179604558Y-55517722D01*
X179624019Y-55585999D01*
X179603478Y-55653959D01*
X179551273Y-55699195D01*
X179451805Y-55745577D01*
X179451800Y-55745580D01*
X179446818Y-55747903D01*
X179264283Y-55875716D01*
X179106716Y-56033283D01*
X179103559Y-56037791D01*
X179103557Y-56037794D01*
X179101313Y-56040999D01*
X178978903Y-56215818D01*
X178976580Y-56220800D01*
X178976577Y-56220805D01*
X178922432Y-56336920D01*
X178884730Y-56417773D01*
X178827056Y-56633014D01*
X178807635Y-56855000D01*
X178827056Y-57076986D01*
X178884730Y-57292227D01*
X178887052Y-57297208D01*
X178887053Y-57297209D01*
X178976577Y-57489195D01*
X178976580Y-57489200D01*
X178978903Y-57494182D01*
X179106716Y-57676717D01*
X179264283Y-57834284D01*
X179446817Y-57962097D01*
X179451802Y-57964421D01*
X179451808Y-57964425D01*
X179551272Y-58010805D01*
X179604558Y-58057722D01*
X179624019Y-58125999D01*
X179603478Y-58193959D01*
X179551273Y-58239195D01*
X179451805Y-58285577D01*
X179451800Y-58285580D01*
X179446818Y-58287903D01*
X179264283Y-58415716D01*
X179106716Y-58573283D01*
X179103559Y-58577791D01*
X179103557Y-58577794D01*
X179101313Y-58580999D01*
X178978903Y-58755818D01*
X178976580Y-58760800D01*
X178976577Y-58760805D01*
X178922432Y-58876920D01*
X178884730Y-58957773D01*
X178827056Y-59173014D01*
X178807635Y-59395000D01*
X178827056Y-59616986D01*
X178884730Y-59832227D01*
X178887052Y-59837208D01*
X178887053Y-59837209D01*
X178976577Y-60029195D01*
X178976580Y-60029200D01*
X178978903Y-60034182D01*
X179106716Y-60216717D01*
X179264283Y-60374284D01*
X179446817Y-60502097D01*
X179451802Y-60504421D01*
X179451808Y-60504425D01*
X179551272Y-60550805D01*
X179604558Y-60597722D01*
X179624019Y-60665999D01*
X179603478Y-60733959D01*
X179551273Y-60779195D01*
X179451805Y-60825577D01*
X179451800Y-60825580D01*
X179446818Y-60827903D01*
X179349165Y-60896281D01*
X179271164Y-60950898D01*
X179264283Y-60955716D01*
X179106716Y-61113283D01*
X179103559Y-61117791D01*
X179103557Y-61117794D01*
X179101506Y-61120723D01*
X178978903Y-61295818D01*
X178976580Y-61300800D01*
X178976577Y-61300805D01*
X178922432Y-61416920D01*
X178884730Y-61497773D01*
X178827056Y-61713014D01*
X178807635Y-61935000D01*
X178827056Y-62156986D01*
X178884730Y-62372227D01*
X178887052Y-62377208D01*
X178887053Y-62377209D01*
X178976577Y-62569195D01*
X178976580Y-62569200D01*
X178978903Y-62574182D01*
X179106716Y-62756717D01*
X179264283Y-62914284D01*
X179446817Y-63042097D01*
X179451802Y-63044421D01*
X179451808Y-63044425D01*
X179551272Y-63090805D01*
X179604558Y-63137722D01*
X179624019Y-63205999D01*
X179603478Y-63273959D01*
X179551273Y-63319195D01*
X179451805Y-63365577D01*
X179451800Y-63365580D01*
X179446818Y-63367903D01*
X179264283Y-63495716D01*
X179106716Y-63653283D01*
X179103559Y-63657791D01*
X179103557Y-63657794D01*
X179092194Y-63674022D01*
X178978903Y-63835818D01*
X178976580Y-63840800D01*
X178976577Y-63840805D01*
X178922432Y-63956920D01*
X178884730Y-64037773D01*
X178827056Y-64253014D01*
X178807635Y-64475000D01*
X178827056Y-64696986D01*
X178884730Y-64912227D01*
X178887052Y-64917208D01*
X178887053Y-64917209D01*
X178976577Y-65109195D01*
X178976580Y-65109200D01*
X178978903Y-65114182D01*
X179106716Y-65296717D01*
X179264283Y-65454284D01*
X179446817Y-65582097D01*
X179451802Y-65584421D01*
X179451808Y-65584425D01*
X179551272Y-65630805D01*
X179604558Y-65677722D01*
X179624019Y-65745999D01*
X179603478Y-65813959D01*
X179551273Y-65859195D01*
X179451805Y-65905577D01*
X179451800Y-65905580D01*
X179446818Y-65907903D01*
X179264283Y-66035716D01*
X179106716Y-66193283D01*
X179103559Y-66197791D01*
X179103557Y-66197794D01*
X179101313Y-66200999D01*
X178978903Y-66375818D01*
X178976580Y-66380800D01*
X178976577Y-66380805D01*
X178922432Y-66496920D01*
X178884730Y-66577773D01*
X178827056Y-66793014D01*
X178807635Y-67015000D01*
X178827056Y-67236986D01*
X178884730Y-67452227D01*
X178887052Y-67457208D01*
X178887053Y-67457209D01*
X178976577Y-67649195D01*
X178976580Y-67649200D01*
X178978903Y-67654182D01*
X179106716Y-67836717D01*
X179264283Y-67994284D01*
X179446817Y-68122097D01*
X179451802Y-68124421D01*
X179451808Y-68124425D01*
X179551272Y-68170805D01*
X179604558Y-68217722D01*
X179624019Y-68285999D01*
X179603478Y-68353959D01*
X179551273Y-68399195D01*
X179451805Y-68445577D01*
X179451800Y-68445580D01*
X179446818Y-68447903D01*
X179264283Y-68575716D01*
X179106716Y-68733283D01*
X179103559Y-68737791D01*
X179103557Y-68737794D01*
X179101313Y-68740999D01*
X178978903Y-68915818D01*
X178976580Y-68920800D01*
X178976577Y-68920805D01*
X178922432Y-69036920D01*
X178884730Y-69117773D01*
X178827056Y-69333014D01*
X178807635Y-69555000D01*
X178827056Y-69776986D01*
X178884730Y-69992227D01*
X178887052Y-69997208D01*
X178887053Y-69997209D01*
X178976577Y-70189195D01*
X178976580Y-70189200D01*
X178978903Y-70194182D01*
X179106716Y-70376717D01*
X179264283Y-70534284D01*
X179446817Y-70662097D01*
X179451802Y-70664421D01*
X179451808Y-70664425D01*
X179551272Y-70710805D01*
X179604558Y-70757722D01*
X179624019Y-70825999D01*
X179603478Y-70893959D01*
X179551273Y-70939195D01*
X179451805Y-70985577D01*
X179451800Y-70985580D01*
X179446818Y-70987903D01*
X179264283Y-71115716D01*
X179106716Y-71273283D01*
X179103559Y-71277791D01*
X179103557Y-71277794D01*
X179101313Y-71280999D01*
X178978903Y-71455818D01*
X178976580Y-71460800D01*
X178976577Y-71460805D01*
X178922432Y-71576920D01*
X178884730Y-71657773D01*
X178827056Y-71873014D01*
X178807635Y-72095000D01*
X178827056Y-72316986D01*
X178884730Y-72532227D01*
X178887052Y-72537208D01*
X178887053Y-72537209D01*
X178976577Y-72729195D01*
X178976580Y-72729200D01*
X178978903Y-72734182D01*
X179106716Y-72916717D01*
X179264283Y-73074284D01*
X179446817Y-73202097D01*
X179451802Y-73204421D01*
X179451808Y-73204425D01*
X179551272Y-73250805D01*
X179604558Y-73297722D01*
X179624019Y-73365999D01*
X179603478Y-73433959D01*
X179551273Y-73479195D01*
X179451805Y-73525577D01*
X179451800Y-73525580D01*
X179446818Y-73527903D01*
X179264283Y-73655716D01*
X179106716Y-73813283D01*
X179103559Y-73817791D01*
X179103557Y-73817794D01*
X179101313Y-73820999D01*
X178978903Y-73995818D01*
X178976580Y-74000800D01*
X178976577Y-74000805D01*
X178922432Y-74116920D01*
X178884730Y-74197773D01*
X178827056Y-74413014D01*
X178807635Y-74635000D01*
X178827056Y-74856986D01*
X178884730Y-75072227D01*
X178887052Y-75077208D01*
X178887053Y-75077209D01*
X178976577Y-75269195D01*
X178976580Y-75269200D01*
X178978903Y-75274182D01*
X179106716Y-75456717D01*
X179264283Y-75614284D01*
X179446817Y-75742097D01*
X179451802Y-75744421D01*
X179451808Y-75744425D01*
X179551272Y-75790805D01*
X179604558Y-75837722D01*
X179624019Y-75905999D01*
X179603478Y-75973959D01*
X179551273Y-76019195D01*
X179451805Y-76065577D01*
X179451800Y-76065580D01*
X179446818Y-76067903D01*
X179264283Y-76195716D01*
X179106716Y-76353283D01*
X179103559Y-76357791D01*
X179103557Y-76357794D01*
X179101313Y-76360999D01*
X178978903Y-76535818D01*
X178976580Y-76540800D01*
X178976577Y-76540805D01*
X178922432Y-76656920D01*
X178884730Y-76737773D01*
X178827056Y-76953014D01*
X178807635Y-77175000D01*
X178827056Y-77396986D01*
X178884730Y-77612227D01*
X178887052Y-77617208D01*
X178887053Y-77617209D01*
X178976577Y-77809195D01*
X178976580Y-77809200D01*
X178978903Y-77814182D01*
X179106716Y-77996717D01*
X179264283Y-78154284D01*
X179446817Y-78282097D01*
X179451802Y-78284421D01*
X179451808Y-78284425D01*
X179551272Y-78330805D01*
X179604558Y-78377722D01*
X179624019Y-78445999D01*
X179603478Y-78513959D01*
X179551273Y-78559195D01*
X179451805Y-78605577D01*
X179451800Y-78605580D01*
X179446818Y-78607903D01*
X179264283Y-78735716D01*
X179106716Y-78893283D01*
X179103559Y-78897791D01*
X179103557Y-78897794D01*
X179101313Y-78900999D01*
X178978903Y-79075818D01*
X178976580Y-79080800D01*
X178976577Y-79080805D01*
X178922432Y-79196920D01*
X178884730Y-79277773D01*
X178827056Y-79493014D01*
X178807635Y-79715000D01*
X178827056Y-79936986D01*
X178884730Y-80152227D01*
X178887052Y-80157208D01*
X178887053Y-80157209D01*
X178976577Y-80349195D01*
X178976580Y-80349200D01*
X178978903Y-80354182D01*
X179106716Y-80536717D01*
X179264283Y-80694284D01*
X179446817Y-80822097D01*
X179451802Y-80824421D01*
X179451808Y-80824425D01*
X179551272Y-80870805D01*
X179604558Y-80917722D01*
X179624019Y-80985999D01*
X179603478Y-81053959D01*
X179551273Y-81099195D01*
X179451805Y-81145577D01*
X179451800Y-81145580D01*
X179446818Y-81147903D01*
X179264283Y-81275716D01*
X179106716Y-81433283D01*
X179103559Y-81437791D01*
X179103557Y-81437794D01*
X179101313Y-81440999D01*
X178978903Y-81615818D01*
X178976580Y-81620800D01*
X178976577Y-81620805D01*
X178922432Y-81736920D01*
X178884730Y-81817773D01*
X178827056Y-82033014D01*
X178807635Y-82255000D01*
X178827056Y-82476986D01*
X178884730Y-82692227D01*
X178887052Y-82697208D01*
X178887053Y-82697209D01*
X178976577Y-82889195D01*
X178976580Y-82889200D01*
X178978903Y-82894182D01*
X179106716Y-83076717D01*
X179264283Y-83234284D01*
X179446817Y-83362097D01*
X179451802Y-83364421D01*
X179451808Y-83364425D01*
X179551272Y-83410805D01*
X179604558Y-83457722D01*
X179624019Y-83525999D01*
X179603478Y-83593959D01*
X179551273Y-83639195D01*
X179451805Y-83685577D01*
X179451800Y-83685580D01*
X179446818Y-83687903D01*
X179264283Y-83815716D01*
X179106716Y-83973283D01*
X179103559Y-83977791D01*
X179103557Y-83977794D01*
X179101313Y-83980999D01*
X178978903Y-84155818D01*
X178976580Y-84160800D01*
X178976577Y-84160805D01*
X178922432Y-84276920D01*
X178884730Y-84357773D01*
X178827056Y-84573014D01*
X178807635Y-84795000D01*
X166123384Y-84795000D01*
X166123384Y-84789525D01*
X166104928Y-84578581D01*
X166103025Y-84567786D01*
X166048221Y-84363255D01*
X166044475Y-84352963D01*
X165954988Y-84161056D01*
X165949505Y-84151561D01*
X165918360Y-84107081D01*
X165907883Y-84098706D01*
X165894436Y-84105774D01*
X165218022Y-84782188D01*
X165210408Y-84796132D01*
X164480356Y-84796132D01*
X164481592Y-84793868D01*
X164481461Y-84792035D01*
X164477210Y-84785420D01*
X163796843Y-84105053D01*
X163785068Y-84098623D01*
X163773053Y-84107919D01*
X163742495Y-84151561D01*
X163737012Y-84161056D01*
X163647525Y-84352963D01*
X163643779Y-84363255D01*
X163588975Y-84567786D01*
X163587072Y-84578581D01*
X163568616Y-84789525D01*
X163568616Y-84800475D01*
X156756224Y-84800475D01*
X156755054Y-84797965D01*
X156670814Y-84617311D01*
X156670811Y-84617306D01*
X156668488Y-84612324D01*
X156540977Y-84430219D01*
X156383781Y-84273023D01*
X156379273Y-84269866D01*
X156379270Y-84269864D01*
X156223876Y-84161056D01*
X156201677Y-84145512D01*
X156196695Y-84143189D01*
X156196690Y-84143186D01*
X156091627Y-84094195D01*
X156038342Y-84047278D01*
X156018881Y-83979001D01*
X156039423Y-83911041D01*
X156091627Y-83865805D01*
X156196690Y-83816814D01*
X156196695Y-83816811D01*
X156201677Y-83814488D01*
X156316528Y-83734068D01*
X156379270Y-83690136D01*
X156379273Y-83690134D01*
X156383781Y-83686977D01*
X156540977Y-83529781D01*
X156545025Y-83524001D01*
X156665331Y-83352185D01*
X156665332Y-83352183D01*
X156668488Y-83347676D01*
X156670811Y-83342694D01*
X156670814Y-83342689D01*
X156760117Y-83151178D01*
X156760118Y-83151177D01*
X156762440Y-83146196D01*
X156819978Y-82931463D01*
X156839353Y-82710000D01*
X156819978Y-82488537D01*
X156762440Y-82273804D01*
X156753672Y-82255000D01*
X163567635Y-82255000D01*
X163587056Y-82476986D01*
X163644730Y-82692227D01*
X163647052Y-82697208D01*
X163647053Y-82697209D01*
X163736577Y-82889195D01*
X163736580Y-82889200D01*
X163738903Y-82894182D01*
X163866716Y-83076717D01*
X164024283Y-83234284D01*
X164206817Y-83362097D01*
X164211802Y-83364421D01*
X164211808Y-83364425D01*
X164311864Y-83411081D01*
X164365150Y-83457998D01*
X164384611Y-83526275D01*
X164364070Y-83594235D01*
X164311865Y-83639471D01*
X164212056Y-83686012D01*
X164202561Y-83691495D01*
X164158081Y-83722640D01*
X164149706Y-83733117D01*
X164156774Y-83746564D01*
X164833188Y-84422978D01*
X164847132Y-84430592D01*
X164848965Y-84430461D01*
X164855580Y-84426210D01*
X165535947Y-83745843D01*
X165542377Y-83734068D01*
X165533084Y-83722055D01*
X165489431Y-83691488D01*
X165479953Y-83686016D01*
X165380136Y-83639471D01*
X165326851Y-83592554D01*
X165307390Y-83524277D01*
X165327932Y-83456317D01*
X165380136Y-83411081D01*
X165480196Y-83364423D01*
X165480201Y-83364420D01*
X165485183Y-83362097D01*
X165667717Y-83234284D01*
X165825284Y-83076717D01*
X165953097Y-82894182D01*
X165955420Y-82889200D01*
X165955423Y-82889195D01*
X166044947Y-82697209D01*
X166044948Y-82697208D01*
X166047270Y-82692227D01*
X166104944Y-82476986D01*
X166124365Y-82255000D01*
X166104944Y-82033014D01*
X166047270Y-81817773D01*
X166009568Y-81736920D01*
X165955423Y-81620805D01*
X165955420Y-81620800D01*
X165953097Y-81615818D01*
X165830687Y-81440999D01*
X165828443Y-81437794D01*
X165828441Y-81437791D01*
X165825284Y-81433283D01*
X165667717Y-81275716D01*
X165485183Y-81147903D01*
X165480201Y-81145580D01*
X165480196Y-81145577D01*
X165380728Y-81099195D01*
X165327443Y-81052278D01*
X165307982Y-80984001D01*
X165328524Y-80916041D01*
X165380728Y-80870805D01*
X165480196Y-80824423D01*
X165480201Y-80824420D01*
X165485183Y-80822097D01*
X165667717Y-80694284D01*
X165825284Y-80536717D01*
X165953097Y-80354182D01*
X165955420Y-80349200D01*
X165955423Y-80349195D01*
X166044947Y-80157209D01*
X166044948Y-80157208D01*
X166047270Y-80152227D01*
X166104944Y-79936986D01*
X166124365Y-79715000D01*
X166104944Y-79493014D01*
X166047270Y-79277773D01*
X166009568Y-79196920D01*
X165955423Y-79080805D01*
X165955420Y-79080800D01*
X165953097Y-79075818D01*
X165830687Y-78900999D01*
X165828443Y-78897794D01*
X165828441Y-78897791D01*
X165825284Y-78893283D01*
X165667717Y-78735716D01*
X165485183Y-78607903D01*
X165480201Y-78605580D01*
X165480196Y-78605577D01*
X165380728Y-78559195D01*
X165327443Y-78512278D01*
X165307982Y-78444001D01*
X165328524Y-78376041D01*
X165380728Y-78330805D01*
X165480196Y-78284423D01*
X165480201Y-78284420D01*
X165485183Y-78282097D01*
X165667717Y-78154284D01*
X165825284Y-77996717D01*
X165953097Y-77814182D01*
X165955420Y-77809200D01*
X165955423Y-77809195D01*
X166044947Y-77617209D01*
X166044948Y-77617208D01*
X166047270Y-77612227D01*
X166104944Y-77396986D01*
X166124365Y-77175000D01*
X166104944Y-76953014D01*
X166047270Y-76737773D01*
X166009568Y-76656920D01*
X165955423Y-76540805D01*
X165955420Y-76540800D01*
X165953097Y-76535818D01*
X165830687Y-76360999D01*
X165828443Y-76357794D01*
X165828441Y-76357791D01*
X165825284Y-76353283D01*
X165667717Y-76195716D01*
X165485183Y-76067903D01*
X165480201Y-76065580D01*
X165480196Y-76065577D01*
X165380728Y-76019195D01*
X165327443Y-75972278D01*
X165307982Y-75904001D01*
X165328524Y-75836041D01*
X165380728Y-75790805D01*
X165480196Y-75744423D01*
X165480201Y-75744420D01*
X165485183Y-75742097D01*
X165667717Y-75614284D01*
X165825284Y-75456717D01*
X165953097Y-75274182D01*
X165955420Y-75269200D01*
X165955423Y-75269195D01*
X166044947Y-75077209D01*
X166044948Y-75077208D01*
X166047270Y-75072227D01*
X166104944Y-74856986D01*
X166124365Y-74635000D01*
X166104944Y-74413014D01*
X166047270Y-74197773D01*
X166009568Y-74116920D01*
X165955423Y-74000805D01*
X165955420Y-74000800D01*
X165953097Y-73995818D01*
X165830687Y-73820999D01*
X165828443Y-73817794D01*
X165828441Y-73817791D01*
X165825284Y-73813283D01*
X165667717Y-73655716D01*
X165485183Y-73527903D01*
X165480201Y-73525580D01*
X165480196Y-73525577D01*
X165380728Y-73479195D01*
X165327443Y-73432278D01*
X165307982Y-73364001D01*
X165328524Y-73296041D01*
X165380728Y-73250805D01*
X165480196Y-73204423D01*
X165480201Y-73204420D01*
X165485183Y-73202097D01*
X165667717Y-73074284D01*
X165825284Y-72916717D01*
X165953097Y-72734182D01*
X165955420Y-72729200D01*
X165955423Y-72729195D01*
X166044947Y-72537209D01*
X166044948Y-72537208D01*
X166047270Y-72532227D01*
X166104944Y-72316986D01*
X166124365Y-72095000D01*
X166104944Y-71873014D01*
X166047270Y-71657773D01*
X166009568Y-71576920D01*
X165955423Y-71460805D01*
X165955420Y-71460800D01*
X165953097Y-71455818D01*
X165830687Y-71280999D01*
X165828443Y-71277794D01*
X165828441Y-71277791D01*
X165825284Y-71273283D01*
X165667717Y-71115716D01*
X165485183Y-70987903D01*
X165480201Y-70985580D01*
X165480196Y-70985577D01*
X165380728Y-70939195D01*
X165327443Y-70892278D01*
X165307982Y-70824001D01*
X165328524Y-70756041D01*
X165380728Y-70710805D01*
X165480196Y-70664423D01*
X165480201Y-70664420D01*
X165485183Y-70662097D01*
X165667717Y-70534284D01*
X165825284Y-70376717D01*
X165953097Y-70194182D01*
X165955420Y-70189200D01*
X165955423Y-70189195D01*
X166044947Y-69997209D01*
X166044948Y-69997208D01*
X166047270Y-69992227D01*
X166104944Y-69776986D01*
X166124365Y-69555000D01*
X166104944Y-69333014D01*
X166047270Y-69117773D01*
X166009568Y-69036920D01*
X165955423Y-68920805D01*
X165955420Y-68920800D01*
X165953097Y-68915818D01*
X165830687Y-68740999D01*
X165828443Y-68737794D01*
X165828441Y-68737791D01*
X165825284Y-68733283D01*
X165667717Y-68575716D01*
X165485183Y-68447903D01*
X165480201Y-68445580D01*
X165480196Y-68445577D01*
X165380728Y-68399195D01*
X165327443Y-68352278D01*
X165307982Y-68284001D01*
X165328524Y-68216041D01*
X165380728Y-68170805D01*
X165480196Y-68124423D01*
X165480201Y-68124420D01*
X165485183Y-68122097D01*
X165667717Y-67994284D01*
X165825284Y-67836717D01*
X165953097Y-67654182D01*
X165955420Y-67649200D01*
X165955423Y-67649195D01*
X166044947Y-67457209D01*
X166044948Y-67457208D01*
X166047270Y-67452227D01*
X166104944Y-67236986D01*
X166124365Y-67015000D01*
X166104944Y-66793014D01*
X166047270Y-66577773D01*
X166009568Y-66496920D01*
X165955423Y-66380805D01*
X165955420Y-66380800D01*
X165953097Y-66375818D01*
X165830687Y-66200999D01*
X165828443Y-66197794D01*
X165828441Y-66197791D01*
X165825284Y-66193283D01*
X165667717Y-66035716D01*
X165485183Y-65907903D01*
X165480201Y-65905580D01*
X165480196Y-65905577D01*
X165380728Y-65859195D01*
X165327443Y-65812278D01*
X165307982Y-65744001D01*
X165328524Y-65676041D01*
X165380728Y-65630805D01*
X165480196Y-65584423D01*
X165480201Y-65584420D01*
X165485183Y-65582097D01*
X165667717Y-65454284D01*
X165825284Y-65296717D01*
X165953097Y-65114182D01*
X165955420Y-65109200D01*
X165955423Y-65109195D01*
X166044947Y-64917209D01*
X166044948Y-64917208D01*
X166047270Y-64912227D01*
X166104944Y-64696986D01*
X166124365Y-64475000D01*
X166104944Y-64253014D01*
X166047270Y-64037773D01*
X166009568Y-63956920D01*
X165955423Y-63840805D01*
X165955420Y-63840800D01*
X165953097Y-63835818D01*
X165839806Y-63674022D01*
X165828443Y-63657794D01*
X165828441Y-63657791D01*
X165825284Y-63653283D01*
X165667717Y-63495716D01*
X165485183Y-63367903D01*
X165480201Y-63365580D01*
X165480196Y-63365577D01*
X165380728Y-63319195D01*
X165327443Y-63272278D01*
X165307982Y-63204001D01*
X165328524Y-63136041D01*
X165380728Y-63090805D01*
X165480196Y-63044423D01*
X165480201Y-63044420D01*
X165485183Y-63042097D01*
X165667717Y-62914284D01*
X165825284Y-62756717D01*
X165953097Y-62574182D01*
X165955420Y-62569200D01*
X165955423Y-62569195D01*
X166044947Y-62377209D01*
X166044948Y-62377208D01*
X166047270Y-62372227D01*
X166104944Y-62156986D01*
X166124365Y-61935000D01*
X166104944Y-61713014D01*
X166047270Y-61497773D01*
X166009568Y-61416920D01*
X165955423Y-61300805D01*
X165955420Y-61300800D01*
X165953097Y-61295818D01*
X165830494Y-61120723D01*
X165828443Y-61117794D01*
X165828441Y-61117791D01*
X165825284Y-61113283D01*
X165667717Y-60955716D01*
X165660837Y-60950898D01*
X165582836Y-60896281D01*
X165485183Y-60827903D01*
X165480201Y-60825580D01*
X165480196Y-60825577D01*
X165380728Y-60779195D01*
X165327443Y-60732278D01*
X165307982Y-60664001D01*
X165328524Y-60596041D01*
X165380728Y-60550805D01*
X165480196Y-60504423D01*
X165480201Y-60504420D01*
X165485183Y-60502097D01*
X165667717Y-60374284D01*
X165825284Y-60216717D01*
X165953097Y-60034182D01*
X165955420Y-60029200D01*
X165955423Y-60029195D01*
X166044947Y-59837209D01*
X166044948Y-59837208D01*
X166047270Y-59832227D01*
X166104944Y-59616986D01*
X166124365Y-59395000D01*
X166104944Y-59173014D01*
X166047270Y-58957773D01*
X166009568Y-58876920D01*
X165955423Y-58760805D01*
X165955420Y-58760800D01*
X165953097Y-58755818D01*
X165830687Y-58580999D01*
X165828443Y-58577794D01*
X165828441Y-58577791D01*
X165825284Y-58573283D01*
X165667717Y-58415716D01*
X165485183Y-58287903D01*
X165480201Y-58285580D01*
X165480196Y-58285577D01*
X165380728Y-58239195D01*
X165327443Y-58192278D01*
X165307982Y-58124001D01*
X165328524Y-58056041D01*
X165380728Y-58010805D01*
X165480196Y-57964423D01*
X165480201Y-57964420D01*
X165485183Y-57962097D01*
X165667717Y-57834284D01*
X165825284Y-57676717D01*
X165953097Y-57494182D01*
X165955420Y-57489200D01*
X165955423Y-57489195D01*
X166044947Y-57297209D01*
X166044948Y-57297208D01*
X166047270Y-57292227D01*
X166104944Y-57076986D01*
X166124365Y-56855000D01*
X166104944Y-56633014D01*
X166047270Y-56417773D01*
X166009568Y-56336920D01*
X165955423Y-56220805D01*
X165955420Y-56220800D01*
X165953097Y-56215818D01*
X165830687Y-56040999D01*
X165828443Y-56037794D01*
X165828441Y-56037791D01*
X165825284Y-56033283D01*
X165667717Y-55875716D01*
X165485183Y-55747903D01*
X165480201Y-55745580D01*
X165480196Y-55745577D01*
X165380728Y-55699195D01*
X165327443Y-55652278D01*
X165307982Y-55584001D01*
X165328524Y-55516041D01*
X165380728Y-55470805D01*
X165480196Y-55424423D01*
X165480201Y-55424420D01*
X165485183Y-55422097D01*
X165667717Y-55294284D01*
X165825284Y-55136717D01*
X165953097Y-54954182D01*
X165955420Y-54949200D01*
X165955423Y-54949195D01*
X166044947Y-54757209D01*
X166044948Y-54757208D01*
X166047270Y-54752227D01*
X166104944Y-54536986D01*
X166124365Y-54315000D01*
X166104944Y-54093014D01*
X166047270Y-53877773D01*
X166009568Y-53796920D01*
X165955423Y-53680805D01*
X165955420Y-53680800D01*
X165953097Y-53675818D01*
X165839806Y-53514022D01*
X165828443Y-53497794D01*
X165828441Y-53497791D01*
X165825284Y-53493283D01*
X165667717Y-53335716D01*
X165615218Y-53298955D01*
X165553685Y-53255869D01*
X165485183Y-53207903D01*
X165480201Y-53205580D01*
X165480196Y-53205577D01*
X165380728Y-53159195D01*
X165327443Y-53112278D01*
X165307982Y-53044001D01*
X165328524Y-52976041D01*
X165380728Y-52930805D01*
X165480196Y-52884423D01*
X165480201Y-52884420D01*
X165485183Y-52882097D01*
X165667717Y-52754284D01*
X165825284Y-52596717D01*
X165953097Y-52414182D01*
X165955420Y-52409200D01*
X165955423Y-52409195D01*
X166044947Y-52217209D01*
X166044948Y-52217208D01*
X166047270Y-52212227D01*
X166104944Y-51996986D01*
X166124365Y-51775000D01*
X166104944Y-51553014D01*
X166055831Y-51369723D01*
X166048693Y-51343083D01*
X166048692Y-51343081D01*
X166047270Y-51337773D01*
X166044947Y-51332791D01*
X165955423Y-51140805D01*
X165955420Y-51140800D01*
X165953097Y-51135818D01*
X165825284Y-50953283D01*
X165667717Y-50795716D01*
X165485183Y-50667903D01*
X165480201Y-50665580D01*
X165480196Y-50665577D01*
X165288209Y-50576053D01*
X165288208Y-50576053D01*
X165283227Y-50573730D01*
X165277919Y-50572308D01*
X165277917Y-50572307D01*
X165211536Y-50554520D01*
X165067986Y-50516056D01*
X164846000Y-50496635D01*
X164624014Y-50516056D01*
X164480465Y-50554520D01*
X164414083Y-50572307D01*
X164414081Y-50572308D01*
X164408773Y-50573730D01*
X164403792Y-50576052D01*
X164403791Y-50576053D01*
X164211805Y-50665577D01*
X164211800Y-50665580D01*
X164206818Y-50667903D01*
X164024283Y-50795716D01*
X163866716Y-50953283D01*
X163738903Y-51135818D01*
X163736580Y-51140800D01*
X163736577Y-51140805D01*
X163647053Y-51332791D01*
X163644730Y-51337773D01*
X163643308Y-51343081D01*
X163643307Y-51343083D01*
X163636169Y-51369723D01*
X163587056Y-51553014D01*
X163567635Y-51775000D01*
X163587056Y-51996986D01*
X163644730Y-52212227D01*
X163647052Y-52217208D01*
X163647053Y-52217209D01*
X163736577Y-52409195D01*
X163736580Y-52409200D01*
X163738903Y-52414182D01*
X163866716Y-52596717D01*
X164024283Y-52754284D01*
X164206817Y-52882097D01*
X164211802Y-52884421D01*
X164211808Y-52884425D01*
X164311272Y-52930805D01*
X164364558Y-52977722D01*
X164384019Y-53045999D01*
X164363478Y-53113959D01*
X164311273Y-53159195D01*
X164211805Y-53205577D01*
X164211800Y-53205580D01*
X164206818Y-53207903D01*
X164024283Y-53335716D01*
X163866716Y-53493283D01*
X163863559Y-53497791D01*
X163863557Y-53497794D01*
X163852194Y-53514022D01*
X163738903Y-53675818D01*
X163736580Y-53680800D01*
X163736577Y-53680805D01*
X163682432Y-53796920D01*
X163644730Y-53877773D01*
X163587056Y-54093014D01*
X163567635Y-54315000D01*
X163587056Y-54536986D01*
X163644730Y-54752227D01*
X163647052Y-54757208D01*
X163647053Y-54757209D01*
X163736577Y-54949195D01*
X163736580Y-54949200D01*
X163738903Y-54954182D01*
X163866716Y-55136717D01*
X164024283Y-55294284D01*
X164206817Y-55422097D01*
X164211802Y-55424421D01*
X164211808Y-55424425D01*
X164311272Y-55470805D01*
X164364558Y-55517722D01*
X164384019Y-55585999D01*
X164363478Y-55653959D01*
X164311273Y-55699195D01*
X164211805Y-55745577D01*
X164211800Y-55745580D01*
X164206818Y-55747903D01*
X164024283Y-55875716D01*
X163866716Y-56033283D01*
X163863559Y-56037791D01*
X163863557Y-56037794D01*
X163861313Y-56040999D01*
X163738903Y-56215818D01*
X163736580Y-56220800D01*
X163736577Y-56220805D01*
X163682432Y-56336920D01*
X163644730Y-56417773D01*
X163587056Y-56633014D01*
X163567635Y-56855000D01*
X163587056Y-57076986D01*
X163644730Y-57292227D01*
X163647052Y-57297208D01*
X163647053Y-57297209D01*
X163736577Y-57489195D01*
X163736580Y-57489200D01*
X163738903Y-57494182D01*
X163866716Y-57676717D01*
X164024283Y-57834284D01*
X164206817Y-57962097D01*
X164211802Y-57964421D01*
X164211808Y-57964425D01*
X164311272Y-58010805D01*
X164364558Y-58057722D01*
X164384019Y-58125999D01*
X164363478Y-58193959D01*
X164311273Y-58239195D01*
X164211805Y-58285577D01*
X164211800Y-58285580D01*
X164206818Y-58287903D01*
X164024283Y-58415716D01*
X163866716Y-58573283D01*
X163863559Y-58577791D01*
X163863557Y-58577794D01*
X163861313Y-58580999D01*
X163738903Y-58755818D01*
X163736580Y-58760800D01*
X163736577Y-58760805D01*
X163682432Y-58876920D01*
X163644730Y-58957773D01*
X163587056Y-59173014D01*
X163567635Y-59395000D01*
X163587056Y-59616986D01*
X163644730Y-59832227D01*
X163647052Y-59837208D01*
X163647053Y-59837209D01*
X163736577Y-60029195D01*
X163736580Y-60029200D01*
X163738903Y-60034182D01*
X163866716Y-60216717D01*
X164024283Y-60374284D01*
X164206817Y-60502097D01*
X164211802Y-60504421D01*
X164211808Y-60504425D01*
X164311272Y-60550805D01*
X164364558Y-60597722D01*
X164384019Y-60665999D01*
X164363478Y-60733959D01*
X164311273Y-60779195D01*
X164211805Y-60825577D01*
X164211800Y-60825580D01*
X164206818Y-60827903D01*
X164109165Y-60896281D01*
X164031164Y-60950898D01*
X164024283Y-60955716D01*
X163866716Y-61113283D01*
X163863559Y-61117791D01*
X163863557Y-61117794D01*
X163861506Y-61120723D01*
X163738903Y-61295818D01*
X163736580Y-61300800D01*
X163736577Y-61300805D01*
X163682432Y-61416920D01*
X163644730Y-61497773D01*
X163587056Y-61713014D01*
X163567635Y-61935000D01*
X163587056Y-62156986D01*
X163644730Y-62372227D01*
X163647052Y-62377208D01*
X163647053Y-62377209D01*
X163736577Y-62569195D01*
X163736580Y-62569200D01*
X163738903Y-62574182D01*
X163866716Y-62756717D01*
X164024283Y-62914284D01*
X164206817Y-63042097D01*
X164211802Y-63044421D01*
X164211808Y-63044425D01*
X164311272Y-63090805D01*
X164364558Y-63137722D01*
X164384019Y-63205999D01*
X164363478Y-63273959D01*
X164311273Y-63319195D01*
X164211805Y-63365577D01*
X164211800Y-63365580D01*
X164206818Y-63367903D01*
X164024283Y-63495716D01*
X163866716Y-63653283D01*
X163863559Y-63657791D01*
X163863557Y-63657794D01*
X163852194Y-63674022D01*
X163738903Y-63835818D01*
X163736580Y-63840800D01*
X163736577Y-63840805D01*
X163682432Y-63956920D01*
X163644730Y-64037773D01*
X163587056Y-64253014D01*
X163567635Y-64475000D01*
X163587056Y-64696986D01*
X163644730Y-64912227D01*
X163647052Y-64917208D01*
X163647053Y-64917209D01*
X163736577Y-65109195D01*
X163736580Y-65109200D01*
X163738903Y-65114182D01*
X163866716Y-65296717D01*
X164024283Y-65454284D01*
X164206817Y-65582097D01*
X164211802Y-65584421D01*
X164211808Y-65584425D01*
X164311272Y-65630805D01*
X164364558Y-65677722D01*
X164384019Y-65745999D01*
X164363478Y-65813959D01*
X164311273Y-65859195D01*
X164211805Y-65905577D01*
X164211800Y-65905580D01*
X164206818Y-65907903D01*
X164024283Y-66035716D01*
X163866716Y-66193283D01*
X163863559Y-66197791D01*
X163863557Y-66197794D01*
X163861313Y-66200999D01*
X163738903Y-66375818D01*
X163736580Y-66380800D01*
X163736577Y-66380805D01*
X163682432Y-66496920D01*
X163644730Y-66577773D01*
X163587056Y-66793014D01*
X163567635Y-67015000D01*
X163587056Y-67236986D01*
X163644730Y-67452227D01*
X163647052Y-67457208D01*
X163647053Y-67457209D01*
X163736577Y-67649195D01*
X163736580Y-67649200D01*
X163738903Y-67654182D01*
X163866716Y-67836717D01*
X164024283Y-67994284D01*
X164206817Y-68122097D01*
X164211802Y-68124421D01*
X164211808Y-68124425D01*
X164311272Y-68170805D01*
X164364558Y-68217722D01*
X164384019Y-68285999D01*
X164363478Y-68353959D01*
X164311273Y-68399195D01*
X164211805Y-68445577D01*
X164211800Y-68445580D01*
X164206818Y-68447903D01*
X164024283Y-68575716D01*
X163866716Y-68733283D01*
X163863559Y-68737791D01*
X163863557Y-68737794D01*
X163861313Y-68740999D01*
X163738903Y-68915818D01*
X163736580Y-68920800D01*
X163736577Y-68920805D01*
X163682432Y-69036920D01*
X163644730Y-69117773D01*
X163587056Y-69333014D01*
X163567635Y-69555000D01*
X163587056Y-69776986D01*
X163644730Y-69992227D01*
X163647052Y-69997208D01*
X163647053Y-69997209D01*
X163736577Y-70189195D01*
X163736580Y-70189200D01*
X163738903Y-70194182D01*
X163866716Y-70376717D01*
X164024283Y-70534284D01*
X164206817Y-70662097D01*
X164211802Y-70664421D01*
X164211808Y-70664425D01*
X164311272Y-70710805D01*
X164364558Y-70757722D01*
X164384019Y-70825999D01*
X164363478Y-70893959D01*
X164311273Y-70939195D01*
X164211805Y-70985577D01*
X164211800Y-70985580D01*
X164206818Y-70987903D01*
X164024283Y-71115716D01*
X163866716Y-71273283D01*
X163863559Y-71277791D01*
X163863557Y-71277794D01*
X163861313Y-71280999D01*
X163738903Y-71455818D01*
X163736580Y-71460800D01*
X163736577Y-71460805D01*
X163682432Y-71576920D01*
X163644730Y-71657773D01*
X163587056Y-71873014D01*
X163567635Y-72095000D01*
X163587056Y-72316986D01*
X163644730Y-72532227D01*
X163647052Y-72537208D01*
X163647053Y-72537209D01*
X163736577Y-72729195D01*
X163736580Y-72729200D01*
X163738903Y-72734182D01*
X163866716Y-72916717D01*
X164024283Y-73074284D01*
X164206817Y-73202097D01*
X164211802Y-73204421D01*
X164211808Y-73204425D01*
X164311272Y-73250805D01*
X164364558Y-73297722D01*
X164384019Y-73365999D01*
X164363478Y-73433959D01*
X164311273Y-73479195D01*
X164211805Y-73525577D01*
X164211800Y-73525580D01*
X164206818Y-73527903D01*
X164024283Y-73655716D01*
X163866716Y-73813283D01*
X163863559Y-73817791D01*
X163863557Y-73817794D01*
X163861313Y-73820999D01*
X163738903Y-73995818D01*
X163736580Y-74000800D01*
X163736577Y-74000805D01*
X163682432Y-74116920D01*
X163644730Y-74197773D01*
X163587056Y-74413014D01*
X163567635Y-74635000D01*
X163587056Y-74856986D01*
X163644730Y-75072227D01*
X163647052Y-75077208D01*
X163647053Y-75077209D01*
X163736577Y-75269195D01*
X163736580Y-75269200D01*
X163738903Y-75274182D01*
X163866716Y-75456717D01*
X164024283Y-75614284D01*
X164206817Y-75742097D01*
X164211802Y-75744421D01*
X164211808Y-75744425D01*
X164311272Y-75790805D01*
X164364558Y-75837722D01*
X164384019Y-75905999D01*
X164363478Y-75973959D01*
X164311273Y-76019195D01*
X164211805Y-76065577D01*
X164211800Y-76065580D01*
X164206818Y-76067903D01*
X164024283Y-76195716D01*
X163866716Y-76353283D01*
X163863559Y-76357791D01*
X163863557Y-76357794D01*
X163861313Y-76360999D01*
X163738903Y-76535818D01*
X163736580Y-76540800D01*
X163736577Y-76540805D01*
X163682432Y-76656920D01*
X163644730Y-76737773D01*
X163587056Y-76953014D01*
X163567635Y-77175000D01*
X163587056Y-77396986D01*
X163644730Y-77612227D01*
X163647052Y-77617208D01*
X163647053Y-77617209D01*
X163736577Y-77809195D01*
X163736580Y-77809200D01*
X163738903Y-77814182D01*
X163866716Y-77996717D01*
X164024283Y-78154284D01*
X164206817Y-78282097D01*
X164211802Y-78284421D01*
X164211808Y-78284425D01*
X164311272Y-78330805D01*
X164364558Y-78377722D01*
X164384019Y-78445999D01*
X164363478Y-78513959D01*
X164311273Y-78559195D01*
X164211805Y-78605577D01*
X164211800Y-78605580D01*
X164206818Y-78607903D01*
X164024283Y-78735716D01*
X163866716Y-78893283D01*
X163863559Y-78897791D01*
X163863557Y-78897794D01*
X163861313Y-78900999D01*
X163738903Y-79075818D01*
X163736580Y-79080800D01*
X163736577Y-79080805D01*
X163682432Y-79196920D01*
X163644730Y-79277773D01*
X163587056Y-79493014D01*
X163567635Y-79715000D01*
X163587056Y-79936986D01*
X163644730Y-80152227D01*
X163647052Y-80157208D01*
X163647053Y-80157209D01*
X163736577Y-80349195D01*
X163736580Y-80349200D01*
X163738903Y-80354182D01*
X163866716Y-80536717D01*
X164024283Y-80694284D01*
X164206817Y-80822097D01*
X164211802Y-80824421D01*
X164211808Y-80824425D01*
X164311272Y-80870805D01*
X164364558Y-80917722D01*
X164384019Y-80985999D01*
X164363478Y-81053959D01*
X164311273Y-81099195D01*
X164211805Y-81145577D01*
X164211800Y-81145580D01*
X164206818Y-81147903D01*
X164024283Y-81275716D01*
X163866716Y-81433283D01*
X163863559Y-81437791D01*
X163863557Y-81437794D01*
X163861313Y-81440999D01*
X163738903Y-81615818D01*
X163736580Y-81620800D01*
X163736577Y-81620805D01*
X163682432Y-81736920D01*
X163644730Y-81817773D01*
X163587056Y-82033014D01*
X163567635Y-82255000D01*
X156753672Y-82255000D01*
X156670814Y-82077311D01*
X156670811Y-82077306D01*
X156668488Y-82072324D01*
X156540977Y-81890219D01*
X156383781Y-81733023D01*
X156379273Y-81729866D01*
X156379270Y-81729864D01*
X156303505Y-81676813D01*
X156201677Y-81605512D01*
X156196695Y-81603189D01*
X156196690Y-81603186D01*
X156091627Y-81554195D01*
X156038342Y-81507278D01*
X156018881Y-81439001D01*
X156039423Y-81371041D01*
X156091627Y-81325805D01*
X156196690Y-81276814D01*
X156196695Y-81276811D01*
X156201677Y-81274488D01*
X156377950Y-81151060D01*
X156379270Y-81150136D01*
X156379273Y-81150134D01*
X156383781Y-81146977D01*
X156540977Y-80989781D01*
X156545025Y-80984001D01*
X156665331Y-80812185D01*
X156665332Y-80812183D01*
X156668488Y-80807676D01*
X156670811Y-80802694D01*
X156670814Y-80802689D01*
X156760117Y-80611178D01*
X156760118Y-80611177D01*
X156762440Y-80606196D01*
X156819978Y-80391463D01*
X156839353Y-80170000D01*
X156819978Y-79948537D01*
X156762440Y-79733804D01*
X156753672Y-79715000D01*
X156670814Y-79537311D01*
X156670811Y-79537306D01*
X156668488Y-79532324D01*
X156540977Y-79350219D01*
X156383781Y-79193023D01*
X156379273Y-79189866D01*
X156379270Y-79189864D01*
X156303505Y-79136813D01*
X156201677Y-79065512D01*
X156196695Y-79063189D01*
X156196690Y-79063186D01*
X156091627Y-79014195D01*
X156038342Y-78967278D01*
X156018881Y-78899001D01*
X156039423Y-78831041D01*
X156091627Y-78785805D01*
X156196690Y-78736814D01*
X156196695Y-78736811D01*
X156201677Y-78734488D01*
X156377950Y-78611060D01*
X156379270Y-78610136D01*
X156379273Y-78610134D01*
X156383781Y-78606977D01*
X156540977Y-78449781D01*
X156545025Y-78444001D01*
X156665331Y-78272185D01*
X156665332Y-78272183D01*
X156668488Y-78267676D01*
X156670811Y-78262694D01*
X156670814Y-78262689D01*
X156760117Y-78071178D01*
X156760118Y-78071177D01*
X156762440Y-78066196D01*
X156819978Y-77851463D01*
X156839353Y-77630000D01*
X156819978Y-77408537D01*
X156762440Y-77193804D01*
X156753672Y-77175000D01*
X156670814Y-76997311D01*
X156670811Y-76997306D01*
X156668488Y-76992324D01*
X156540977Y-76810219D01*
X156383781Y-76653023D01*
X156379273Y-76649866D01*
X156379270Y-76649864D01*
X156303505Y-76596813D01*
X156201677Y-76525512D01*
X156196695Y-76523189D01*
X156196690Y-76523186D01*
X156091627Y-76474195D01*
X156038342Y-76427278D01*
X156018881Y-76359001D01*
X156039423Y-76291041D01*
X156091627Y-76245805D01*
X156196690Y-76196814D01*
X156196695Y-76196811D01*
X156201677Y-76194488D01*
X156377950Y-76071060D01*
X156379270Y-76070136D01*
X156379273Y-76070134D01*
X156383781Y-76066977D01*
X156540977Y-75909781D01*
X156545025Y-75904001D01*
X156665331Y-75732185D01*
X156665332Y-75732183D01*
X156668488Y-75727676D01*
X156670811Y-75722694D01*
X156670814Y-75722689D01*
X156760117Y-75531178D01*
X156760118Y-75531177D01*
X156762440Y-75526196D01*
X156819978Y-75311463D01*
X156839353Y-75090000D01*
X156819978Y-74868537D01*
X156762440Y-74653804D01*
X156753672Y-74635000D01*
X156670814Y-74457311D01*
X156670811Y-74457306D01*
X156668488Y-74452324D01*
X156540977Y-74270219D01*
X156383781Y-74113023D01*
X156379273Y-74109866D01*
X156379270Y-74109864D01*
X156303505Y-74056813D01*
X156201677Y-73985512D01*
X156196695Y-73983189D01*
X156196690Y-73983186D01*
X156091627Y-73934195D01*
X156038342Y-73887278D01*
X156018881Y-73819001D01*
X156039423Y-73751041D01*
X156091627Y-73705805D01*
X156196690Y-73656814D01*
X156196695Y-73656811D01*
X156201677Y-73654488D01*
X156377950Y-73531060D01*
X156379270Y-73530136D01*
X156379273Y-73530134D01*
X156383781Y-73526977D01*
X156540977Y-73369781D01*
X156545025Y-73364001D01*
X156665331Y-73192185D01*
X156665332Y-73192183D01*
X156668488Y-73187676D01*
X156670811Y-73182694D01*
X156670814Y-73182689D01*
X156760117Y-72991178D01*
X156760118Y-72991177D01*
X156762440Y-72986196D01*
X156819978Y-72771463D01*
X156839353Y-72550000D01*
X156819978Y-72328537D01*
X156762440Y-72113804D01*
X156753672Y-72095000D01*
X156670814Y-71917311D01*
X156670811Y-71917306D01*
X156668488Y-71912324D01*
X156540977Y-71730219D01*
X156383781Y-71573023D01*
X156379273Y-71569866D01*
X156379270Y-71569864D01*
X156303505Y-71516813D01*
X156201677Y-71445512D01*
X156196695Y-71443189D01*
X156196690Y-71443186D01*
X156091627Y-71394195D01*
X156038342Y-71347278D01*
X156018881Y-71279001D01*
X156039423Y-71211041D01*
X156091627Y-71165805D01*
X156196690Y-71116814D01*
X156196695Y-71116811D01*
X156201677Y-71114488D01*
X156377950Y-70991060D01*
X156379270Y-70990136D01*
X156379273Y-70990134D01*
X156383781Y-70986977D01*
X156540977Y-70829781D01*
X156545025Y-70824001D01*
X156665331Y-70652185D01*
X156665332Y-70652183D01*
X156668488Y-70647676D01*
X156670811Y-70642694D01*
X156670814Y-70642689D01*
X156760117Y-70451178D01*
X156760118Y-70451177D01*
X156762440Y-70446196D01*
X156819978Y-70231463D01*
X156839353Y-70010000D01*
X156819978Y-69788537D01*
X156762440Y-69573804D01*
X156753672Y-69555000D01*
X156670814Y-69377311D01*
X156670811Y-69377306D01*
X156668488Y-69372324D01*
X156540977Y-69190219D01*
X156383781Y-69033023D01*
X156379273Y-69029866D01*
X156379270Y-69029864D01*
X156303505Y-68976813D01*
X156201677Y-68905512D01*
X156196695Y-68903189D01*
X156196690Y-68903186D01*
X156091627Y-68854195D01*
X156038342Y-68807278D01*
X156018881Y-68739001D01*
X156039423Y-68671041D01*
X156091627Y-68625805D01*
X156196690Y-68576814D01*
X156196695Y-68576811D01*
X156201677Y-68574488D01*
X156377950Y-68451060D01*
X156379270Y-68450136D01*
X156379273Y-68450134D01*
X156383781Y-68446977D01*
X156540977Y-68289781D01*
X156545025Y-68284001D01*
X156665331Y-68112185D01*
X156665332Y-68112183D01*
X156668488Y-68107676D01*
X156670811Y-68102694D01*
X156670814Y-68102689D01*
X156760117Y-67911178D01*
X156760118Y-67911177D01*
X156762440Y-67906196D01*
X156819978Y-67691463D01*
X156839353Y-67470000D01*
X156819978Y-67248537D01*
X156762440Y-67033804D01*
X156753672Y-67015000D01*
X156670814Y-66837311D01*
X156670811Y-66837306D01*
X156668488Y-66832324D01*
X156540977Y-66650219D01*
X156383781Y-66493023D01*
X156379273Y-66489866D01*
X156379270Y-66489864D01*
X156303505Y-66436813D01*
X156201677Y-66365512D01*
X156196695Y-66363189D01*
X156196690Y-66363186D01*
X156091627Y-66314195D01*
X156038342Y-66267278D01*
X156018881Y-66199001D01*
X156039423Y-66131041D01*
X156091627Y-66085805D01*
X156196690Y-66036814D01*
X156196695Y-66036811D01*
X156201677Y-66034488D01*
X156377950Y-65911060D01*
X156379270Y-65910136D01*
X156379273Y-65910134D01*
X156383781Y-65906977D01*
X156540977Y-65749781D01*
X156545025Y-65744001D01*
X156665331Y-65572185D01*
X156665332Y-65572183D01*
X156668488Y-65567676D01*
X156670811Y-65562694D01*
X156670814Y-65562689D01*
X156760117Y-65371178D01*
X156760118Y-65371177D01*
X156762440Y-65366196D01*
X156819978Y-65151463D01*
X156839353Y-64930000D01*
X156819978Y-64708537D01*
X156781503Y-64564949D01*
X156763863Y-64499114D01*
X156763862Y-64499112D01*
X156762440Y-64493804D01*
X156753672Y-64475000D01*
X156670814Y-64297311D01*
X156670811Y-64297306D01*
X156668488Y-64292324D01*
X156600909Y-64195811D01*
X156544136Y-64114730D01*
X156544134Y-64114727D01*
X156540977Y-64110219D01*
X156383781Y-63953023D01*
X156379273Y-63949866D01*
X156379270Y-63949864D01*
X156284799Y-63883715D01*
X156201677Y-63825512D01*
X156196695Y-63823189D01*
X156196690Y-63823186D01*
X156091627Y-63774195D01*
X156038342Y-63727278D01*
X156018881Y-63659001D01*
X156039423Y-63591041D01*
X156091627Y-63545805D01*
X156196690Y-63496814D01*
X156196695Y-63496811D01*
X156201677Y-63494488D01*
X156377950Y-63371060D01*
X156379270Y-63370136D01*
X156379273Y-63370134D01*
X156383781Y-63366977D01*
X156540977Y-63209781D01*
X156545025Y-63204001D01*
X156665331Y-63032185D01*
X156665332Y-63032183D01*
X156668488Y-63027676D01*
X156670811Y-63022694D01*
X156670814Y-63022689D01*
X156760117Y-62831178D01*
X156760118Y-62831177D01*
X156762440Y-62826196D01*
X156819978Y-62611463D01*
X156839353Y-62390000D01*
X156819978Y-62168537D01*
X156762440Y-61953804D01*
X156753672Y-61935000D01*
X156670814Y-61757311D01*
X156670811Y-61757306D01*
X156668488Y-61752324D01*
X156540977Y-61570219D01*
X156383781Y-61413023D01*
X156379273Y-61409866D01*
X156379270Y-61409864D01*
X156303505Y-61356813D01*
X156201677Y-61285512D01*
X156196695Y-61283189D01*
X156196690Y-61283186D01*
X156091035Y-61233919D01*
X156037750Y-61187002D01*
X156018289Y-61118725D01*
X156038831Y-61050765D01*
X156091035Y-61005529D01*
X156196445Y-60956376D01*
X156205931Y-60950898D01*
X156249764Y-60920207D01*
X156258139Y-60909729D01*
X156251071Y-60896281D01*
X155576812Y-60222022D01*
X155562868Y-60214408D01*
X155561035Y-60214539D01*
X155554420Y-60218790D01*
X154876207Y-60897003D01*
X154869777Y-60908777D01*
X154879074Y-60920793D01*
X154922069Y-60950898D01*
X154931555Y-60956376D01*
X155036965Y-61005529D01*
X155090250Y-61052446D01*
X155109711Y-61120723D01*
X155089169Y-61188683D01*
X155036965Y-61233919D01*
X154931311Y-61283186D01*
X154931306Y-61283189D01*
X154926324Y-61285512D01*
X154921817Y-61288668D01*
X154921815Y-61288669D01*
X154748730Y-61409864D01*
X154748727Y-61409866D01*
X154744219Y-61413023D01*
X154587023Y-61570219D01*
X154459512Y-61752324D01*
X154457189Y-61757306D01*
X154457186Y-61757311D01*
X154408195Y-61862373D01*
X154361277Y-61915658D01*
X154293000Y-61935119D01*
X154225040Y-61914577D01*
X154179805Y-61862373D01*
X154130814Y-61757311D01*
X154130811Y-61757306D01*
X154128488Y-61752324D01*
X154000977Y-61570219D01*
X153843781Y-61413023D01*
X153839273Y-61409866D01*
X153839270Y-61409864D01*
X153763505Y-61356813D01*
X153661677Y-61285512D01*
X153656695Y-61283189D01*
X153656690Y-61283186D01*
X153551627Y-61234195D01*
X153498342Y-61187278D01*
X153478881Y-61119001D01*
X153499423Y-61051041D01*
X153551627Y-61005805D01*
X153656690Y-60956814D01*
X153656695Y-60956811D01*
X153661677Y-60954488D01*
X153837950Y-60831060D01*
X153839270Y-60830136D01*
X153839273Y-60830134D01*
X153843781Y-60826977D01*
X154000977Y-60669781D01*
X154005025Y-60664001D01*
X154125331Y-60492185D01*
X154125332Y-60492183D01*
X154128488Y-60487676D01*
X154130811Y-60482694D01*
X154130814Y-60482689D01*
X154180081Y-60377035D01*
X154226999Y-60323750D01*
X154295276Y-60304289D01*
X154363236Y-60324831D01*
X154408471Y-60377035D01*
X154457623Y-60482441D01*
X154463103Y-60491932D01*
X154493794Y-60535765D01*
X154504271Y-60544140D01*
X154517718Y-60537072D01*
X155191978Y-59862812D01*
X155198356Y-59851132D01*
X155928408Y-59851132D01*
X155928539Y-59852965D01*
X155932790Y-59859580D01*
X156611003Y-60537793D01*
X156622777Y-60544223D01*
X156634793Y-60534926D01*
X156664897Y-60491932D01*
X156670377Y-60482441D01*
X156759645Y-60291007D01*
X156763391Y-60280715D01*
X156818059Y-60076691D01*
X156819962Y-60065896D01*
X156838372Y-59855475D01*
X156838372Y-59844525D01*
X156819962Y-59634104D01*
X156818059Y-59623309D01*
X156763391Y-59419285D01*
X156759645Y-59408993D01*
X156670377Y-59217559D01*
X156664897Y-59208068D01*
X156634206Y-59164235D01*
X156623729Y-59155860D01*
X156610282Y-59162928D01*
X155936022Y-59837188D01*
X155928408Y-59851132D01*
X155198356Y-59851132D01*
X155199592Y-59848868D01*
X155199461Y-59847035D01*
X155195210Y-59840420D01*
X154516997Y-59162207D01*
X154505223Y-59155777D01*
X154493207Y-59165074D01*
X154463103Y-59208068D01*
X154457623Y-59217559D01*
X154408471Y-59322965D01*
X154361553Y-59376250D01*
X154293276Y-59395711D01*
X154225316Y-59375169D01*
X154180081Y-59322965D01*
X154130814Y-59217311D01*
X154130811Y-59217306D01*
X154128488Y-59212324D01*
X154097243Y-59167701D01*
X154004136Y-59034730D01*
X154004134Y-59034727D01*
X154000977Y-59030219D01*
X153843781Y-58873023D01*
X153839273Y-58869866D01*
X153839270Y-58869864D01*
X153763505Y-58816813D01*
X153661677Y-58745512D01*
X153656695Y-58743189D01*
X153656690Y-58743186D01*
X153551627Y-58694195D01*
X153498342Y-58647278D01*
X153478881Y-58579001D01*
X153499423Y-58511041D01*
X153551627Y-58465805D01*
X153656690Y-58416814D01*
X153656695Y-58416811D01*
X153661677Y-58414488D01*
X153837950Y-58291060D01*
X153839270Y-58290136D01*
X153839273Y-58290134D01*
X153843781Y-58286977D01*
X154000977Y-58129781D01*
X154005025Y-58124001D01*
X154125331Y-57952185D01*
X154125332Y-57952183D01*
X154128488Y-57947676D01*
X154130811Y-57942694D01*
X154130814Y-57942689D01*
X154179805Y-57837627D01*
X154226723Y-57784342D01*
X154295000Y-57764881D01*
X154362960Y-57785423D01*
X154408195Y-57837627D01*
X154457186Y-57942689D01*
X154457189Y-57942694D01*
X154459512Y-57947676D01*
X154462668Y-57952183D01*
X154462669Y-57952185D01*
X154582976Y-58124001D01*
X154587023Y-58129781D01*
X154744219Y-58286977D01*
X154748727Y-58290134D01*
X154748730Y-58290136D01*
X154750050Y-58291060D01*
X154926323Y-58414488D01*
X154931305Y-58416811D01*
X154931310Y-58416814D01*
X155036965Y-58466081D01*
X155090250Y-58512998D01*
X155109711Y-58581275D01*
X155089169Y-58649235D01*
X155036965Y-58694471D01*
X154931559Y-58743623D01*
X154922068Y-58749103D01*
X154878235Y-58779794D01*
X154869860Y-58790271D01*
X154876928Y-58803718D01*
X155551188Y-59477978D01*
X155565132Y-59485592D01*
X155566965Y-59485461D01*
X155573580Y-59481210D01*
X156251793Y-58802997D01*
X156258223Y-58791223D01*
X156248926Y-58779207D01*
X156205931Y-58749102D01*
X156196445Y-58743624D01*
X156091035Y-58694471D01*
X156037750Y-58647554D01*
X156018289Y-58579277D01*
X156038831Y-58511317D01*
X156091035Y-58466081D01*
X156196690Y-58416814D01*
X156196695Y-58416811D01*
X156201677Y-58414488D01*
X156377950Y-58291060D01*
X156379270Y-58290136D01*
X156379273Y-58290134D01*
X156383781Y-58286977D01*
X156540977Y-58129781D01*
X156545025Y-58124001D01*
X156665331Y-57952185D01*
X156665332Y-57952183D01*
X156668488Y-57947676D01*
X156670811Y-57942694D01*
X156670814Y-57942689D01*
X156760117Y-57751178D01*
X156760118Y-57751177D01*
X156762440Y-57746196D01*
X156819978Y-57531463D01*
X156839353Y-57310000D01*
X156819978Y-57088537D01*
X156762440Y-56873804D01*
X156753672Y-56855000D01*
X156670814Y-56677311D01*
X156670811Y-56677306D01*
X156668488Y-56672324D01*
X156540977Y-56490219D01*
X156383781Y-56333023D01*
X156379273Y-56329866D01*
X156379270Y-56329864D01*
X156263801Y-56249012D01*
X156201677Y-56205512D01*
X156196695Y-56203189D01*
X156196690Y-56203186D01*
X156091627Y-56154195D01*
X156038342Y-56107278D01*
X156018881Y-56039001D01*
X156039423Y-55971041D01*
X156091627Y-55925805D01*
X156196690Y-55876814D01*
X156196695Y-55876811D01*
X156201677Y-55874488D01*
X156377950Y-55751060D01*
X156379270Y-55750136D01*
X156379273Y-55750134D01*
X156383781Y-55746977D01*
X156540977Y-55589781D01*
X156545025Y-55584001D01*
X156665331Y-55412185D01*
X156665332Y-55412183D01*
X156668488Y-55407676D01*
X156670811Y-55402694D01*
X156670814Y-55402689D01*
X156760117Y-55211178D01*
X156760118Y-55211177D01*
X156762440Y-55206196D01*
X156819978Y-54991463D01*
X156839353Y-54770000D01*
X156819978Y-54548537D01*
X156762440Y-54333804D01*
X156753672Y-54315000D01*
X156670814Y-54137311D01*
X156670811Y-54137306D01*
X156668488Y-54132324D01*
X156640963Y-54093014D01*
X156544136Y-53954730D01*
X156544134Y-53954727D01*
X156540977Y-53950219D01*
X156383781Y-53793023D01*
X156379273Y-53789866D01*
X156379270Y-53789864D01*
X156271983Y-53714741D01*
X156201677Y-53665512D01*
X156196695Y-53663189D01*
X156196690Y-53663186D01*
X156005178Y-53573883D01*
X156005177Y-53573882D01*
X156000196Y-53571560D01*
X155994888Y-53570138D01*
X155994886Y-53570137D01*
X155850702Y-53531503D01*
X155785463Y-53514022D01*
X155686210Y-53505339D01*
X155647466Y-53501949D01*
X155581348Y-53476086D01*
X155539709Y-53418582D01*
X155535768Y-53347695D01*
X155570777Y-53285930D01*
X155613294Y-53258797D01*
X155620922Y-53255869D01*
X155763723Y-53201053D01*
X155845874Y-53159195D01*
X156097785Y-53030840D01*
X156097792Y-53030836D01*
X156100726Y-53029341D01*
X156180213Y-52977722D01*
X156415159Y-52825146D01*
X156417934Y-52823344D01*
X156711871Y-52585318D01*
X156979318Y-52317871D01*
X157217344Y-52023934D01*
X157375448Y-51780475D01*
X157421543Y-51709495D01*
X157421545Y-51709492D01*
X157423341Y-51706726D01*
X157501662Y-51553014D01*
X157593555Y-51372663D01*
X157595053Y-51369723D01*
X157730597Y-51016618D01*
X157828489Y-50651279D01*
X157887657Y-50277709D01*
X157907452Y-49900000D01*
X157887657Y-49522291D01*
X157828489Y-49148721D01*
X157730597Y-48783382D01*
X157595053Y-48430277D01*
X157423341Y-48093274D01*
X157217344Y-47776066D01*
X156979318Y-47482129D01*
X156711871Y-47214682D01*
X156417934Y-46976656D01*
X156100726Y-46770659D01*
X156097792Y-46769164D01*
X156097785Y-46769160D01*
X155766663Y-46600445D01*
X155763723Y-46598947D01*
X155410618Y-46463403D01*
X155045279Y-46365511D01*
X154846842Y-46334082D01*
X154674957Y-46306857D01*
X154674949Y-46306856D01*
X154671709Y-46306343D01*
X154294000Y-46286548D01*
X153916291Y-46306343D01*
X153913051Y-46306856D01*
X153913043Y-46306857D01*
X153741158Y-46334082D01*
X153542721Y-46365511D01*
X153177382Y-46463403D01*
X152824277Y-46598947D01*
X152821337Y-46600445D01*
X152490215Y-46769160D01*
X152490208Y-46769164D01*
X152487274Y-46770659D01*
X152170066Y-46976656D01*
X151876129Y-47214682D01*
X151608682Y-47482129D01*
X151370656Y-47776066D01*
X151164659Y-48093274D01*
X150992947Y-48430277D01*
X150857403Y-48783382D01*
X150759511Y-49148721D01*
X150700343Y-49522291D01*
X150680548Y-49900000D01*
X150700343Y-50277709D01*
X150759511Y-50651279D01*
X150857403Y-51016618D01*
X150992947Y-51369723D01*
X150994445Y-51372663D01*
X151086339Y-51553014D01*
X151164659Y-51706726D01*
X151166455Y-51709492D01*
X151166457Y-51709495D01*
X151212552Y-51780475D01*
X151370656Y-52023934D01*
X151608682Y-52317871D01*
X151876129Y-52585318D01*
X152170066Y-52823344D01*
X152172841Y-52825146D01*
X152407788Y-52977722D01*
X152487274Y-53029341D01*
X152490208Y-53030836D01*
X152490215Y-53030840D01*
X152742126Y-53159195D01*
X152824277Y-53201053D01*
X152967078Y-53255869D01*
X153023506Y-53298955D01*
X153047683Y-53365708D01*
X153031932Y-53434935D01*
X152981254Y-53484657D01*
X152921924Y-53499500D01*
X152213866Y-53499500D01*
X152151684Y-53506255D01*
X152015295Y-53557385D01*
X151898739Y-53644739D01*
X151811385Y-53761295D01*
X151760255Y-53897684D01*
X151753500Y-53959866D01*
X151753500Y-55580134D01*
X151760255Y-55642316D01*
X151811385Y-55778705D01*
X151898739Y-55895261D01*
X152015295Y-55982615D01*
X152151684Y-56033745D01*
X152213866Y-56040500D01*
X152222364Y-56040500D01*
X152290485Y-56060502D01*
X152336978Y-56114158D01*
X152347082Y-56184432D01*
X152317588Y-56249012D01*
X152294635Y-56269713D01*
X152208730Y-56329864D01*
X152208727Y-56329866D01*
X152204219Y-56333023D01*
X152047023Y-56490219D01*
X151919512Y-56672324D01*
X151917189Y-56677306D01*
X151917186Y-56677311D01*
X151834328Y-56855000D01*
X151825560Y-56873804D01*
X151768022Y-57088537D01*
X151748647Y-57310000D01*
X151768022Y-57531463D01*
X151825560Y-57746196D01*
X151827882Y-57751177D01*
X151827883Y-57751178D01*
X151917186Y-57942689D01*
X151917189Y-57942694D01*
X151919512Y-57947676D01*
X151922668Y-57952183D01*
X151922669Y-57952185D01*
X152042976Y-58124001D01*
X152047023Y-58129781D01*
X152204219Y-58286977D01*
X152208727Y-58290134D01*
X152208730Y-58290136D01*
X152210050Y-58291060D01*
X152386323Y-58414488D01*
X152391305Y-58416811D01*
X152391310Y-58416814D01*
X152496373Y-58465805D01*
X152549658Y-58512722D01*
X152569119Y-58580999D01*
X152548577Y-58648959D01*
X152496373Y-58694195D01*
X152391311Y-58743186D01*
X152391306Y-58743189D01*
X152386324Y-58745512D01*
X152381817Y-58748668D01*
X152381815Y-58748669D01*
X152208730Y-58869864D01*
X152208727Y-58869866D01*
X152204219Y-58873023D01*
X152047023Y-59030219D01*
X152043866Y-59034727D01*
X152043864Y-59034730D01*
X151950757Y-59167701D01*
X151919512Y-59212324D01*
X151917189Y-59217306D01*
X151917186Y-59217311D01*
X151834328Y-59395000D01*
X151825560Y-59413804D01*
X151768022Y-59628537D01*
X151748647Y-59850000D01*
X151768022Y-60071463D01*
X151825560Y-60286196D01*
X151827882Y-60291177D01*
X151827883Y-60291178D01*
X151917186Y-60482689D01*
X151917189Y-60482694D01*
X151919512Y-60487676D01*
X151922668Y-60492183D01*
X151922669Y-60492185D01*
X152042976Y-60664001D01*
X152047023Y-60669781D01*
X152204219Y-60826977D01*
X152208727Y-60830134D01*
X152208730Y-60830136D01*
X152210050Y-60831060D01*
X152386323Y-60954488D01*
X152391305Y-60956811D01*
X152391310Y-60956814D01*
X152496373Y-61005805D01*
X152549658Y-61052722D01*
X152569119Y-61120999D01*
X152548577Y-61188959D01*
X152496373Y-61234195D01*
X152391311Y-61283186D01*
X152391306Y-61283189D01*
X152386324Y-61285512D01*
X152381817Y-61288668D01*
X152381815Y-61288669D01*
X152208730Y-61409864D01*
X152208727Y-61409866D01*
X152204219Y-61413023D01*
X152047023Y-61570219D01*
X151919512Y-61752324D01*
X151917189Y-61757306D01*
X151917186Y-61757311D01*
X151834328Y-61935000D01*
X151825560Y-61953804D01*
X151768022Y-62168537D01*
X151748647Y-62390000D01*
X151768022Y-62611463D01*
X151825560Y-62826196D01*
X151827882Y-62831177D01*
X151827883Y-62831178D01*
X151917186Y-63022689D01*
X151917189Y-63022694D01*
X151919512Y-63027676D01*
X151922668Y-63032183D01*
X151922669Y-63032185D01*
X152042976Y-63204001D01*
X152047023Y-63209781D01*
X152204219Y-63366977D01*
X152208727Y-63370134D01*
X152208730Y-63370136D01*
X152210050Y-63371060D01*
X152386323Y-63494488D01*
X152391305Y-63496811D01*
X152391310Y-63496814D01*
X152496373Y-63545805D01*
X152549658Y-63592722D01*
X152569119Y-63660999D01*
X152548577Y-63728959D01*
X152496373Y-63774195D01*
X152391311Y-63823186D01*
X152391306Y-63823189D01*
X152386324Y-63825512D01*
X152381817Y-63828668D01*
X152381815Y-63828669D01*
X152208730Y-63949864D01*
X152208727Y-63949866D01*
X152204219Y-63953023D01*
X152047023Y-64110219D01*
X152043866Y-64114727D01*
X152043864Y-64114730D01*
X151987091Y-64195811D01*
X151919512Y-64292324D01*
X151917189Y-64297306D01*
X151917186Y-64297311D01*
X151834328Y-64475000D01*
X151825560Y-64493804D01*
X151824138Y-64499112D01*
X151824137Y-64499114D01*
X151806497Y-64564949D01*
X151768022Y-64708537D01*
X151748647Y-64930000D01*
X151768022Y-65151463D01*
X151825560Y-65366196D01*
X151827882Y-65371177D01*
X151827883Y-65371178D01*
X151917186Y-65562689D01*
X151917189Y-65562694D01*
X151919512Y-65567676D01*
X151922668Y-65572183D01*
X151922669Y-65572185D01*
X152042976Y-65744001D01*
X152047023Y-65749781D01*
X152204219Y-65906977D01*
X152208727Y-65910134D01*
X152208730Y-65910136D01*
X152210050Y-65911060D01*
X152386323Y-66034488D01*
X152391305Y-66036811D01*
X152391310Y-66036814D01*
X152496373Y-66085805D01*
X152549658Y-66132722D01*
X152569119Y-66200999D01*
X152548577Y-66268959D01*
X152496373Y-66314195D01*
X152391311Y-66363186D01*
X152391306Y-66363189D01*
X152386324Y-66365512D01*
X152381817Y-66368668D01*
X152381815Y-66368669D01*
X152208730Y-66489864D01*
X152208727Y-66489866D01*
X152204219Y-66493023D01*
X152047023Y-66650219D01*
X151919512Y-66832324D01*
X151917189Y-66837306D01*
X151917186Y-66837311D01*
X151834328Y-67015000D01*
X151825560Y-67033804D01*
X151768022Y-67248537D01*
X151748647Y-67470000D01*
X151768022Y-67691463D01*
X151825560Y-67906196D01*
X151827882Y-67911177D01*
X151827883Y-67911178D01*
X151917186Y-68102689D01*
X151917189Y-68102694D01*
X151919512Y-68107676D01*
X151922668Y-68112183D01*
X151922669Y-68112185D01*
X152042976Y-68284001D01*
X152047023Y-68289781D01*
X152204219Y-68446977D01*
X152208727Y-68450134D01*
X152208730Y-68450136D01*
X152210050Y-68451060D01*
X152386323Y-68574488D01*
X152391305Y-68576811D01*
X152391310Y-68576814D01*
X152496373Y-68625805D01*
X152549658Y-68672722D01*
X152569119Y-68740999D01*
X152548577Y-68808959D01*
X152496373Y-68854195D01*
X152391311Y-68903186D01*
X152391306Y-68903189D01*
X152386324Y-68905512D01*
X152381817Y-68908668D01*
X152381815Y-68908669D01*
X152208730Y-69029864D01*
X152208727Y-69029866D01*
X152204219Y-69033023D01*
X152047023Y-69190219D01*
X151919512Y-69372324D01*
X151917189Y-69377306D01*
X151917186Y-69377311D01*
X151834328Y-69555000D01*
X151825560Y-69573804D01*
X151768022Y-69788537D01*
X151748647Y-70010000D01*
X151768022Y-70231463D01*
X151825560Y-70446196D01*
X151827882Y-70451177D01*
X151827883Y-70451178D01*
X151917186Y-70642689D01*
X151917189Y-70642694D01*
X151919512Y-70647676D01*
X151922668Y-70652183D01*
X151922669Y-70652185D01*
X152042976Y-70824001D01*
X152047023Y-70829781D01*
X152204219Y-70986977D01*
X152208727Y-70990134D01*
X152208730Y-70990136D01*
X152210050Y-70991060D01*
X152386323Y-71114488D01*
X152391305Y-71116811D01*
X152391310Y-71116814D01*
X152496373Y-71165805D01*
X152549658Y-71212722D01*
X152569119Y-71280999D01*
X152548577Y-71348959D01*
X152496373Y-71394195D01*
X152391311Y-71443186D01*
X152391306Y-71443189D01*
X152386324Y-71445512D01*
X152381817Y-71448668D01*
X152381815Y-71448669D01*
X152208730Y-71569864D01*
X152208727Y-71569866D01*
X152204219Y-71573023D01*
X152047023Y-71730219D01*
X151919512Y-71912324D01*
X151917189Y-71917306D01*
X151917186Y-71917311D01*
X151834328Y-72095000D01*
X151825560Y-72113804D01*
X151768022Y-72328537D01*
X151748647Y-72550000D01*
X151768022Y-72771463D01*
X151825560Y-72986196D01*
X151827882Y-72991177D01*
X151827883Y-72991178D01*
X151917186Y-73182689D01*
X151917189Y-73182694D01*
X151919512Y-73187676D01*
X151922668Y-73192183D01*
X151922669Y-73192185D01*
X152042976Y-73364001D01*
X152047023Y-73369781D01*
X152204219Y-73526977D01*
X152208727Y-73530134D01*
X152208730Y-73530136D01*
X152210050Y-73531060D01*
X152386323Y-73654488D01*
X152391305Y-73656811D01*
X152391310Y-73656814D01*
X152496373Y-73705805D01*
X152549658Y-73752722D01*
X152569119Y-73820999D01*
X152548577Y-73888959D01*
X152496373Y-73934195D01*
X152391311Y-73983186D01*
X152391306Y-73983189D01*
X152386324Y-73985512D01*
X152381817Y-73988668D01*
X152381815Y-73988669D01*
X152208730Y-74109864D01*
X152208727Y-74109866D01*
X152204219Y-74113023D01*
X152047023Y-74270219D01*
X151919512Y-74452324D01*
X151917189Y-74457306D01*
X151917186Y-74457311D01*
X151834328Y-74635000D01*
X151825560Y-74653804D01*
X151768022Y-74868537D01*
X151748647Y-75090000D01*
X151768022Y-75311463D01*
X151825560Y-75526196D01*
X151827882Y-75531177D01*
X151827883Y-75531178D01*
X151917186Y-75722689D01*
X151917189Y-75722694D01*
X151919512Y-75727676D01*
X151922668Y-75732183D01*
X151922669Y-75732185D01*
X152042976Y-75904001D01*
X152047023Y-75909781D01*
X152204219Y-76066977D01*
X152208727Y-76070134D01*
X152208730Y-76070136D01*
X152210050Y-76071060D01*
X152386323Y-76194488D01*
X152391305Y-76196811D01*
X152391310Y-76196814D01*
X152496373Y-76245805D01*
X152549658Y-76292722D01*
X152569119Y-76360999D01*
X152548577Y-76428959D01*
X152496373Y-76474195D01*
X152391311Y-76523186D01*
X152391306Y-76523189D01*
X152386324Y-76525512D01*
X152381817Y-76528668D01*
X152381815Y-76528669D01*
X152208730Y-76649864D01*
X152208727Y-76649866D01*
X152204219Y-76653023D01*
X152047023Y-76810219D01*
X151919512Y-76992324D01*
X151917189Y-76997306D01*
X151917186Y-76997311D01*
X151834328Y-77175000D01*
X151825560Y-77193804D01*
X151768022Y-77408537D01*
X151748647Y-77630000D01*
X151768022Y-77851463D01*
X151825560Y-78066196D01*
X151827882Y-78071177D01*
X151827883Y-78071178D01*
X151917186Y-78262689D01*
X151917189Y-78262694D01*
X151919512Y-78267676D01*
X151922668Y-78272183D01*
X151922669Y-78272185D01*
X152042976Y-78444001D01*
X152047023Y-78449781D01*
X152204219Y-78606977D01*
X152208727Y-78610134D01*
X152208730Y-78610136D01*
X152210050Y-78611060D01*
X152386323Y-78734488D01*
X152391305Y-78736811D01*
X152391310Y-78736814D01*
X152496373Y-78785805D01*
X152549658Y-78832722D01*
X152569119Y-78900999D01*
X152548577Y-78968959D01*
X152496373Y-79014195D01*
X152391311Y-79063186D01*
X152391306Y-79063189D01*
X152386324Y-79065512D01*
X152381817Y-79068668D01*
X152381815Y-79068669D01*
X152208730Y-79189864D01*
X152208727Y-79189866D01*
X152204219Y-79193023D01*
X152047023Y-79350219D01*
X151919512Y-79532324D01*
X151917189Y-79537306D01*
X151917186Y-79537311D01*
X151834328Y-79715000D01*
X151825560Y-79733804D01*
X151768022Y-79948537D01*
X151748647Y-80170000D01*
X151768022Y-80391463D01*
X151825560Y-80606196D01*
X151827882Y-80611177D01*
X151827883Y-80611178D01*
X151917186Y-80802689D01*
X151917189Y-80802694D01*
X151919512Y-80807676D01*
X151922668Y-80812183D01*
X151922669Y-80812185D01*
X152042976Y-80984001D01*
X152047023Y-80989781D01*
X152204219Y-81146977D01*
X152208727Y-81150134D01*
X152208730Y-81150136D01*
X152210050Y-81151060D01*
X152386323Y-81274488D01*
X152391305Y-81276811D01*
X152391310Y-81276814D01*
X152496373Y-81325805D01*
X152549658Y-81372722D01*
X152569119Y-81440999D01*
X152548577Y-81508959D01*
X152496373Y-81554195D01*
X152391311Y-81603186D01*
X152391306Y-81603189D01*
X152386324Y-81605512D01*
X152381817Y-81608668D01*
X152381815Y-81608669D01*
X152208730Y-81729864D01*
X152208727Y-81729866D01*
X152204219Y-81733023D01*
X152047023Y-81890219D01*
X151919512Y-82072324D01*
X151917189Y-82077306D01*
X151917186Y-82077311D01*
X151834328Y-82255000D01*
X151825560Y-82273804D01*
X151768022Y-82488537D01*
X151748647Y-82710000D01*
X151768022Y-82931463D01*
X151825560Y-83146196D01*
X151827882Y-83151177D01*
X151827883Y-83151178D01*
X151917186Y-83342689D01*
X151917189Y-83342694D01*
X151919512Y-83347676D01*
X151922668Y-83352183D01*
X151922669Y-83352185D01*
X152042976Y-83524001D01*
X152047023Y-83529781D01*
X152204219Y-83686977D01*
X152208727Y-83690134D01*
X152208730Y-83690136D01*
X152271472Y-83734068D01*
X152386323Y-83814488D01*
X152391305Y-83816811D01*
X152391310Y-83816814D01*
X152496373Y-83865805D01*
X152549658Y-83912722D01*
X152569119Y-83980999D01*
X152548577Y-84048959D01*
X152496373Y-84094195D01*
X152391311Y-84143186D01*
X152391306Y-84143189D01*
X152386324Y-84145512D01*
X152381817Y-84148668D01*
X152381815Y-84148669D01*
X152208730Y-84269864D01*
X152208727Y-84269866D01*
X152204219Y-84273023D01*
X152047023Y-84430219D01*
X151919512Y-84612324D01*
X151917189Y-84617306D01*
X151917186Y-84617311D01*
X151832946Y-84797965D01*
X151825560Y-84813804D01*
X151768022Y-85028537D01*
X151748647Y-85250000D01*
X151768022Y-85471463D01*
X151825560Y-85686196D01*
X151827882Y-85691177D01*
X151827883Y-85691178D01*
X151917186Y-85882689D01*
X151917189Y-85882694D01*
X151919512Y-85887676D01*
X151922668Y-85892183D01*
X151922669Y-85892185D01*
X152041225Y-86061500D01*
X152047023Y-86069781D01*
X152204219Y-86226977D01*
X152208727Y-86230134D01*
X152208730Y-86230136D01*
X152284495Y-86283187D01*
X152386323Y-86354488D01*
X152391305Y-86356811D01*
X152391310Y-86356814D01*
X152496373Y-86405805D01*
X152549658Y-86452722D01*
X152569119Y-86520999D01*
X152548577Y-86588959D01*
X152496373Y-86634195D01*
X152391311Y-86683186D01*
X152391306Y-86683189D01*
X152386324Y-86685512D01*
X152381817Y-86688668D01*
X152381815Y-86688669D01*
X152208730Y-86809864D01*
X152208727Y-86809866D01*
X152204219Y-86813023D01*
X152047023Y-86970219D01*
X151919512Y-87152324D01*
X151917189Y-87157306D01*
X151917186Y-87157311D01*
X151868195Y-87262373D01*
X151825560Y-87353804D01*
X151768022Y-87568537D01*
X151748647Y-87790000D01*
X151768022Y-88011463D01*
X151769446Y-88016776D01*
X151823288Y-88217715D01*
X151825560Y-88226196D01*
X151827882Y-88231177D01*
X151827883Y-88231178D01*
X151917186Y-88422689D01*
X151917189Y-88422694D01*
X151919512Y-88427676D01*
X151922668Y-88432183D01*
X151922669Y-88432185D01*
X152039454Y-88598971D01*
X152047023Y-88609781D01*
X152204219Y-88766977D01*
X152208727Y-88770134D01*
X152208730Y-88770136D01*
X152284495Y-88823187D01*
X152386323Y-88894488D01*
X152391305Y-88896811D01*
X152391310Y-88896814D01*
X152496373Y-88945805D01*
X152549658Y-88992722D01*
X152569119Y-89060999D01*
X152548577Y-89128959D01*
X152496373Y-89174195D01*
X152391311Y-89223186D01*
X152391306Y-89223189D01*
X152386324Y-89225512D01*
X152381817Y-89228668D01*
X152381815Y-89228669D01*
X152208730Y-89349864D01*
X152208727Y-89349866D01*
X152204219Y-89353023D01*
X152047023Y-89510219D01*
X151919512Y-89692324D01*
X151917189Y-89697306D01*
X151917186Y-89697311D01*
X151868195Y-89802373D01*
X151825560Y-89893804D01*
X151768022Y-90108537D01*
X151748647Y-90330000D01*
X151768022Y-90551463D01*
X151825560Y-90766196D01*
X151827882Y-90771177D01*
X151827883Y-90771178D01*
X151917186Y-90962689D01*
X151917189Y-90962694D01*
X151919512Y-90967676D01*
X152047023Y-91149781D01*
X152204219Y-91306977D01*
X152208727Y-91310134D01*
X152208730Y-91310136D01*
X152284495Y-91363187D01*
X152386323Y-91434488D01*
X152391305Y-91436811D01*
X152391310Y-91436814D01*
X152496373Y-91485805D01*
X152549658Y-91532722D01*
X152569119Y-91600999D01*
X152548577Y-91668959D01*
X152496373Y-91714195D01*
X152391311Y-91763186D01*
X152391306Y-91763189D01*
X152386324Y-91765512D01*
X152381817Y-91768668D01*
X152381815Y-91768669D01*
X152208730Y-91889864D01*
X152208727Y-91889866D01*
X152204219Y-91893023D01*
X152047023Y-92050219D01*
X152043866Y-92054727D01*
X152043864Y-92054730D01*
X151922669Y-92227815D01*
X151919512Y-92232324D01*
X151917189Y-92237306D01*
X151917186Y-92237311D01*
X151871765Y-92334717D01*
X151825560Y-92433804D01*
X151768022Y-92648537D01*
X151748647Y-92870000D01*
X151768022Y-93091463D01*
X151825560Y-93306196D01*
X151827882Y-93311177D01*
X151827883Y-93311178D01*
X151917186Y-93502689D01*
X151917189Y-93502694D01*
X151919512Y-93507676D01*
X151922668Y-93512183D01*
X151922669Y-93512185D01*
X151983175Y-93598596D01*
X152047023Y-93689781D01*
X152204219Y-93846977D01*
X152208727Y-93850134D01*
X152208730Y-93850136D01*
X152238067Y-93870678D01*
X152386323Y-93974488D01*
X152391305Y-93976811D01*
X152391310Y-93976814D01*
X152496373Y-94025805D01*
X152549658Y-94072722D01*
X152569119Y-94140999D01*
X152548577Y-94208959D01*
X152496373Y-94254195D01*
X152391311Y-94303186D01*
X152391306Y-94303189D01*
X152386324Y-94305512D01*
X152381817Y-94308668D01*
X152381815Y-94308669D01*
X152208730Y-94429864D01*
X152208727Y-94429866D01*
X152204219Y-94433023D01*
X152047023Y-94590219D01*
X151919512Y-94772324D01*
X151917189Y-94777306D01*
X151917186Y-94777311D01*
X151868195Y-94882373D01*
X151825560Y-94973804D01*
X151768022Y-95188537D01*
X151748647Y-95410000D01*
X151768022Y-95631463D01*
X151825560Y-95846196D01*
X151827882Y-95851177D01*
X151827883Y-95851178D01*
X151917186Y-96042689D01*
X151917189Y-96042694D01*
X151919512Y-96047676D01*
X152047023Y-96229781D01*
X152204219Y-96386977D01*
X152208727Y-96390134D01*
X152208730Y-96390136D01*
X152284495Y-96443187D01*
X152386323Y-96514488D01*
X152391305Y-96516811D01*
X152391310Y-96516814D01*
X152496373Y-96565805D01*
X152549658Y-96612722D01*
X152569119Y-96680999D01*
X152548577Y-96748959D01*
X152496373Y-96794195D01*
X152391311Y-96843186D01*
X152391306Y-96843189D01*
X152386324Y-96845512D01*
X152381817Y-96848668D01*
X152381815Y-96848669D01*
X152208730Y-96969864D01*
X152208727Y-96969866D01*
X152204219Y-96973023D01*
X152047023Y-97130219D01*
X151919512Y-97312324D01*
X151917189Y-97317306D01*
X151917186Y-97317311D01*
X151868195Y-97422373D01*
X151825560Y-97513804D01*
X151768022Y-97728537D01*
X151748647Y-97950000D01*
X151768022Y-98171463D01*
X151825560Y-98386196D01*
X151827882Y-98391177D01*
X151827883Y-98391178D01*
X151917186Y-98582689D01*
X151917189Y-98582694D01*
X151919512Y-98587676D01*
X152047023Y-98769781D01*
X152204219Y-98926977D01*
X152208727Y-98930134D01*
X152208730Y-98930136D01*
X152284495Y-98983187D01*
X152386323Y-99054488D01*
X152391305Y-99056811D01*
X152391310Y-99056814D01*
X152496373Y-99105805D01*
X152549658Y-99152722D01*
X152569119Y-99220999D01*
X152548577Y-99288959D01*
X152496373Y-99334195D01*
X152391311Y-99383186D01*
X152391306Y-99383189D01*
X152386324Y-99385512D01*
X152381817Y-99388668D01*
X152381815Y-99388669D01*
X152208730Y-99509864D01*
X152208727Y-99509866D01*
X152204219Y-99513023D01*
X152047023Y-99670219D01*
X151919512Y-99852324D01*
X151917189Y-99857306D01*
X151917186Y-99857311D01*
X151868195Y-99962373D01*
X151825560Y-100053804D01*
X151768022Y-100268537D01*
X151748647Y-100490000D01*
X151768022Y-100711463D01*
X151825560Y-100926196D01*
X151827882Y-100931177D01*
X151827883Y-100931178D01*
X151917186Y-101122689D01*
X151917189Y-101122694D01*
X151919512Y-101127676D01*
X152047023Y-101309781D01*
X152204219Y-101466977D01*
X152208727Y-101470134D01*
X152208730Y-101470136D01*
X152284495Y-101523187D01*
X152386323Y-101594488D01*
X152391305Y-101596811D01*
X152391310Y-101596814D01*
X152496373Y-101645805D01*
X152549658Y-101692722D01*
X152569119Y-101760999D01*
X152548577Y-101828959D01*
X152496373Y-101874195D01*
X152391311Y-101923186D01*
X152391306Y-101923189D01*
X152386324Y-101925512D01*
X152381817Y-101928668D01*
X152381815Y-101928669D01*
X152208730Y-102049864D01*
X152208727Y-102049866D01*
X152204219Y-102053023D01*
X152047023Y-102210219D01*
X151919512Y-102392324D01*
X151917189Y-102397306D01*
X151917186Y-102397311D01*
X151868195Y-102502373D01*
X151825560Y-102593804D01*
X151768022Y-102808537D01*
X151748647Y-103030000D01*
X151768022Y-103251463D01*
X151825560Y-103466196D01*
X151827882Y-103471177D01*
X151827883Y-103471178D01*
X151917186Y-103662689D01*
X151917189Y-103662694D01*
X151919512Y-103667676D01*
X152047023Y-103849781D01*
X152204219Y-104006977D01*
X152208727Y-104010134D01*
X152208730Y-104010136D01*
X152284495Y-104063187D01*
X152386323Y-104134488D01*
X152391305Y-104136811D01*
X152391310Y-104136814D01*
X152582822Y-104226117D01*
X152587804Y-104228440D01*
X152593112Y-104229862D01*
X152593114Y-104229863D01*
X152658949Y-104247503D01*
X152802537Y-104285978D01*
X152901790Y-104294661D01*
X152940534Y-104298051D01*
X153006652Y-104323914D01*
X153048291Y-104381418D01*
X153052232Y-104452305D01*
X153017223Y-104514070D01*
X152974707Y-104541203D01*
X152824277Y-104598947D01*
X152821337Y-104600445D01*
X152490215Y-104769160D01*
X152490208Y-104769164D01*
X152487274Y-104770659D01*
X152170066Y-104976656D01*
X151876129Y-105214682D01*
X151608682Y-105482129D01*
X151370656Y-105776066D01*
X151164659Y-106093274D01*
X151163164Y-106096208D01*
X151163160Y-106096215D01*
X151027112Y-106363224D01*
X150992947Y-106430277D01*
X150965015Y-106503042D01*
X150951897Y-106537216D01*
X150908811Y-106593644D01*
X150842058Y-106617820D01*
X150772830Y-106602069D01*
X150723108Y-106551391D01*
X150708745Y-106503042D01*
X150702649Y-106433356D01*
X150696978Y-106368537D01*
X150639440Y-106153804D01*
X150612586Y-106096215D01*
X150547814Y-105957311D01*
X150547811Y-105957306D01*
X150545488Y-105952324D01*
X150542331Y-105947815D01*
X150421136Y-105774730D01*
X150421134Y-105774727D01*
X150417977Y-105770219D01*
X150260781Y-105613023D01*
X150256273Y-105609866D01*
X150256270Y-105609864D01*
X150180505Y-105556813D01*
X150078677Y-105485512D01*
X150073695Y-105483189D01*
X150073690Y-105483186D01*
X149882178Y-105393883D01*
X149882177Y-105393882D01*
X149877196Y-105391560D01*
X149871888Y-105390138D01*
X149871886Y-105390137D01*
X149806051Y-105372497D01*
X149662463Y-105334022D01*
X149441000Y-105314647D01*
X149219537Y-105334022D01*
X149075949Y-105372497D01*
X149010114Y-105390137D01*
X149010112Y-105390138D01*
X149004804Y-105391560D01*
X148999823Y-105393882D01*
X148999822Y-105393883D01*
X148808311Y-105483186D01*
X148808306Y-105483189D01*
X148803324Y-105485512D01*
X148798817Y-105488668D01*
X148798815Y-105488669D01*
X148625730Y-105609864D01*
X148625727Y-105609866D01*
X148621219Y-105613023D01*
X148464023Y-105770219D01*
X148460866Y-105774727D01*
X148460864Y-105774730D01*
X148339669Y-105947815D01*
X148336512Y-105952324D01*
X148334189Y-105957306D01*
X148334186Y-105957311D01*
X148285195Y-106062373D01*
X148238277Y-106115658D01*
X148170000Y-106135119D01*
X148102040Y-106114577D01*
X148056805Y-106062373D01*
X148007814Y-105957311D01*
X148007811Y-105957306D01*
X148005488Y-105952324D01*
X148002331Y-105947815D01*
X147881136Y-105774730D01*
X147881134Y-105774727D01*
X147877977Y-105770219D01*
X147720781Y-105613023D01*
X147716273Y-105609866D01*
X147716270Y-105609864D01*
X147640505Y-105556813D01*
X147538677Y-105485512D01*
X147533695Y-105483189D01*
X147533690Y-105483186D01*
X147342178Y-105393883D01*
X147342177Y-105393882D01*
X147337196Y-105391560D01*
X147331888Y-105390138D01*
X147331886Y-105390137D01*
X147266051Y-105372497D01*
X147122463Y-105334022D01*
X146901000Y-105314647D01*
X146679537Y-105334022D01*
X146535949Y-105372497D01*
X146470114Y-105390137D01*
X146470112Y-105390138D01*
X146464804Y-105391560D01*
X146459823Y-105393882D01*
X146459822Y-105393883D01*
X146268311Y-105483186D01*
X146268306Y-105483189D01*
X146263324Y-105485512D01*
X146258817Y-105488668D01*
X146258815Y-105488669D01*
X146085730Y-105609864D01*
X146085727Y-105609866D01*
X146081219Y-105613023D01*
X145924023Y-105770219D01*
X145920866Y-105774727D01*
X145920864Y-105774730D01*
X145799669Y-105947815D01*
X145796512Y-105952324D01*
X145794189Y-105957306D01*
X145794186Y-105957311D01*
X145729414Y-106096215D01*
X145702560Y-106153804D01*
X145645022Y-106368537D01*
X145625647Y-106590000D01*
X145645022Y-106811463D01*
X145702560Y-107026196D01*
X145704882Y-107031177D01*
X145704883Y-107031178D01*
X145794186Y-107222689D01*
X145794189Y-107222694D01*
X145796512Y-107227676D01*
X145799668Y-107232183D01*
X145799669Y-107232185D01*
X145913533Y-107394799D01*
X145924023Y-107409781D01*
X146081219Y-107566977D01*
X146085727Y-107570134D01*
X146085730Y-107570136D01*
X146161495Y-107623187D01*
X146263323Y-107694488D01*
X146268305Y-107696811D01*
X146268310Y-107696814D01*
X146373373Y-107745805D01*
X146426658Y-107792722D01*
X146446119Y-107860999D01*
X146425577Y-107928959D01*
X146373373Y-107974195D01*
X146268311Y-108023186D01*
X146268306Y-108023189D01*
X146263324Y-108025512D01*
X146258817Y-108028668D01*
X146258815Y-108028669D01*
X146085730Y-108149864D01*
X146085727Y-108149866D01*
X146081219Y-108153023D01*
X145924023Y-108310219D01*
X145920866Y-108314727D01*
X145920864Y-108314730D01*
X145827889Y-108447513D01*
X145796512Y-108492324D01*
X145794189Y-108497306D01*
X145794186Y-108497311D01*
X145745195Y-108602373D01*
X145702560Y-108693804D01*
X145645022Y-108908537D01*
X145625647Y-109130000D01*
X108687074Y-109130000D01*
X108729411Y-109019708D01*
X108729412Y-109019706D01*
X108730597Y-109016618D01*
X108828489Y-108651279D01*
X108864084Y-108426540D01*
X108887143Y-108280957D01*
X108887144Y-108280949D01*
X108887657Y-108277709D01*
X108907452Y-107900000D01*
X108887657Y-107522291D01*
X108828489Y-107148721D01*
X108730597Y-106783382D01*
X108595053Y-106430277D01*
X108560888Y-106363224D01*
X108424840Y-106096215D01*
X108424836Y-106096208D01*
X108423341Y-106093274D01*
X108217344Y-105776066D01*
X107979318Y-105482129D01*
X107711871Y-105214682D01*
X107417934Y-104976656D01*
X107100726Y-104770659D01*
X107097792Y-104769164D01*
X107097785Y-104769160D01*
X106766663Y-104600445D01*
X106763723Y-104598947D01*
X106410618Y-104463403D01*
X106045279Y-104365511D01*
X105846842Y-104334082D01*
X105674957Y-104306857D01*
X105674949Y-104306856D01*
X105671709Y-104306343D01*
X105294000Y-104286548D01*
X104916291Y-104306343D01*
X104913051Y-104306856D01*
X104913043Y-104306857D01*
X104741158Y-104334082D01*
X104542721Y-104365511D01*
X104177382Y-104463403D01*
X103824277Y-104598947D01*
X103821337Y-104600445D01*
X103490215Y-104769160D01*
X103490208Y-104769164D01*
X103487274Y-104770659D01*
X103170066Y-104976656D01*
X102876129Y-105214682D01*
X102608682Y-105482129D01*
X102370656Y-105776066D01*
X102164659Y-106093274D01*
X102163164Y-106096208D01*
X102163160Y-106096215D01*
X102027112Y-106363224D01*
X101992947Y-106430277D01*
X101857403Y-106783382D01*
X101759511Y-107148721D01*
X101700343Y-107522291D01*
X101680548Y-107900000D01*
X97028500Y-107900000D01*
X97028500Y-49900000D01*
X101680548Y-49900000D01*
X101700343Y-50277709D01*
X101759511Y-50651279D01*
X101857403Y-51016618D01*
X101992947Y-51369723D01*
X101994445Y-51372663D01*
X102086339Y-51553014D01*
X102164659Y-51706726D01*
X102166455Y-51709492D01*
X102166457Y-51709495D01*
X102212552Y-51780475D01*
X102370656Y-52023934D01*
X102608682Y-52317871D01*
X102876129Y-52585318D01*
X103170066Y-52823344D01*
X103172841Y-52825146D01*
X103407788Y-52977722D01*
X103487274Y-53029341D01*
X103490208Y-53030836D01*
X103490215Y-53030840D01*
X103742126Y-53159195D01*
X103824277Y-53201053D01*
X104177382Y-53336597D01*
X104542721Y-53434489D01*
X104741158Y-53465918D01*
X104913043Y-53493143D01*
X104913051Y-53493144D01*
X104916291Y-53493657D01*
X105294000Y-53513452D01*
X105671709Y-53493657D01*
X105674949Y-53493144D01*
X105674957Y-53493143D01*
X105846842Y-53465918D01*
X106045279Y-53434489D01*
X106410618Y-53336597D01*
X106763723Y-53201053D01*
X106845874Y-53159195D01*
X107097785Y-53030840D01*
X107097792Y-53030836D01*
X107100726Y-53029341D01*
X107180213Y-52977722D01*
X107415159Y-52825146D01*
X107417934Y-52823344D01*
X107711871Y-52585318D01*
X107979318Y-52317871D01*
X108217344Y-52023934D01*
X108375448Y-51780475D01*
X108421543Y-51709495D01*
X108421545Y-51709492D01*
X108423341Y-51706726D01*
X108501662Y-51553014D01*
X108593555Y-51372663D01*
X108595053Y-51369723D01*
X108730597Y-51016618D01*
X108828489Y-50651279D01*
X108887657Y-50277709D01*
X108907452Y-49900000D01*
X108887657Y-49522291D01*
X108828489Y-49148721D01*
X108730597Y-48783382D01*
X108595053Y-48430277D01*
X108423341Y-48093274D01*
X108217344Y-47776066D01*
X107979318Y-47482129D01*
X107711871Y-47214682D01*
X107417934Y-46976656D01*
X107100726Y-46770659D01*
X107097792Y-46769164D01*
X107097785Y-46769160D01*
X106766663Y-46600445D01*
X106763723Y-46598947D01*
X106410618Y-46463403D01*
X106045279Y-46365511D01*
X105846842Y-46334082D01*
X105674957Y-46306857D01*
X105674949Y-46306856D01*
X105671709Y-46306343D01*
X105294000Y-46286548D01*
X104916291Y-46306343D01*
X104913051Y-46306856D01*
X104913043Y-46306857D01*
X104741158Y-46334082D01*
X104542721Y-46365511D01*
X104177382Y-46463403D01*
X103824277Y-46598947D01*
X103821337Y-46600445D01*
X103490215Y-46769160D01*
X103490208Y-46769164D01*
X103487274Y-46770659D01*
X103170066Y-46976656D01*
X102876129Y-47214682D01*
X102608682Y-47482129D01*
X102370656Y-47776066D01*
X102164659Y-48093274D01*
X101992947Y-48430277D01*
X101857403Y-48783382D01*
X101759511Y-49148721D01*
X101700343Y-49522291D01*
X101680548Y-49900000D01*
X97028500Y-49900000D01*
X97028500Y-43814500D01*
X97048502Y-43746379D01*
X97102158Y-43699886D01*
X97154500Y-43688500D01*
X200025500Y-43688500D01*
X200093621Y-43708502D01*
G37*
%TD.AperFunction*%
%TD*%
M02*
