M48
; DRILL file {KiCad (6.0.6)} date Wed Mar 15 14:09:09 2023
; FORMAT={-:-/ absolute / inch / decimal}
; #@! TF.CreationDate,2023-03-15T14:09:09+01:00
; #@! TF.GenerationSoftware,Kicad,Pcbnew,(6.0.6)
; #@! TF.FileFunction,Plated,1,2,PTH
FMAT,2
INCH
; #@! TA.AperFunction,Plated,PTH,ComponentDrill
T1C0.0256
; #@! TA.AperFunction,Plated,PTH,ComponentDrill
T2C0.0394
; #@! TA.AperFunction,Plated,PTH,ComponentDrill
T3C0.0400
; #@! TA.AperFunction,Plated,PTH,ComponentDrill
T4C0.0402
; #@! TA.AperFunction,Plated,PTH,ComponentDrill
T5C0.1083
%
G90
G05
T1
X6.65Y-4.9
X6.65Y-4.95
X6.65Y-5.0
X6.65Y-5.05
X6.65Y-5.1
X6.7Y-4.9
X6.7Y-4.95
X6.7Y-5.0
X6.7Y-5.05
X6.7Y-5.1
T2
X7.35Y-2.5076
X7.45Y-2.5076
X7.4501Y-3.6691
X7.55Y-2.5076
X7.5501Y-3.6691
X7.65Y-2.5076
X7.6501Y-3.6691
X7.75Y-2.5076
X7.7501Y-3.6691
T3
X5.7835Y-4.1965
X5.7835Y-4.2965
X5.8835Y-4.1965
X5.8835Y-4.2965
X6.0246Y-2.1563
X6.0246Y-2.2563
X6.0246Y-2.3563
X6.0246Y-2.4563
X6.0246Y-2.5563
X6.0246Y-2.6563
X6.0246Y-2.7563
X6.0246Y-2.8563
X6.0246Y-2.9563
X6.0246Y-3.0563
X6.0246Y-3.1563
X6.0246Y-3.2563
X6.0246Y-3.3563
X6.0246Y-3.4563
X6.0246Y-3.5563
X6.0246Y-3.6563
X6.0246Y-3.7563
X6.0246Y-3.8563
X6.0246Y-3.9563
X6.0246Y-4.0563
X6.1246Y-2.1563
X6.1246Y-2.2563
X6.1246Y-2.3563
X6.1246Y-2.4563
X6.1246Y-2.5563
X6.1246Y-2.6563
X6.1246Y-2.7563
X6.1246Y-2.8563
X6.1246Y-2.9563
X6.1246Y-3.0563
X6.1246Y-3.1563
X6.1246Y-3.2563
X6.1246Y-3.3563
X6.1246Y-3.4563
X6.1246Y-3.5563
X6.1246Y-3.6563
X6.1246Y-3.7563
X6.1246Y-3.8563
X6.1246Y-3.9563
X6.1246Y-4.0563
T4
X6.49Y-2.0384
X6.49Y-2.1384
X6.49Y-2.2384
X6.49Y-2.3384
X6.49Y-2.4384
X6.49Y-2.5384
X6.49Y-2.6384
X6.49Y-2.7384
X6.49Y-2.8384
X6.49Y-2.9384
X6.49Y-3.0384
X6.49Y-3.1384
X6.49Y-3.2384
X6.49Y-3.3384
X6.49Y-3.4384
X7.09Y-2.0384
X7.09Y-2.1384
X7.09Y-2.2384
X7.09Y-2.3384
X7.09Y-2.4384
X7.09Y-2.5384
X7.09Y-2.6384
X7.09Y-2.7384
X7.09Y-2.8384
X7.09Y-2.9384
X7.09Y-3.0384
X7.09Y-3.1384
X7.09Y-3.2384
X7.09Y-3.3384
X7.09Y-3.4384
T5
X4.1454Y-1.9646
X4.1454Y-4.248
X6.0746Y-1.9646
X6.0746Y-4.248
T0
M30
