%FSLAX45Y45*%
G04 Gerber Fmt 4.5, Leading zero omitted, Abs format (unit mm)*
G04 Created by KiCad (PCBNEW (6.0.6)) date 2023-03-10 11:55:56*
%MOMM*%
%LPD*%
G01*
G04 APERTURE LIST*
%TA.AperFunction,Profile*%
%ADD10C,0.100000*%
%TD*%
%ADD11C,0.200000*%
%ADD12C,0.080000*%
%ADD13C,0.095000*%
%ADD14C,0.100000*%
%ADD15C,0.102000*%
G04 APERTURE END LIST*
D10*
X3403600Y-16179800D02*
G75*
G03*
X3403600Y-16179800I-318261J0D01*
G01*
X15722600Y-16179800D02*
G75*
G03*
X15722600Y-16179800I-318261J0D01*
G01*
X2604150Y-2033500D02*
X15913750Y-2033500D01*
X15913750Y-2033500D02*
X15913750Y-16638500D01*
X15913750Y-16638500D02*
X2604150Y-16638500D01*
X2604150Y-16638500D02*
X2604150Y-2033500D01*
X15736061Y-2489200D02*
G75*
G03*
X15736061Y-2489200I-318261J0D01*
G01*
X3391661Y-2514600D02*
G75*
G03*
X3391661Y-2514600I-318261J0D01*
G01*
D11*
D12*
X3757950Y-12559900D02*
X3837950Y-12639900D01*
X3837950Y-12559900D02*
X3757950Y-12639900D01*
X4265950Y-12534500D02*
X4345950Y-12614500D01*
X4345950Y-12534500D02*
X4265950Y-12614500D01*
X4811400Y-7834000D02*
X4891400Y-7914000D01*
X4891400Y-7834000D02*
X4811400Y-7914000D01*
X4913000Y-5954400D02*
X4993000Y-6034400D01*
X4993000Y-5954400D02*
X4913000Y-6034400D01*
X5167000Y-7605400D02*
X5247000Y-7685400D01*
X5247000Y-7605400D02*
X5167000Y-7685400D01*
X6233800Y-9332600D02*
X6313800Y-9412600D01*
X6313800Y-9332600D02*
X6233800Y-9412600D01*
X6259200Y-9662800D02*
X6339200Y-9742800D01*
X6339200Y-9662800D02*
X6259200Y-9742800D01*
X6577350Y-13982300D02*
X6657350Y-14062300D01*
X6657350Y-13982300D02*
X6577350Y-14062300D01*
X6614800Y-3008000D02*
X6694800Y-3088000D01*
X6694800Y-3008000D02*
X6614800Y-3088000D01*
X7072000Y-9154800D02*
X7152000Y-9234800D01*
X7152000Y-9154800D02*
X7072000Y-9234800D01*
X7249800Y-10221600D02*
X7329800Y-10301600D01*
X7329800Y-10221600D02*
X7249800Y-10301600D01*
X7288550Y-9740500D02*
X7368550Y-9820500D01*
X7368550Y-9740500D02*
X7288550Y-9820500D01*
X7427600Y-5040000D02*
X7507600Y-5120000D01*
X7507600Y-5040000D02*
X7427600Y-5120000D01*
X7656200Y-5148150D02*
X7736200Y-5228150D01*
X7736200Y-5148150D02*
X7656200Y-5228150D01*
X7656200Y-7478400D02*
X7736200Y-7558400D01*
X7736200Y-7478400D02*
X7656200Y-7558400D01*
X7732400Y-10221600D02*
X7812400Y-10301600D01*
X7812400Y-10221600D02*
X7732400Y-10301600D01*
X7935600Y-13777600D02*
X8015600Y-13857600D01*
X8015600Y-13777600D02*
X7935600Y-13857600D01*
X8215000Y-10958200D02*
X8295000Y-11038200D01*
X8295000Y-10958200D02*
X8215000Y-11038200D01*
X8342000Y-4862200D02*
X8422000Y-4942200D01*
X8422000Y-4862200D02*
X8342000Y-4942200D01*
X8824600Y-14869800D02*
X8904600Y-14949800D01*
X8904600Y-14869800D02*
X8824600Y-14949800D01*
X9739000Y-14615800D02*
X9819000Y-14695800D01*
X9819000Y-14615800D02*
X9739000Y-14695800D01*
X9892050Y-9727800D02*
X9972050Y-9807800D01*
X9972050Y-9727800D02*
X9892050Y-9807800D01*
X10133350Y-5295500D02*
X10213350Y-5375500D01*
X10213350Y-5295500D02*
X10133350Y-5375500D01*
X10272400Y-2703200D02*
X10352400Y-2783200D01*
X10352400Y-2703200D02*
X10272400Y-2783200D01*
X10805800Y-14311000D02*
X10885800Y-14391000D01*
X10885800Y-14311000D02*
X10805800Y-14391000D01*
X10844550Y-4558900D02*
X10924550Y-4638900D01*
X10924550Y-4558900D02*
X10844550Y-4638900D01*
X11034400Y-8494400D02*
X11114400Y-8574400D01*
X11114400Y-8494400D02*
X11034400Y-8574400D01*
X12050400Y-15352400D02*
X12130400Y-15432400D01*
X12130400Y-15352400D02*
X12050400Y-15432400D01*
X12101200Y-4836800D02*
X12181200Y-4916800D01*
X12181200Y-4836800D02*
X12101200Y-4916800D01*
X12261025Y-7714425D02*
X12341025Y-7794425D01*
X12341025Y-7714425D02*
X12261025Y-7794425D01*
X12279000Y-15758800D02*
X12359000Y-15838800D01*
X12359000Y-15758800D02*
X12279000Y-15838800D01*
X12456800Y-9942200D02*
X12536800Y-10022200D01*
X12536800Y-9942200D02*
X12456800Y-10022200D01*
X13117200Y-15047600D02*
X13197200Y-15127600D01*
X13197200Y-15047600D02*
X13117200Y-15127600D01*
X13142600Y-11237600D02*
X13222600Y-11317600D01*
X13222600Y-11237600D02*
X13142600Y-11317600D01*
X13320400Y-10729600D02*
X13400400Y-10809600D01*
X13400400Y-10729600D02*
X13320400Y-10809600D01*
X13625200Y-10221600D02*
X13705200Y-10301600D01*
X13705200Y-10221600D02*
X13625200Y-10301600D01*
X14171950Y-5625700D02*
X14251950Y-5705700D01*
X14251950Y-5625700D02*
X14171950Y-5705700D01*
X14438000Y-13066400D02*
X14518000Y-13146400D01*
X14518000Y-13066400D02*
X14438000Y-13146400D01*
X14692000Y-13015600D02*
X14772000Y-13095600D01*
X14772000Y-13015600D02*
X14692000Y-13095600D01*
X14717400Y-14920600D02*
X14797400Y-15000600D01*
X14797400Y-14920600D02*
X14717400Y-15000600D01*
X14742800Y-4303400D02*
X14822800Y-4383400D01*
X14822800Y-4303400D02*
X14742800Y-4383400D01*
X14768200Y-8773800D02*
X14848200Y-8853800D01*
X14848200Y-8773800D02*
X14768200Y-8853800D01*
X14920600Y-13650600D02*
X15000600Y-13730600D01*
X15000600Y-13650600D02*
X14920600Y-13730600D01*
D13*
X7904100Y-16078200D02*
G75*
G03*
X7904100Y-16078200I-47500J0D01*
G01*
X8154100Y-16078200D02*
G75*
G03*
X8154100Y-16078200I-47500J0D01*
G01*
X8404100Y-16078200D02*
G75*
G03*
X8404100Y-16078200I-47500J0D01*
G01*
X10088500Y-16078200D02*
G75*
G03*
X10088500Y-16078200I-47500J0D01*
G01*
X10338500Y-16078200D02*
G75*
G03*
X10338500Y-16078200I-47500J0D01*
G01*
X10588500Y-16078200D02*
G75*
G03*
X10588500Y-16078200I-47500J0D01*
G01*
X11286300Y-16079700D02*
G75*
G03*
X11286300Y-16079700I-47500J0D01*
G01*
X11536300Y-16079700D02*
G75*
G03*
X11536300Y-16079700I-47500J0D01*
G01*
X11786300Y-16079700D02*
G75*
G03*
X11786300Y-16079700I-47500J0D01*
G01*
X12036300Y-16079700D02*
G75*
G03*
X12036300Y-16079700I-47500J0D01*
G01*
X12734100Y-16078200D02*
G75*
G03*
X12734100Y-16078200I-47500J0D01*
G01*
X12984100Y-16078200D02*
G75*
G03*
X12984100Y-16078200I-47500J0D01*
G01*
X13234100Y-16078200D02*
G75*
G03*
X13234100Y-16078200I-47500J0D01*
G01*
X13484100Y-16078200D02*
G75*
G03*
X13484100Y-16078200I-47500J0D01*
G01*
D14*
X3464750Y-7870300D02*
X3464750Y-7970300D01*
X3414750Y-7920300D02*
X3514750Y-7920300D01*
X3718750Y-7870300D02*
X3718750Y-7970300D01*
X3668750Y-7920300D02*
X3768750Y-7920300D01*
X3800950Y-12149500D02*
X3800950Y-12249500D01*
X3750950Y-12199500D02*
X3850950Y-12199500D01*
X3972750Y-7870300D02*
X3972750Y-7970300D01*
X3922750Y-7920300D02*
X4022750Y-7920300D01*
X4054950Y-12149500D02*
X4054950Y-12249500D01*
X4004950Y-12199500D02*
X4104950Y-12199500D01*
X4226750Y-7870300D02*
X4226750Y-7970300D01*
X4176750Y-7920300D02*
X4276750Y-7920300D01*
X4308950Y-12149500D02*
X4308950Y-12249500D01*
X4258950Y-12199500D02*
X4358950Y-12199500D01*
X4480750Y-7870300D02*
X4480750Y-7970300D01*
X4430750Y-7920300D02*
X4530750Y-7920300D01*
X4991750Y-2821700D02*
X4991750Y-2921700D01*
X4941750Y-2871700D02*
X5041750Y-2871700D01*
X4991750Y-3071700D02*
X4991750Y-3171700D01*
X4941750Y-3121700D02*
X5041750Y-3121700D01*
X4996350Y-3763500D02*
X4996350Y-3863500D01*
X4946350Y-3813500D02*
X5046350Y-3813500D01*
X4996350Y-4013500D02*
X4996350Y-4113500D01*
X4946350Y-4063500D02*
X5046350Y-4063500D01*
X5017150Y-10547300D02*
X5017150Y-10647300D01*
X4967150Y-10597300D02*
X5067150Y-10597300D01*
X5017150Y-10797300D02*
X5017150Y-10897300D01*
X4967150Y-10847300D02*
X5067150Y-10847300D01*
X5021750Y-8716500D02*
X5021750Y-8816500D01*
X4971750Y-8766500D02*
X5071750Y-8766500D01*
X5021750Y-8966500D02*
X5021750Y-9066500D01*
X4971750Y-9016500D02*
X5071750Y-9016500D01*
X5021750Y-9630900D02*
X5021750Y-9730900D01*
X4971750Y-9680900D02*
X5071750Y-9680900D01*
X5021750Y-9880900D02*
X5021750Y-9980900D01*
X4971750Y-9930900D02*
X5071750Y-9930900D01*
X6926150Y-16029700D02*
X6926150Y-16129700D01*
X6876150Y-16079700D02*
X6976150Y-16079700D01*
X7176150Y-16029700D02*
X7176150Y-16129700D01*
X7126150Y-16079700D02*
X7226150Y-16079700D01*
X7912750Y-8333500D02*
X7912750Y-8433500D01*
X7862750Y-8383500D02*
X7962750Y-8383500D01*
X7913250Y-6072900D02*
X7913250Y-6172900D01*
X7863250Y-6122900D02*
X7963250Y-6122900D01*
X7913250Y-7190500D02*
X7913250Y-7290500D01*
X7863250Y-7240500D02*
X7963250Y-7240500D01*
X7913250Y-7749300D02*
X7913250Y-7849300D01*
X7863250Y-7799300D02*
X7963250Y-7799300D01*
X7913250Y-8917700D02*
X7913250Y-9017700D01*
X7863250Y-8967700D02*
X7963250Y-8967700D01*
X7913250Y-11457700D02*
X7913250Y-11557700D01*
X7863250Y-11507700D02*
X7963250Y-11507700D01*
X8166750Y-8333500D02*
X8166750Y-8433500D01*
X8116750Y-8383500D02*
X8216750Y-8383500D01*
X8167250Y-6072900D02*
X8167250Y-6172900D01*
X8117250Y-6122900D02*
X8217250Y-6122900D01*
X8167250Y-7190500D02*
X8167250Y-7290500D01*
X8117250Y-7240500D02*
X8217250Y-7240500D01*
X8167250Y-7749300D02*
X8167250Y-7849300D01*
X8117250Y-7799300D02*
X8217250Y-7799300D01*
X8167250Y-8917700D02*
X8167250Y-9017700D01*
X8117250Y-8967700D02*
X8217250Y-8967700D01*
X8167250Y-11457700D02*
X8167250Y-11557700D01*
X8117250Y-11507700D02*
X8217250Y-11507700D01*
X9085150Y-16029700D02*
X9085150Y-16129700D01*
X9035150Y-16079700D02*
X9135150Y-16079700D01*
X9335150Y-16029700D02*
X9335150Y-16129700D01*
X9285150Y-16079700D02*
X9385150Y-16079700D01*
X12861150Y-2696700D02*
X12861150Y-2796700D01*
X12811150Y-2746700D02*
X12911150Y-2746700D01*
X12861150Y-2946700D02*
X12861150Y-3046700D01*
X12811150Y-2996700D02*
X12911150Y-2996700D01*
X12861150Y-3585700D02*
X12861150Y-3685700D01*
X12811150Y-3635700D02*
X12911150Y-3635700D01*
X12861150Y-3835700D02*
X12861150Y-3935700D01*
X12811150Y-3885700D02*
X12911150Y-3885700D01*
X12861150Y-4474700D02*
X12861150Y-4574700D01*
X12811150Y-4524700D02*
X12911150Y-4524700D01*
X12861150Y-4724700D02*
X12861150Y-4824700D01*
X12811150Y-4774700D02*
X12911150Y-4774700D01*
X12861150Y-5363700D02*
X12861150Y-5463700D01*
X12811150Y-5413700D02*
X12911150Y-5413700D01*
X12861150Y-5613700D02*
X12861150Y-5713700D01*
X12811150Y-5663700D02*
X12911150Y-5663700D01*
X12861150Y-6252700D02*
X12861150Y-6352700D01*
X12811150Y-6302700D02*
X12911150Y-6302700D01*
X12861150Y-6502700D02*
X12861150Y-6602700D01*
X12811150Y-6552700D02*
X12911150Y-6552700D01*
X12861150Y-7141700D02*
X12861150Y-7241700D01*
X12811150Y-7191700D02*
X12911150Y-7191700D01*
X12861150Y-7391700D02*
X12861150Y-7491700D01*
X12811150Y-7441700D02*
X12911150Y-7441700D01*
X12861150Y-8030700D02*
X12861150Y-8130700D01*
X12811150Y-8080700D02*
X12911150Y-8080700D01*
X12861150Y-8280700D02*
X12861150Y-8380700D01*
X12811150Y-8330700D02*
X12911150Y-8330700D01*
X12861150Y-8919700D02*
X12861150Y-9019700D01*
X12811150Y-8969700D02*
X12911150Y-8969700D01*
X12861150Y-9169700D02*
X12861150Y-9269700D01*
X12811150Y-9219700D02*
X12911150Y-9219700D01*
X12928600Y-9983000D02*
X12928600Y-10083000D01*
X12878600Y-10033000D02*
X12978600Y-10033000D01*
X12928600Y-10237000D02*
X12928600Y-10337000D01*
X12878600Y-10287000D02*
X12978600Y-10287000D01*
X12928600Y-10491000D02*
X12928600Y-10591000D01*
X12878600Y-10541000D02*
X12978600Y-10541000D01*
X12928600Y-10745000D02*
X12928600Y-10845000D01*
X12878600Y-10795000D02*
X12978600Y-10795000D01*
X12928600Y-10999000D02*
X12928600Y-11099000D01*
X12878600Y-11049000D02*
X12978600Y-11049000D01*
X12928600Y-11253000D02*
X12928600Y-11353000D01*
X12878600Y-11303000D02*
X12978600Y-11303000D01*
X12928600Y-11507000D02*
X12928600Y-11607000D01*
X12878600Y-11557000D02*
X12978600Y-11557000D01*
X12928600Y-11761000D02*
X12928600Y-11861000D01*
X12878600Y-11811000D02*
X12978600Y-11811000D01*
X12954650Y-12702300D02*
X12954650Y-12802300D01*
X12904650Y-12752300D02*
X13004650Y-12752300D01*
X12957650Y-15502300D02*
X12957650Y-15602300D01*
X12907650Y-15552300D02*
X13007650Y-15552300D01*
X13208650Y-12702300D02*
X13208650Y-12802300D01*
X13158650Y-12752300D02*
X13258650Y-12752300D01*
X13211650Y-15502300D02*
X13211650Y-15602300D01*
X13161650Y-15552300D02*
X13261650Y-15552300D01*
X13462650Y-12702300D02*
X13462650Y-12802300D01*
X13412650Y-12752300D02*
X13512650Y-12752300D01*
X13465650Y-15502300D02*
X13465650Y-15602300D01*
X13415650Y-15552300D02*
X13515650Y-15552300D01*
X13623150Y-2696700D02*
X13623150Y-2796700D01*
X13573150Y-2746700D02*
X13673150Y-2746700D01*
X13623150Y-2946700D02*
X13623150Y-3046700D01*
X13573150Y-2996700D02*
X13673150Y-2996700D01*
X13623150Y-3585700D02*
X13623150Y-3685700D01*
X13573150Y-3635700D02*
X13673150Y-3635700D01*
X13623150Y-3835700D02*
X13623150Y-3935700D01*
X13573150Y-3885700D02*
X13673150Y-3885700D01*
X13623150Y-4474700D02*
X13623150Y-4574700D01*
X13573150Y-4524700D02*
X13673150Y-4524700D01*
X13623150Y-4724700D02*
X13623150Y-4824700D01*
X13573150Y-4774700D02*
X13673150Y-4774700D01*
X13623150Y-5363700D02*
X13623150Y-5463700D01*
X13573150Y-5413700D02*
X13673150Y-5413700D01*
X13623150Y-5613700D02*
X13623150Y-5713700D01*
X13573150Y-5663700D02*
X13673150Y-5663700D01*
X13648550Y-6252700D02*
X13648550Y-6352700D01*
X13598550Y-6302700D02*
X13698550Y-6302700D01*
X13648550Y-6502700D02*
X13648550Y-6602700D01*
X13598550Y-6552700D02*
X13698550Y-6552700D01*
X13648550Y-7141700D02*
X13648550Y-7241700D01*
X13598550Y-7191700D02*
X13698550Y-7191700D01*
X13648550Y-7391700D02*
X13648550Y-7491700D01*
X13598550Y-7441700D02*
X13698550Y-7441700D01*
X13648550Y-8030700D02*
X13648550Y-8130700D01*
X13598550Y-8080700D02*
X13698550Y-8080700D01*
X13648550Y-8280700D02*
X13648550Y-8380700D01*
X13598550Y-8330700D02*
X13698550Y-8330700D01*
X13648550Y-8919700D02*
X13648550Y-9019700D01*
X13598550Y-8969700D02*
X13698550Y-8969700D01*
X13648550Y-9169700D02*
X13648550Y-9269700D01*
X13598550Y-9219700D02*
X13698550Y-9219700D01*
X13716650Y-12702300D02*
X13716650Y-12802300D01*
X13666650Y-12752300D02*
X13766650Y-12752300D01*
X13719650Y-15502300D02*
X13719650Y-15602300D01*
X13669650Y-15552300D02*
X13769650Y-15552300D01*
X13970650Y-12702300D02*
X13970650Y-12802300D01*
X13920650Y-12752300D02*
X14020650Y-12752300D01*
X13973650Y-15502300D02*
X13973650Y-15602300D01*
X13923650Y-15552300D02*
X14023650Y-15552300D01*
X14224650Y-12702300D02*
X14224650Y-12802300D01*
X14174650Y-12752300D02*
X14274650Y-12752300D01*
X14227650Y-15502300D02*
X14227650Y-15602300D01*
X14177650Y-15552300D02*
X14277650Y-15552300D01*
X14410550Y-6252700D02*
X14410550Y-6352700D01*
X14360550Y-6302700D02*
X14460550Y-6302700D01*
X14410550Y-6502700D02*
X14410550Y-6602700D01*
X14360550Y-6552700D02*
X14460550Y-6552700D01*
X14410550Y-7141700D02*
X14410550Y-7241700D01*
X14360550Y-7191700D02*
X14460550Y-7191700D01*
X14410550Y-7391700D02*
X14410550Y-7491700D01*
X14360550Y-7441700D02*
X14460550Y-7441700D01*
X14410550Y-8030700D02*
X14410550Y-8130700D01*
X14360550Y-8080700D02*
X14460550Y-8080700D01*
X14410550Y-8280700D02*
X14410550Y-8380700D01*
X14360550Y-8330700D02*
X14460550Y-8330700D01*
X14410550Y-8919700D02*
X14410550Y-9019700D01*
X14360550Y-8969700D02*
X14460550Y-8969700D01*
X14410550Y-9169700D02*
X14410550Y-9269700D01*
X14360550Y-9219700D02*
X14460550Y-9219700D01*
X14478650Y-12702300D02*
X14478650Y-12802300D01*
X14428650Y-12752300D02*
X14528650Y-12752300D01*
X14481650Y-15502300D02*
X14481650Y-15602300D01*
X14431650Y-15552300D02*
X14531650Y-15552300D01*
X14732650Y-12702300D02*
X14732650Y-12802300D01*
X14682650Y-12752300D02*
X14782650Y-12752300D01*
X14735650Y-15502300D02*
X14735650Y-15602300D01*
X14685650Y-15552300D02*
X14785650Y-15552300D01*
X15172550Y-6252700D02*
X15172550Y-6352700D01*
X15122550Y-6302700D02*
X15222550Y-6302700D01*
X15172550Y-6502700D02*
X15172550Y-6602700D01*
X15122550Y-6552700D02*
X15222550Y-6552700D01*
D15*
X5815213Y-5639763D02*
X5815213Y-5567637D01*
X5743087Y-5567637D01*
X5743087Y-5639763D01*
X5815213Y-5639763D01*
X5815213Y-5893763D02*
X5815213Y-5821637D01*
X5743087Y-5821637D01*
X5743087Y-5893763D01*
X5815213Y-5893763D01*
X5815213Y-6147763D02*
X5815213Y-6075637D01*
X5743087Y-6075637D01*
X5743087Y-6147763D01*
X5815213Y-6147763D01*
X5815213Y-6401763D02*
X5815213Y-6329637D01*
X5743087Y-6329637D01*
X5743087Y-6401763D01*
X5815213Y-6401763D01*
X5815213Y-6655763D02*
X5815213Y-6583637D01*
X5743087Y-6583637D01*
X5743087Y-6655763D01*
X5815213Y-6655763D01*
X5815213Y-6909763D02*
X5815213Y-6837637D01*
X5743087Y-6837637D01*
X5743087Y-6909763D01*
X5815213Y-6909763D01*
X5815213Y-7163763D02*
X5815213Y-7091637D01*
X5743087Y-7091637D01*
X5743087Y-7163763D01*
X5815213Y-7163763D01*
X5815213Y-7417763D02*
X5815213Y-7345637D01*
X5743087Y-7345637D01*
X5743087Y-7417763D01*
X5815213Y-7417763D01*
X5815213Y-7671763D02*
X5815213Y-7599637D01*
X5743087Y-7599637D01*
X5743087Y-7671763D01*
X5815213Y-7671763D01*
X5815213Y-7925763D02*
X5815213Y-7853637D01*
X5743087Y-7853637D01*
X5743087Y-7925763D01*
X5815213Y-7925763D01*
X5815213Y-8179763D02*
X5815213Y-8107637D01*
X5743087Y-8107637D01*
X5743087Y-8179763D01*
X5815213Y-8179763D01*
X5815213Y-8433763D02*
X5815213Y-8361637D01*
X5743087Y-8361637D01*
X5743087Y-8433763D01*
X5815213Y-8433763D01*
X5815213Y-8687763D02*
X5815213Y-8615637D01*
X5743087Y-8615637D01*
X5743087Y-8687763D01*
X5815213Y-8687763D01*
X5815213Y-8941763D02*
X5815213Y-8869637D01*
X5743087Y-8869637D01*
X5743087Y-8941763D01*
X5815213Y-8941763D01*
X5815213Y-9195763D02*
X5815213Y-9123637D01*
X5743087Y-9123637D01*
X5743087Y-9195763D01*
X5815213Y-9195763D01*
X5815213Y-9449763D02*
X5815213Y-9377637D01*
X5743087Y-9377637D01*
X5743087Y-9449763D01*
X5815213Y-9449763D01*
X5815213Y-9703763D02*
X5815213Y-9631637D01*
X5743087Y-9631637D01*
X5743087Y-9703763D01*
X5815213Y-9703763D01*
X5815213Y-9957763D02*
X5815213Y-9885637D01*
X5743087Y-9885637D01*
X5743087Y-9957763D01*
X5815213Y-9957763D01*
X5815213Y-10211763D02*
X5815213Y-10139637D01*
X5743087Y-10139637D01*
X5743087Y-10211763D01*
X5815213Y-10211763D01*
X5815213Y-10465763D02*
X5815213Y-10393637D01*
X5743087Y-10393637D01*
X5743087Y-10465763D01*
X5815213Y-10465763D01*
X5815213Y-10719763D02*
X5815213Y-10647637D01*
X5743087Y-10647637D01*
X5743087Y-10719763D01*
X5815213Y-10719763D01*
X5815213Y-10973763D02*
X5815213Y-10901637D01*
X5743087Y-10901637D01*
X5743087Y-10973763D01*
X5815213Y-10973763D01*
X5815213Y-11227763D02*
X5815213Y-11155637D01*
X5743087Y-11155637D01*
X5743087Y-11227763D01*
X5815213Y-11227763D01*
X5815213Y-11481763D02*
X5815213Y-11409637D01*
X5743087Y-11409637D01*
X5743087Y-11481763D01*
X5815213Y-11481763D01*
X5815213Y-11735763D02*
X5815213Y-11663637D01*
X5743087Y-11663637D01*
X5743087Y-11735763D01*
X5815213Y-11735763D01*
X5815213Y-11989763D02*
X5815213Y-11917637D01*
X5743087Y-11917637D01*
X5743087Y-11989763D01*
X5815213Y-11989763D01*
X5815213Y-12243763D02*
X5815213Y-12171637D01*
X5743087Y-12171637D01*
X5743087Y-12243763D01*
X5815213Y-12243763D01*
X5815213Y-12497763D02*
X5815213Y-12425637D01*
X5743087Y-12425637D01*
X5743087Y-12497763D01*
X5815213Y-12497763D01*
X5815213Y-12751763D02*
X5815213Y-12679637D01*
X5743087Y-12679637D01*
X5743087Y-12751763D01*
X5815213Y-12751763D01*
X5815213Y-13005763D02*
X5815213Y-12933637D01*
X5743087Y-12933637D01*
X5743087Y-13005763D01*
X5815213Y-13005763D01*
X5815213Y-13259763D02*
X5815213Y-13187637D01*
X5743087Y-13187637D01*
X5743087Y-13259763D01*
X5815213Y-13259763D01*
X5815213Y-13513763D02*
X5815213Y-13441637D01*
X5743087Y-13441637D01*
X5743087Y-13513763D01*
X5815213Y-13513763D01*
X5815213Y-13767763D02*
X5815213Y-13695637D01*
X5743087Y-13695637D01*
X5743087Y-13767763D01*
X5815213Y-13767763D01*
X5815213Y-14021763D02*
X5815213Y-13949637D01*
X5743087Y-13949637D01*
X5743087Y-14021763D01*
X5815213Y-14021763D01*
X5815213Y-14275763D02*
X5815213Y-14203637D01*
X5743087Y-14203637D01*
X5743087Y-14275763D01*
X5815213Y-14275763D01*
X5815213Y-14529763D02*
X5815213Y-14457637D01*
X5743087Y-14457637D01*
X5743087Y-14529763D01*
X5815213Y-14529763D01*
X6069213Y-5639763D02*
X6069213Y-5567637D01*
X5997087Y-5567637D01*
X5997087Y-5639763D01*
X6069213Y-5639763D01*
X6069213Y-5893763D02*
X6069213Y-5821637D01*
X5997087Y-5821637D01*
X5997087Y-5893763D01*
X6069213Y-5893763D01*
X6069213Y-6147763D02*
X6069213Y-6075637D01*
X5997087Y-6075637D01*
X5997087Y-6147763D01*
X6069213Y-6147763D01*
X6069213Y-6401763D02*
X6069213Y-6329637D01*
X5997087Y-6329637D01*
X5997087Y-6401763D01*
X6069213Y-6401763D01*
X6069213Y-6655763D02*
X6069213Y-6583637D01*
X5997087Y-6583637D01*
X5997087Y-6655763D01*
X6069213Y-6655763D01*
X6069213Y-6909763D02*
X6069213Y-6837637D01*
X5997087Y-6837637D01*
X5997087Y-6909763D01*
X6069213Y-6909763D01*
X6069213Y-7163763D02*
X6069213Y-7091637D01*
X5997087Y-7091637D01*
X5997087Y-7163763D01*
X6069213Y-7163763D01*
X6069213Y-7417763D02*
X6069213Y-7345637D01*
X5997087Y-7345637D01*
X5997087Y-7417763D01*
X6069213Y-7417763D01*
X6069213Y-7671763D02*
X6069213Y-7599637D01*
X5997087Y-7599637D01*
X5997087Y-7671763D01*
X6069213Y-7671763D01*
X6069213Y-7925763D02*
X6069213Y-7853637D01*
X5997087Y-7853637D01*
X5997087Y-7925763D01*
X6069213Y-7925763D01*
X6069213Y-8179763D02*
X6069213Y-8107637D01*
X5997087Y-8107637D01*
X5997087Y-8179763D01*
X6069213Y-8179763D01*
X6069213Y-8433763D02*
X6069213Y-8361637D01*
X5997087Y-8361637D01*
X5997087Y-8433763D01*
X6069213Y-8433763D01*
X6069213Y-8687763D02*
X6069213Y-8615637D01*
X5997087Y-8615637D01*
X5997087Y-8687763D01*
X6069213Y-8687763D01*
X6069213Y-8941763D02*
X6069213Y-8869637D01*
X5997087Y-8869637D01*
X5997087Y-8941763D01*
X6069213Y-8941763D01*
X6069213Y-9195763D02*
X6069213Y-9123637D01*
X5997087Y-9123637D01*
X5997087Y-9195763D01*
X6069213Y-9195763D01*
X6069213Y-9449763D02*
X6069213Y-9377637D01*
X5997087Y-9377637D01*
X5997087Y-9449763D01*
X6069213Y-9449763D01*
X6069213Y-9703763D02*
X6069213Y-9631637D01*
X5997087Y-9631637D01*
X5997087Y-9703763D01*
X6069213Y-9703763D01*
X6069213Y-9957763D02*
X6069213Y-9885637D01*
X5997087Y-9885637D01*
X5997087Y-9957763D01*
X6069213Y-9957763D01*
X6069213Y-10211763D02*
X6069213Y-10139637D01*
X5997087Y-10139637D01*
X5997087Y-10211763D01*
X6069213Y-10211763D01*
X6069213Y-10465763D02*
X6069213Y-10393637D01*
X5997087Y-10393637D01*
X5997087Y-10465763D01*
X6069213Y-10465763D01*
X6069213Y-10719763D02*
X6069213Y-10647637D01*
X5997087Y-10647637D01*
X5997087Y-10719763D01*
X6069213Y-10719763D01*
X6069213Y-10973763D02*
X6069213Y-10901637D01*
X5997087Y-10901637D01*
X5997087Y-10973763D01*
X6069213Y-10973763D01*
X6069213Y-11227763D02*
X6069213Y-11155637D01*
X5997087Y-11155637D01*
X5997087Y-11227763D01*
X6069213Y-11227763D01*
X6069213Y-11481763D02*
X6069213Y-11409637D01*
X5997087Y-11409637D01*
X5997087Y-11481763D01*
X6069213Y-11481763D01*
X6069213Y-11735763D02*
X6069213Y-11663637D01*
X5997087Y-11663637D01*
X5997087Y-11735763D01*
X6069213Y-11735763D01*
X6069213Y-11989763D02*
X6069213Y-11917637D01*
X5997087Y-11917637D01*
X5997087Y-11989763D01*
X6069213Y-11989763D01*
X6069213Y-12243763D02*
X6069213Y-12171637D01*
X5997087Y-12171637D01*
X5997087Y-12243763D01*
X6069213Y-12243763D01*
X6069213Y-12497763D02*
X6069213Y-12425637D01*
X5997087Y-12425637D01*
X5997087Y-12497763D01*
X6069213Y-12497763D01*
X6069213Y-12751763D02*
X6069213Y-12679637D01*
X5997087Y-12679637D01*
X5997087Y-12751763D01*
X6069213Y-12751763D01*
X6069213Y-13005763D02*
X6069213Y-12933637D01*
X5997087Y-12933637D01*
X5997087Y-13005763D01*
X6069213Y-13005763D01*
X6069213Y-13259763D02*
X6069213Y-13187637D01*
X5997087Y-13187637D01*
X5997087Y-13259763D01*
X6069213Y-13259763D01*
X6069213Y-13513763D02*
X6069213Y-13441637D01*
X5997087Y-13441637D01*
X5997087Y-13513763D01*
X6069213Y-13513763D01*
X6069213Y-13767763D02*
X6069213Y-13695637D01*
X5997087Y-13695637D01*
X5997087Y-13767763D01*
X6069213Y-13767763D01*
X6069213Y-14021763D02*
X6069213Y-13949637D01*
X5997087Y-13949637D01*
X5997087Y-14021763D01*
X6069213Y-14021763D01*
X6069213Y-14275763D02*
X6069213Y-14203637D01*
X5997087Y-14203637D01*
X5997087Y-14275763D01*
X6069213Y-14275763D01*
X6069213Y-14529763D02*
X6069213Y-14457637D01*
X5997087Y-14457637D01*
X5997087Y-14529763D01*
X6069213Y-14529763D01*
X6577213Y-5739363D02*
X6577213Y-5667237D01*
X6505087Y-5667237D01*
X6505087Y-5739363D01*
X6577213Y-5739363D01*
X6577213Y-5993363D02*
X6577213Y-5921237D01*
X6505087Y-5921237D01*
X6505087Y-5993363D01*
X6577213Y-5993363D01*
X6577213Y-6247363D02*
X6577213Y-6175237D01*
X6505087Y-6175237D01*
X6505087Y-6247363D01*
X6577213Y-6247363D01*
X6577213Y-6501363D02*
X6577213Y-6429237D01*
X6505087Y-6429237D01*
X6505087Y-6501363D01*
X6577213Y-6501363D01*
X6577213Y-6755363D02*
X6577213Y-6683237D01*
X6505087Y-6683237D01*
X6505087Y-6755363D01*
X6577213Y-6755363D01*
X6577213Y-7009363D02*
X6577213Y-6937237D01*
X6505087Y-6937237D01*
X6505087Y-7009363D01*
X6577213Y-7009363D01*
X6577213Y-7263363D02*
X6577213Y-7191237D01*
X6505087Y-7191237D01*
X6505087Y-7263363D01*
X6577213Y-7263363D01*
X6577213Y-7517363D02*
X6577213Y-7445237D01*
X6505087Y-7445237D01*
X6505087Y-7517363D01*
X6577213Y-7517363D01*
X6577213Y-7771363D02*
X6577213Y-7699237D01*
X6505087Y-7699237D01*
X6505087Y-7771363D01*
X6577213Y-7771363D01*
X6577213Y-8025363D02*
X6577213Y-7953237D01*
X6505087Y-7953237D01*
X6505087Y-8025363D01*
X6577213Y-8025363D01*
X6577213Y-8431763D02*
X6577213Y-8359637D01*
X6505087Y-8359637D01*
X6505087Y-8431763D01*
X6577213Y-8431763D01*
X6577213Y-8685763D02*
X6577213Y-8613637D01*
X6505087Y-8613637D01*
X6505087Y-8685763D01*
X6577213Y-8685763D01*
X6577213Y-8939763D02*
X6577213Y-8867637D01*
X6505087Y-8867637D01*
X6505087Y-8939763D01*
X6577213Y-8939763D01*
X6577213Y-9193763D02*
X6577213Y-9121637D01*
X6505087Y-9121637D01*
X6505087Y-9193763D01*
X6577213Y-9193763D01*
X6577213Y-9447763D02*
X6577213Y-9375637D01*
X6505087Y-9375637D01*
X6505087Y-9447763D01*
X6577213Y-9447763D01*
X6577213Y-9701763D02*
X6577213Y-9629637D01*
X6505087Y-9629637D01*
X6505087Y-9701763D01*
X6577213Y-9701763D01*
X6577213Y-9955763D02*
X6577213Y-9883637D01*
X6505087Y-9883637D01*
X6505087Y-9955763D01*
X6577213Y-9955763D01*
X6577213Y-10209763D02*
X6577213Y-10137637D01*
X6505087Y-10137637D01*
X6505087Y-10209763D01*
X6577213Y-10209763D01*
X6577213Y-10463763D02*
X6577213Y-10391637D01*
X6505087Y-10391637D01*
X6505087Y-10463763D01*
X6577213Y-10463763D01*
X6577213Y-10717763D02*
X6577213Y-10645637D01*
X6505087Y-10645637D01*
X6505087Y-10717763D01*
X6577213Y-10717763D01*
X6577213Y-10971763D02*
X6577213Y-10899637D01*
X6505087Y-10899637D01*
X6505087Y-10971763D01*
X6577213Y-10971763D01*
X6577213Y-11225763D02*
X6577213Y-11153637D01*
X6505087Y-11153637D01*
X6505087Y-11225763D01*
X6577213Y-11225763D01*
X6577213Y-11479763D02*
X6577213Y-11407637D01*
X6505087Y-11407637D01*
X6505087Y-11479763D01*
X6577213Y-11479763D01*
X6577213Y-11733763D02*
X6577213Y-11661637D01*
X6505087Y-11661637D01*
X6505087Y-11733763D01*
X6577213Y-11733763D01*
X6577213Y-11987763D02*
X6577213Y-11915637D01*
X6505087Y-11915637D01*
X6505087Y-11987763D01*
X6577213Y-11987763D01*
X6577213Y-12241763D02*
X6577213Y-12169637D01*
X6505087Y-12169637D01*
X6505087Y-12241763D01*
X6577213Y-12241763D01*
X6577213Y-12495763D02*
X6577213Y-12423637D01*
X6505087Y-12423637D01*
X6505087Y-12495763D01*
X6577213Y-12495763D01*
X6831213Y-5739363D02*
X6831213Y-5667237D01*
X6759087Y-5667237D01*
X6759087Y-5739363D01*
X6831213Y-5739363D01*
X6831213Y-5993363D02*
X6831213Y-5921237D01*
X6759087Y-5921237D01*
X6759087Y-5993363D01*
X6831213Y-5993363D01*
X6831213Y-6247363D02*
X6831213Y-6175237D01*
X6759087Y-6175237D01*
X6759087Y-6247363D01*
X6831213Y-6247363D01*
X6831213Y-6501363D02*
X6831213Y-6429237D01*
X6759087Y-6429237D01*
X6759087Y-6501363D01*
X6831213Y-6501363D01*
X6831213Y-6755363D02*
X6831213Y-6683237D01*
X6759087Y-6683237D01*
X6759087Y-6755363D01*
X6831213Y-6755363D01*
X6831213Y-7009363D02*
X6831213Y-6937237D01*
X6759087Y-6937237D01*
X6759087Y-7009363D01*
X6831213Y-7009363D01*
X6831213Y-7263363D02*
X6831213Y-7191237D01*
X6759087Y-7191237D01*
X6759087Y-7263363D01*
X6831213Y-7263363D01*
X6831213Y-7517363D02*
X6831213Y-7445237D01*
X6759087Y-7445237D01*
X6759087Y-7517363D01*
X6831213Y-7517363D01*
X6831213Y-7771363D02*
X6831213Y-7699237D01*
X6759087Y-7699237D01*
X6759087Y-7771363D01*
X6831213Y-7771363D01*
X6831213Y-8025363D02*
X6831213Y-7953237D01*
X6759087Y-7953237D01*
X6759087Y-8025363D01*
X6831213Y-8025363D01*
X6831213Y-8431763D02*
X6831213Y-8359637D01*
X6759087Y-8359637D01*
X6759087Y-8431763D01*
X6831213Y-8431763D01*
X6831213Y-8685763D02*
X6831213Y-8613637D01*
X6759087Y-8613637D01*
X6759087Y-8685763D01*
X6831213Y-8685763D01*
X6831213Y-8939763D02*
X6831213Y-8867637D01*
X6759087Y-8867637D01*
X6759087Y-8939763D01*
X6831213Y-8939763D01*
X6831213Y-9193763D02*
X6831213Y-9121637D01*
X6759087Y-9121637D01*
X6759087Y-9193763D01*
X6831213Y-9193763D01*
X6831213Y-9447763D02*
X6831213Y-9375637D01*
X6759087Y-9375637D01*
X6759087Y-9447763D01*
X6831213Y-9447763D01*
X6831213Y-9701763D02*
X6831213Y-9629637D01*
X6759087Y-9629637D01*
X6759087Y-9701763D01*
X6831213Y-9701763D01*
X6831213Y-9955763D02*
X6831213Y-9883637D01*
X6759087Y-9883637D01*
X6759087Y-9955763D01*
X6831213Y-9955763D01*
X6831213Y-10209763D02*
X6831213Y-10137637D01*
X6759087Y-10137637D01*
X6759087Y-10209763D01*
X6831213Y-10209763D01*
X6831213Y-10463763D02*
X6831213Y-10391637D01*
X6759087Y-10391637D01*
X6759087Y-10463763D01*
X6831213Y-10463763D01*
X6831213Y-10717763D02*
X6831213Y-10645637D01*
X6759087Y-10645637D01*
X6759087Y-10717763D01*
X6831213Y-10717763D01*
X6831213Y-10971763D02*
X6831213Y-10899637D01*
X6759087Y-10899637D01*
X6759087Y-10971763D01*
X6831213Y-10971763D01*
X6831213Y-11225763D02*
X6831213Y-11153637D01*
X6759087Y-11153637D01*
X6759087Y-11225763D01*
X6831213Y-11225763D01*
X6831213Y-11479763D02*
X6831213Y-11407637D01*
X6759087Y-11407637D01*
X6759087Y-11479763D01*
X6831213Y-11479763D01*
X6831213Y-11733763D02*
X6831213Y-11661637D01*
X6759087Y-11661637D01*
X6759087Y-11733763D01*
X6831213Y-11733763D01*
X6831213Y-11987763D02*
X6831213Y-11915637D01*
X6759087Y-11915637D01*
X6759087Y-11987763D01*
X6831213Y-11987763D01*
X6831213Y-12241763D02*
X6831213Y-12169637D01*
X6759087Y-12169637D01*
X6759087Y-12241763D01*
X6831213Y-12241763D01*
X6831213Y-12495763D02*
X6831213Y-12423637D01*
X6759087Y-12423637D01*
X6759087Y-12495763D01*
X6831213Y-12495763D01*
X11149213Y-6653763D02*
X11149213Y-6581637D01*
X11077087Y-6581637D01*
X11077087Y-6653763D01*
X11149213Y-6653763D01*
X11149213Y-6907763D02*
X11149213Y-6835637D01*
X11077087Y-6835637D01*
X11077087Y-6907763D01*
X11149213Y-6907763D01*
X11149213Y-7161763D02*
X11149213Y-7089637D01*
X11077087Y-7089637D01*
X11077087Y-7161763D01*
X11149213Y-7161763D01*
X11149213Y-7415763D02*
X11149213Y-7343637D01*
X11077087Y-7343637D01*
X11077087Y-7415763D01*
X11149213Y-7415763D01*
X11149213Y-7669763D02*
X11149213Y-7597637D01*
X11077087Y-7597637D01*
X11077087Y-7669763D01*
X11149213Y-7669763D01*
X11149213Y-7923763D02*
X11149213Y-7851637D01*
X11077087Y-7851637D01*
X11077087Y-7923763D01*
X11149213Y-7923763D01*
X11149213Y-8177763D02*
X11149213Y-8105637D01*
X11077087Y-8105637D01*
X11077087Y-8177763D01*
X11149213Y-8177763D01*
X11149213Y-8431763D02*
X11149213Y-8359637D01*
X11077087Y-8359637D01*
X11077087Y-8431763D01*
X11149213Y-8431763D01*
X11149213Y-8939763D02*
X11149213Y-8867637D01*
X11077087Y-8867637D01*
X11077087Y-8939763D01*
X11149213Y-8939763D01*
X11149213Y-9193763D02*
X11149213Y-9121637D01*
X11077087Y-9121637D01*
X11077087Y-9193763D01*
X11149213Y-9193763D01*
X11149213Y-9447763D02*
X11149213Y-9375637D01*
X11077087Y-9375637D01*
X11077087Y-9447763D01*
X11149213Y-9447763D01*
X11149213Y-9701763D02*
X11149213Y-9629637D01*
X11077087Y-9629637D01*
X11077087Y-9701763D01*
X11149213Y-9701763D01*
X11149213Y-9955763D02*
X11149213Y-9883637D01*
X11077087Y-9883637D01*
X11077087Y-9955763D01*
X11149213Y-9955763D01*
X11149213Y-10209763D02*
X11149213Y-10137637D01*
X11077087Y-10137637D01*
X11077087Y-10209763D01*
X11149213Y-10209763D01*
X11149213Y-10463763D02*
X11149213Y-10391637D01*
X11077087Y-10391637D01*
X11077087Y-10463763D01*
X11149213Y-10463763D01*
X11149213Y-10717763D02*
X11149213Y-10645637D01*
X11077087Y-10645637D01*
X11077087Y-10717763D01*
X11149213Y-10717763D01*
X11149213Y-10971763D02*
X11149213Y-10899637D01*
X11077087Y-10899637D01*
X11077087Y-10971763D01*
X11149213Y-10971763D01*
X11149213Y-11225763D02*
X11149213Y-11153637D01*
X11077087Y-11153637D01*
X11077087Y-11225763D01*
X11149213Y-11225763D01*
X11149213Y-11479763D02*
X11149213Y-11407637D01*
X11077087Y-11407637D01*
X11077087Y-11479763D01*
X11149213Y-11479763D01*
X11149213Y-11733763D02*
X11149213Y-11661637D01*
X11077087Y-11661637D01*
X11077087Y-11733763D01*
X11149213Y-11733763D01*
X11149213Y-11987763D02*
X11149213Y-11915637D01*
X11077087Y-11915637D01*
X11077087Y-11987763D01*
X11149213Y-11987763D01*
X11149213Y-12241763D02*
X11149213Y-12169637D01*
X11077087Y-12169637D01*
X11077087Y-12241763D01*
X11149213Y-12241763D01*
X11149213Y-12495763D02*
X11149213Y-12423637D01*
X11077087Y-12423637D01*
X11077087Y-12495763D01*
X11149213Y-12495763D01*
X11403213Y-6653763D02*
X11403213Y-6581637D01*
X11331087Y-6581637D01*
X11331087Y-6653763D01*
X11403213Y-6653763D01*
X11403213Y-6907763D02*
X11403213Y-6835637D01*
X11331087Y-6835637D01*
X11331087Y-6907763D01*
X11403213Y-6907763D01*
X11403213Y-7161763D02*
X11403213Y-7089637D01*
X11331087Y-7089637D01*
X11331087Y-7161763D01*
X11403213Y-7161763D01*
X11403213Y-7415763D02*
X11403213Y-7343637D01*
X11331087Y-7343637D01*
X11331087Y-7415763D01*
X11403213Y-7415763D01*
X11403213Y-7669763D02*
X11403213Y-7597637D01*
X11331087Y-7597637D01*
X11331087Y-7669763D01*
X11403213Y-7669763D01*
X11403213Y-7923763D02*
X11403213Y-7851637D01*
X11331087Y-7851637D01*
X11331087Y-7923763D01*
X11403213Y-7923763D01*
X11403213Y-8177763D02*
X11403213Y-8105637D01*
X11331087Y-8105637D01*
X11331087Y-8177763D01*
X11403213Y-8177763D01*
X11403213Y-8431763D02*
X11403213Y-8359637D01*
X11331087Y-8359637D01*
X11331087Y-8431763D01*
X11403213Y-8431763D01*
X11403213Y-8939763D02*
X11403213Y-8867637D01*
X11331087Y-8867637D01*
X11331087Y-8939763D01*
X11403213Y-8939763D01*
X11403213Y-9193763D02*
X11403213Y-9121637D01*
X11331087Y-9121637D01*
X11331087Y-9193763D01*
X11403213Y-9193763D01*
X11403213Y-9447763D02*
X11403213Y-9375637D01*
X11331087Y-9375637D01*
X11331087Y-9447763D01*
X11403213Y-9447763D01*
X11403213Y-9701763D02*
X11403213Y-9629637D01*
X11331087Y-9629637D01*
X11331087Y-9701763D01*
X11403213Y-9701763D01*
X11403213Y-9955763D02*
X11403213Y-9883637D01*
X11331087Y-9883637D01*
X11331087Y-9955763D01*
X11403213Y-9955763D01*
X11403213Y-10209763D02*
X11403213Y-10137637D01*
X11331087Y-10137637D01*
X11331087Y-10209763D01*
X11403213Y-10209763D01*
X11403213Y-10463763D02*
X11403213Y-10391637D01*
X11331087Y-10391637D01*
X11331087Y-10463763D01*
X11403213Y-10463763D01*
X11403213Y-10717763D02*
X11403213Y-10645637D01*
X11331087Y-10645637D01*
X11331087Y-10717763D01*
X11403213Y-10717763D01*
X11403213Y-10971763D02*
X11403213Y-10899637D01*
X11331087Y-10899637D01*
X11331087Y-10971763D01*
X11403213Y-10971763D01*
X11403213Y-11225763D02*
X11403213Y-11153637D01*
X11331087Y-11153637D01*
X11331087Y-11225763D01*
X11403213Y-11225763D01*
X11403213Y-11479763D02*
X11403213Y-11407637D01*
X11331087Y-11407637D01*
X11331087Y-11479763D01*
X11403213Y-11479763D01*
X11403213Y-11733763D02*
X11403213Y-11661637D01*
X11331087Y-11661637D01*
X11331087Y-11733763D01*
X11403213Y-11733763D01*
X11403213Y-11987763D02*
X11403213Y-11915637D01*
X11331087Y-11915637D01*
X11331087Y-11987763D01*
X11403213Y-11987763D01*
X11403213Y-12241763D02*
X11403213Y-12169637D01*
X11331087Y-12169637D01*
X11331087Y-12241763D01*
X11403213Y-12241763D01*
X11403213Y-12495763D02*
X11403213Y-12423637D01*
X11331087Y-12423637D01*
X11331087Y-12495763D01*
X11403213Y-12495763D01*
X11911213Y-5637763D02*
X11911213Y-5565637D01*
X11839087Y-5565637D01*
X11839087Y-5637763D01*
X11911213Y-5637763D01*
X11911213Y-5891763D02*
X11911213Y-5819637D01*
X11839087Y-5819637D01*
X11839087Y-5891763D01*
X11911213Y-5891763D01*
X11911213Y-6145763D02*
X11911213Y-6073637D01*
X11839087Y-6073637D01*
X11839087Y-6145763D01*
X11911213Y-6145763D01*
X11911213Y-6399763D02*
X11911213Y-6327637D01*
X11839087Y-6327637D01*
X11839087Y-6399763D01*
X11911213Y-6399763D01*
X11911213Y-6653763D02*
X11911213Y-6581637D01*
X11839087Y-6581637D01*
X11839087Y-6653763D01*
X11911213Y-6653763D01*
X11911213Y-6907763D02*
X11911213Y-6835637D01*
X11839087Y-6835637D01*
X11839087Y-6907763D01*
X11911213Y-6907763D01*
X11911213Y-7161763D02*
X11911213Y-7089637D01*
X11839087Y-7089637D01*
X11839087Y-7161763D01*
X11911213Y-7161763D01*
X11911213Y-7415763D02*
X11911213Y-7343637D01*
X11839087Y-7343637D01*
X11839087Y-7415763D01*
X11911213Y-7415763D01*
X11911213Y-7669763D02*
X11911213Y-7597637D01*
X11839087Y-7597637D01*
X11839087Y-7669763D01*
X11911213Y-7669763D01*
X11911213Y-7923763D02*
X11911213Y-7851637D01*
X11839087Y-7851637D01*
X11839087Y-7923763D01*
X11911213Y-7923763D01*
X11911213Y-8177763D02*
X11911213Y-8105637D01*
X11839087Y-8105637D01*
X11839087Y-8177763D01*
X11911213Y-8177763D01*
X11911213Y-8431763D02*
X11911213Y-8359637D01*
X11839087Y-8359637D01*
X11839087Y-8431763D01*
X11911213Y-8431763D01*
X11911213Y-8685763D02*
X11911213Y-8613637D01*
X11839087Y-8613637D01*
X11839087Y-8685763D01*
X11911213Y-8685763D01*
X11911213Y-8939763D02*
X11911213Y-8867637D01*
X11839087Y-8867637D01*
X11839087Y-8939763D01*
X11911213Y-8939763D01*
X11911213Y-9193763D02*
X11911213Y-9121637D01*
X11839087Y-9121637D01*
X11839087Y-9193763D01*
X11911213Y-9193763D01*
X11911213Y-9447763D02*
X11911213Y-9375637D01*
X11839087Y-9375637D01*
X11839087Y-9447763D01*
X11911213Y-9447763D01*
X11911213Y-9701763D02*
X11911213Y-9629637D01*
X11839087Y-9629637D01*
X11839087Y-9701763D01*
X11911213Y-9701763D01*
X11911213Y-9955763D02*
X11911213Y-9883637D01*
X11839087Y-9883637D01*
X11839087Y-9955763D01*
X11911213Y-9955763D01*
X11911213Y-10209763D02*
X11911213Y-10137637D01*
X11839087Y-10137637D01*
X11839087Y-10209763D01*
X11911213Y-10209763D01*
X11911213Y-10463763D02*
X11911213Y-10391637D01*
X11839087Y-10391637D01*
X11839087Y-10463763D01*
X11911213Y-10463763D01*
X11911213Y-10717763D02*
X11911213Y-10645637D01*
X11839087Y-10645637D01*
X11839087Y-10717763D01*
X11911213Y-10717763D01*
X11911213Y-10971763D02*
X11911213Y-10899637D01*
X11839087Y-10899637D01*
X11839087Y-10971763D01*
X11911213Y-10971763D01*
X11911213Y-11225763D02*
X11911213Y-11153637D01*
X11839087Y-11153637D01*
X11839087Y-11225763D01*
X11911213Y-11225763D01*
X11911213Y-11479763D02*
X11911213Y-11407637D01*
X11839087Y-11407637D01*
X11839087Y-11479763D01*
X11911213Y-11479763D01*
X11911213Y-11733763D02*
X11911213Y-11661637D01*
X11839087Y-11661637D01*
X11839087Y-11733763D01*
X11911213Y-11733763D01*
X11911213Y-11987763D02*
X11911213Y-11915637D01*
X11839087Y-11915637D01*
X11839087Y-11987763D01*
X11911213Y-11987763D01*
X11911213Y-12241763D02*
X11911213Y-12169637D01*
X11839087Y-12169637D01*
X11839087Y-12241763D01*
X11911213Y-12241763D01*
X11911213Y-12495763D02*
X11911213Y-12423637D01*
X11839087Y-12423637D01*
X11839087Y-12495763D01*
X11911213Y-12495763D01*
X11911213Y-12749763D02*
X11911213Y-12677637D01*
X11839087Y-12677637D01*
X11839087Y-12749763D01*
X11911213Y-12749763D01*
X11911213Y-13003763D02*
X11911213Y-12931637D01*
X11839087Y-12931637D01*
X11839087Y-13003763D01*
X11911213Y-13003763D01*
X11911213Y-13257763D02*
X11911213Y-13185637D01*
X11839087Y-13185637D01*
X11839087Y-13257763D01*
X11911213Y-13257763D01*
X11911213Y-13511763D02*
X11911213Y-13439637D01*
X11839087Y-13439637D01*
X11839087Y-13511763D01*
X11911213Y-13511763D01*
X11911213Y-13765763D02*
X11911213Y-13693637D01*
X11839087Y-13693637D01*
X11839087Y-13765763D01*
X11911213Y-13765763D01*
X11911213Y-14019763D02*
X11911213Y-13947637D01*
X11839087Y-13947637D01*
X11839087Y-14019763D01*
X11911213Y-14019763D01*
X11911213Y-14273763D02*
X11911213Y-14201637D01*
X11839087Y-14201637D01*
X11839087Y-14273763D01*
X11911213Y-14273763D01*
X11911213Y-14527763D02*
X11911213Y-14455637D01*
X11839087Y-14455637D01*
X11839087Y-14527763D01*
X11911213Y-14527763D01*
X12165213Y-5637763D02*
X12165213Y-5565637D01*
X12093087Y-5565637D01*
X12093087Y-5637763D01*
X12165213Y-5637763D01*
X12165213Y-5891763D02*
X12165213Y-5819637D01*
X12093087Y-5819637D01*
X12093087Y-5891763D01*
X12165213Y-5891763D01*
X12165213Y-6145763D02*
X12165213Y-6073637D01*
X12093087Y-6073637D01*
X12093087Y-6145763D01*
X12165213Y-6145763D01*
X12165213Y-6399763D02*
X12165213Y-6327637D01*
X12093087Y-6327637D01*
X12093087Y-6399763D01*
X12165213Y-6399763D01*
X12165213Y-6653763D02*
X12165213Y-6581637D01*
X12093087Y-6581637D01*
X12093087Y-6653763D01*
X12165213Y-6653763D01*
X12165213Y-6907763D02*
X12165213Y-6835637D01*
X12093087Y-6835637D01*
X12093087Y-6907763D01*
X12165213Y-6907763D01*
X12165213Y-7161763D02*
X12165213Y-7089637D01*
X12093087Y-7089637D01*
X12093087Y-7161763D01*
X12165213Y-7161763D01*
X12165213Y-7415763D02*
X12165213Y-7343637D01*
X12093087Y-7343637D01*
X12093087Y-7415763D01*
X12165213Y-7415763D01*
X12165213Y-7669763D02*
X12165213Y-7597637D01*
X12093087Y-7597637D01*
X12093087Y-7669763D01*
X12165213Y-7669763D01*
X12165213Y-7923763D02*
X12165213Y-7851637D01*
X12093087Y-7851637D01*
X12093087Y-7923763D01*
X12165213Y-7923763D01*
X12165213Y-8177763D02*
X12165213Y-8105637D01*
X12093087Y-8105637D01*
X12093087Y-8177763D01*
X12165213Y-8177763D01*
X12165213Y-8431763D02*
X12165213Y-8359637D01*
X12093087Y-8359637D01*
X12093087Y-8431763D01*
X12165213Y-8431763D01*
X12165213Y-8685763D02*
X12165213Y-8613637D01*
X12093087Y-8613637D01*
X12093087Y-8685763D01*
X12165213Y-8685763D01*
X12165213Y-8939763D02*
X12165213Y-8867637D01*
X12093087Y-8867637D01*
X12093087Y-8939763D01*
X12165213Y-8939763D01*
X12165213Y-9193763D02*
X12165213Y-9121637D01*
X12093087Y-9121637D01*
X12093087Y-9193763D01*
X12165213Y-9193763D01*
X12165213Y-9447763D02*
X12165213Y-9375637D01*
X12093087Y-9375637D01*
X12093087Y-9447763D01*
X12165213Y-9447763D01*
X12165213Y-9701763D02*
X12165213Y-9629637D01*
X12093087Y-9629637D01*
X12093087Y-9701763D01*
X12165213Y-9701763D01*
X12165213Y-9955763D02*
X12165213Y-9883637D01*
X12093087Y-9883637D01*
X12093087Y-9955763D01*
X12165213Y-9955763D01*
X12165213Y-10209763D02*
X12165213Y-10137637D01*
X12093087Y-10137637D01*
X12093087Y-10209763D01*
X12165213Y-10209763D01*
X12165213Y-10463763D02*
X12165213Y-10391637D01*
X12093087Y-10391637D01*
X12093087Y-10463763D01*
X12165213Y-10463763D01*
X12165213Y-10717763D02*
X12165213Y-10645637D01*
X12093087Y-10645637D01*
X12093087Y-10717763D01*
X12165213Y-10717763D01*
X12165213Y-10971763D02*
X12165213Y-10899637D01*
X12093087Y-10899637D01*
X12093087Y-10971763D01*
X12165213Y-10971763D01*
X12165213Y-11225763D02*
X12165213Y-11153637D01*
X12093087Y-11153637D01*
X12093087Y-11225763D01*
X12165213Y-11225763D01*
X12165213Y-11479763D02*
X12165213Y-11407637D01*
X12093087Y-11407637D01*
X12093087Y-11479763D01*
X12165213Y-11479763D01*
X12165213Y-11733763D02*
X12165213Y-11661637D01*
X12093087Y-11661637D01*
X12093087Y-11733763D01*
X12165213Y-11733763D01*
X12165213Y-11987763D02*
X12165213Y-11915637D01*
X12093087Y-11915637D01*
X12093087Y-11987763D01*
X12165213Y-11987763D01*
X12165213Y-12241763D02*
X12165213Y-12169637D01*
X12093087Y-12169637D01*
X12093087Y-12241763D01*
X12165213Y-12241763D01*
X12165213Y-12495763D02*
X12165213Y-12423637D01*
X12093087Y-12423637D01*
X12093087Y-12495763D01*
X12165213Y-12495763D01*
X12165213Y-12749763D02*
X12165213Y-12677637D01*
X12093087Y-12677637D01*
X12093087Y-12749763D01*
X12165213Y-12749763D01*
X12165213Y-13003763D02*
X12165213Y-12931637D01*
X12093087Y-12931637D01*
X12093087Y-13003763D01*
X12165213Y-13003763D01*
X12165213Y-13257763D02*
X12165213Y-13185637D01*
X12093087Y-13185637D01*
X12093087Y-13257763D01*
X12165213Y-13257763D01*
X12165213Y-13511763D02*
X12165213Y-13439637D01*
X12093087Y-13439637D01*
X12093087Y-13511763D01*
X12165213Y-13511763D01*
X12165213Y-13765763D02*
X12165213Y-13693637D01*
X12093087Y-13693637D01*
X12093087Y-13765763D01*
X12165213Y-13765763D01*
X12165213Y-14019763D02*
X12165213Y-13947637D01*
X12093087Y-13947637D01*
X12093087Y-14019763D01*
X12165213Y-14019763D01*
X12165213Y-14273763D02*
X12165213Y-14201637D01*
X12093087Y-14201637D01*
X12093087Y-14273763D01*
X12165213Y-14273763D01*
X12165213Y-14527763D02*
X12165213Y-14455637D01*
X12093087Y-14455637D01*
X12093087Y-14527763D01*
X12165213Y-14527763D01*
D11*
X2856769Y-16953976D02*
X2856769Y-16753976D01*
X2904388Y-16753976D01*
X2932959Y-16763500D01*
X2952007Y-16782548D01*
X2961531Y-16801595D01*
X2971055Y-16839690D01*
X2971055Y-16868262D01*
X2961531Y-16906357D01*
X2952007Y-16925405D01*
X2932959Y-16944452D01*
X2904388Y-16953976D01*
X2856769Y-16953976D01*
X3056769Y-16953976D02*
X3056769Y-16820643D01*
X3056769Y-16858738D02*
X3066293Y-16839690D01*
X3075817Y-16830167D01*
X3094864Y-16820643D01*
X3113912Y-16820643D01*
X3180578Y-16953976D02*
X3180578Y-16820643D01*
X3180578Y-16753976D02*
X3171055Y-16763500D01*
X3180578Y-16773024D01*
X3190102Y-16763500D01*
X3180578Y-16753976D01*
X3180578Y-16773024D01*
X3304388Y-16953976D02*
X3285340Y-16944452D01*
X3275817Y-16925405D01*
X3275817Y-16753976D01*
X3409150Y-16953976D02*
X3390102Y-16944452D01*
X3380578Y-16925405D01*
X3380578Y-16753976D01*
X3637721Y-16953976D02*
X3637721Y-16753976D01*
X3704388Y-16896833D01*
X3771055Y-16753976D01*
X3771055Y-16953976D01*
X3952007Y-16953976D02*
X3952007Y-16849214D01*
X3942483Y-16830167D01*
X3923436Y-16820643D01*
X3885340Y-16820643D01*
X3866293Y-16830167D01*
X3952007Y-16944452D02*
X3932959Y-16953976D01*
X3885340Y-16953976D01*
X3866293Y-16944452D01*
X3856769Y-16925405D01*
X3856769Y-16906357D01*
X3866293Y-16887310D01*
X3885340Y-16877786D01*
X3932959Y-16877786D01*
X3952007Y-16868262D01*
X4047245Y-16820643D02*
X4047245Y-17020643D01*
X4047245Y-16830167D02*
X4066293Y-16820643D01*
X4104388Y-16820643D01*
X4123436Y-16830167D01*
X4132959Y-16839690D01*
X4142483Y-16858738D01*
X4142483Y-16915881D01*
X4132959Y-16934929D01*
X4123436Y-16944452D01*
X4104388Y-16953976D01*
X4066293Y-16953976D01*
X4047245Y-16944452D01*
X4228198Y-16934929D02*
X4237721Y-16944452D01*
X4228198Y-16953976D01*
X4218674Y-16944452D01*
X4228198Y-16934929D01*
X4228198Y-16953976D01*
X4228198Y-16830167D02*
X4237721Y-16839690D01*
X4228198Y-16849214D01*
X4218674Y-16839690D01*
X4228198Y-16830167D01*
X4228198Y-16849214D01*
D12*
X2519150Y-17243500D02*
X2599150Y-17323500D01*
X2599150Y-17243500D02*
X2519150Y-17323500D01*
D11*
X2894864Y-17173976D02*
X2913912Y-17173976D01*
X2932959Y-17183500D01*
X2942483Y-17193024D01*
X2952007Y-17212071D01*
X2961531Y-17250167D01*
X2961531Y-17297786D01*
X2952007Y-17335881D01*
X2942483Y-17354929D01*
X2932959Y-17364452D01*
X2913912Y-17373976D01*
X2894864Y-17373976D01*
X2875817Y-17364452D01*
X2866293Y-17354929D01*
X2856769Y-17335881D01*
X2847245Y-17297786D01*
X2847245Y-17250167D01*
X2856769Y-17212071D01*
X2866293Y-17193024D01*
X2875817Y-17183500D01*
X2894864Y-17173976D01*
X3047245Y-17354929D02*
X3056769Y-17364452D01*
X3047245Y-17373976D01*
X3037721Y-17364452D01*
X3047245Y-17354929D01*
X3047245Y-17373976D01*
X3171055Y-17259690D02*
X3152007Y-17250167D01*
X3142483Y-17240643D01*
X3132959Y-17221595D01*
X3132959Y-17212071D01*
X3142483Y-17193024D01*
X3152007Y-17183500D01*
X3171055Y-17173976D01*
X3209150Y-17173976D01*
X3228198Y-17183500D01*
X3237721Y-17193024D01*
X3247245Y-17212071D01*
X3247245Y-17221595D01*
X3237721Y-17240643D01*
X3228198Y-17250167D01*
X3209150Y-17259690D01*
X3171055Y-17259690D01*
X3152007Y-17269214D01*
X3142483Y-17278738D01*
X3132959Y-17297786D01*
X3132959Y-17335881D01*
X3142483Y-17354929D01*
X3152007Y-17364452D01*
X3171055Y-17373976D01*
X3209150Y-17373976D01*
X3228198Y-17364452D01*
X3237721Y-17354929D01*
X3247245Y-17335881D01*
X3247245Y-17297786D01*
X3237721Y-17278738D01*
X3228198Y-17269214D01*
X3209150Y-17259690D01*
X3371055Y-17173976D02*
X3390102Y-17173976D01*
X3409150Y-17183500D01*
X3418674Y-17193024D01*
X3428198Y-17212071D01*
X3437721Y-17250167D01*
X3437721Y-17297786D01*
X3428198Y-17335881D01*
X3418674Y-17354929D01*
X3409150Y-17364452D01*
X3390102Y-17373976D01*
X3371055Y-17373976D01*
X3352007Y-17364452D01*
X3342483Y-17354929D01*
X3332959Y-17335881D01*
X3323436Y-17297786D01*
X3323436Y-17250167D01*
X3332959Y-17212071D01*
X3342483Y-17193024D01*
X3352007Y-17183500D01*
X3371055Y-17173976D01*
X3561531Y-17173976D02*
X3580578Y-17173976D01*
X3599626Y-17183500D01*
X3609150Y-17193024D01*
X3618674Y-17212071D01*
X3628198Y-17250167D01*
X3628198Y-17297786D01*
X3618674Y-17335881D01*
X3609150Y-17354929D01*
X3599626Y-17364452D01*
X3580578Y-17373976D01*
X3561531Y-17373976D01*
X3542483Y-17364452D01*
X3532959Y-17354929D01*
X3523436Y-17335881D01*
X3513912Y-17297786D01*
X3513912Y-17250167D01*
X3523436Y-17212071D01*
X3532959Y-17193024D01*
X3542483Y-17183500D01*
X3561531Y-17173976D01*
X3713912Y-17373976D02*
X3713912Y-17240643D01*
X3713912Y-17259690D02*
X3723436Y-17250167D01*
X3742483Y-17240643D01*
X3771055Y-17240643D01*
X3790102Y-17250167D01*
X3799626Y-17269214D01*
X3799626Y-17373976D01*
X3799626Y-17269214D02*
X3809150Y-17250167D01*
X3828198Y-17240643D01*
X3856769Y-17240643D01*
X3875817Y-17250167D01*
X3885340Y-17269214D01*
X3885340Y-17373976D01*
X3980578Y-17373976D02*
X3980578Y-17240643D01*
X3980578Y-17259690D02*
X3990102Y-17250167D01*
X4009150Y-17240643D01*
X4037721Y-17240643D01*
X4056769Y-17250167D01*
X4066293Y-17269214D01*
X4066293Y-17373976D01*
X4066293Y-17269214D02*
X4075817Y-17250167D01*
X4094864Y-17240643D01*
X4123436Y-17240643D01*
X4142483Y-17250167D01*
X4152007Y-17269214D01*
X4152007Y-17373976D01*
X4542483Y-17164452D02*
X4371055Y-17421595D01*
X4799626Y-17173976D02*
X4818674Y-17173976D01*
X4837721Y-17183500D01*
X4847245Y-17193024D01*
X4856769Y-17212071D01*
X4866293Y-17250167D01*
X4866293Y-17297786D01*
X4856769Y-17335881D01*
X4847245Y-17354929D01*
X4837721Y-17364452D01*
X4818674Y-17373976D01*
X4799626Y-17373976D01*
X4780579Y-17364452D01*
X4771055Y-17354929D01*
X4761531Y-17335881D01*
X4752007Y-17297786D01*
X4752007Y-17250167D01*
X4761531Y-17212071D01*
X4771055Y-17193024D01*
X4780579Y-17183500D01*
X4799626Y-17173976D01*
X4952007Y-17354929D02*
X4961531Y-17364452D01*
X4952007Y-17373976D01*
X4942483Y-17364452D01*
X4952007Y-17354929D01*
X4952007Y-17373976D01*
X5085340Y-17173976D02*
X5104388Y-17173976D01*
X5123436Y-17183500D01*
X5132960Y-17193024D01*
X5142483Y-17212071D01*
X5152007Y-17250167D01*
X5152007Y-17297786D01*
X5142483Y-17335881D01*
X5132960Y-17354929D01*
X5123436Y-17364452D01*
X5104388Y-17373976D01*
X5085340Y-17373976D01*
X5066293Y-17364452D01*
X5056769Y-17354929D01*
X5047245Y-17335881D01*
X5037721Y-17297786D01*
X5037721Y-17250167D01*
X5047245Y-17212071D01*
X5056769Y-17193024D01*
X5066293Y-17183500D01*
X5085340Y-17173976D01*
X5218674Y-17173976D02*
X5342483Y-17173976D01*
X5275817Y-17250167D01*
X5304388Y-17250167D01*
X5323436Y-17259690D01*
X5332960Y-17269214D01*
X5342483Y-17288262D01*
X5342483Y-17335881D01*
X5332960Y-17354929D01*
X5323436Y-17364452D01*
X5304388Y-17373976D01*
X5247245Y-17373976D01*
X5228198Y-17364452D01*
X5218674Y-17354929D01*
X5532960Y-17373976D02*
X5418674Y-17373976D01*
X5475817Y-17373976D02*
X5475817Y-17173976D01*
X5456769Y-17202548D01*
X5437721Y-17221595D01*
X5418674Y-17231119D01*
X5713912Y-17173976D02*
X5618674Y-17173976D01*
X5609150Y-17269214D01*
X5618674Y-17259690D01*
X5637721Y-17250167D01*
X5685340Y-17250167D01*
X5704388Y-17259690D01*
X5713912Y-17269214D01*
X5723436Y-17288262D01*
X5723436Y-17335881D01*
X5713912Y-17354929D01*
X5704388Y-17364452D01*
X5685340Y-17373976D01*
X5637721Y-17373976D01*
X5618674Y-17364452D01*
X5609150Y-17354929D01*
X5799626Y-17173976D02*
X5799626Y-17212071D01*
X5875817Y-17173976D02*
X5875817Y-17212071D01*
X6171055Y-17450167D02*
X6161531Y-17440643D01*
X6142483Y-17412071D01*
X6132959Y-17393024D01*
X6123436Y-17364452D01*
X6113912Y-17316833D01*
X6113912Y-17278738D01*
X6123436Y-17231119D01*
X6132959Y-17202548D01*
X6142483Y-17183500D01*
X6161531Y-17154929D01*
X6171055Y-17145405D01*
X6332959Y-17240643D02*
X6332959Y-17373976D01*
X6285340Y-17164452D02*
X6237721Y-17307310D01*
X6361531Y-17307310D01*
X6418674Y-17173976D02*
X6542483Y-17173976D01*
X6475817Y-17250167D01*
X6504388Y-17250167D01*
X6523436Y-17259690D01*
X6532959Y-17269214D01*
X6542483Y-17288262D01*
X6542483Y-17335881D01*
X6532959Y-17354929D01*
X6523436Y-17364452D01*
X6504388Y-17373976D01*
X6447245Y-17373976D01*
X6428198Y-17364452D01*
X6418674Y-17354929D01*
X6780578Y-17373976D02*
X6780578Y-17173976D01*
X6866293Y-17373976D02*
X6866293Y-17269214D01*
X6856769Y-17250167D01*
X6837721Y-17240643D01*
X6809150Y-17240643D01*
X6790102Y-17250167D01*
X6780578Y-17259690D01*
X6990102Y-17373976D02*
X6971055Y-17364452D01*
X6961531Y-17354929D01*
X6952007Y-17335881D01*
X6952007Y-17278738D01*
X6961531Y-17259690D01*
X6971055Y-17250167D01*
X6990102Y-17240643D01*
X7018674Y-17240643D01*
X7037721Y-17250167D01*
X7047245Y-17259690D01*
X7056769Y-17278738D01*
X7056769Y-17335881D01*
X7047245Y-17354929D01*
X7037721Y-17364452D01*
X7018674Y-17373976D01*
X6990102Y-17373976D01*
X7171055Y-17373976D02*
X7152007Y-17364452D01*
X7142483Y-17345405D01*
X7142483Y-17173976D01*
X7323436Y-17364452D02*
X7304388Y-17373976D01*
X7266293Y-17373976D01*
X7247245Y-17364452D01*
X7237721Y-17345405D01*
X7237721Y-17269214D01*
X7247245Y-17250167D01*
X7266293Y-17240643D01*
X7304388Y-17240643D01*
X7323436Y-17250167D01*
X7332959Y-17269214D01*
X7332959Y-17288262D01*
X7237721Y-17307310D01*
X7409150Y-17364452D02*
X7428198Y-17373976D01*
X7466293Y-17373976D01*
X7485340Y-17364452D01*
X7494864Y-17345405D01*
X7494864Y-17335881D01*
X7485340Y-17316833D01*
X7466293Y-17307310D01*
X7437721Y-17307310D01*
X7418674Y-17297786D01*
X7409150Y-17278738D01*
X7409150Y-17269214D01*
X7418674Y-17250167D01*
X7437721Y-17240643D01*
X7466293Y-17240643D01*
X7485340Y-17250167D01*
X7561531Y-17450167D02*
X7571055Y-17440643D01*
X7590102Y-17412071D01*
X7599626Y-17393024D01*
X7609150Y-17364452D01*
X7618674Y-17316833D01*
X7618674Y-17278738D01*
X7609150Y-17231119D01*
X7599626Y-17202548D01*
X7590102Y-17183500D01*
X7571055Y-17154929D01*
X7561531Y-17145405D01*
D13*
X2599150Y-17547500D02*
G75*
G03*
X2599150Y-17547500I-47500J0D01*
G01*
D11*
X2894864Y-17437976D02*
X2913912Y-17437976D01*
X2932959Y-17447500D01*
X2942483Y-17457024D01*
X2952007Y-17476071D01*
X2961531Y-17514167D01*
X2961531Y-17561786D01*
X2952007Y-17599881D01*
X2942483Y-17618929D01*
X2932959Y-17628452D01*
X2913912Y-17637976D01*
X2894864Y-17637976D01*
X2875817Y-17628452D01*
X2866293Y-17618929D01*
X2856769Y-17599881D01*
X2847245Y-17561786D01*
X2847245Y-17514167D01*
X2856769Y-17476071D01*
X2866293Y-17457024D01*
X2875817Y-17447500D01*
X2894864Y-17437976D01*
X3047245Y-17618929D02*
X3056769Y-17628452D01*
X3047245Y-17637976D01*
X3037721Y-17628452D01*
X3047245Y-17618929D01*
X3047245Y-17637976D01*
X3152007Y-17637976D02*
X3190102Y-17637976D01*
X3209150Y-17628452D01*
X3218674Y-17618929D01*
X3237721Y-17590357D01*
X3247245Y-17552262D01*
X3247245Y-17476071D01*
X3237721Y-17457024D01*
X3228198Y-17447500D01*
X3209150Y-17437976D01*
X3171055Y-17437976D01*
X3152007Y-17447500D01*
X3142483Y-17457024D01*
X3132959Y-17476071D01*
X3132959Y-17523690D01*
X3142483Y-17542738D01*
X3152007Y-17552262D01*
X3171055Y-17561786D01*
X3209150Y-17561786D01*
X3228198Y-17552262D01*
X3237721Y-17542738D01*
X3247245Y-17523690D01*
X3428198Y-17437976D02*
X3332959Y-17437976D01*
X3323436Y-17533214D01*
X3332959Y-17523690D01*
X3352007Y-17514167D01*
X3399626Y-17514167D01*
X3418674Y-17523690D01*
X3428198Y-17533214D01*
X3437721Y-17552262D01*
X3437721Y-17599881D01*
X3428198Y-17618929D01*
X3418674Y-17628452D01*
X3399626Y-17637976D01*
X3352007Y-17637976D01*
X3332959Y-17628452D01*
X3323436Y-17618929D01*
X3561531Y-17437976D02*
X3580578Y-17437976D01*
X3599626Y-17447500D01*
X3609150Y-17457024D01*
X3618674Y-17476071D01*
X3628198Y-17514167D01*
X3628198Y-17561786D01*
X3618674Y-17599881D01*
X3609150Y-17618929D01*
X3599626Y-17628452D01*
X3580578Y-17637976D01*
X3561531Y-17637976D01*
X3542483Y-17628452D01*
X3532959Y-17618929D01*
X3523436Y-17599881D01*
X3513912Y-17561786D01*
X3513912Y-17514167D01*
X3523436Y-17476071D01*
X3532959Y-17457024D01*
X3542483Y-17447500D01*
X3561531Y-17437976D01*
X3713912Y-17637976D02*
X3713912Y-17504643D01*
X3713912Y-17523690D02*
X3723436Y-17514167D01*
X3742483Y-17504643D01*
X3771055Y-17504643D01*
X3790102Y-17514167D01*
X3799626Y-17533214D01*
X3799626Y-17637976D01*
X3799626Y-17533214D02*
X3809150Y-17514167D01*
X3828198Y-17504643D01*
X3856769Y-17504643D01*
X3875817Y-17514167D01*
X3885340Y-17533214D01*
X3885340Y-17637976D01*
X3980578Y-17637976D02*
X3980578Y-17504643D01*
X3980578Y-17523690D02*
X3990102Y-17514167D01*
X4009150Y-17504643D01*
X4037721Y-17504643D01*
X4056769Y-17514167D01*
X4066293Y-17533214D01*
X4066293Y-17637976D01*
X4066293Y-17533214D02*
X4075817Y-17514167D01*
X4094864Y-17504643D01*
X4123436Y-17504643D01*
X4142483Y-17514167D01*
X4152007Y-17533214D01*
X4152007Y-17637976D01*
X4542483Y-17428452D02*
X4371055Y-17685595D01*
X4799626Y-17437976D02*
X4818674Y-17437976D01*
X4837721Y-17447500D01*
X4847245Y-17457024D01*
X4856769Y-17476071D01*
X4866293Y-17514167D01*
X4866293Y-17561786D01*
X4856769Y-17599881D01*
X4847245Y-17618929D01*
X4837721Y-17628452D01*
X4818674Y-17637976D01*
X4799626Y-17637976D01*
X4780579Y-17628452D01*
X4771055Y-17618929D01*
X4761531Y-17599881D01*
X4752007Y-17561786D01*
X4752007Y-17514167D01*
X4761531Y-17476071D01*
X4771055Y-17457024D01*
X4780579Y-17447500D01*
X4799626Y-17437976D01*
X4952007Y-17618929D02*
X4961531Y-17628452D01*
X4952007Y-17637976D01*
X4942483Y-17628452D01*
X4952007Y-17618929D01*
X4952007Y-17637976D01*
X5085340Y-17437976D02*
X5104388Y-17437976D01*
X5123436Y-17447500D01*
X5132960Y-17457024D01*
X5142483Y-17476071D01*
X5152007Y-17514167D01*
X5152007Y-17561786D01*
X5142483Y-17599881D01*
X5132960Y-17618929D01*
X5123436Y-17628452D01*
X5104388Y-17637976D01*
X5085340Y-17637976D01*
X5066293Y-17628452D01*
X5056769Y-17618929D01*
X5047245Y-17599881D01*
X5037721Y-17561786D01*
X5037721Y-17514167D01*
X5047245Y-17476071D01*
X5056769Y-17457024D01*
X5066293Y-17447500D01*
X5085340Y-17437976D01*
X5218674Y-17437976D02*
X5342483Y-17437976D01*
X5275817Y-17514167D01*
X5304388Y-17514167D01*
X5323436Y-17523690D01*
X5332960Y-17533214D01*
X5342483Y-17552262D01*
X5342483Y-17599881D01*
X5332960Y-17618929D01*
X5323436Y-17628452D01*
X5304388Y-17637976D01*
X5247245Y-17637976D01*
X5228198Y-17628452D01*
X5218674Y-17618929D01*
X5409150Y-17437976D02*
X5542483Y-17437976D01*
X5456769Y-17637976D01*
X5704388Y-17504643D02*
X5704388Y-17637976D01*
X5656769Y-17428452D02*
X5609150Y-17571310D01*
X5732959Y-17571310D01*
X5799626Y-17437976D02*
X5799626Y-17476071D01*
X5875817Y-17437976D02*
X5875817Y-17476071D01*
X6171055Y-17714167D02*
X6161531Y-17704643D01*
X6142483Y-17676071D01*
X6132959Y-17657024D01*
X6123436Y-17628452D01*
X6113912Y-17580833D01*
X6113912Y-17542738D01*
X6123436Y-17495119D01*
X6132959Y-17466548D01*
X6142483Y-17447500D01*
X6161531Y-17418929D01*
X6171055Y-17409405D01*
X6352007Y-17637976D02*
X6237721Y-17637976D01*
X6294864Y-17637976D02*
X6294864Y-17437976D01*
X6275817Y-17466548D01*
X6256769Y-17485595D01*
X6237721Y-17495119D01*
X6523436Y-17504643D02*
X6523436Y-17637976D01*
X6475817Y-17428452D02*
X6428198Y-17571310D01*
X6552007Y-17571310D01*
X6780578Y-17637976D02*
X6780578Y-17437976D01*
X6866293Y-17637976D02*
X6866293Y-17533214D01*
X6856769Y-17514167D01*
X6837721Y-17504643D01*
X6809150Y-17504643D01*
X6790102Y-17514167D01*
X6780578Y-17523690D01*
X6990102Y-17637976D02*
X6971055Y-17628452D01*
X6961531Y-17618929D01*
X6952007Y-17599881D01*
X6952007Y-17542738D01*
X6961531Y-17523690D01*
X6971055Y-17514167D01*
X6990102Y-17504643D01*
X7018674Y-17504643D01*
X7037721Y-17514167D01*
X7047245Y-17523690D01*
X7056769Y-17542738D01*
X7056769Y-17599881D01*
X7047245Y-17618929D01*
X7037721Y-17628452D01*
X7018674Y-17637976D01*
X6990102Y-17637976D01*
X7171055Y-17637976D02*
X7152007Y-17628452D01*
X7142483Y-17609405D01*
X7142483Y-17437976D01*
X7323436Y-17628452D02*
X7304388Y-17637976D01*
X7266293Y-17637976D01*
X7247245Y-17628452D01*
X7237721Y-17609405D01*
X7237721Y-17533214D01*
X7247245Y-17514167D01*
X7266293Y-17504643D01*
X7304388Y-17504643D01*
X7323436Y-17514167D01*
X7332959Y-17533214D01*
X7332959Y-17552262D01*
X7237721Y-17571310D01*
X7409150Y-17628452D02*
X7428198Y-17637976D01*
X7466293Y-17637976D01*
X7485340Y-17628452D01*
X7494864Y-17609405D01*
X7494864Y-17599881D01*
X7485340Y-17580833D01*
X7466293Y-17571310D01*
X7437721Y-17571310D01*
X7418674Y-17561786D01*
X7409150Y-17542738D01*
X7409150Y-17533214D01*
X7418674Y-17514167D01*
X7437721Y-17504643D01*
X7466293Y-17504643D01*
X7485340Y-17514167D01*
X7561531Y-17714167D02*
X7571055Y-17704643D01*
X7590102Y-17676071D01*
X7599626Y-17657024D01*
X7609150Y-17628452D01*
X7618674Y-17580833D01*
X7618674Y-17542738D01*
X7609150Y-17495119D01*
X7599626Y-17466548D01*
X7590102Y-17447500D01*
X7571055Y-17418929D01*
X7561531Y-17409405D01*
D14*
X2549150Y-17761500D02*
X2549150Y-17861500D01*
X2499150Y-17811500D02*
X2599150Y-17811500D01*
D11*
X2961531Y-17901976D02*
X2847245Y-17901976D01*
X2904388Y-17901976D02*
X2904388Y-17701976D01*
X2885340Y-17730548D01*
X2866293Y-17749595D01*
X2847245Y-17759119D01*
X3047245Y-17882929D02*
X3056769Y-17892452D01*
X3047245Y-17901976D01*
X3037721Y-17892452D01*
X3047245Y-17882929D01*
X3047245Y-17901976D01*
X3180578Y-17701976D02*
X3199626Y-17701976D01*
X3218674Y-17711500D01*
X3228198Y-17721024D01*
X3237721Y-17740071D01*
X3247245Y-17778167D01*
X3247245Y-17825786D01*
X3237721Y-17863881D01*
X3228198Y-17882929D01*
X3218674Y-17892452D01*
X3199626Y-17901976D01*
X3180578Y-17901976D01*
X3161531Y-17892452D01*
X3152007Y-17882929D01*
X3142483Y-17863881D01*
X3132959Y-17825786D01*
X3132959Y-17778167D01*
X3142483Y-17740071D01*
X3152007Y-17721024D01*
X3161531Y-17711500D01*
X3180578Y-17701976D01*
X3371055Y-17701976D02*
X3390102Y-17701976D01*
X3409150Y-17711500D01*
X3418674Y-17721024D01*
X3428198Y-17740071D01*
X3437721Y-17778167D01*
X3437721Y-17825786D01*
X3428198Y-17863881D01*
X3418674Y-17882929D01*
X3409150Y-17892452D01*
X3390102Y-17901976D01*
X3371055Y-17901976D01*
X3352007Y-17892452D01*
X3342483Y-17882929D01*
X3332959Y-17863881D01*
X3323436Y-17825786D01*
X3323436Y-17778167D01*
X3332959Y-17740071D01*
X3342483Y-17721024D01*
X3352007Y-17711500D01*
X3371055Y-17701976D01*
X3561531Y-17701976D02*
X3580578Y-17701976D01*
X3599626Y-17711500D01*
X3609150Y-17721024D01*
X3618674Y-17740071D01*
X3628198Y-17778167D01*
X3628198Y-17825786D01*
X3618674Y-17863881D01*
X3609150Y-17882929D01*
X3599626Y-17892452D01*
X3580578Y-17901976D01*
X3561531Y-17901976D01*
X3542483Y-17892452D01*
X3532959Y-17882929D01*
X3523436Y-17863881D01*
X3513912Y-17825786D01*
X3513912Y-17778167D01*
X3523436Y-17740071D01*
X3532959Y-17721024D01*
X3542483Y-17711500D01*
X3561531Y-17701976D01*
X3713912Y-17901976D02*
X3713912Y-17768643D01*
X3713912Y-17787690D02*
X3723436Y-17778167D01*
X3742483Y-17768643D01*
X3771055Y-17768643D01*
X3790102Y-17778167D01*
X3799626Y-17797214D01*
X3799626Y-17901976D01*
X3799626Y-17797214D02*
X3809150Y-17778167D01*
X3828198Y-17768643D01*
X3856769Y-17768643D01*
X3875817Y-17778167D01*
X3885340Y-17797214D01*
X3885340Y-17901976D01*
X3980578Y-17901976D02*
X3980578Y-17768643D01*
X3980578Y-17787690D02*
X3990102Y-17778167D01*
X4009150Y-17768643D01*
X4037721Y-17768643D01*
X4056769Y-17778167D01*
X4066293Y-17797214D01*
X4066293Y-17901976D01*
X4066293Y-17797214D02*
X4075817Y-17778167D01*
X4094864Y-17768643D01*
X4123436Y-17768643D01*
X4142483Y-17778167D01*
X4152007Y-17797214D01*
X4152007Y-17901976D01*
X4542483Y-17692452D02*
X4371055Y-17949595D01*
X4799626Y-17701976D02*
X4818674Y-17701976D01*
X4837721Y-17711500D01*
X4847245Y-17721024D01*
X4856769Y-17740071D01*
X4866293Y-17778167D01*
X4866293Y-17825786D01*
X4856769Y-17863881D01*
X4847245Y-17882929D01*
X4837721Y-17892452D01*
X4818674Y-17901976D01*
X4799626Y-17901976D01*
X4780579Y-17892452D01*
X4771055Y-17882929D01*
X4761531Y-17863881D01*
X4752007Y-17825786D01*
X4752007Y-17778167D01*
X4761531Y-17740071D01*
X4771055Y-17721024D01*
X4780579Y-17711500D01*
X4799626Y-17701976D01*
X4952007Y-17882929D02*
X4961531Y-17892452D01*
X4952007Y-17901976D01*
X4942483Y-17892452D01*
X4952007Y-17882929D01*
X4952007Y-17901976D01*
X5085340Y-17701976D02*
X5104388Y-17701976D01*
X5123436Y-17711500D01*
X5132960Y-17721024D01*
X5142483Y-17740071D01*
X5152007Y-17778167D01*
X5152007Y-17825786D01*
X5142483Y-17863881D01*
X5132960Y-17882929D01*
X5123436Y-17892452D01*
X5104388Y-17901976D01*
X5085340Y-17901976D01*
X5066293Y-17892452D01*
X5056769Y-17882929D01*
X5047245Y-17863881D01*
X5037721Y-17825786D01*
X5037721Y-17778167D01*
X5047245Y-17740071D01*
X5056769Y-17721024D01*
X5066293Y-17711500D01*
X5085340Y-17701976D01*
X5218674Y-17701976D02*
X5342483Y-17701976D01*
X5275817Y-17778167D01*
X5304388Y-17778167D01*
X5323436Y-17787690D01*
X5332960Y-17797214D01*
X5342483Y-17816262D01*
X5342483Y-17863881D01*
X5332960Y-17882929D01*
X5323436Y-17892452D01*
X5304388Y-17901976D01*
X5247245Y-17901976D01*
X5228198Y-17892452D01*
X5218674Y-17882929D01*
X5437721Y-17901976D02*
X5475817Y-17901976D01*
X5494864Y-17892452D01*
X5504388Y-17882929D01*
X5523436Y-17854357D01*
X5532960Y-17816262D01*
X5532960Y-17740071D01*
X5523436Y-17721024D01*
X5513912Y-17711500D01*
X5494864Y-17701976D01*
X5456769Y-17701976D01*
X5437721Y-17711500D01*
X5428198Y-17721024D01*
X5418674Y-17740071D01*
X5418674Y-17787690D01*
X5428198Y-17806738D01*
X5437721Y-17816262D01*
X5456769Y-17825786D01*
X5494864Y-17825786D01*
X5513912Y-17816262D01*
X5523436Y-17806738D01*
X5532960Y-17787690D01*
X5704388Y-17768643D02*
X5704388Y-17901976D01*
X5656769Y-17692452D02*
X5609150Y-17835310D01*
X5732959Y-17835310D01*
X5799626Y-17701976D02*
X5799626Y-17740071D01*
X5875817Y-17701976D02*
X5875817Y-17740071D01*
X6171055Y-17978167D02*
X6161531Y-17968643D01*
X6142483Y-17940071D01*
X6132959Y-17921024D01*
X6123436Y-17892452D01*
X6113912Y-17844833D01*
X6113912Y-17806738D01*
X6123436Y-17759119D01*
X6132959Y-17730548D01*
X6142483Y-17711500D01*
X6161531Y-17682929D01*
X6171055Y-17673405D01*
X6352007Y-17901976D02*
X6237721Y-17901976D01*
X6294864Y-17901976D02*
X6294864Y-17701976D01*
X6275817Y-17730548D01*
X6256769Y-17749595D01*
X6237721Y-17759119D01*
X6475817Y-17701976D02*
X6494864Y-17701976D01*
X6513912Y-17711500D01*
X6523436Y-17721024D01*
X6532959Y-17740071D01*
X6542483Y-17778167D01*
X6542483Y-17825786D01*
X6532959Y-17863881D01*
X6523436Y-17882929D01*
X6513912Y-17892452D01*
X6494864Y-17901976D01*
X6475817Y-17901976D01*
X6456769Y-17892452D01*
X6447245Y-17882929D01*
X6437721Y-17863881D01*
X6428198Y-17825786D01*
X6428198Y-17778167D01*
X6437721Y-17740071D01*
X6447245Y-17721024D01*
X6456769Y-17711500D01*
X6475817Y-17701976D01*
X6666293Y-17701976D02*
X6685340Y-17701976D01*
X6704388Y-17711500D01*
X6713912Y-17721024D01*
X6723436Y-17740071D01*
X6732959Y-17778167D01*
X6732959Y-17825786D01*
X6723436Y-17863881D01*
X6713912Y-17882929D01*
X6704388Y-17892452D01*
X6685340Y-17901976D01*
X6666293Y-17901976D01*
X6647245Y-17892452D01*
X6637721Y-17882929D01*
X6628198Y-17863881D01*
X6618674Y-17825786D01*
X6618674Y-17778167D01*
X6628198Y-17740071D01*
X6637721Y-17721024D01*
X6647245Y-17711500D01*
X6666293Y-17701976D01*
X6971055Y-17901976D02*
X6971055Y-17701976D01*
X7056769Y-17901976D02*
X7056769Y-17797214D01*
X7047245Y-17778167D01*
X7028198Y-17768643D01*
X6999626Y-17768643D01*
X6980578Y-17778167D01*
X6971055Y-17787690D01*
X7180578Y-17901976D02*
X7161531Y-17892452D01*
X7152007Y-17882929D01*
X7142483Y-17863881D01*
X7142483Y-17806738D01*
X7152007Y-17787690D01*
X7161531Y-17778167D01*
X7180578Y-17768643D01*
X7209150Y-17768643D01*
X7228198Y-17778167D01*
X7237721Y-17787690D01*
X7247245Y-17806738D01*
X7247245Y-17863881D01*
X7237721Y-17882929D01*
X7228198Y-17892452D01*
X7209150Y-17901976D01*
X7180578Y-17901976D01*
X7361531Y-17901976D02*
X7342483Y-17892452D01*
X7332959Y-17873405D01*
X7332959Y-17701976D01*
X7513912Y-17892452D02*
X7494864Y-17901976D01*
X7456769Y-17901976D01*
X7437721Y-17892452D01*
X7428198Y-17873405D01*
X7428198Y-17797214D01*
X7437721Y-17778167D01*
X7456769Y-17768643D01*
X7494864Y-17768643D01*
X7513912Y-17778167D01*
X7523436Y-17797214D01*
X7523436Y-17816262D01*
X7428198Y-17835310D01*
X7599626Y-17892452D02*
X7618674Y-17901976D01*
X7656769Y-17901976D01*
X7675817Y-17892452D01*
X7685340Y-17873405D01*
X7685340Y-17863881D01*
X7675817Y-17844833D01*
X7656769Y-17835310D01*
X7628198Y-17835310D01*
X7609150Y-17825786D01*
X7599626Y-17806738D01*
X7599626Y-17797214D01*
X7609150Y-17778167D01*
X7628198Y-17768643D01*
X7656769Y-17768643D01*
X7675817Y-17778167D01*
X7752007Y-17978167D02*
X7761531Y-17968643D01*
X7780578Y-17940071D01*
X7790102Y-17921024D01*
X7799626Y-17892452D01*
X7809150Y-17844833D01*
X7809150Y-17806738D01*
X7799626Y-17759119D01*
X7790102Y-17730548D01*
X7780578Y-17711500D01*
X7761531Y-17682929D01*
X7752007Y-17673405D01*
D15*
X2584213Y-18111563D02*
X2584213Y-18039437D01*
X2512087Y-18039437D01*
X2512087Y-18111563D01*
X2584213Y-18111563D01*
D11*
X2961531Y-18165976D02*
X2847245Y-18165976D01*
X2904388Y-18165976D02*
X2904388Y-17965976D01*
X2885340Y-17994548D01*
X2866293Y-18013595D01*
X2847245Y-18023119D01*
X3047245Y-18146929D02*
X3056769Y-18156452D01*
X3047245Y-18165976D01*
X3037721Y-18156452D01*
X3047245Y-18146929D01*
X3047245Y-18165976D01*
X3180578Y-17965976D02*
X3199626Y-17965976D01*
X3218674Y-17975500D01*
X3228198Y-17985024D01*
X3237721Y-18004071D01*
X3247245Y-18042167D01*
X3247245Y-18089786D01*
X3237721Y-18127881D01*
X3228198Y-18146929D01*
X3218674Y-18156452D01*
X3199626Y-18165976D01*
X3180578Y-18165976D01*
X3161531Y-18156452D01*
X3152007Y-18146929D01*
X3142483Y-18127881D01*
X3132959Y-18089786D01*
X3132959Y-18042167D01*
X3142483Y-18004071D01*
X3152007Y-17985024D01*
X3161531Y-17975500D01*
X3180578Y-17965976D01*
X3323436Y-17985024D02*
X3332959Y-17975500D01*
X3352007Y-17965976D01*
X3399626Y-17965976D01*
X3418674Y-17975500D01*
X3428198Y-17985024D01*
X3437721Y-18004071D01*
X3437721Y-18023119D01*
X3428198Y-18051690D01*
X3313912Y-18165976D01*
X3437721Y-18165976D01*
X3561531Y-17965976D02*
X3580578Y-17965976D01*
X3599626Y-17975500D01*
X3609150Y-17985024D01*
X3618674Y-18004071D01*
X3628198Y-18042167D01*
X3628198Y-18089786D01*
X3618674Y-18127881D01*
X3609150Y-18146929D01*
X3599626Y-18156452D01*
X3580578Y-18165976D01*
X3561531Y-18165976D01*
X3542483Y-18156452D01*
X3532959Y-18146929D01*
X3523436Y-18127881D01*
X3513912Y-18089786D01*
X3513912Y-18042167D01*
X3523436Y-18004071D01*
X3532959Y-17985024D01*
X3542483Y-17975500D01*
X3561531Y-17965976D01*
X3713912Y-18165976D02*
X3713912Y-18032643D01*
X3713912Y-18051690D02*
X3723436Y-18042167D01*
X3742483Y-18032643D01*
X3771055Y-18032643D01*
X3790102Y-18042167D01*
X3799626Y-18061214D01*
X3799626Y-18165976D01*
X3799626Y-18061214D02*
X3809150Y-18042167D01*
X3828198Y-18032643D01*
X3856769Y-18032643D01*
X3875817Y-18042167D01*
X3885340Y-18061214D01*
X3885340Y-18165976D01*
X3980578Y-18165976D02*
X3980578Y-18032643D01*
X3980578Y-18051690D02*
X3990102Y-18042167D01*
X4009150Y-18032643D01*
X4037721Y-18032643D01*
X4056769Y-18042167D01*
X4066293Y-18061214D01*
X4066293Y-18165976D01*
X4066293Y-18061214D02*
X4075817Y-18042167D01*
X4094864Y-18032643D01*
X4123436Y-18032643D01*
X4142483Y-18042167D01*
X4152007Y-18061214D01*
X4152007Y-18165976D01*
X4542483Y-17956452D02*
X4371055Y-18213595D01*
X4799626Y-17965976D02*
X4818674Y-17965976D01*
X4837721Y-17975500D01*
X4847245Y-17985024D01*
X4856769Y-18004071D01*
X4866293Y-18042167D01*
X4866293Y-18089786D01*
X4856769Y-18127881D01*
X4847245Y-18146929D01*
X4837721Y-18156452D01*
X4818674Y-18165976D01*
X4799626Y-18165976D01*
X4780579Y-18156452D01*
X4771055Y-18146929D01*
X4761531Y-18127881D01*
X4752007Y-18089786D01*
X4752007Y-18042167D01*
X4761531Y-18004071D01*
X4771055Y-17985024D01*
X4780579Y-17975500D01*
X4799626Y-17965976D01*
X4952007Y-18146929D02*
X4961531Y-18156452D01*
X4952007Y-18165976D01*
X4942483Y-18156452D01*
X4952007Y-18146929D01*
X4952007Y-18165976D01*
X5085340Y-17965976D02*
X5104388Y-17965976D01*
X5123436Y-17975500D01*
X5132960Y-17985024D01*
X5142483Y-18004071D01*
X5152007Y-18042167D01*
X5152007Y-18089786D01*
X5142483Y-18127881D01*
X5132960Y-18146929D01*
X5123436Y-18156452D01*
X5104388Y-18165976D01*
X5085340Y-18165976D01*
X5066293Y-18156452D01*
X5056769Y-18146929D01*
X5047245Y-18127881D01*
X5037721Y-18089786D01*
X5037721Y-18042167D01*
X5047245Y-18004071D01*
X5056769Y-17985024D01*
X5066293Y-17975500D01*
X5085340Y-17965976D01*
X5323436Y-18032643D02*
X5323436Y-18165976D01*
X5275817Y-17956452D02*
X5228198Y-18099310D01*
X5352007Y-18099310D01*
X5466293Y-17965976D02*
X5485340Y-17965976D01*
X5504388Y-17975500D01*
X5513912Y-17985024D01*
X5523436Y-18004071D01*
X5532960Y-18042167D01*
X5532960Y-18089786D01*
X5523436Y-18127881D01*
X5513912Y-18146929D01*
X5504388Y-18156452D01*
X5485340Y-18165976D01*
X5466293Y-18165976D01*
X5447245Y-18156452D01*
X5437721Y-18146929D01*
X5428198Y-18127881D01*
X5418674Y-18089786D01*
X5418674Y-18042167D01*
X5428198Y-18004071D01*
X5437721Y-17985024D01*
X5447245Y-17975500D01*
X5466293Y-17965976D01*
X5609150Y-17985024D02*
X5618674Y-17975500D01*
X5637721Y-17965976D01*
X5685340Y-17965976D01*
X5704388Y-17975500D01*
X5713912Y-17985024D01*
X5723436Y-18004071D01*
X5723436Y-18023119D01*
X5713912Y-18051690D01*
X5599626Y-18165976D01*
X5723436Y-18165976D01*
X5799626Y-17965976D02*
X5799626Y-18004071D01*
X5875817Y-17965976D02*
X5875817Y-18004071D01*
X6171055Y-18242167D02*
X6161531Y-18232643D01*
X6142483Y-18204071D01*
X6132959Y-18185024D01*
X6123436Y-18156452D01*
X6113912Y-18108833D01*
X6113912Y-18070738D01*
X6123436Y-18023119D01*
X6132959Y-17994548D01*
X6142483Y-17975500D01*
X6161531Y-17946929D01*
X6171055Y-17937405D01*
X6237721Y-17985024D02*
X6247245Y-17975500D01*
X6266293Y-17965976D01*
X6313912Y-17965976D01*
X6332959Y-17975500D01*
X6342483Y-17985024D01*
X6352007Y-18004071D01*
X6352007Y-18023119D01*
X6342483Y-18051690D01*
X6228198Y-18165976D01*
X6352007Y-18165976D01*
X6523436Y-18032643D02*
X6523436Y-18165976D01*
X6475817Y-17956452D02*
X6428198Y-18099310D01*
X6552007Y-18099310D01*
X6713912Y-18032643D02*
X6713912Y-18165976D01*
X6666293Y-17956452D02*
X6618674Y-18099310D01*
X6742483Y-18099310D01*
X6971055Y-18165976D02*
X6971055Y-17965976D01*
X7056769Y-18165976D02*
X7056769Y-18061214D01*
X7047245Y-18042167D01*
X7028198Y-18032643D01*
X6999626Y-18032643D01*
X6980578Y-18042167D01*
X6971055Y-18051690D01*
X7180578Y-18165976D02*
X7161531Y-18156452D01*
X7152007Y-18146929D01*
X7142483Y-18127881D01*
X7142483Y-18070738D01*
X7152007Y-18051690D01*
X7161531Y-18042167D01*
X7180578Y-18032643D01*
X7209150Y-18032643D01*
X7228198Y-18042167D01*
X7237721Y-18051690D01*
X7247245Y-18070738D01*
X7247245Y-18127881D01*
X7237721Y-18146929D01*
X7228198Y-18156452D01*
X7209150Y-18165976D01*
X7180578Y-18165976D01*
X7361531Y-18165976D02*
X7342483Y-18156452D01*
X7332959Y-18137405D01*
X7332959Y-17965976D01*
X7513912Y-18156452D02*
X7494864Y-18165976D01*
X7456769Y-18165976D01*
X7437721Y-18156452D01*
X7428198Y-18137405D01*
X7428198Y-18061214D01*
X7437721Y-18042167D01*
X7456769Y-18032643D01*
X7494864Y-18032643D01*
X7513912Y-18042167D01*
X7523436Y-18061214D01*
X7523436Y-18080262D01*
X7428198Y-18099310D01*
X7599626Y-18156452D02*
X7618674Y-18165976D01*
X7656769Y-18165976D01*
X7675817Y-18156452D01*
X7685340Y-18137405D01*
X7685340Y-18127881D01*
X7675817Y-18108833D01*
X7656769Y-18099310D01*
X7628198Y-18099310D01*
X7609150Y-18089786D01*
X7599626Y-18070738D01*
X7599626Y-18061214D01*
X7609150Y-18042167D01*
X7628198Y-18032643D01*
X7656769Y-18032643D01*
X7675817Y-18042167D01*
X7752007Y-18242167D02*
X7761531Y-18232643D01*
X7780578Y-18204071D01*
X7790102Y-18185024D01*
X7799626Y-18156452D01*
X7809150Y-18108833D01*
X7809150Y-18070738D01*
X7799626Y-18023119D01*
X7790102Y-17994548D01*
X7780578Y-17975500D01*
X7761531Y-17946929D01*
X7752007Y-17937405D01*
M02*
