M48
; DRILL file {KiCad (6.0.6)} date Fri Mar 10 11:55:55 2023
; FORMAT={-:-/ absolute / inch / decimal}
; #@! TF.CreationDate,2023-03-10T11:55:55+01:00
; #@! TF.GenerationSoftware,Kicad,Pcbnew,(6.0.6)
; #@! TF.FileFunction,Plated,1,2,PTH
FMAT,2
INCH
; #@! TA.AperFunction,Plated,PTH,ViaDrill
T1C0.0315
; #@! TA.AperFunction,Plated,PTH,ComponentDrill
T2C0.0374
; #@! TA.AperFunction,Plated,PTH,ComponentDrill
T3C0.0394
; #@! TA.AperFunction,Plated,PTH,ComponentDrill
T4C0.0402
%
G90
G05
T1
X1.4953Y-4.9606
X1.6953Y-4.9506
X1.91Y-3.1
X1.95Y-2.36
X2.05Y-3.01
X2.47Y-3.69
X2.48Y-3.82
X2.6053Y-5.5206
X2.62Y-1.2
X2.8Y-3.62
X2.87Y-4.04
X2.8853Y-3.8506
X2.94Y-2.0
X3.03Y-2.0426
X3.03Y-2.96
X3.06Y-4.04
X3.14Y-5.44
X3.25Y-4.33
X3.3Y-1.93
X3.49Y-5.87
X3.85Y-5.77
X3.9103Y-3.8456
X4.0053Y-2.1006
X4.06Y-1.08
X4.27Y-5.65
X4.2853Y-1.8106
X4.36Y-3.36
X4.76Y-6.06
X4.78Y-1.92
X4.8429Y-3.0529
X4.85Y-6.22
X4.92Y-3.93
X5.18Y-5.94
X5.19Y-4.44
X5.26Y-4.24
X5.38Y-4.04
X5.5953Y-2.2306
X5.7Y-5.16
X5.8Y-5.14
X5.81Y-5.89
X5.82Y-1.71
X5.83Y-3.47
X5.89Y-5.39
T2
X3.0931Y-6.33
X3.1916Y-6.33
X3.29Y-6.33
X3.9531Y-6.33
X4.0516Y-6.33
X4.15Y-6.33
X4.4247Y-6.3306
X4.5231Y-6.3306
X4.6216Y-6.3306
X4.72Y-6.3306
X4.9947Y-6.33
X5.0931Y-6.33
X5.1916Y-6.33
X5.29Y-6.33
T3
X1.3641Y-3.1182
X1.4641Y-3.1182
X1.4964Y-4.803
X1.5641Y-3.1182
X1.5964Y-4.803
X1.6641Y-3.1182
X1.6964Y-4.803
X1.7641Y-3.1182
X1.9653Y-1.1306
X1.9653Y-1.229
X1.9671Y-1.5014
X1.9671Y-1.5998
X1.9753Y-4.1722
X1.9753Y-4.2706
X1.9771Y-3.4514
X1.9771Y-3.5498
X1.9771Y-3.8114
X1.9771Y-3.9098
X2.7268Y-6.3306
X2.8253Y-6.3306
X3.1153Y-3.3006
X3.1155Y-2.4106
X3.1155Y-2.8506
X3.1155Y-3.0706
X3.1155Y-3.5306
X3.1155Y-4.5306
X3.2153Y-3.3006
X3.2155Y-2.4106
X3.2155Y-2.8506
X3.2155Y-3.0706
X3.2155Y-3.5306
X3.2155Y-4.5306
X3.5768Y-6.3306
X3.6753Y-6.3306
X5.0634Y-1.0814
X5.0634Y-1.1798
X5.0634Y-1.4314
X5.0634Y-1.5298
X5.0634Y-1.7814
X5.0634Y-1.8798
X5.0634Y-2.1314
X5.0634Y-2.2298
X5.0634Y-2.4814
X5.0634Y-2.5798
X5.0634Y-2.8314
X5.0634Y-2.9298
X5.0634Y-3.1814
X5.0634Y-3.2798
X5.0634Y-3.5314
X5.0634Y-3.6298
X5.09Y-3.95
X5.09Y-4.05
X5.09Y-4.15
X5.09Y-4.25
X5.09Y-4.35
X5.09Y-4.45
X5.09Y-4.55
X5.09Y-4.65
X5.1003Y-5.0206
X5.1014Y-6.123
X5.2003Y-5.0206
X5.2014Y-6.123
X5.3003Y-5.0206
X5.3014Y-6.123
X5.3634Y-1.0814
X5.3634Y-1.1798
X5.3634Y-1.4314
X5.3634Y-1.5298
X5.3634Y-1.7814
X5.3634Y-1.8798
X5.3634Y-2.1314
X5.3634Y-2.2298
X5.3734Y-2.4814
X5.3734Y-2.5798
X5.3734Y-2.8314
X5.3734Y-2.9298
X5.3734Y-3.1814
X5.3734Y-3.2798
X5.3734Y-3.5314
X5.3734Y-3.6298
X5.4003Y-5.0206
X5.4014Y-6.123
X5.5003Y-5.0206
X5.5014Y-6.123
X5.6003Y-5.0206
X5.6014Y-6.123
X5.6734Y-2.4814
X5.6734Y-2.5798
X5.6734Y-2.8314
X5.6734Y-2.9298
X5.6734Y-3.1814
X5.6734Y-3.2798
X5.6734Y-3.5314
X5.6734Y-3.6298
X5.7003Y-5.0206
X5.7014Y-6.123
X5.8003Y-5.0206
X5.8014Y-6.123
X5.9734Y-2.4814
X5.9734Y-2.5798
T4
X2.2753Y-2.2062
X2.2753Y-2.3062
X2.2753Y-2.4062
X2.2753Y-2.5062
X2.2753Y-2.6062
X2.2753Y-2.7062
X2.2753Y-2.8062
X2.2753Y-2.9062
X2.2753Y-3.0062
X2.2753Y-3.1062
X2.2753Y-3.2062
X2.2753Y-3.3062
X2.2753Y-3.4062
X2.2753Y-3.5062
X2.2753Y-3.6062
X2.2753Y-3.7062
X2.2753Y-3.8062
X2.2753Y-3.9062
X2.2753Y-4.0062
X2.2753Y-4.1062
X2.2753Y-4.2062
X2.2753Y-4.3062
X2.2753Y-4.4062
X2.2753Y-4.5062
X2.2753Y-4.6062
X2.2753Y-4.7062
X2.2753Y-4.8062
X2.2753Y-4.9062
X2.2753Y-5.0062
X2.2753Y-5.1062
X2.2753Y-5.2062
X2.2753Y-5.3062
X2.2753Y-5.4062
X2.2753Y-5.5062
X2.2753Y-5.6062
X2.2753Y-5.7062
X2.3753Y-2.2062
X2.3753Y-2.3062
X2.3753Y-2.4062
X2.3753Y-2.5062
X2.3753Y-2.6062
X2.3753Y-2.7062
X2.3753Y-2.8062
X2.3753Y-2.9062
X2.3753Y-3.0062
X2.3753Y-3.1062
X2.3753Y-3.2062
X2.3753Y-3.3062
X2.3753Y-3.4062
X2.3753Y-3.5062
X2.3753Y-3.6062
X2.3753Y-3.7062
X2.3753Y-3.8062
X2.3753Y-3.9062
X2.3753Y-4.0062
X2.3753Y-4.1062
X2.3753Y-4.2062
X2.3753Y-4.3062
X2.3753Y-4.4062
X2.3753Y-4.5062
X2.3753Y-4.6062
X2.3753Y-4.7062
X2.3753Y-4.8062
X2.3753Y-4.9062
X2.3753Y-5.0062
X2.3753Y-5.1062
X2.3753Y-5.2062
X2.3753Y-5.3062
X2.3753Y-5.4062
X2.3753Y-5.5062
X2.3753Y-5.6062
X2.3753Y-5.7062
X2.5753Y-2.2454
X2.5753Y-2.3454
X2.5753Y-2.4454
X2.5753Y-2.5454
X2.5753Y-2.6454
X2.5753Y-2.7454
X2.5753Y-2.8454
X2.5753Y-2.9454
X2.5753Y-3.0454
X2.5753Y-3.1454
X2.5753Y-3.3054
X2.5753Y-3.4054
X2.5753Y-3.5054
X2.5753Y-3.6054
X2.5753Y-3.7054
X2.5753Y-3.8054
X2.5753Y-3.9054
X2.5753Y-4.0054
X2.5753Y-4.1054
X2.5753Y-4.2054
X2.5753Y-4.3054
X2.5753Y-4.4054
X2.5753Y-4.5054
X2.5753Y-4.6054
X2.5753Y-4.7054
X2.5753Y-4.8054
X2.5753Y-4.9054
X2.6753Y-2.2454
X2.6753Y-2.3454
X2.6753Y-2.4454
X2.6753Y-2.5454
X2.6753Y-2.6454
X2.6753Y-2.7454
X2.6753Y-2.8454
X2.6753Y-2.9454
X2.6753Y-3.0454
X2.6753Y-3.1454
X2.6753Y-3.3054
X2.6753Y-3.4054
X2.6753Y-3.5054
X2.6753Y-3.6054
X2.6753Y-3.7054
X2.6753Y-3.8054
X2.6753Y-3.9054
X2.6753Y-4.0054
X2.6753Y-4.1054
X2.6753Y-4.2054
X2.6753Y-4.3054
X2.6753Y-4.4054
X2.6753Y-4.5054
X2.6753Y-4.6054
X2.6753Y-4.7054
X2.6753Y-4.8054
X2.6753Y-4.9054
X4.3753Y-2.6054
X4.3753Y-2.7054
X4.3753Y-2.8054
X4.3753Y-2.9054
X4.3753Y-3.0054
X4.3753Y-3.1054
X4.3753Y-3.2054
X4.3753Y-3.3054
X4.3753Y-3.5054
X4.3753Y-3.6054
X4.3753Y-3.7054
X4.3753Y-3.8054
X4.3753Y-3.9054
X4.3753Y-4.0054
X4.3753Y-4.1054
X4.3753Y-4.2054
X4.3753Y-4.3054
X4.3753Y-4.4054
X4.3753Y-4.5054
X4.3753Y-4.6054
X4.3753Y-4.7054
X4.3753Y-4.8054
X4.3753Y-4.9054
X4.4753Y-2.6054
X4.4753Y-2.7054
X4.4753Y-2.8054
X4.4753Y-2.9054
X4.4753Y-3.0054
X4.4753Y-3.1054
X4.4753Y-3.2054
X4.4753Y-3.3054
X4.4753Y-3.5054
X4.4753Y-3.6054
X4.4753Y-3.7054
X4.4753Y-3.8054
X4.4753Y-3.9054
X4.4753Y-4.0054
X4.4753Y-4.1054
X4.4753Y-4.2054
X4.4753Y-4.3054
X4.4753Y-4.4054
X4.4753Y-4.5054
X4.4753Y-4.6054
X4.4753Y-4.7054
X4.4753Y-4.8054
X4.4753Y-4.9054
X4.6753Y-2.2054
X4.6753Y-2.3054
X4.6753Y-2.4054
X4.6753Y-2.5054
X4.6753Y-2.6054
X4.6753Y-2.7054
X4.6753Y-2.8054
X4.6753Y-2.9054
X4.6753Y-3.0054
X4.6753Y-3.1054
X4.6753Y-3.2054
X4.6753Y-3.3054
X4.6753Y-3.4054
X4.6753Y-3.5054
X4.6753Y-3.6054
X4.6753Y-3.7054
X4.6753Y-3.8054
X4.6753Y-3.9054
X4.6753Y-4.0054
X4.6753Y-4.1054
X4.6753Y-4.2054
X4.6753Y-4.3054
X4.6753Y-4.4054
X4.6753Y-4.5054
X4.6753Y-4.6054
X4.6753Y-4.7054
X4.6753Y-4.8054
X4.6753Y-4.9054
X4.6753Y-5.0054
X4.6753Y-5.1054
X4.6753Y-5.2054
X4.6753Y-5.3054
X4.6753Y-5.4054
X4.6753Y-5.5054
X4.6753Y-5.6054
X4.6753Y-5.7054
X4.7753Y-2.2054
X4.7753Y-2.3054
X4.7753Y-2.4054
X4.7753Y-2.5054
X4.7753Y-2.6054
X4.7753Y-2.7054
X4.7753Y-2.8054
X4.7753Y-2.9054
X4.7753Y-3.0054
X4.7753Y-3.1054
X4.7753Y-3.2054
X4.7753Y-3.3054
X4.7753Y-3.4054
X4.7753Y-3.5054
X4.7753Y-3.6054
X4.7753Y-3.7054
X4.7753Y-3.8054
X4.7753Y-3.9054
X4.7753Y-4.0054
X4.7753Y-4.1054
X4.7753Y-4.2054
X4.7753Y-4.3054
X4.7753Y-4.4054
X4.7753Y-4.5054
X4.7753Y-4.6054
X4.7753Y-4.7054
X4.7753Y-4.8054
X4.7753Y-4.9054
X4.7753Y-5.0054
X4.7753Y-5.1054
X4.7753Y-5.2054
X4.7753Y-5.3054
X4.7753Y-5.4054
X4.7753Y-5.5054
X4.7753Y-5.6054
X4.7753Y-5.7054
T0
M30
