%TF.GenerationSoftware,KiCad,Pcbnew,(6.0.6)*%
%TF.CreationDate,2023-03-14T09:52:22+01:00*%
%TF.ProjectId,Capteur de fourdre,43617074-6575-4722-9064-6520666f7572,rev?*%
%TF.SameCoordinates,Original*%
%TF.FileFunction,Copper,L1,Top*%
%TF.FilePolarity,Positive*%
%FSLAX46Y46*%
G04 Gerber Fmt 4.6, Leading zero omitted, Abs format (unit mm)*
G04 Created by KiCad (PCBNEW (6.0.6)) date 2023-03-14 09:52:22*
%MOMM*%
%LPD*%
G01*
G04 APERTURE LIST*
G04 Aperture macros list*
%AMRoundRect*
0 Rectangle with rounded corners*
0 $1 Rounding radius*
0 $2 $3 $4 $5 $6 $7 $8 $9 X,Y pos of 4 corners*
0 Add a 4 corners polygon primitive as box body*
4,1,4,$2,$3,$4,$5,$6,$7,$8,$9,$2,$3,0*
0 Add four circle primitives for the rounded corners*
1,1,$1+$1,$2,$3*
1,1,$1+$1,$4,$5*
1,1,$1+$1,$6,$7*
1,1,$1+$1,$8,$9*
0 Add four rect primitives between the rounded corners*
20,1,$1+$1,$2,$3,$4,$5,0*
20,1,$1+$1,$4,$5,$6,$7,0*
20,1,$1+$1,$6,$7,$8,$9,0*
20,1,$1+$1,$8,$9,$2,$3,0*%
G04 Aperture macros list end*
%TA.AperFunction,SMDPad,CuDef*%
%ADD10RoundRect,0.250000X-0.550000X1.500000X-0.550000X-1.500000X0.550000X-1.500000X0.550000X1.500000X0*%
%TD*%
%TA.AperFunction,SMDPad,CuDef*%
%ADD11RoundRect,0.225000X-0.225000X-0.250000X0.225000X-0.250000X0.225000X0.250000X-0.225000X0.250000X0*%
%TD*%
%TA.AperFunction,SMDPad,CuDef*%
%ADD12RoundRect,0.150000X0.587500X0.150000X-0.587500X0.150000X-0.587500X-0.150000X0.587500X-0.150000X0*%
%TD*%
%TA.AperFunction,SMDPad,CuDef*%
%ADD13RoundRect,0.150000X0.150000X-0.587500X0.150000X0.587500X-0.150000X0.587500X-0.150000X-0.587500X0*%
%TD*%
%TA.AperFunction,SMDPad,CuDef*%
%ADD14RoundRect,0.225000X0.250000X-0.225000X0.250000X0.225000X-0.250000X0.225000X-0.250000X-0.225000X0*%
%TD*%
%TA.AperFunction,SMDPad,CuDef*%
%ADD15RoundRect,0.250000X-0.262500X-0.450000X0.262500X-0.450000X0.262500X0.450000X-0.262500X0.450000X0*%
%TD*%
%TA.AperFunction,SMDPad,CuDef*%
%ADD16RoundRect,0.150000X-0.587500X-0.150000X0.587500X-0.150000X0.587500X0.150000X-0.587500X0.150000X0*%
%TD*%
%TA.AperFunction,SMDPad,CuDef*%
%ADD17RoundRect,0.250000X-0.450000X0.262500X-0.450000X-0.262500X0.450000X-0.262500X0.450000X0.262500X0*%
%TD*%
%TA.AperFunction,SMDPad,CuDef*%
%ADD18RoundRect,0.250000X0.450000X-0.262500X0.450000X0.262500X-0.450000X0.262500X-0.450000X-0.262500X0*%
%TD*%
%TA.AperFunction,SMDPad,CuDef*%
%ADD19R,1.200000X0.900000*%
%TD*%
%TA.AperFunction,SMDPad,CuDef*%
%ADD20RoundRect,0.250000X-0.475000X0.250000X-0.475000X-0.250000X0.475000X-0.250000X0.475000X0.250000X0*%
%TD*%
%TA.AperFunction,ComponentPad*%
%ADD21R,1.700000X1.700000*%
%TD*%
%TA.AperFunction,ViaPad*%
%ADD22C,1.400000*%
%TD*%
%TA.AperFunction,Conductor*%
%ADD23C,0.500000*%
%TD*%
%TA.AperFunction,Conductor*%
%ADD24C,0.250000*%
%TD*%
G04 APERTURE END LIST*
D10*
%TO.P,C4,1*%
%TO.N,Net-(C4-Pad1)*%
X114808000Y-86962000D03*
%TO.P,C4,2*%
%TO.N,GND*%
X114808000Y-92362000D03*
%TD*%
D11*
%TO.P,C1,1*%
%TO.N,Net-(AE1-Pad1)*%
X92951000Y-91440000D03*
%TO.P,C1,2*%
%TO.N,Net-(C1-Pad2)*%
X94501000Y-91440000D03*
%TD*%
D12*
%TO.P,Q1,1,B*%
%TO.N,Net-(C1-Pad2)*%
X94663500Y-88326000D03*
%TO.P,Q1,2,E*%
%TO.N,GND*%
X94663500Y-86426000D03*
%TO.P,Q1,3,C*%
%TO.N,Net-(Q1-Pad3)*%
X92788500Y-87376000D03*
%TD*%
D13*
%TO.P,Q3,1,B*%
%TO.N,Net-(C3-Pad2)*%
X108016000Y-88059500D03*
%TO.P,Q3,2,E*%
%TO.N,Net-(C4-Pad1)*%
X109916000Y-88059500D03*
%TO.P,Q3,3,C*%
%TO.N,+5V*%
X108966000Y-86184500D03*
%TD*%
D14*
%TO.P,C3,1*%
%TO.N,Net-(C3-Pad1)*%
X97028000Y-88151000D03*
%TO.P,C3,2*%
%TO.N,Net-(C3-Pad2)*%
X97028000Y-86601000D03*
%TD*%
D15*
%TO.P,R3,1*%
%TO.N,Net-(C1-Pad2)*%
X96877500Y-91440000D03*
%TO.P,R3,2*%
%TO.N,Net-(C2-Pad1)*%
X98702500Y-91440000D03*
%TD*%
D16*
%TO.P,Q2,1,B*%
%TO.N,Net-(Q1-Pad3)*%
X101678500Y-86426000D03*
%TO.P,Q2,2,E*%
%TO.N,Net-(C2-Pad1)*%
X101678500Y-88326000D03*
%TO.P,Q2,3,C*%
%TO.N,Net-(C3-Pad1)*%
X103553500Y-87376000D03*
%TD*%
D17*
%TO.P,R2,1*%
%TO.N,+5V*%
X108966000Y-82399500D03*
%TO.P,R2,2*%
%TO.N,Net-(Q1-Pad3)*%
X108966000Y-84224500D03*
%TD*%
%TO.P,R4,1*%
%TO.N,+5V*%
X99314000Y-86463500D03*
%TO.P,R4,2*%
%TO.N,Net-(C3-Pad1)*%
X99314000Y-88288500D03*
%TD*%
D18*
%TO.P,R5,1*%
%TO.N,GND*%
X105664000Y-93368500D03*
%TO.P,R5,2*%
%TO.N,Net-(C2-Pad1)*%
X105664000Y-91543500D03*
%TD*%
D17*
%TO.P,R1,1*%
%TO.N,Net-(AE1-Pad1)*%
X90170000Y-91543500D03*
%TO.P,R1,2*%
%TO.N,GND*%
X90170000Y-93368500D03*
%TD*%
D19*
%TO.P,D1,1,K*%
%TO.N,Net-(C3-Pad2)*%
X109220000Y-90044000D03*
%TO.P,D1,2,A*%
%TO.N,GND*%
X109220000Y-93344000D03*
%TD*%
D20*
%TO.P,C2,1*%
%TO.N,Net-(C2-Pad1)*%
X101854000Y-91506000D03*
%TO.P,C2,2*%
%TO.N,GND*%
X101854000Y-93406000D03*
%TD*%
D21*
%TO.P,J3,1,Pin_1*%
%TO.N,GND*%
X93726000Y-82550000D03*
%TD*%
%TO.P,J4,1,Pin_1*%
%TO.N,+5V*%
X97282000Y-82550000D03*
%TD*%
%TO.P,J1,1,Pin_1*%
%TO.N,Net-(C3-Pad2)*%
X116586000Y-82550000D03*
%TD*%
%TO.P,AE1,1,A*%
%TO.N,Net-(AE1-Pad1)*%
X90170000Y-82550000D03*
%TD*%
%TO.P,J2,1,Pin_1*%
%TO.N,Net-(C4-Pad1)*%
X113030000Y-82550000D03*
%TD*%
D22*
%TO.N,+5V*%
X99314000Y-82550000D03*
X103175750Y-82601750D03*
%TD*%
D23*
%TO.N,Net-(AE1-Pad1)*%
X92776000Y-91440000D02*
X90273500Y-91440000D01*
X90170000Y-82550000D02*
X90170000Y-91543500D01*
D24*
X90273500Y-91440000D02*
X90170000Y-91543500D01*
D23*
%TO.N,Net-(C1-Pad2)*%
X94676000Y-91440000D02*
X94676000Y-88338500D01*
X94676000Y-91440000D02*
X96877500Y-91440000D01*
D24*
X94676000Y-88338500D02*
X94663500Y-88326000D01*
%TO.N,Net-(C2-Pad1)*%
X101788000Y-91440000D02*
X101854000Y-91506000D01*
D23*
X98702500Y-91440000D02*
X101788000Y-91440000D01*
D24*
X101854000Y-91506000D02*
X101678500Y-91330500D01*
D23*
X101678500Y-91330500D02*
X101678500Y-88326000D01*
D24*
X105626500Y-91506000D02*
X105664000Y-91543500D01*
D23*
X101854000Y-91506000D02*
X105626500Y-91506000D01*
D24*
%TO.N,Net-(C3-Pad1)*%
X99314000Y-88288500D02*
X100433500Y-88288500D01*
D23*
X97028000Y-88326000D02*
X99276500Y-88326000D01*
D24*
X100433500Y-88288500D02*
X100584000Y-88138000D01*
X100965249Y-87630000D02*
X103299500Y-87630000D01*
X100584000Y-88138000D02*
X100584000Y-88011249D01*
X103299500Y-87630000D02*
X103553500Y-87376000D01*
X99276500Y-88326000D02*
X99314000Y-88288500D01*
X100584000Y-88011249D02*
X100965249Y-87630000D01*
%TO.N,Net-(C3-Pad2)*%
X108712000Y-87884000D02*
X108712000Y-87847751D01*
D23*
X110998000Y-82804000D02*
X110998000Y-82729051D01*
X110998000Y-82804000D02*
X110998000Y-86215500D01*
D24*
X109474000Y-81280000D02*
X110998000Y-82804000D01*
X108016000Y-88059500D02*
X108536500Y-88059500D01*
X108712000Y-87847751D02*
X109691751Y-86868000D01*
D23*
X108016000Y-88840000D02*
X109220000Y-90044000D01*
D24*
X108887500Y-89711500D02*
X109220000Y-90044000D01*
X109691751Y-86868000D02*
X110345500Y-86868000D01*
X110345500Y-86868000D02*
X110998000Y-86215500D01*
D23*
X111252000Y-81280000D02*
X111760000Y-80772000D01*
X110998000Y-82729051D02*
X109548949Y-81280000D01*
X111760000Y-80772000D02*
X115062000Y-80772000D01*
X109474000Y-81280000D02*
X111252000Y-81280000D01*
X115062000Y-80772000D02*
X116586000Y-82296000D01*
X109548949Y-81280000D02*
X102616000Y-81280000D01*
X108016000Y-88059500D02*
X108016000Y-88840000D01*
D24*
X108536500Y-88059500D02*
X108712000Y-87884000D01*
D23*
X102616000Y-81280000D02*
X97470000Y-86426000D01*
D24*
X97028000Y-86426000D02*
X97470000Y-86426000D01*
D23*
%TO.N,Net-(C4-Pad1)*%
X113030000Y-85184000D02*
X114808000Y-86962000D01*
X109916000Y-88059500D02*
X113710500Y-88059500D01*
X113710500Y-88059500D02*
X114808000Y-86962000D01*
X113030000Y-82550000D02*
X113030000Y-85184000D01*
%TO.N,Net-(Q1-Pad3)*%
X101678500Y-86426000D02*
X104284500Y-83820000D01*
D24*
X100582853Y-87376000D02*
X101532853Y-86426000D01*
X92788500Y-87376000D02*
X100582853Y-87376000D01*
D23*
X108561500Y-83820000D02*
X108966000Y-84224500D01*
D24*
X101532853Y-86426000D02*
X101678500Y-86426000D01*
D23*
X104284500Y-83820000D02*
X108561500Y-83820000D01*
%TO.N,+5V*%
X99314000Y-86463500D02*
X103175750Y-82601750D01*
X103227500Y-82550000D02*
X108815500Y-82550000D01*
X108966000Y-86184500D02*
X109395500Y-86184500D01*
X110236000Y-83669500D02*
X108966000Y-82399500D01*
X110236000Y-85344000D02*
X110236000Y-83669500D01*
D24*
X103175750Y-82601750D02*
X103227500Y-82550000D01*
X108815500Y-82550000D02*
X108966000Y-82399500D01*
D23*
X97282000Y-82550000D02*
X99314000Y-82550000D01*
X109395500Y-86184500D02*
X110236000Y-85344000D01*
%TD*%
%TA.AperFunction,Conductor*%
%TO.N,GND*%
G36*
X110958750Y-80284502D02*
G01*
X111005243Y-80338158D01*
X111015347Y-80408432D01*
X110985853Y-80473012D01*
X110979724Y-80479595D01*
X110974724Y-80484595D01*
X110912412Y-80518621D01*
X110885629Y-80521500D01*
X109636890Y-80521500D01*
X109625689Y-80521001D01*
X109623999Y-80520850D01*
X109616834Y-80519360D01*
X109556174Y-80521001D01*
X109539428Y-80521454D01*
X109536021Y-80521500D01*
X102683070Y-80521500D01*
X102664120Y-80520067D01*
X102649885Y-80517901D01*
X102649881Y-80517901D01*
X102642651Y-80516801D01*
X102635359Y-80517394D01*
X102635356Y-80517394D01*
X102589982Y-80521085D01*
X102579767Y-80521500D01*
X102571707Y-80521500D01*
X102558417Y-80523049D01*
X102543493Y-80524789D01*
X102539118Y-80525222D01*
X102473661Y-80530546D01*
X102473658Y-80530547D01*
X102466363Y-80531140D01*
X102459399Y-80533396D01*
X102453440Y-80534587D01*
X102447585Y-80535971D01*
X102440319Y-80536818D01*
X102371673Y-80561735D01*
X102367545Y-80563152D01*
X102305064Y-80583393D01*
X102305062Y-80583394D01*
X102298101Y-80585649D01*
X102291846Y-80589445D01*
X102286372Y-80591951D01*
X102280942Y-80594670D01*
X102274063Y-80597167D01*
X102267943Y-80601180D01*
X102267942Y-80601180D01*
X102213024Y-80637186D01*
X102209320Y-80639523D01*
X102146893Y-80677405D01*
X102138516Y-80684803D01*
X102138492Y-80684776D01*
X102135500Y-80687429D01*
X102132267Y-80690132D01*
X102126148Y-80694144D01*
X102121116Y-80699456D01*
X102072872Y-80750383D01*
X102070494Y-80752825D01*
X100655700Y-82167619D01*
X100593388Y-82201645D01*
X100522573Y-82196580D01*
X100465737Y-82154033D01*
X100452410Y-82131774D01*
X100366912Y-81948423D01*
X100366910Y-81948420D01*
X100364589Y-81943442D01*
X100243301Y-81770224D01*
X100093776Y-81620699D01*
X99920558Y-81499411D01*
X99915580Y-81497090D01*
X99915577Y-81497088D01*
X99733892Y-81412367D01*
X99733891Y-81412366D01*
X99728910Y-81410044D01*
X99723602Y-81408622D01*
X99723600Y-81408621D01*
X99529970Y-81356738D01*
X99529968Y-81356738D01*
X99524655Y-81355314D01*
X99314000Y-81336884D01*
X99103345Y-81355314D01*
X99098032Y-81356738D01*
X99098030Y-81356738D01*
X98904400Y-81408621D01*
X98904398Y-81408622D01*
X98899090Y-81410044D01*
X98894109Y-81412366D01*
X98894108Y-81412367D01*
X98733274Y-81487365D01*
X98663082Y-81498026D01*
X98598269Y-81469046D01*
X98579198Y-81448735D01*
X98500643Y-81343920D01*
X98500642Y-81343919D01*
X98495261Y-81336739D01*
X98378705Y-81249385D01*
X98242316Y-81198255D01*
X98180134Y-81191500D01*
X96383866Y-81191500D01*
X96321684Y-81198255D01*
X96185295Y-81249385D01*
X96068739Y-81336739D01*
X95981385Y-81453295D01*
X95930255Y-81589684D01*
X95923500Y-81651866D01*
X95923500Y-83448134D01*
X95930255Y-83510316D01*
X95981385Y-83646705D01*
X96068739Y-83763261D01*
X96185295Y-83850615D01*
X96321684Y-83901745D01*
X96383866Y-83908500D01*
X98180134Y-83908500D01*
X98242316Y-83901745D01*
X98378705Y-83850615D01*
X98495261Y-83763261D01*
X98513096Y-83739464D01*
X98579198Y-83651265D01*
X98636058Y-83608750D01*
X98706876Y-83603725D01*
X98733274Y-83612635D01*
X98895774Y-83688410D01*
X98949059Y-83735327D01*
X98968520Y-83803605D01*
X98947978Y-83871565D01*
X98931619Y-83891700D01*
X97217724Y-85605595D01*
X97155412Y-85639621D01*
X97128629Y-85642500D01*
X96729268Y-85642500D01*
X96726022Y-85642837D01*
X96726018Y-85642837D01*
X96691917Y-85646375D01*
X96626981Y-85653113D01*
X96620440Y-85655295D01*
X96620441Y-85655295D01*
X96471676Y-85704927D01*
X96471674Y-85704928D01*
X96464732Y-85707244D01*
X96319287Y-85797248D01*
X96198448Y-85918298D01*
X96194608Y-85924528D01*
X96194607Y-85924529D01*
X96144524Y-86005779D01*
X96108698Y-86063899D01*
X96106442Y-86070702D01*
X96059565Y-86123940D01*
X95991288Y-86143401D01*
X95923328Y-86122859D01*
X95877262Y-86068836D01*
X95871291Y-86052557D01*
X95861895Y-86020214D01*
X95855648Y-86005779D01*
X95779089Y-85876322D01*
X95769449Y-85863896D01*
X95663104Y-85757551D01*
X95650678Y-85747911D01*
X95521221Y-85671352D01*
X95506790Y-85665107D01*
X95360935Y-85622731D01*
X95348333Y-85620430D01*
X95319916Y-85618193D01*
X95314986Y-85618000D01*
X94935615Y-85618000D01*
X94920376Y-85622475D01*
X94919171Y-85623865D01*
X94917500Y-85631548D01*
X94917500Y-86554000D01*
X94897498Y-86622121D01*
X94843842Y-86668614D01*
X94791500Y-86680000D01*
X93780842Y-86680000D01*
X93716703Y-86662453D01*
X93646427Y-86620892D01*
X93646428Y-86620892D01*
X93639601Y-86616855D01*
X93631990Y-86614644D01*
X93631988Y-86614643D01*
X93579769Y-86599472D01*
X93479831Y-86570438D01*
X93473426Y-86569934D01*
X93473421Y-86569933D01*
X93444958Y-86567693D01*
X93444950Y-86567693D01*
X93442502Y-86567500D01*
X92134498Y-86567500D01*
X92132050Y-86567693D01*
X92132042Y-86567693D01*
X92103579Y-86569933D01*
X92103574Y-86569934D01*
X92097169Y-86570438D01*
X91997231Y-86599472D01*
X91945012Y-86614643D01*
X91945010Y-86614644D01*
X91937399Y-86616855D01*
X91930572Y-86620892D01*
X91930573Y-86620892D01*
X91801020Y-86697509D01*
X91801017Y-86697511D01*
X91794193Y-86701547D01*
X91676547Y-86819193D01*
X91672511Y-86826017D01*
X91672509Y-86826020D01*
X91608893Y-86933589D01*
X91591855Y-86962399D01*
X91589644Y-86970010D01*
X91589643Y-86970012D01*
X91574472Y-87022231D01*
X91545438Y-87122169D01*
X91544934Y-87128574D01*
X91544933Y-87128579D01*
X91542693Y-87157042D01*
X91542500Y-87159498D01*
X91542500Y-87592502D01*
X91545438Y-87629831D01*
X91591855Y-87789601D01*
X91595892Y-87796427D01*
X91672509Y-87925980D01*
X91672511Y-87925983D01*
X91676547Y-87932807D01*
X91794193Y-88050453D01*
X91801017Y-88054489D01*
X91801020Y-88054491D01*
X91894032Y-88109498D01*
X91937399Y-88135145D01*
X91945010Y-88137356D01*
X91945012Y-88137357D01*
X91997231Y-88152528D01*
X92097169Y-88181562D01*
X92103574Y-88182066D01*
X92103579Y-88182067D01*
X92132042Y-88184307D01*
X92132050Y-88184307D01*
X92134498Y-88184500D01*
X93291500Y-88184500D01*
X93359621Y-88204502D01*
X93406114Y-88258158D01*
X93417500Y-88310500D01*
X93417500Y-88542502D01*
X93420438Y-88579831D01*
X93429387Y-88610634D01*
X93459273Y-88713502D01*
X93466855Y-88739601D01*
X93483893Y-88768411D01*
X93547509Y-88875980D01*
X93547511Y-88875983D01*
X93551547Y-88882807D01*
X93669193Y-89000453D01*
X93676017Y-89004489D01*
X93676020Y-89004491D01*
X93706562Y-89022553D01*
X93812399Y-89085145D01*
X93826655Y-89089287D01*
X93886489Y-89127500D01*
X93916166Y-89191996D01*
X93917500Y-89210283D01*
X93917500Y-90479032D01*
X93897498Y-90547153D01*
X93857804Y-90586175D01*
X93856258Y-90587132D01*
X93824787Y-90606607D01*
X93817287Y-90611248D01*
X93812114Y-90616430D01*
X93806380Y-90620975D01*
X93804858Y-90619055D01*
X93752794Y-90647545D01*
X93681974Y-90642544D01*
X93645448Y-90619118D01*
X93644628Y-90620157D01*
X93638882Y-90615619D01*
X93633702Y-90610448D01*
X93623754Y-90604316D01*
X93494331Y-90524538D01*
X93494329Y-90524537D01*
X93488101Y-90520698D01*
X93325757Y-90466851D01*
X93318920Y-90466151D01*
X93318918Y-90466150D01*
X93277599Y-90461917D01*
X93224732Y-90456500D01*
X92677268Y-90456500D01*
X92674022Y-90456837D01*
X92674018Y-90456837D01*
X92639917Y-90460375D01*
X92574981Y-90467113D01*
X92568440Y-90469295D01*
X92568441Y-90469295D01*
X92419676Y-90518927D01*
X92419674Y-90518928D01*
X92412732Y-90521244D01*
X92406508Y-90525096D01*
X92406507Y-90525096D01*
X92310839Y-90584297D01*
X92267287Y-90611248D01*
X92236046Y-90642544D01*
X92234075Y-90644518D01*
X92171793Y-90678597D01*
X92144902Y-90681500D01*
X91128701Y-90681500D01*
X91062585Y-90662760D01*
X91060538Y-90661498D01*
X90988383Y-90617021D01*
X90940891Y-90564250D01*
X90928500Y-90509762D01*
X90928500Y-86154605D01*
X93426061Y-86154605D01*
X93426101Y-86168706D01*
X93433370Y-86172000D01*
X94391385Y-86172000D01*
X94406624Y-86167525D01*
X94407829Y-86166135D01*
X94409500Y-86158452D01*
X94409500Y-85636116D01*
X94405025Y-85620877D01*
X94403635Y-85619672D01*
X94395952Y-85618001D01*
X94012017Y-85618001D01*
X94007080Y-85618195D01*
X93978664Y-85620430D01*
X93966069Y-85622730D01*
X93820210Y-85665107D01*
X93805779Y-85671352D01*
X93676322Y-85747911D01*
X93663896Y-85757551D01*
X93557551Y-85863896D01*
X93547911Y-85876322D01*
X93471352Y-86005779D01*
X93465107Y-86020210D01*
X93426061Y-86154605D01*
X90928500Y-86154605D01*
X90928500Y-84034500D01*
X90948502Y-83966379D01*
X91002158Y-83919886D01*
X91054500Y-83908500D01*
X91068134Y-83908500D01*
X91130316Y-83901745D01*
X91266705Y-83850615D01*
X91383261Y-83763261D01*
X91470615Y-83646705D01*
X91521745Y-83510316D01*
X91528500Y-83448134D01*
X91528500Y-83444669D01*
X92368001Y-83444669D01*
X92368371Y-83451490D01*
X92373895Y-83502352D01*
X92377521Y-83517604D01*
X92422676Y-83638054D01*
X92431214Y-83653649D01*
X92507715Y-83755724D01*
X92520276Y-83768285D01*
X92622351Y-83844786D01*
X92637946Y-83853324D01*
X92758394Y-83898478D01*
X92773649Y-83902105D01*
X92824514Y-83907631D01*
X92831328Y-83908000D01*
X93453885Y-83908000D01*
X93469124Y-83903525D01*
X93470329Y-83902135D01*
X93472000Y-83894452D01*
X93472000Y-83889884D01*
X93980000Y-83889884D01*
X93984475Y-83905123D01*
X93985865Y-83906328D01*
X93993548Y-83907999D01*
X94620669Y-83907999D01*
X94627490Y-83907629D01*
X94678352Y-83902105D01*
X94693604Y-83898479D01*
X94814054Y-83853324D01*
X94829649Y-83844786D01*
X94931724Y-83768285D01*
X94944285Y-83755724D01*
X95020786Y-83653649D01*
X95029324Y-83638054D01*
X95074478Y-83517606D01*
X95078105Y-83502351D01*
X95083631Y-83451486D01*
X95084000Y-83444672D01*
X95084000Y-82822115D01*
X95079525Y-82806876D01*
X95078135Y-82805671D01*
X95070452Y-82804000D01*
X93998115Y-82804000D01*
X93982876Y-82808475D01*
X93981671Y-82809865D01*
X93980000Y-82817548D01*
X93980000Y-83889884D01*
X93472000Y-83889884D01*
X93472000Y-82822115D01*
X93467525Y-82806876D01*
X93466135Y-82805671D01*
X93458452Y-82804000D01*
X92386116Y-82804000D01*
X92370877Y-82808475D01*
X92369672Y-82809865D01*
X92368001Y-82817548D01*
X92368001Y-83444669D01*
X91528500Y-83444669D01*
X91528500Y-82277885D01*
X92368000Y-82277885D01*
X92372475Y-82293124D01*
X92373865Y-82294329D01*
X92381548Y-82296000D01*
X93453885Y-82296000D01*
X93469124Y-82291525D01*
X93470329Y-82290135D01*
X93472000Y-82282452D01*
X93472000Y-82277885D01*
X93980000Y-82277885D01*
X93984475Y-82293124D01*
X93985865Y-82294329D01*
X93993548Y-82296000D01*
X95065884Y-82296000D01*
X95081123Y-82291525D01*
X95082328Y-82290135D01*
X95083999Y-82282452D01*
X95083999Y-81655331D01*
X95083629Y-81648510D01*
X95078105Y-81597648D01*
X95074479Y-81582396D01*
X95029324Y-81461946D01*
X95020786Y-81446351D01*
X94944285Y-81344276D01*
X94931724Y-81331715D01*
X94829649Y-81255214D01*
X94814054Y-81246676D01*
X94693606Y-81201522D01*
X94678351Y-81197895D01*
X94627486Y-81192369D01*
X94620672Y-81192000D01*
X93998115Y-81192000D01*
X93982876Y-81196475D01*
X93981671Y-81197865D01*
X93980000Y-81205548D01*
X93980000Y-82277885D01*
X93472000Y-82277885D01*
X93472000Y-81210116D01*
X93467525Y-81194877D01*
X93466135Y-81193672D01*
X93458452Y-81192001D01*
X92831331Y-81192001D01*
X92824510Y-81192371D01*
X92773648Y-81197895D01*
X92758396Y-81201521D01*
X92637946Y-81246676D01*
X92622351Y-81255214D01*
X92520276Y-81331715D01*
X92507715Y-81344276D01*
X92431214Y-81446351D01*
X92422676Y-81461946D01*
X92377522Y-81582394D01*
X92373895Y-81597649D01*
X92368369Y-81648514D01*
X92368000Y-81655328D01*
X92368000Y-82277885D01*
X91528500Y-82277885D01*
X91528500Y-81651866D01*
X91521745Y-81589684D01*
X91470615Y-81453295D01*
X91383261Y-81336739D01*
X91266705Y-81249385D01*
X91130316Y-81198255D01*
X91068134Y-81191500D01*
X89271866Y-81191500D01*
X89209684Y-81198255D01*
X89073295Y-81249385D01*
X88956739Y-81336739D01*
X88869385Y-81453295D01*
X88818255Y-81589684D01*
X88811500Y-81651866D01*
X88811500Y-83448134D01*
X88818255Y-83510316D01*
X88869385Y-83646705D01*
X88956739Y-83763261D01*
X89073295Y-83850615D01*
X89209684Y-83901745D01*
X89271866Y-83908500D01*
X89285500Y-83908500D01*
X89353621Y-83928502D01*
X89400114Y-83982158D01*
X89411500Y-84034500D01*
X89411500Y-90509689D01*
X89391498Y-90577810D01*
X89351804Y-90616833D01*
X89245652Y-90682522D01*
X89120695Y-90807697D01*
X89027885Y-90958262D01*
X88972203Y-91126139D01*
X88961500Y-91230600D01*
X88961500Y-91856400D01*
X88972474Y-91962166D01*
X89028450Y-92129946D01*
X89121522Y-92280348D01*
X89126704Y-92285521D01*
X89208463Y-92367138D01*
X89242542Y-92429421D01*
X89237539Y-92500241D01*
X89208618Y-92545329D01*
X89126261Y-92627829D01*
X89117249Y-92639240D01*
X89032184Y-92777243D01*
X89026037Y-92790424D01*
X88974862Y-92944710D01*
X88971995Y-92958086D01*
X88962328Y-93052438D01*
X88962000Y-93058855D01*
X88962000Y-93096385D01*
X88966475Y-93111624D01*
X88967865Y-93112829D01*
X88975548Y-93114500D01*
X91359884Y-93114500D01*
X91375123Y-93110025D01*
X91376328Y-93108635D01*
X91377999Y-93100952D01*
X91377999Y-93058905D01*
X91377662Y-93052386D01*
X91367743Y-92956794D01*
X91364851Y-92943400D01*
X91313412Y-92789216D01*
X91307239Y-92776038D01*
X91221937Y-92638193D01*
X91212901Y-92626792D01*
X91131538Y-92545570D01*
X91097459Y-92483287D01*
X91102462Y-92412467D01*
X91131383Y-92367380D01*
X91214130Y-92284488D01*
X91214134Y-92284483D01*
X91219305Y-92279303D01*
X91225809Y-92268752D01*
X91232201Y-92258383D01*
X91284974Y-92210890D01*
X91339460Y-92198500D01*
X92144995Y-92198500D01*
X92213116Y-92218502D01*
X92234012Y-92235327D01*
X92263113Y-92264377D01*
X92263118Y-92264381D01*
X92268298Y-92269552D01*
X92274528Y-92273392D01*
X92274529Y-92273393D01*
X92407415Y-92355305D01*
X92413899Y-92359302D01*
X92576243Y-92413149D01*
X92583080Y-92413849D01*
X92583082Y-92413850D01*
X92624401Y-92418083D01*
X92677268Y-92423500D01*
X93224732Y-92423500D01*
X93227978Y-92423163D01*
X93227982Y-92423163D01*
X93262083Y-92419625D01*
X93327019Y-92412887D01*
X93390029Y-92391865D01*
X93482324Y-92361073D01*
X93482326Y-92361072D01*
X93489268Y-92358756D01*
X93581822Y-92301482D01*
X93628487Y-92272605D01*
X93628488Y-92272604D01*
X93634713Y-92268752D01*
X93639886Y-92263570D01*
X93645620Y-92259025D01*
X93647142Y-92260945D01*
X93699206Y-92232455D01*
X93770026Y-92237456D01*
X93806552Y-92260882D01*
X93807372Y-92259843D01*
X93813118Y-92264381D01*
X93818298Y-92269552D01*
X93824528Y-92273392D01*
X93824529Y-92273393D01*
X93957415Y-92355305D01*
X93963899Y-92359302D01*
X94126243Y-92413149D01*
X94133080Y-92413849D01*
X94133082Y-92413850D01*
X94174401Y-92418083D01*
X94227268Y-92423500D01*
X94774732Y-92423500D01*
X94777978Y-92423163D01*
X94777982Y-92423163D01*
X94812083Y-92419625D01*
X94877019Y-92412887D01*
X94940029Y-92391865D01*
X95032324Y-92361073D01*
X95032326Y-92361072D01*
X95039268Y-92358756D01*
X95184713Y-92268752D01*
X95217925Y-92235482D01*
X95280207Y-92201403D01*
X95307098Y-92198500D01*
X95843689Y-92198500D01*
X95911810Y-92218502D01*
X95950833Y-92258196D01*
X96016522Y-92364348D01*
X96141697Y-92489305D01*
X96147927Y-92493145D01*
X96147928Y-92493146D01*
X96285090Y-92577694D01*
X96292262Y-92582115D01*
X96372005Y-92608564D01*
X96453611Y-92635632D01*
X96453613Y-92635632D01*
X96460139Y-92637797D01*
X96466975Y-92638497D01*
X96466978Y-92638498D01*
X96510031Y-92642909D01*
X96564600Y-92648500D01*
X97190400Y-92648500D01*
X97193646Y-92648163D01*
X97193650Y-92648163D01*
X97289308Y-92638238D01*
X97289312Y-92638237D01*
X97296166Y-92637526D01*
X97302702Y-92635345D01*
X97302704Y-92635345D01*
X97434806Y-92591272D01*
X97463946Y-92581550D01*
X97614348Y-92488478D01*
X97700784Y-92401891D01*
X97763066Y-92367812D01*
X97833886Y-92372815D01*
X97878975Y-92401736D01*
X97917983Y-92440676D01*
X97966697Y-92489305D01*
X97972927Y-92493145D01*
X97972928Y-92493146D01*
X98110090Y-92577694D01*
X98117262Y-92582115D01*
X98197005Y-92608564D01*
X98278611Y-92635632D01*
X98278613Y-92635632D01*
X98285139Y-92637797D01*
X98291975Y-92638497D01*
X98291978Y-92638498D01*
X98335031Y-92642909D01*
X98389600Y-92648500D01*
X99015400Y-92648500D01*
X99018646Y-92648163D01*
X99018650Y-92648163D01*
X99114308Y-92638238D01*
X99114312Y-92638237D01*
X99121166Y-92637526D01*
X99127702Y-92635345D01*
X99127704Y-92635345D01*
X99259806Y-92591272D01*
X99288946Y-92581550D01*
X99439348Y-92488478D01*
X99564305Y-92363303D01*
X99628979Y-92258383D01*
X99681750Y-92210891D01*
X99736238Y-92198500D01*
X100696492Y-92198500D01*
X100764613Y-92218502D01*
X100785508Y-92235326D01*
X100905697Y-92355305D01*
X100910235Y-92358102D01*
X100950824Y-92415353D01*
X100954054Y-92486276D01*
X100918428Y-92547687D01*
X100909932Y-92555062D01*
X100899793Y-92563098D01*
X100785261Y-92677829D01*
X100776249Y-92689240D01*
X100691184Y-92827243D01*
X100685037Y-92840424D01*
X100633862Y-92994710D01*
X100630995Y-93008086D01*
X100621328Y-93102438D01*
X100621000Y-93108855D01*
X100621000Y-93133885D01*
X100625475Y-93149124D01*
X100626865Y-93150329D01*
X100634548Y-93152000D01*
X103068884Y-93152000D01*
X103084123Y-93147525D01*
X103085328Y-93146135D01*
X103086999Y-93138452D01*
X103086999Y-93108905D01*
X103086662Y-93102386D01*
X103076743Y-93006794D01*
X103073851Y-92993400D01*
X103022412Y-92839216D01*
X103016239Y-92826038D01*
X102930937Y-92688193D01*
X102921901Y-92676792D01*
X102807172Y-92562262D01*
X102798238Y-92555206D01*
X102757177Y-92497288D01*
X102753947Y-92426365D01*
X102789574Y-92364954D01*
X102797407Y-92358154D01*
X102803348Y-92354478D01*
X102856252Y-92301482D01*
X102918535Y-92267403D01*
X102945425Y-92264500D01*
X104547520Y-92264500D01*
X104615641Y-92284502D01*
X104636538Y-92301327D01*
X104702463Y-92367138D01*
X104736542Y-92429421D01*
X104731539Y-92500241D01*
X104702618Y-92545329D01*
X104620261Y-92627829D01*
X104611249Y-92639240D01*
X104526184Y-92777243D01*
X104520037Y-92790424D01*
X104468862Y-92944710D01*
X104465995Y-92958086D01*
X104456328Y-93052438D01*
X104456000Y-93058855D01*
X104456000Y-93096385D01*
X104460475Y-93111624D01*
X104461865Y-93112829D01*
X104469548Y-93114500D01*
X106853884Y-93114500D01*
X106869123Y-93110025D01*
X106870328Y-93108635D01*
X106871999Y-93100952D01*
X106871999Y-93071885D01*
X108112000Y-93071885D01*
X108116475Y-93087124D01*
X108117865Y-93088329D01*
X108125548Y-93090000D01*
X108947885Y-93090000D01*
X108963124Y-93085525D01*
X108964329Y-93084135D01*
X108966000Y-93076452D01*
X108966000Y-93071885D01*
X109474000Y-93071885D01*
X109478475Y-93087124D01*
X109479865Y-93088329D01*
X109487548Y-93090000D01*
X110309884Y-93090000D01*
X110325123Y-93085525D01*
X110326328Y-93084135D01*
X110327999Y-93076452D01*
X110327999Y-92849331D01*
X110327629Y-92842510D01*
X110322105Y-92791648D01*
X110318479Y-92776396D01*
X110273324Y-92655946D01*
X110264786Y-92640351D01*
X110188285Y-92538276D01*
X110175724Y-92525715D01*
X110073649Y-92449214D01*
X110058054Y-92440676D01*
X109937606Y-92395522D01*
X109922351Y-92391895D01*
X109871486Y-92386369D01*
X109864672Y-92386000D01*
X109492115Y-92386000D01*
X109476876Y-92390475D01*
X109475671Y-92391865D01*
X109474000Y-92399548D01*
X109474000Y-93071885D01*
X108966000Y-93071885D01*
X108966000Y-92404116D01*
X108961525Y-92388877D01*
X108960135Y-92387672D01*
X108952452Y-92386001D01*
X108575331Y-92386001D01*
X108568510Y-92386371D01*
X108517648Y-92391895D01*
X108502396Y-92395521D01*
X108381946Y-92440676D01*
X108366351Y-92449214D01*
X108264276Y-92525715D01*
X108251715Y-92538276D01*
X108175214Y-92640351D01*
X108166676Y-92655946D01*
X108121522Y-92776394D01*
X108117895Y-92791649D01*
X108112369Y-92842514D01*
X108112000Y-92849328D01*
X108112000Y-93071885D01*
X106871999Y-93071885D01*
X106871999Y-93058905D01*
X106871662Y-93052386D01*
X106861743Y-92956794D01*
X106858851Y-92943400D01*
X106807412Y-92789216D01*
X106801239Y-92776038D01*
X106715937Y-92638193D01*
X106706901Y-92626792D01*
X106625538Y-92545570D01*
X106591459Y-92483287D01*
X106596462Y-92412467D01*
X106625383Y-92367380D01*
X106708130Y-92284488D01*
X106708134Y-92284483D01*
X106713305Y-92279303D01*
X106724660Y-92260882D01*
X106802275Y-92134968D01*
X106802276Y-92134966D01*
X106806115Y-92128738D01*
X106819002Y-92089885D01*
X113500000Y-92089885D01*
X113504475Y-92105124D01*
X113505865Y-92106329D01*
X113513548Y-92108000D01*
X114535885Y-92108000D01*
X114551124Y-92103525D01*
X114552329Y-92102135D01*
X114554000Y-92094452D01*
X114554000Y-92089885D01*
X115062000Y-92089885D01*
X115066475Y-92105124D01*
X115067865Y-92106329D01*
X115075548Y-92108000D01*
X116097884Y-92108000D01*
X116113123Y-92103525D01*
X116114328Y-92102135D01*
X116115999Y-92094452D01*
X116115999Y-90814905D01*
X116115662Y-90808386D01*
X116105743Y-90712794D01*
X116102851Y-90699400D01*
X116051412Y-90545216D01*
X116045239Y-90532038D01*
X115959937Y-90394193D01*
X115950901Y-90382792D01*
X115836171Y-90268261D01*
X115824760Y-90259249D01*
X115686757Y-90174184D01*
X115673576Y-90168037D01*
X115519290Y-90116862D01*
X115505914Y-90113995D01*
X115411562Y-90104328D01*
X115405145Y-90104000D01*
X115080115Y-90104000D01*
X115064876Y-90108475D01*
X115063671Y-90109865D01*
X115062000Y-90117548D01*
X115062000Y-92089885D01*
X114554000Y-92089885D01*
X114554000Y-90122116D01*
X114549525Y-90106877D01*
X114548135Y-90105672D01*
X114540452Y-90104001D01*
X114210905Y-90104001D01*
X114204386Y-90104338D01*
X114108794Y-90114257D01*
X114095400Y-90117149D01*
X113941216Y-90168588D01*
X113928038Y-90174761D01*
X113790193Y-90260063D01*
X113778792Y-90269099D01*
X113664261Y-90383829D01*
X113655249Y-90395240D01*
X113570184Y-90533243D01*
X113564037Y-90546424D01*
X113512862Y-90700710D01*
X113509995Y-90714086D01*
X113500328Y-90808438D01*
X113500000Y-90814855D01*
X113500000Y-92089885D01*
X106819002Y-92089885D01*
X106861797Y-91960861D01*
X106872500Y-91856400D01*
X106872500Y-91230600D01*
X106861526Y-91124834D01*
X106805550Y-90957054D01*
X106712478Y-90806652D01*
X106587303Y-90681695D01*
X106566885Y-90669109D01*
X106442968Y-90592725D01*
X106442966Y-90592724D01*
X106436738Y-90588885D01*
X106336085Y-90555500D01*
X106275389Y-90535368D01*
X106275387Y-90535368D01*
X106268861Y-90533203D01*
X106262025Y-90532503D01*
X106262022Y-90532502D01*
X106218969Y-90528091D01*
X106164400Y-90522500D01*
X105163600Y-90522500D01*
X105160354Y-90522837D01*
X105160350Y-90522837D01*
X105064692Y-90532762D01*
X105064688Y-90532763D01*
X105057834Y-90533474D01*
X105051298Y-90535655D01*
X105051296Y-90535655D01*
X104924943Y-90577810D01*
X104890054Y-90589450D01*
X104739652Y-90682522D01*
X104734479Y-90687704D01*
X104734474Y-90687708D01*
X104711705Y-90710517D01*
X104649423Y-90744597D01*
X104622532Y-90747500D01*
X102945393Y-90747500D01*
X102877272Y-90727498D01*
X102856375Y-90710673D01*
X102807483Y-90661866D01*
X102802303Y-90656695D01*
X102787459Y-90647545D01*
X102657968Y-90567725D01*
X102657966Y-90567724D01*
X102651738Y-90563885D01*
X102555722Y-90532038D01*
X102523333Y-90521295D01*
X102464973Y-90480864D01*
X102437736Y-90415300D01*
X102437000Y-90401702D01*
X102437000Y-89206652D01*
X102457002Y-89138531D01*
X102510658Y-89092038D01*
X102514721Y-89090529D01*
X102514711Y-89090506D01*
X102521988Y-89087357D01*
X102529601Y-89085145D01*
X102593076Y-89047606D01*
X102665980Y-89004491D01*
X102665983Y-89004489D01*
X102672807Y-89000453D01*
X102790453Y-88882807D01*
X102794489Y-88875983D01*
X102794491Y-88875980D01*
X102858107Y-88768411D01*
X102875145Y-88739601D01*
X102882728Y-88713502D01*
X102912613Y-88610634D01*
X102921562Y-88579831D01*
X102924500Y-88542502D01*
X102924500Y-88389500D01*
X102944502Y-88321379D01*
X102998158Y-88274886D01*
X103050500Y-88263500D01*
X103220733Y-88263500D01*
X103231916Y-88264027D01*
X103239409Y-88265702D01*
X103247335Y-88265453D01*
X103247336Y-88265453D01*
X103307486Y-88263562D01*
X103311445Y-88263500D01*
X103339356Y-88263500D01*
X103343291Y-88263003D01*
X103343356Y-88262995D01*
X103355193Y-88262062D01*
X103387451Y-88261048D01*
X103391470Y-88260922D01*
X103399389Y-88260673D01*
X103418843Y-88255021D01*
X103438200Y-88251013D01*
X103450430Y-88249468D01*
X103450431Y-88249468D01*
X103458297Y-88248474D01*
X103465668Y-88245555D01*
X103465670Y-88245555D01*
X103499412Y-88232196D01*
X103510642Y-88228351D01*
X103545483Y-88218229D01*
X103545484Y-88218229D01*
X103553093Y-88216018D01*
X103559912Y-88211985D01*
X103559917Y-88211983D01*
X103570528Y-88205707D01*
X103588276Y-88197012D01*
X103597534Y-88193346D01*
X103643911Y-88184500D01*
X104207502Y-88184500D01*
X104209950Y-88184307D01*
X104209958Y-88184307D01*
X104238421Y-88182067D01*
X104238426Y-88182066D01*
X104244831Y-88181562D01*
X104344769Y-88152528D01*
X104396988Y-88137357D01*
X104396990Y-88137356D01*
X104404601Y-88135145D01*
X104447968Y-88109498D01*
X104540980Y-88054491D01*
X104540983Y-88054489D01*
X104547807Y-88050453D01*
X104665453Y-87932807D01*
X104669489Y-87925983D01*
X104669491Y-87925980D01*
X104746108Y-87796427D01*
X104750145Y-87789601D01*
X104796562Y-87629831D01*
X104799500Y-87592502D01*
X104799500Y-87159498D01*
X104799307Y-87157042D01*
X104797067Y-87128579D01*
X104797066Y-87128574D01*
X104796562Y-87122169D01*
X104767528Y-87022231D01*
X104752357Y-86970012D01*
X104752356Y-86970010D01*
X104750145Y-86962399D01*
X104733107Y-86933589D01*
X104669491Y-86826020D01*
X104669489Y-86826017D01*
X104665453Y-86819193D01*
X104547807Y-86701547D01*
X104540983Y-86697511D01*
X104540980Y-86697509D01*
X104411427Y-86620892D01*
X104411428Y-86620892D01*
X104404601Y-86616855D01*
X104396990Y-86614644D01*
X104396988Y-86614643D01*
X104344769Y-86599472D01*
X104244831Y-86570438D01*
X104238426Y-86569934D01*
X104238421Y-86569933D01*
X104209958Y-86567693D01*
X104209950Y-86567693D01*
X104207502Y-86567500D01*
X103050500Y-86567500D01*
X102982379Y-86547498D01*
X102935886Y-86493842D01*
X102924500Y-86441500D01*
X102924500Y-86304871D01*
X102944502Y-86236750D01*
X102961405Y-86215776D01*
X104561776Y-84615405D01*
X104624088Y-84581379D01*
X104650871Y-84578500D01*
X107656109Y-84578500D01*
X107724230Y-84598502D01*
X107770723Y-84652158D01*
X107775633Y-84664624D01*
X107824450Y-84810946D01*
X107917522Y-84961348D01*
X108042697Y-85086305D01*
X108048927Y-85090145D01*
X108048928Y-85090146D01*
X108164779Y-85161558D01*
X108212273Y-85214331D01*
X108223696Y-85284402D01*
X108212055Y-85318440D01*
X108214039Y-85319299D01*
X108210890Y-85326577D01*
X108206855Y-85333399D01*
X108160438Y-85493169D01*
X108159934Y-85499574D01*
X108159933Y-85499579D01*
X108157859Y-85525937D01*
X108157500Y-85530498D01*
X108157500Y-86687500D01*
X108137498Y-86755621D01*
X108083842Y-86802114D01*
X108031500Y-86813500D01*
X107799498Y-86813500D01*
X107797050Y-86813693D01*
X107797042Y-86813693D01*
X107768579Y-86815933D01*
X107768574Y-86815934D01*
X107762169Y-86816438D01*
X107662231Y-86845472D01*
X107610012Y-86860643D01*
X107610010Y-86860644D01*
X107602399Y-86862855D01*
X107595572Y-86866892D01*
X107595573Y-86866892D01*
X107466020Y-86943509D01*
X107466017Y-86943511D01*
X107459193Y-86947547D01*
X107341547Y-87065193D01*
X107337511Y-87072017D01*
X107337509Y-87072020D01*
X107287212Y-87157068D01*
X107256855Y-87208399D01*
X107254644Y-87216010D01*
X107254643Y-87216012D01*
X107249207Y-87234724D01*
X107210438Y-87368169D01*
X107207500Y-87405498D01*
X107207500Y-88713502D01*
X107207693Y-88715950D01*
X107207693Y-88715958D01*
X107208955Y-88731987D01*
X107210438Y-88750831D01*
X107246797Y-88875980D01*
X107256855Y-88910601D01*
X107255954Y-88910863D01*
X107263040Y-88939229D01*
X107266376Y-88980240D01*
X107267140Y-88989637D01*
X107269396Y-88996601D01*
X107270587Y-89002560D01*
X107271971Y-89008415D01*
X107272818Y-89015681D01*
X107297735Y-89084327D01*
X107299152Y-89088455D01*
X107315375Y-89138531D01*
X107321649Y-89157899D01*
X107325445Y-89164154D01*
X107327951Y-89169628D01*
X107330670Y-89175058D01*
X107333167Y-89181937D01*
X107337180Y-89188057D01*
X107337180Y-89188058D01*
X107373186Y-89242976D01*
X107375523Y-89246680D01*
X107413405Y-89309107D01*
X107417121Y-89313315D01*
X107417122Y-89313316D01*
X107420803Y-89317484D01*
X107420776Y-89317508D01*
X107423429Y-89320500D01*
X107426132Y-89323733D01*
X107430144Y-89329852D01*
X107435456Y-89334884D01*
X107486383Y-89383128D01*
X107488825Y-89385506D01*
X108074595Y-89971276D01*
X108108621Y-90033588D01*
X108111500Y-90060371D01*
X108111500Y-90542134D01*
X108118255Y-90604316D01*
X108169385Y-90740705D01*
X108256739Y-90857261D01*
X108373295Y-90944615D01*
X108509684Y-90995745D01*
X108571866Y-91002500D01*
X109868134Y-91002500D01*
X109930316Y-90995745D01*
X110066705Y-90944615D01*
X110183261Y-90857261D01*
X110270615Y-90740705D01*
X110321745Y-90604316D01*
X110328500Y-90542134D01*
X110328500Y-89545866D01*
X110321745Y-89483684D01*
X110318973Y-89476288D01*
X110318971Y-89476282D01*
X110290430Y-89400150D01*
X110285247Y-89329343D01*
X110319168Y-89266974D01*
X110344273Y-89247468D01*
X110465980Y-89175491D01*
X110465983Y-89175489D01*
X110472807Y-89171453D01*
X110590453Y-89053807D01*
X110594489Y-89046983D01*
X110594491Y-89046980D01*
X110664889Y-88927943D01*
X110675145Y-88910601D01*
X110677357Y-88902988D01*
X110680506Y-88895711D01*
X110683274Y-88896909D01*
X110713889Y-88848993D01*
X110778391Y-88819330D01*
X110796652Y-88818000D01*
X113516084Y-88818000D01*
X113584205Y-88838002D01*
X113623225Y-88877693D01*
X113659522Y-88936348D01*
X113664704Y-88941521D01*
X113682607Y-88959393D01*
X113784697Y-89061305D01*
X113790927Y-89065145D01*
X113790928Y-89065146D01*
X113928090Y-89149694D01*
X113935262Y-89154115D01*
X113982033Y-89169628D01*
X114096611Y-89207632D01*
X114096613Y-89207632D01*
X114103139Y-89209797D01*
X114109975Y-89210497D01*
X114109978Y-89210498D01*
X114153031Y-89214909D01*
X114207600Y-89220500D01*
X115408400Y-89220500D01*
X115411646Y-89220163D01*
X115411650Y-89220163D01*
X115507308Y-89210238D01*
X115507312Y-89210237D01*
X115514166Y-89209526D01*
X115520702Y-89207345D01*
X115520704Y-89207345D01*
X115668910Y-89157899D01*
X115681946Y-89153550D01*
X115832348Y-89060478D01*
X115845823Y-89046980D01*
X115952134Y-88940483D01*
X115957305Y-88935303D01*
X115992814Y-88877697D01*
X116046275Y-88790968D01*
X116046276Y-88790966D01*
X116050115Y-88784738D01*
X116105797Y-88616861D01*
X116116500Y-88512400D01*
X116116500Y-85411600D01*
X116107654Y-85326339D01*
X116106238Y-85312692D01*
X116106237Y-85312688D01*
X116105526Y-85305834D01*
X116049550Y-85138054D01*
X115956478Y-84987652D01*
X115831303Y-84862695D01*
X115747351Y-84810946D01*
X115686968Y-84773725D01*
X115686966Y-84773724D01*
X115680738Y-84769885D01*
X115520254Y-84716655D01*
X115519389Y-84716368D01*
X115519387Y-84716368D01*
X115512861Y-84714203D01*
X115506025Y-84713503D01*
X115506022Y-84713502D01*
X115462969Y-84709091D01*
X115408400Y-84703500D01*
X114207600Y-84703500D01*
X114204354Y-84703837D01*
X114204350Y-84703837D01*
X114108692Y-84713762D01*
X114108688Y-84713763D01*
X114101834Y-84714474D01*
X114095298Y-84716655D01*
X114095296Y-84716655D01*
X113954376Y-84763670D01*
X113883427Y-84766254D01*
X113822343Y-84730071D01*
X113790518Y-84666606D01*
X113788500Y-84644146D01*
X113788500Y-84034500D01*
X113808502Y-83966379D01*
X113862158Y-83919886D01*
X113914500Y-83908500D01*
X113928134Y-83908500D01*
X113990316Y-83901745D01*
X114126705Y-83850615D01*
X114243261Y-83763261D01*
X114330615Y-83646705D01*
X114381745Y-83510316D01*
X114388500Y-83448134D01*
X114388500Y-81656500D01*
X114408502Y-81588379D01*
X114462158Y-81541886D01*
X114514500Y-81530500D01*
X114695629Y-81530500D01*
X114763750Y-81550502D01*
X114784724Y-81567405D01*
X115190595Y-81973276D01*
X115224621Y-82035588D01*
X115227500Y-82062371D01*
X115227500Y-83448134D01*
X115234255Y-83510316D01*
X115285385Y-83646705D01*
X115372739Y-83763261D01*
X115489295Y-83850615D01*
X115625684Y-83901745D01*
X115687866Y-83908500D01*
X117484134Y-83908500D01*
X117546316Y-83901745D01*
X117682705Y-83850615D01*
X117799261Y-83763261D01*
X117886615Y-83646705D01*
X117937745Y-83510316D01*
X117944500Y-83448134D01*
X117944500Y-81651866D01*
X117937745Y-81589684D01*
X117886615Y-81453295D01*
X117799261Y-81336739D01*
X117682705Y-81249385D01*
X117546316Y-81198255D01*
X117484134Y-81191500D01*
X116606371Y-81191500D01*
X116538250Y-81171498D01*
X116517276Y-81154595D01*
X115842276Y-80479595D01*
X115808250Y-80417283D01*
X115813315Y-80346468D01*
X115855862Y-80289632D01*
X115922382Y-80264821D01*
X115931371Y-80264500D01*
X118237500Y-80264500D01*
X118305621Y-80284502D01*
X118352114Y-80338158D01*
X118363500Y-80390500D01*
X118363500Y-94107500D01*
X118343498Y-94175621D01*
X118289842Y-94222114D01*
X118237500Y-94233500D01*
X116207957Y-94233500D01*
X116139836Y-94213498D01*
X116093343Y-94159842D01*
X116083239Y-94089568D01*
X116088364Y-94067833D01*
X116103137Y-94023293D01*
X116106005Y-94009914D01*
X116115672Y-93915562D01*
X116116000Y-93909146D01*
X116116000Y-92634115D01*
X116111525Y-92618876D01*
X116110135Y-92617671D01*
X116102452Y-92616000D01*
X113518116Y-92616000D01*
X113502877Y-92620475D01*
X113501672Y-92621865D01*
X113500001Y-92629548D01*
X113500001Y-93909095D01*
X113500338Y-93915614D01*
X113510257Y-94011206D01*
X113513150Y-94024605D01*
X113527502Y-94067623D01*
X113530087Y-94138573D01*
X113493904Y-94199657D01*
X113430440Y-94231482D01*
X113407979Y-94233500D01*
X110375667Y-94233500D01*
X110307546Y-94213498D01*
X110261053Y-94159842D01*
X110250949Y-94089568D01*
X110265147Y-94046992D01*
X110273321Y-94032061D01*
X110318478Y-93911606D01*
X110322105Y-93896351D01*
X110327631Y-93845486D01*
X110328000Y-93838672D01*
X110328000Y-93616115D01*
X110323525Y-93600876D01*
X110322135Y-93599671D01*
X110314452Y-93598000D01*
X108130116Y-93598000D01*
X108114877Y-93602475D01*
X108113672Y-93603865D01*
X108112001Y-93611548D01*
X108112001Y-93838669D01*
X108112371Y-93845490D01*
X108117895Y-93896352D01*
X108121521Y-93911604D01*
X108166679Y-94032061D01*
X108174853Y-94046992D01*
X108190022Y-94116349D01*
X108165285Y-94182897D01*
X108108497Y-94225507D01*
X108064333Y-94233500D01*
X106858761Y-94233500D01*
X106790640Y-94213498D01*
X106744147Y-94159842D01*
X106734043Y-94089568D01*
X106751501Y-94041384D01*
X106801816Y-93959757D01*
X106807963Y-93946576D01*
X106859138Y-93792290D01*
X106862005Y-93778914D01*
X106871672Y-93684562D01*
X106872000Y-93678146D01*
X106872000Y-93640615D01*
X106867525Y-93625376D01*
X106866135Y-93624171D01*
X106858452Y-93622500D01*
X104474116Y-93622500D01*
X104458877Y-93626975D01*
X104457672Y-93628365D01*
X104456001Y-93636048D01*
X104456001Y-93678095D01*
X104456338Y-93684614D01*
X104466257Y-93780206D01*
X104469149Y-93793600D01*
X104520588Y-93947784D01*
X104526759Y-93960958D01*
X104576413Y-94041196D01*
X104595251Y-94109648D01*
X104574090Y-94177418D01*
X104519650Y-94222989D01*
X104469269Y-94233500D01*
X103089171Y-94233500D01*
X103021050Y-94213498D01*
X102974557Y-94159842D01*
X102964453Y-94089568D01*
X102981911Y-94041384D01*
X103016816Y-93984757D01*
X103022963Y-93971576D01*
X103074138Y-93817290D01*
X103077005Y-93803914D01*
X103086672Y-93709562D01*
X103087000Y-93703146D01*
X103087000Y-93678115D01*
X103082525Y-93662876D01*
X103081135Y-93661671D01*
X103073452Y-93660000D01*
X100639116Y-93660000D01*
X100623877Y-93664475D01*
X100622672Y-93665865D01*
X100621001Y-93673548D01*
X100621001Y-93703095D01*
X100621338Y-93709614D01*
X100631257Y-93805206D01*
X100634149Y-93818600D01*
X100685588Y-93972784D01*
X100691761Y-93985962D01*
X100725942Y-94041197D01*
X100744780Y-94109649D01*
X100723619Y-94177418D01*
X100669178Y-94222990D01*
X100618798Y-94233500D01*
X91364761Y-94233500D01*
X91296640Y-94213498D01*
X91250147Y-94159842D01*
X91240043Y-94089568D01*
X91257501Y-94041384D01*
X91307816Y-93959757D01*
X91313963Y-93946576D01*
X91365138Y-93792290D01*
X91368005Y-93778914D01*
X91377672Y-93684562D01*
X91378000Y-93678146D01*
X91378000Y-93640615D01*
X91373525Y-93625376D01*
X91372135Y-93624171D01*
X91364452Y-93622500D01*
X88980116Y-93622500D01*
X88964877Y-93626975D01*
X88963672Y-93628365D01*
X88962001Y-93636048D01*
X88962001Y-93678095D01*
X88962338Y-93684614D01*
X88972257Y-93780206D01*
X88975149Y-93793600D01*
X89026588Y-93947784D01*
X89032759Y-93960958D01*
X89082413Y-94041196D01*
X89101251Y-94109648D01*
X89080090Y-94177418D01*
X89025650Y-94222989D01*
X88975269Y-94233500D01*
X88518500Y-94233500D01*
X88450379Y-94213498D01*
X88403886Y-94159842D01*
X88392500Y-94107500D01*
X88392500Y-80390500D01*
X88412502Y-80322379D01*
X88466158Y-80275886D01*
X88518500Y-80264500D01*
X110890629Y-80264500D01*
X110958750Y-80284502D01*
G37*
%TD.AperFunction*%
%TD*%
M02*
