M48
; DRILL file {KiCad (6.0.6)} date Tue Mar 14 09:51:44 2023
; FORMAT={-:-/ absolute / inch / decimal}
; #@! TF.CreationDate,2023-03-14T09:51:44+01:00
; #@! TF.GenerationSoftware,Kicad,Pcbnew,(6.0.6)
; #@! TF.FileFunction,Plated,1,2,PTH
FMAT,2
INCH
; #@! TA.AperFunction,Plated,PTH,ComponentDrill
T1C0.0307
; #@! TA.AperFunction,Plated,PTH,ViaDrill
T2C0.0315
; #@! TA.AperFunction,Plated,PTH,ComponentDrill
T3C0.0394
%
G90
G05
T1
X3.2737Y-2.37
X3.2737Y-2.47
X3.2737Y-2.57
X3.2737Y-2.67
X3.2737Y-2.77
X3.2737Y-2.87
X3.2737Y-2.97
X3.2737Y-3.07
X3.5863Y-2.37
X3.5863Y-2.47
X3.5863Y-2.57
X3.5863Y-2.67
X3.5863Y-2.77
X3.5863Y-2.87
X3.5863Y-2.97
X3.5863Y-3.07
X3.8837Y-2.37
X3.8837Y-2.47
X3.8837Y-2.57
X3.8837Y-2.67
X3.8837Y-2.77
X3.8837Y-2.87
X3.8837Y-2.97
X3.8837Y-3.07
X4.1963Y-2.37
X4.1963Y-2.47
X4.1963Y-2.57
X4.1963Y-2.67
X4.1963Y-2.77
X4.1963Y-2.87
X4.1963Y-2.97
X4.1963Y-3.07
X4.4937Y-2.37
X4.4937Y-2.47
X4.4937Y-2.57
X4.4937Y-2.67
X4.4937Y-2.77
X4.4937Y-2.87
X4.4937Y-2.97
X4.4937Y-3.07
X4.8063Y-2.37
X4.8063Y-2.47
X4.8063Y-2.57
X4.8063Y-2.67
X4.8063Y-2.77
X4.8063Y-2.87
X4.8063Y-2.97
X4.8063Y-3.07
T2
X3.46Y-2.6
X3.73Y-2.52
X3.85Y-3.36
X4.94Y-2.43
T3
X3.15Y-2.49
X3.15Y-2.64
X3.5Y-3.22
X3.6Y-3.22
X4.1Y-3.22
X4.2Y-3.22
X4.34Y-3.22
X4.7Y-3.22
X4.8Y-3.22
X4.95Y-3.22
X5.09Y-2.8398
X5.09Y-2.9398
T0
M30
