%TF.GenerationSoftware,KiCad,Pcbnew,(6.0.6)*%
%TF.CreationDate,2023-03-14T09:51:42+01:00*%
%TF.ProjectId,Anemometre,416e656d-6f6d-4657-9472-652e6b696361,rev?*%
%TF.SameCoordinates,Original*%
%TF.FileFunction,Copper,L1,Top*%
%TF.FilePolarity,Positive*%
%FSLAX46Y46*%
G04 Gerber Fmt 4.6, Leading zero omitted, Abs format (unit mm)*
G04 Created by KiCad (PCBNEW (6.0.6)) date 2023-03-14 09:51:42*
%MOMM*%
%LPD*%
G01*
G04 APERTURE LIST*
G04 Aperture macros list*
%AMRoundRect*
0 Rectangle with rounded corners*
0 $1 Rounding radius*
0 $2 $3 $4 $5 $6 $7 $8 $9 X,Y pos of 4 corners*
0 Add a 4 corners polygon primitive as box body*
4,1,4,$2,$3,$4,$5,$6,$7,$8,$9,$2,$3,0*
0 Add four circle primitives for the rounded corners*
1,1,$1+$1,$2,$3*
1,1,$1+$1,$4,$5*
1,1,$1+$1,$6,$7*
1,1,$1+$1,$8,$9*
0 Add four rect primitives between the rounded corners*
20,1,$1+$1,$2,$3,$4,$5,0*
20,1,$1+$1,$4,$5,$6,$7,0*
20,1,$1+$1,$6,$7,$8,$9,0*
20,1,$1+$1,$8,$9,$2,$3,0*%
G04 Aperture macros list end*
%TA.AperFunction,SMDPad,CuDef*%
%ADD10RoundRect,0.200000X-0.275000X0.200000X-0.275000X-0.200000X0.275000X-0.200000X0.275000X0.200000X0*%
%TD*%
%TA.AperFunction,SMDPad,CuDef*%
%ADD11RoundRect,0.250000X0.475000X-0.250000X0.475000X0.250000X-0.475000X0.250000X-0.475000X-0.250000X0*%
%TD*%
%TA.AperFunction,SMDPad,CuDef*%
%ADD12RoundRect,0.200000X-0.200000X-0.275000X0.200000X-0.275000X0.200000X0.275000X-0.200000X0.275000X0*%
%TD*%
%TA.AperFunction,SMDPad,CuDef*%
%ADD13RoundRect,0.250000X-0.475000X0.250000X-0.475000X-0.250000X0.475000X-0.250000X0.475000X0.250000X0*%
%TD*%
%TA.AperFunction,SMDPad,CuDef*%
%ADD14RoundRect,0.200000X0.200000X0.275000X-0.200000X0.275000X-0.200000X-0.275000X0.200000X-0.275000X0*%
%TD*%
%TA.AperFunction,SMDPad,CuDef*%
%ADD15RoundRect,0.250000X-0.250000X-0.475000X0.250000X-0.475000X0.250000X0.475000X-0.250000X0.475000X0*%
%TD*%
%TA.AperFunction,SMDPad,CuDef*%
%ADD16RoundRect,0.225000X-0.250000X0.225000X-0.250000X-0.225000X0.250000X-0.225000X0.250000X0.225000X0*%
%TD*%
%TA.AperFunction,SMDPad,CuDef*%
%ADD17R,1.300000X1.300000*%
%TD*%
%TA.AperFunction,SMDPad,CuDef*%
%ADD18R,1.300000X2.000000*%
%TD*%
%TA.AperFunction,SMDPad,CuDef*%
%ADD19RoundRect,0.150000X-0.587500X-0.150000X0.587500X-0.150000X0.587500X0.150000X-0.587500X0.150000X0*%
%TD*%
%TA.AperFunction,ComponentPad*%
%ADD20R,1.700000X1.700000*%
%TD*%
%TA.AperFunction,ComponentPad*%
%ADD21O,1.700000X1.700000*%
%TD*%
%TA.AperFunction,ComponentPad*%
%ADD22R,1.130000X1.130000*%
%TD*%
%TA.AperFunction,ComponentPad*%
%ADD23C,1.130000*%
%TD*%
%TA.AperFunction,ViaPad*%
%ADD24C,1.400000*%
%TD*%
%TA.AperFunction,Conductor*%
%ADD25C,0.500000*%
%TD*%
G04 APERTURE END LIST*
D10*
%TO.P,R7,1*%
%TO.N,Net-(R7-Pad1)*%
X124714000Y-67247000D03*
%TO.P,R7,2*%
%TO.N,Net-(C8-Pad1)*%
X124714000Y-68897000D03*
%TD*%
%TO.P,R1,1*%
%TO.N,Net-(R1-Pad1)*%
X80772000Y-75121000D03*
%TO.P,R1,2*%
%TO.N,Net-(R1-Pad2)*%
X80772000Y-76771000D03*
%TD*%
D11*
%TO.P,C7,1*%
%TO.N,Net-(C7-Pad1)*%
X129286000Y-68768000D03*
%TO.P,C7,2*%
%TO.N,Net-(C7-Pad2)*%
X129286000Y-66868000D03*
%TD*%
D12*
%TO.P,R6,1*%
%TO.N,+5V*%
X124397000Y-60198000D03*
%TO.P,R6,2*%
%TO.N,Net-(C7-Pad2)*%
X126047000Y-60198000D03*
%TD*%
D13*
%TO.P,C2,1*%
%TO.N,Net-(C2-Pad1)*%
X102362000Y-68392000D03*
%TO.P,C2,2*%
%TO.N,Net-(C2-Pad2)*%
X102362000Y-70292000D03*
%TD*%
%TO.P,C1,1*%
%TO.N,Net-(C1-Pad1)*%
X94234000Y-73218000D03*
%TO.P,C1,2*%
%TO.N,Net-(C1-Pad2)*%
X94234000Y-75118000D03*
%TD*%
D10*
%TO.P,R5,1*%
%TO.N,Transmiter_signal*%
X124714000Y-63432000D03*
%TO.P,R5,2*%
%TO.N,Net-(Q1-Pad2)*%
X124714000Y-65082000D03*
%TD*%
D14*
%TO.P,R4,1*%
%TO.N,Net-(R4-Pad1)*%
X87947000Y-60452000D03*
%TO.P,R4,2*%
%TO.N,Net-(C5-Pad1)*%
X86297000Y-60452000D03*
%TD*%
D13*
%TO.P,C3,1*%
%TO.N,Net-(C3-Pad1)*%
X87122000Y-68392000D03*
%TO.P,C3,2*%
%TO.N,Net-(C3-Pad2)*%
X87122000Y-70292000D03*
%TD*%
%TO.P,C6,1*%
%TO.N,Net-(C6-Pad1)*%
X117856000Y-68392000D03*
%TO.P,C6,2*%
%TO.N,Net-(C6-Pad2)*%
X117856000Y-70292000D03*
%TD*%
D15*
%TO.P,C5,1*%
%TO.N,Net-(C5-Pad1)*%
X86172000Y-62738000D03*
%TO.P,C5,2*%
%TO.N,GND*%
X88072000Y-62738000D03*
%TD*%
D16*
%TO.P,C8,1*%
%TO.N,Net-(C8-Pad1)*%
X124714000Y-72631000D03*
%TO.P,C8,2*%
%TO.N,GND*%
X124714000Y-74181000D03*
%TD*%
D10*
%TO.P,R2,1*%
%TO.N,Net-(R2-Pad1)*%
X110236000Y-67247000D03*
%TO.P,R2,2*%
%TO.N,Net-(C4-Pad1)*%
X110236000Y-68897000D03*
%TD*%
D17*
%TO.P,RV1,1,1*%
%TO.N,unconnected-(RV1-Pad1)*%
X79876000Y-80562000D03*
D18*
%TO.P,RV1,2,2*%
%TO.N,GND*%
X81026000Y-86062000D03*
D17*
%TO.P,RV1,3,3*%
%TO.N,Net-(R1-Pad2)*%
X82176000Y-80562000D03*
%TD*%
D19*
%TO.P,Q1,1,E*%
%TO.N,GND*%
X127332500Y-63058000D03*
%TO.P,Q1,2,B*%
%TO.N,Net-(Q1-Pad2)*%
X127332500Y-64958000D03*
%TO.P,Q1,3,C*%
%TO.N,Net-(C7-Pad2)*%
X129207500Y-64008000D03*
%TD*%
D10*
%TO.P,R3,1*%
%TO.N,Net-(R3-Pad1)*%
X80772000Y-71565000D03*
%TO.P,R3,2*%
%TO.N,GND*%
X80772000Y-73215000D03*
%TD*%
D16*
%TO.P,C4,1*%
%TO.N,Net-(C4-Pad1)*%
X110236000Y-72631000D03*
%TO.P,C4,2*%
%TO.N,GND*%
X110236000Y-74181000D03*
%TD*%
D20*
%TO.P,MK1,1,-*%
%TO.N,Net-(C2-Pad2)*%
X104140000Y-81788000D03*
D21*
%TO.P,MK1,2,+*%
%TO.N,GND*%
X106680000Y-81788000D03*
%TD*%
D22*
%TO.P,U1,1,PHASE_PULSES*%
%TO.N,unconnected-(U1-Pad1)*%
X106586000Y-60198000D03*
D23*
%TO.P,U1,2,PHASE_COMP_I_OUT*%
%TO.N,Net-(R2-Pad1)*%
X106586000Y-62738000D03*
%TO.P,U1,3,COMP_IN*%
%TO.N,Transmiter_signal*%
X106586000Y-65278000D03*
%TO.P,U1,4,VCO_OUT*%
%TO.N,unconnected-(U1-Pad4)*%
X106586000Y-67818000D03*
%TO.P,U1,5,INHIBIT*%
%TO.N,unconnected-(U1-Pad5)*%
X106586000Y-70358000D03*
%TO.P,U1,6,C1(1)*%
%TO.N,unconnected-(U1-Pad6)*%
X106586000Y-72898000D03*
%TO.P,U1,7,C1(2)*%
%TO.N,unconnected-(U1-Pad7)*%
X106586000Y-75438000D03*
%TO.P,U1,8,VSS*%
%TO.N,GND*%
X106586000Y-77978000D03*
%TO.P,U1,9,VCO_IN*%
%TO.N,unconnected-(U1-Pad9)*%
X98646000Y-77978000D03*
%TO.P,U1,10,DEMODULATION_OUT*%
%TO.N,unconnected-(U1-Pad10)*%
X98646000Y-75438000D03*
%TO.P,U1,11,R1_TO_VSS*%
%TO.N,unconnected-(U1-Pad11)*%
X98646000Y-72898000D03*
%TO.P,U1,12,R1_TO_VSS_2*%
%TO.N,unconnected-(U1-Pad12)*%
X98646000Y-70358000D03*
%TO.P,U1,13,PHASE_COMP_II_OUT*%
%TO.N,unconnected-(U1-Pad13)*%
X98646000Y-67818000D03*
%TO.P,U1,14,SIGNAL_IN*%
%TO.N,Net-(C2-Pad1)*%
X98646000Y-65278000D03*
%TO.P,U1,15,ZENER*%
%TO.N,unconnected-(U1-Pad15)*%
X98646000Y-62738000D03*
%TO.P,U1,16,VDD*%
%TO.N,+5V*%
X98646000Y-60198000D03*
%TD*%
D20*
%TO.P,LS1,1,1*%
%TO.N,Net-(C7-Pad1)*%
X129286000Y-72131000D03*
D21*
%TO.P,LS1,2,2*%
%TO.N,GND*%
X129286000Y-74671000D03*
%TD*%
D20*
%TO.P,J4,1,Pin_1*%
%TO.N,GND*%
X80010000Y-67056000D03*
%TD*%
%TO.P,J2,1,Pin_1*%
%TO.N,Net-(C8-Pad1)*%
X125730000Y-81788000D03*
%TD*%
%TO.P,J1,1,Pin_1*%
%TO.N,Net-(C4-Pad1)*%
X110236000Y-81788000D03*
%TD*%
D22*
%TO.P,U2,1,PHASE_PULSES*%
%TO.N,unconnected-(U2-Pad1)*%
X91092000Y-60198000D03*
D23*
%TO.P,U2,2,PHASE_COMP_I_OUT*%
%TO.N,Net-(R4-Pad1)*%
X91092000Y-62738000D03*
%TO.P,U2,3,COMP_IN*%
%TO.N,Transmiter_signal*%
X91092000Y-65278000D03*
%TO.P,U2,4,VCO_OUT*%
X91092000Y-67818000D03*
%TO.P,U2,5,INHIBIT*%
%TO.N,GND*%
X91092000Y-70358000D03*
%TO.P,U2,6,C1(1)*%
%TO.N,Net-(C1-Pad1)*%
X91092000Y-72898000D03*
%TO.P,U2,7,C1(2)*%
%TO.N,Net-(C1-Pad2)*%
X91092000Y-75438000D03*
%TO.P,U2,8,VSS*%
%TO.N,GND*%
X91092000Y-77978000D03*
%TO.P,U2,9,VCO_IN*%
%TO.N,Net-(C5-Pad1)*%
X83152000Y-77978000D03*
%TO.P,U2,10,DEMODULATION_OUT*%
%TO.N,unconnected-(U2-Pad10)*%
X83152000Y-75438000D03*
%TO.P,U2,11,R1_TO_VSS*%
%TO.N,Net-(R1-Pad1)*%
X83152000Y-72898000D03*
%TO.P,U2,12,R1_TO_VSS_2*%
%TO.N,Net-(R3-Pad1)*%
X83152000Y-70358000D03*
%TO.P,U2,13,PHASE_COMP_II_OUT*%
%TO.N,unconnected-(U2-Pad13)*%
X83152000Y-67818000D03*
%TO.P,U2,14,SIGNAL_IN*%
%TO.N,Net-(C3-Pad1)*%
X83152000Y-65278000D03*
%TO.P,U2,15,ZENER*%
%TO.N,unconnected-(U2-Pad15)*%
X83152000Y-62738000D03*
%TO.P,U2,16,VDD*%
%TO.N,+5V*%
X83152000Y-60198000D03*
%TD*%
D20*
%TO.P,MK2,1,-*%
%TO.N,Net-(C3-Pad2)*%
X88900000Y-81788000D03*
D21*
%TO.P,MK2,2,+*%
%TO.N,GND*%
X91440000Y-81788000D03*
%TD*%
D20*
%TO.P,MK3,1,-*%
%TO.N,Net-(C6-Pad2)*%
X119380000Y-81788000D03*
D21*
%TO.P,MK3,2,+*%
%TO.N,GND*%
X121920000Y-81788000D03*
%TD*%
D22*
%TO.P,U3,1,PHASE_PULSES*%
%TO.N,unconnected-(U3-Pad1)*%
X122080000Y-60198000D03*
D23*
%TO.P,U3,2,PHASE_COMP_I_OUT*%
%TO.N,Net-(R7-Pad1)*%
X122080000Y-62738000D03*
%TO.P,U3,3,COMP_IN*%
%TO.N,Transmiter_signal*%
X122080000Y-65278000D03*
%TO.P,U3,4,VCO_OUT*%
%TO.N,unconnected-(U3-Pad4)*%
X122080000Y-67818000D03*
%TO.P,U3,5,INHIBIT*%
%TO.N,unconnected-(U3-Pad5)*%
X122080000Y-70358000D03*
%TO.P,U3,6,C1(1)*%
%TO.N,unconnected-(U3-Pad6)*%
X122080000Y-72898000D03*
%TO.P,U3,7,C1(2)*%
%TO.N,unconnected-(U3-Pad7)*%
X122080000Y-75438000D03*
%TO.P,U3,8,VSS*%
%TO.N,GND*%
X122080000Y-77978000D03*
%TO.P,U3,9,VCO_IN*%
%TO.N,unconnected-(U3-Pad9)*%
X114140000Y-77978000D03*
%TO.P,U3,10,DEMODULATION_OUT*%
%TO.N,unconnected-(U3-Pad10)*%
X114140000Y-75438000D03*
%TO.P,U3,11,R1_TO_VSS*%
%TO.N,unconnected-(U3-Pad11)*%
X114140000Y-72898000D03*
%TO.P,U3,12,R1_TO_VSS_2*%
%TO.N,unconnected-(U3-Pad12)*%
X114140000Y-70358000D03*
%TO.P,U3,13,PHASE_COMP_II_OUT*%
%TO.N,unconnected-(U3-Pad13)*%
X114140000Y-67818000D03*
%TO.P,U3,14,SIGNAL_IN*%
%TO.N,Net-(C6-Pad1)*%
X114140000Y-65278000D03*
%TO.P,U3,15,ZENER*%
%TO.N,unconnected-(U3-Pad15)*%
X114140000Y-62738000D03*
%TO.P,U3,16,VDD*%
%TO.N,+5V*%
X114140000Y-60198000D03*
%TD*%
D20*
%TO.P,J3,1,Pin_1*%
%TO.N,+5V*%
X80010000Y-63246000D03*
%TD*%
D24*
%TO.N,GND*%
X97790000Y-85344000D03*
X125476000Y-61722000D03*
%TO.N,+5V*%
X94742000Y-64008000D03*
X87884000Y-66040000D03*
%TD*%
D25*
%TO.N,+5V*%
X84582000Y-61628000D02*
X83152000Y-60198000D01*
X84582000Y-62862949D02*
X84582000Y-61628000D01*
X87759051Y-66040000D02*
X84582000Y-62862949D01*
X87884000Y-66040000D02*
X87759051Y-66040000D01*
%TO.N,Net-(C1-Pad1)*%
X93914000Y-72898000D02*
X94234000Y-73218000D01*
X91092000Y-72898000D02*
X93914000Y-72898000D01*
%TO.N,Net-(C1-Pad2)*%
X91092000Y-75438000D02*
X93914000Y-75438000D01*
X93914000Y-75438000D02*
X94234000Y-75118000D01*
%TO.N,Net-(C2-Pad1)*%
X98646000Y-65278000D02*
X101760000Y-68392000D01*
X101760000Y-68392000D02*
X102362000Y-68392000D01*
%TO.N,Net-(C2-Pad2)*%
X102362000Y-70292000D02*
X104140000Y-72070000D01*
X104140000Y-72070000D02*
X104140000Y-81788000D01*
%TO.N,Net-(C3-Pad1)*%
X84008000Y-65278000D02*
X87122000Y-68392000D01*
X83152000Y-65278000D02*
X84008000Y-65278000D01*
%TO.N,Net-(C3-Pad2)*%
X87122000Y-70292000D02*
X88900000Y-72070000D01*
X88900000Y-72070000D02*
X88900000Y-81788000D01*
%TO.N,Net-(C4-Pad1)*%
X112014000Y-74409000D02*
X112014000Y-78232000D01*
X110236000Y-72631000D02*
X112014000Y-74409000D01*
X110236000Y-68897000D02*
X110236000Y-72631000D01*
X112014000Y-78232000D02*
X110236000Y-80010000D01*
X110236000Y-80010000D02*
X110236000Y-81788000D01*
%TO.N,Net-(C5-Pad1)*%
X84265000Y-58420000D02*
X78740000Y-58420000D01*
X86360000Y-86360000D02*
X86360000Y-81186000D01*
X86172000Y-60577000D02*
X86297000Y-60452000D01*
X76200000Y-60960000D02*
X76200000Y-86360000D01*
X78740000Y-88900000D02*
X83820000Y-88900000D01*
X76200000Y-86360000D02*
X78740000Y-88900000D01*
X83820000Y-88900000D02*
X86360000Y-86360000D01*
X86360000Y-81186000D02*
X83152000Y-77978000D01*
X78740000Y-58420000D02*
X76200000Y-60960000D01*
X84265000Y-58420000D02*
X86297000Y-60452000D01*
X86172000Y-62738000D02*
X86172000Y-60577000D01*
%TO.N,Net-(C6-Pad1)*%
X114140000Y-65278000D02*
X117254000Y-68392000D01*
X117254000Y-68392000D02*
X117856000Y-68392000D01*
%TO.N,Net-(C6-Pad2)*%
X119380000Y-71816000D02*
X117856000Y-70292000D01*
X119380000Y-81788000D02*
X119380000Y-71816000D01*
%TO.N,Net-(C7-Pad1)*%
X129286000Y-68768000D02*
X129286000Y-72131000D01*
%TO.N,Net-(C7-Pad2)*%
X129207500Y-64008000D02*
X129207500Y-63358500D01*
X129286000Y-66868000D02*
X129286000Y-64086500D01*
X129286000Y-64086500D02*
X129207500Y-64008000D01*
X129207500Y-63358500D02*
X126047000Y-60198000D01*
%TO.N,Net-(C8-Pad1)*%
X124714000Y-72631000D02*
X124714000Y-68897000D01*
X126238000Y-74676000D02*
X125730000Y-75184000D01*
X124714000Y-72631000D02*
X124727000Y-72644000D01*
X124727000Y-72644000D02*
X125730000Y-72644000D01*
X125730000Y-72644000D02*
X126238000Y-73152000D01*
X126238000Y-73152000D02*
X126238000Y-74676000D01*
X125730000Y-75184000D02*
X125730000Y-81788000D01*
%TO.N,Net-(Q1-Pad2)*%
X127208500Y-65082000D02*
X127332500Y-64958000D01*
X124714000Y-65082000D02*
X127208500Y-65082000D01*
%TO.N,Net-(R1-Pad1)*%
X80929000Y-75121000D02*
X83152000Y-72898000D01*
X80772000Y-75121000D02*
X80929000Y-75121000D01*
%TO.N,Net-(R1-Pad2)*%
X82176000Y-78175000D02*
X82176000Y-80562000D01*
X80772000Y-76771000D02*
X82176000Y-78175000D01*
%TO.N,Net-(R2-Pad1)*%
X106586000Y-62738000D02*
X110236000Y-66388000D01*
X110236000Y-66388000D02*
X110236000Y-67247000D01*
%TO.N,Net-(R3-Pad1)*%
X80772000Y-71565000D02*
X81945000Y-71565000D01*
X81945000Y-71565000D02*
X83152000Y-70358000D01*
%TO.N,Net-(R4-Pad1)*%
X88806000Y-60452000D02*
X91092000Y-62738000D01*
X87947000Y-60452000D02*
X88806000Y-60452000D01*
%TO.N,Transmiter_signal*%
X95758000Y-65278000D02*
X97028000Y-64008000D01*
X116840000Y-61468000D02*
X122750000Y-61468000D01*
X105316000Y-64008000D02*
X106586000Y-65278000D01*
X97028000Y-64008000D02*
X102616000Y-64008000D01*
X116840000Y-61468000D02*
X120650000Y-65278000D01*
X91092000Y-65278000D02*
X91092000Y-67818000D01*
X122750000Y-61468000D02*
X124714000Y-63432000D01*
X91092000Y-65278000D02*
X95758000Y-65278000D01*
X102616000Y-64008000D02*
X105156000Y-61468000D01*
X102616000Y-64008000D02*
X105316000Y-64008000D01*
X120650000Y-65278000D02*
X122080000Y-65278000D01*
X105156000Y-61468000D02*
X116840000Y-61468000D01*
%TO.N,+5V*%
X104648000Y-58674000D02*
X112616000Y-58674000D01*
X80010000Y-63246000D02*
X80104000Y-63246000D01*
X112616000Y-58674000D02*
X114140000Y-60198000D01*
X94836000Y-64008000D02*
X98646000Y-60198000D01*
X80104000Y-63246000D02*
X83152000Y-60198000D01*
X98646000Y-60198000D02*
X103124000Y-60198000D01*
X103124000Y-60198000D02*
X104648000Y-58674000D01*
X112616000Y-58674000D02*
X122873000Y-58674000D01*
X122873000Y-58674000D02*
X124397000Y-60198000D01*
%TO.N,Net-(R7-Pad1)*%
X123444000Y-65977000D02*
X124714000Y-67247000D01*
X122080000Y-62738000D02*
X123444000Y-64102000D01*
X123444000Y-64102000D02*
X123444000Y-65977000D01*
%TD*%
%TA.AperFunction,Conductor*%
%TO.N,GND*%
G36*
X104099737Y-57932502D02*
G01*
X104146230Y-57986158D01*
X104156334Y-58056432D01*
X104123088Y-58125154D01*
X104104871Y-58144384D01*
X104102494Y-58146825D01*
X102846724Y-59402595D01*
X102784412Y-59436621D01*
X102757629Y-59439500D01*
X99456353Y-59439500D01*
X99388232Y-59419498D01*
X99370824Y-59406025D01*
X99306546Y-59346607D01*
X99306544Y-59346605D01*
X99302305Y-59342687D01*
X99135447Y-59237407D01*
X98952197Y-59164297D01*
X98946529Y-59163170D01*
X98946527Y-59163169D01*
X98764360Y-59126934D01*
X98764356Y-59126934D01*
X98758692Y-59125807D01*
X98752917Y-59125731D01*
X98752913Y-59125731D01*
X98654267Y-59124440D01*
X98561413Y-59123224D01*
X98555716Y-59124203D01*
X98555715Y-59124203D01*
X98372664Y-59155657D01*
X98366967Y-59156636D01*
X98181866Y-59224924D01*
X98176905Y-59227876D01*
X98176904Y-59227876D01*
X98017277Y-59322844D01*
X98017274Y-59322846D01*
X98012309Y-59325800D01*
X98007969Y-59329606D01*
X98007965Y-59329609D01*
X97873142Y-59447847D01*
X97863975Y-59455886D01*
X97741830Y-59610825D01*
X97739141Y-59615936D01*
X97739139Y-59615939D01*
X97708856Y-59673498D01*
X97649966Y-59785429D01*
X97591460Y-59973851D01*
X97587370Y-60008411D01*
X97568939Y-60164127D01*
X97541068Y-60229424D01*
X97532907Y-60238412D01*
X94999121Y-62772198D01*
X94936809Y-62806224D01*
X94899046Y-62808624D01*
X94742000Y-62794884D01*
X94531345Y-62813314D01*
X94526032Y-62814738D01*
X94526030Y-62814738D01*
X94332400Y-62866621D01*
X94332398Y-62866622D01*
X94327090Y-62868044D01*
X94322109Y-62870366D01*
X94322108Y-62870367D01*
X94140423Y-62955088D01*
X94140420Y-62955090D01*
X94135442Y-62957411D01*
X93962224Y-63078699D01*
X93812699Y-63228224D01*
X93691411Y-63401442D01*
X93689090Y-63406420D01*
X93689088Y-63406423D01*
X93604367Y-63588108D01*
X93602044Y-63593090D01*
X93600622Y-63598398D01*
X93600621Y-63598400D01*
X93550048Y-63787141D01*
X93547314Y-63797345D01*
X93528884Y-64008000D01*
X93547314Y-64218655D01*
X93585426Y-64360891D01*
X93583736Y-64431865D01*
X93543942Y-64490661D01*
X93478678Y-64518609D01*
X93463719Y-64519500D01*
X91902353Y-64519500D01*
X91834232Y-64499498D01*
X91816824Y-64486025D01*
X91752546Y-64426607D01*
X91752544Y-64426605D01*
X91748305Y-64422687D01*
X91581447Y-64317407D01*
X91398197Y-64244297D01*
X91392529Y-64243170D01*
X91392527Y-64243169D01*
X91210360Y-64206934D01*
X91210356Y-64206934D01*
X91204692Y-64205807D01*
X91198917Y-64205731D01*
X91198913Y-64205731D01*
X91100267Y-64204440D01*
X91007413Y-64203224D01*
X91001716Y-64204203D01*
X91001715Y-64204203D01*
X90818664Y-64235657D01*
X90812967Y-64236636D01*
X90627866Y-64304924D01*
X90622905Y-64307876D01*
X90622904Y-64307876D01*
X90463277Y-64402844D01*
X90463274Y-64402846D01*
X90458309Y-64405800D01*
X90453969Y-64409606D01*
X90453965Y-64409609D01*
X90328267Y-64519844D01*
X90309975Y-64535886D01*
X90187830Y-64690825D01*
X90185141Y-64695936D01*
X90185139Y-64695939D01*
X90148015Y-64766500D01*
X90095966Y-64865429D01*
X90037460Y-65053851D01*
X90014270Y-65249779D01*
X90027174Y-65446652D01*
X90075739Y-65637877D01*
X90158339Y-65817049D01*
X90272207Y-65978169D01*
X90276341Y-65982196D01*
X90276346Y-65982202D01*
X90295421Y-66000784D01*
X90330259Y-66062645D01*
X90333500Y-66091038D01*
X90333500Y-67002351D01*
X90313498Y-67070472D01*
X90306450Y-67080357D01*
X90289992Y-67101234D01*
X90187830Y-67230825D01*
X90185141Y-67235936D01*
X90185139Y-67235939D01*
X90146174Y-67310000D01*
X90095966Y-67405429D01*
X90066368Y-67500751D01*
X90039861Y-67586120D01*
X90037460Y-67593851D01*
X90014270Y-67789779D01*
X90027174Y-67986652D01*
X90075739Y-68177877D01*
X90158339Y-68357049D01*
X90272207Y-68518169D01*
X90322270Y-68566938D01*
X90397646Y-68640366D01*
X90413530Y-68655840D01*
X90418326Y-68659045D01*
X90418329Y-68659047D01*
X90463358Y-68689134D01*
X90577576Y-68765452D01*
X90582879Y-68767730D01*
X90582882Y-68767732D01*
X90753542Y-68841053D01*
X90758849Y-68843333D01*
X90852185Y-68864453D01*
X90945644Y-68885601D01*
X90945647Y-68885601D01*
X90951280Y-68886876D01*
X90957051Y-68887103D01*
X90957053Y-68887103D01*
X91016054Y-68889421D01*
X91148423Y-68894622D01*
X91263789Y-68877894D01*
X91337955Y-68867141D01*
X91337959Y-68867140D01*
X91343677Y-68866311D01*
X91349149Y-68864453D01*
X91349151Y-68864453D01*
X91525038Y-68804747D01*
X91525040Y-68804746D01*
X91530502Y-68802892D01*
X91702642Y-68706490D01*
X91854331Y-68580331D01*
X91980490Y-68428642D01*
X91988691Y-68413999D01*
X92017904Y-68361834D01*
X92076892Y-68256502D01*
X92085488Y-68231181D01*
X92138453Y-68075151D01*
X92138453Y-68075149D01*
X92140311Y-68069677D01*
X92143182Y-68049880D01*
X92162083Y-67919522D01*
X92168622Y-67874423D01*
X92170099Y-67818000D01*
X92152046Y-67621532D01*
X92145275Y-67597521D01*
X92100060Y-67437203D01*
X92100059Y-67437201D01*
X92098492Y-67431644D01*
X92088286Y-67410947D01*
X92013786Y-67259876D01*
X92011231Y-67254695D01*
X91993407Y-67230825D01*
X91896636Y-67101234D01*
X91893184Y-67096611D01*
X91888945Y-67092693D01*
X91885078Y-67088398D01*
X91886510Y-67087109D01*
X91854524Y-67033630D01*
X91850500Y-67002041D01*
X91850500Y-66162500D01*
X91870502Y-66094379D01*
X91924158Y-66047886D01*
X91976500Y-66036500D01*
X95690930Y-66036500D01*
X95709880Y-66037933D01*
X95724115Y-66040099D01*
X95724119Y-66040099D01*
X95731349Y-66041199D01*
X95738641Y-66040606D01*
X95738644Y-66040606D01*
X95784018Y-66036915D01*
X95794233Y-66036500D01*
X95802293Y-66036500D01*
X95819680Y-66034473D01*
X95830507Y-66033211D01*
X95834882Y-66032778D01*
X95900339Y-66027454D01*
X95900342Y-66027453D01*
X95907637Y-66026860D01*
X95914601Y-66024604D01*
X95920560Y-66023413D01*
X95926415Y-66022029D01*
X95933681Y-66021182D01*
X96002327Y-65996265D01*
X96006455Y-65994848D01*
X96068936Y-65974607D01*
X96068938Y-65974606D01*
X96075899Y-65972351D01*
X96082154Y-65968555D01*
X96087628Y-65966049D01*
X96093058Y-65963330D01*
X96099937Y-65960833D01*
X96139729Y-65934744D01*
X96160976Y-65920814D01*
X96164680Y-65918477D01*
X96227107Y-65880595D01*
X96235484Y-65873197D01*
X96235508Y-65873224D01*
X96238500Y-65870571D01*
X96241733Y-65867868D01*
X96247852Y-65863856D01*
X96301128Y-65807617D01*
X96303506Y-65805175D01*
X97305276Y-64803405D01*
X97367588Y-64769379D01*
X97394371Y-64766500D01*
X97509626Y-64766500D01*
X97577747Y-64786502D01*
X97624240Y-64840158D01*
X97634344Y-64910432D01*
X97629960Y-64929859D01*
X97591460Y-65053851D01*
X97568270Y-65249779D01*
X97581174Y-65446652D01*
X97629739Y-65637877D01*
X97712339Y-65817049D01*
X97826207Y-65978169D01*
X97876190Y-66026860D01*
X97955016Y-66103649D01*
X97967530Y-66115840D01*
X97972326Y-66119045D01*
X97972329Y-66119047D01*
X98080218Y-66191136D01*
X98131576Y-66225452D01*
X98136879Y-66227730D01*
X98136882Y-66227732D01*
X98293218Y-66294899D01*
X98312849Y-66303333D01*
X98406185Y-66324453D01*
X98499644Y-66345601D01*
X98499647Y-66345601D01*
X98505280Y-66346876D01*
X98511051Y-66347103D01*
X98511053Y-66347103D01*
X98598520Y-66350540D01*
X98665802Y-66373202D01*
X98682667Y-66387348D01*
X98825732Y-66530413D01*
X98859758Y-66592725D01*
X98854693Y-66663540D01*
X98812146Y-66720376D01*
X98745626Y-66745187D01*
X98734996Y-66745497D01*
X98561413Y-66743224D01*
X98555716Y-66744203D01*
X98555715Y-66744203D01*
X98372664Y-66775657D01*
X98366967Y-66776636D01*
X98181866Y-66844924D01*
X98176905Y-66847876D01*
X98176904Y-66847876D01*
X98017277Y-66942844D01*
X98017274Y-66942846D01*
X98012309Y-66945800D01*
X98007969Y-66949606D01*
X98007965Y-66949609D01*
X97870148Y-67070472D01*
X97863975Y-67075886D01*
X97741830Y-67230825D01*
X97739141Y-67235936D01*
X97739139Y-67235939D01*
X97700174Y-67310000D01*
X97649966Y-67405429D01*
X97620368Y-67500751D01*
X97593861Y-67586120D01*
X97591460Y-67593851D01*
X97568270Y-67789779D01*
X97581174Y-67986652D01*
X97629739Y-68177877D01*
X97712339Y-68357049D01*
X97826207Y-68518169D01*
X97876270Y-68566938D01*
X97951646Y-68640366D01*
X97967530Y-68655840D01*
X97972326Y-68659045D01*
X97972329Y-68659047D01*
X98017358Y-68689134D01*
X98131576Y-68765452D01*
X98136879Y-68767730D01*
X98136882Y-68767732D01*
X98307542Y-68841053D01*
X98312849Y-68843333D01*
X98406185Y-68864453D01*
X98499644Y-68885601D01*
X98499647Y-68885601D01*
X98505280Y-68886876D01*
X98511051Y-68887103D01*
X98511053Y-68887103D01*
X98570054Y-68889421D01*
X98702423Y-68894622D01*
X98817789Y-68877894D01*
X98891955Y-68867141D01*
X98891959Y-68867140D01*
X98897677Y-68866311D01*
X98903149Y-68864453D01*
X98903151Y-68864453D01*
X99079038Y-68804747D01*
X99079040Y-68804746D01*
X99084502Y-68802892D01*
X99256642Y-68706490D01*
X99408331Y-68580331D01*
X99534490Y-68428642D01*
X99542691Y-68413999D01*
X99571904Y-68361834D01*
X99630892Y-68256502D01*
X99639488Y-68231181D01*
X99692453Y-68075151D01*
X99692453Y-68075149D01*
X99694311Y-68069677D01*
X99697182Y-68049880D01*
X99716083Y-67919522D01*
X99722622Y-67874423D01*
X99724099Y-67818000D01*
X99723760Y-67814305D01*
X99716608Y-67736480D01*
X99730292Y-67666814D01*
X99779469Y-67615607D01*
X99848523Y-67599115D01*
X99915532Y-67622575D01*
X99931174Y-67635855D01*
X101141477Y-68846158D01*
X101171905Y-68895376D01*
X101192729Y-68957791D01*
X101195450Y-68965946D01*
X101288522Y-69116348D01*
X101413697Y-69241305D01*
X101417916Y-69243906D01*
X101458417Y-69301030D01*
X101461649Y-69371953D01*
X101426024Y-69433365D01*
X101418470Y-69439922D01*
X101412652Y-69443522D01*
X101287695Y-69568697D01*
X101283855Y-69574927D01*
X101283854Y-69574928D01*
X101200872Y-69709550D01*
X101194885Y-69719262D01*
X101139203Y-69887139D01*
X101128500Y-69991600D01*
X101128500Y-70592400D01*
X101128837Y-70595646D01*
X101128837Y-70595650D01*
X101136059Y-70665248D01*
X101139474Y-70698166D01*
X101141655Y-70704702D01*
X101141655Y-70704704D01*
X101182534Y-70827233D01*
X101195450Y-70865946D01*
X101288522Y-71016348D01*
X101413697Y-71141305D01*
X101419927Y-71145145D01*
X101419928Y-71145146D01*
X101556725Y-71229469D01*
X101564262Y-71234115D01*
X101586832Y-71241601D01*
X101725611Y-71287632D01*
X101725613Y-71287632D01*
X101732139Y-71289797D01*
X101738975Y-71290497D01*
X101738978Y-71290498D01*
X101782031Y-71294909D01*
X101836600Y-71300500D01*
X102245629Y-71300500D01*
X102313750Y-71320502D01*
X102334724Y-71337405D01*
X103344595Y-72347276D01*
X103378621Y-72409588D01*
X103381500Y-72436371D01*
X103381500Y-80303500D01*
X103361498Y-80371621D01*
X103307842Y-80418114D01*
X103255500Y-80429500D01*
X103241866Y-80429500D01*
X103179684Y-80436255D01*
X103043295Y-80487385D01*
X102926739Y-80574739D01*
X102839385Y-80691295D01*
X102788255Y-80827684D01*
X102781500Y-80889866D01*
X102781500Y-82686134D01*
X102788255Y-82748316D01*
X102839385Y-82884705D01*
X102926739Y-83001261D01*
X103043295Y-83088615D01*
X103179684Y-83139745D01*
X103241866Y-83146500D01*
X105038134Y-83146500D01*
X105100316Y-83139745D01*
X105236705Y-83088615D01*
X105353261Y-83001261D01*
X105440615Y-82884705D01*
X105484798Y-82766848D01*
X105527440Y-82710084D01*
X105594001Y-82685384D01*
X105663350Y-82700592D01*
X105698017Y-82728580D01*
X105723218Y-82757673D01*
X105730580Y-82764883D01*
X105894434Y-82900916D01*
X105902881Y-82906831D01*
X106086756Y-83014279D01*
X106096042Y-83018729D01*
X106295001Y-83094703D01*
X106304899Y-83097579D01*
X106408250Y-83118606D01*
X106422299Y-83117410D01*
X106426000Y-83107065D01*
X106426000Y-83106517D01*
X106934000Y-83106517D01*
X106938064Y-83120359D01*
X106951478Y-83122393D01*
X106958184Y-83121534D01*
X106968262Y-83119392D01*
X107172255Y-83058191D01*
X107181842Y-83054433D01*
X107373095Y-82960739D01*
X107381945Y-82955464D01*
X107555328Y-82831792D01*
X107563200Y-82825139D01*
X107714052Y-82674812D01*
X107720730Y-82666965D01*
X107845003Y-82494020D01*
X107850313Y-82485183D01*
X107944670Y-82294267D01*
X107948469Y-82284672D01*
X108010377Y-82080910D01*
X108012555Y-82070837D01*
X108013986Y-82059962D01*
X108011775Y-82045778D01*
X107998617Y-82042000D01*
X106952115Y-82042000D01*
X106936876Y-82046475D01*
X106935671Y-82047865D01*
X106934000Y-82055548D01*
X106934000Y-83106517D01*
X106426000Y-83106517D01*
X106426000Y-81515885D01*
X106934000Y-81515885D01*
X106938475Y-81531124D01*
X106939865Y-81532329D01*
X106947548Y-81534000D01*
X107998344Y-81534000D01*
X108011875Y-81530027D01*
X108013180Y-81520947D01*
X107971214Y-81353875D01*
X107967894Y-81344124D01*
X107882972Y-81148814D01*
X107878105Y-81139739D01*
X107762426Y-80960926D01*
X107756136Y-80952757D01*
X107612806Y-80795240D01*
X107605273Y-80788215D01*
X107438139Y-80656222D01*
X107429552Y-80650517D01*
X107243117Y-80547599D01*
X107233705Y-80543369D01*
X107032959Y-80472280D01*
X107022988Y-80469646D01*
X106951837Y-80456972D01*
X106938540Y-80458432D01*
X106934000Y-80472989D01*
X106934000Y-81515885D01*
X106426000Y-81515885D01*
X106426000Y-80471102D01*
X106422082Y-80457758D01*
X106407806Y-80455771D01*
X106369324Y-80461660D01*
X106359288Y-80464051D01*
X106156868Y-80530212D01*
X106147359Y-80534209D01*
X105958463Y-80632542D01*
X105949738Y-80638036D01*
X105779433Y-80765905D01*
X105771726Y-80772748D01*
X105694478Y-80853584D01*
X105632954Y-80889014D01*
X105562042Y-80885557D01*
X105504255Y-80844311D01*
X105485402Y-80810763D01*
X105443767Y-80699703D01*
X105440615Y-80691295D01*
X105353261Y-80574739D01*
X105236705Y-80487385D01*
X105100316Y-80436255D01*
X105038134Y-80429500D01*
X105024500Y-80429500D01*
X104956379Y-80409498D01*
X104909886Y-80355842D01*
X104898500Y-80303500D01*
X104898500Y-78894059D01*
X106034302Y-78894059D01*
X106044184Y-78906548D01*
X106067009Y-78921799D01*
X106077123Y-78927291D01*
X106247697Y-79000576D01*
X106258640Y-79004131D01*
X106439708Y-79045103D01*
X106451118Y-79046605D01*
X106636629Y-79053893D01*
X106648111Y-79053291D01*
X106831846Y-79026652D01*
X106843029Y-79023967D01*
X107018826Y-78964292D01*
X107029339Y-78959611D01*
X107128313Y-78904182D01*
X107138178Y-78894104D01*
X107135222Y-78886432D01*
X106598812Y-78350022D01*
X106584868Y-78342408D01*
X106583035Y-78342539D01*
X106576420Y-78346790D01*
X106040498Y-78882712D01*
X106034302Y-78894059D01*
X104898500Y-78894059D01*
X104898500Y-77955558D01*
X105509150Y-77955558D01*
X105521292Y-78140805D01*
X105523093Y-78152175D01*
X105568789Y-78332107D01*
X105572631Y-78342956D01*
X105650358Y-78511557D01*
X105656105Y-78521511D01*
X105656902Y-78522640D01*
X105667490Y-78531027D01*
X105680791Y-78523999D01*
X106213978Y-77990812D01*
X106220356Y-77979132D01*
X106950408Y-77979132D01*
X106950539Y-77980965D01*
X106954790Y-77987580D01*
X107490518Y-78523308D01*
X107502898Y-78530068D01*
X107509478Y-78525142D01*
X107567611Y-78421339D01*
X107572292Y-78410826D01*
X107631967Y-78235029D01*
X107634652Y-78223846D01*
X107661587Y-78038071D01*
X107662217Y-78030689D01*
X107663500Y-77981704D01*
X107663257Y-77974305D01*
X107646082Y-77787378D01*
X107643985Y-77776064D01*
X107593591Y-77597383D01*
X107589469Y-77586644D01*
X107513954Y-77433515D01*
X107504407Y-77423138D01*
X107497974Y-77425236D01*
X106958022Y-77965188D01*
X106950408Y-77979132D01*
X106220356Y-77979132D01*
X106221592Y-77976868D01*
X106221461Y-77975035D01*
X106217210Y-77968420D01*
X105680459Y-77431669D01*
X105668079Y-77424909D01*
X105662113Y-77429375D01*
X105593122Y-77560505D01*
X105588717Y-77571139D01*
X105533664Y-77748438D01*
X105531272Y-77759692D01*
X105509451Y-77944057D01*
X105509150Y-77955558D01*
X104898500Y-77955558D01*
X104898500Y-77062211D01*
X106034323Y-77062211D01*
X106037810Y-77070600D01*
X106573188Y-77605978D01*
X106587132Y-77613592D01*
X106588965Y-77613461D01*
X106595580Y-77609210D01*
X107130905Y-77073885D01*
X107137665Y-77061505D01*
X107131635Y-77053450D01*
X107080102Y-77020935D01*
X107069855Y-77015714D01*
X106897423Y-76946921D01*
X106886386Y-76943652D01*
X106704306Y-76907433D01*
X106692861Y-76906230D01*
X106507235Y-76903801D01*
X106495755Y-76904704D01*
X106312794Y-76936142D01*
X106301674Y-76939122D01*
X106127498Y-77003379D01*
X106117124Y-77008327D01*
X106043921Y-77051878D01*
X106034323Y-77062211D01*
X104898500Y-77062211D01*
X104898500Y-75409779D01*
X105508270Y-75409779D01*
X105521174Y-75606652D01*
X105569739Y-75797877D01*
X105652339Y-75977049D01*
X105766207Y-76138169D01*
X105907530Y-76275840D01*
X105912326Y-76279045D01*
X105912329Y-76279047D01*
X105920565Y-76284550D01*
X106071576Y-76385452D01*
X106076879Y-76387730D01*
X106076882Y-76387732D01*
X106247542Y-76461053D01*
X106252849Y-76463333D01*
X106346185Y-76484453D01*
X106439644Y-76505601D01*
X106439647Y-76505601D01*
X106445280Y-76506876D01*
X106451051Y-76507103D01*
X106451053Y-76507103D01*
X106510054Y-76509421D01*
X106642423Y-76514622D01*
X106757789Y-76497894D01*
X106831955Y-76487141D01*
X106831959Y-76487140D01*
X106837677Y-76486311D01*
X106843149Y-76484453D01*
X106843151Y-76484453D01*
X107019038Y-76424747D01*
X107019040Y-76424746D01*
X107024502Y-76422892D01*
X107196642Y-76326490D01*
X107348331Y-76200331D01*
X107474490Y-76048642D01*
X107570892Y-75876502D01*
X107577545Y-75856905D01*
X107632453Y-75695151D01*
X107632453Y-75695149D01*
X107634311Y-75689677D01*
X107635165Y-75683791D01*
X107654510Y-75550371D01*
X107662622Y-75494423D01*
X107664099Y-75438000D01*
X107646046Y-75241532D01*
X107636684Y-75208334D01*
X107594060Y-75057203D01*
X107594059Y-75057201D01*
X107592492Y-75051644D01*
X107582286Y-75030947D01*
X107507786Y-74879876D01*
X107505231Y-74874695D01*
X107495359Y-74861474D01*
X107390637Y-74721235D01*
X107390636Y-74721234D01*
X107387184Y-74716611D01*
X107382312Y-74712107D01*
X107246546Y-74586607D01*
X107246544Y-74586605D01*
X107242305Y-74582687D01*
X107075447Y-74477407D01*
X107010356Y-74451438D01*
X109253000Y-74451438D01*
X109253337Y-74457953D01*
X109262894Y-74550057D01*
X109265788Y-74563456D01*
X109315381Y-74712107D01*
X109321555Y-74725286D01*
X109403788Y-74858173D01*
X109412824Y-74869574D01*
X109523429Y-74979986D01*
X109534840Y-74988998D01*
X109667880Y-75071004D01*
X109681061Y-75077151D01*
X109829814Y-75126491D01*
X109843190Y-75129358D01*
X109934097Y-75138672D01*
X109940513Y-75139000D01*
X109963885Y-75139000D01*
X109979124Y-75134525D01*
X109980329Y-75133135D01*
X109982000Y-75125452D01*
X109982000Y-74453115D01*
X109977525Y-74437876D01*
X109976135Y-74436671D01*
X109968452Y-74435000D01*
X109271115Y-74435000D01*
X109255876Y-74439475D01*
X109254671Y-74440865D01*
X109253000Y-74448548D01*
X109253000Y-74451438D01*
X107010356Y-74451438D01*
X106892197Y-74404297D01*
X106886529Y-74403170D01*
X106886527Y-74403169D01*
X106704360Y-74366934D01*
X106704356Y-74366934D01*
X106698692Y-74365807D01*
X106692917Y-74365731D01*
X106692913Y-74365731D01*
X106594267Y-74364440D01*
X106501413Y-74363224D01*
X106495716Y-74364203D01*
X106495715Y-74364203D01*
X106318251Y-74394697D01*
X106306967Y-74396636D01*
X106121866Y-74464924D01*
X106116905Y-74467876D01*
X106116904Y-74467876D01*
X105957277Y-74562844D01*
X105957274Y-74562846D01*
X105952309Y-74565800D01*
X105947969Y-74569606D01*
X105947965Y-74569609D01*
X105808316Y-74692079D01*
X105803975Y-74695886D01*
X105800399Y-74700422D01*
X105791187Y-74712107D01*
X105681830Y-74850825D01*
X105679141Y-74855936D01*
X105679139Y-74855939D01*
X105635457Y-74938966D01*
X105589966Y-75025429D01*
X105531460Y-75213851D01*
X105508270Y-75409779D01*
X104898500Y-75409779D01*
X104898500Y-72869779D01*
X105508270Y-72869779D01*
X105521174Y-73066652D01*
X105569739Y-73257877D01*
X105652339Y-73437049D01*
X105766207Y-73598169D01*
X105907530Y-73735840D01*
X105912326Y-73739045D01*
X105912329Y-73739047D01*
X106000822Y-73798176D01*
X106071576Y-73845452D01*
X106076879Y-73847730D01*
X106076882Y-73847732D01*
X106208076Y-73904097D01*
X106252849Y-73923333D01*
X106336883Y-73942348D01*
X106439644Y-73965601D01*
X106439647Y-73965601D01*
X106445280Y-73966876D01*
X106451051Y-73967103D01*
X106451053Y-73967103D01*
X106510054Y-73969421D01*
X106642423Y-73974622D01*
X106757789Y-73957894D01*
X106831955Y-73947141D01*
X106831959Y-73947140D01*
X106837677Y-73946311D01*
X106843149Y-73944453D01*
X106843151Y-73944453D01*
X107019038Y-73884747D01*
X107019040Y-73884746D01*
X107024502Y-73882892D01*
X107196642Y-73786490D01*
X107348331Y-73660331D01*
X107474490Y-73508642D01*
X107486228Y-73487683D01*
X107507110Y-73450395D01*
X107570892Y-73336502D01*
X107578289Y-73314713D01*
X107632453Y-73155151D01*
X107632453Y-73155149D01*
X107634311Y-73149677D01*
X107637746Y-73125991D01*
X107652285Y-73025717D01*
X107662622Y-72954423D01*
X107664099Y-72898000D01*
X107646046Y-72701532D01*
X107638421Y-72674493D01*
X107594060Y-72517203D01*
X107594059Y-72517201D01*
X107592492Y-72511644D01*
X107583620Y-72493652D01*
X107507786Y-72339876D01*
X107505231Y-72334695D01*
X107499938Y-72327606D01*
X107390637Y-72181235D01*
X107390636Y-72181234D01*
X107387184Y-72176611D01*
X107367607Y-72158514D01*
X107246546Y-72046607D01*
X107246544Y-72046605D01*
X107242305Y-72042687D01*
X107075447Y-71937407D01*
X106892197Y-71864297D01*
X106886529Y-71863170D01*
X106886527Y-71863169D01*
X106704360Y-71826934D01*
X106704356Y-71826934D01*
X106698692Y-71825807D01*
X106692917Y-71825731D01*
X106692913Y-71825731D01*
X106594267Y-71824440D01*
X106501413Y-71823224D01*
X106495716Y-71824203D01*
X106495715Y-71824203D01*
X106312664Y-71855657D01*
X106306967Y-71856636D01*
X106121866Y-71924924D01*
X106116905Y-71927876D01*
X106116904Y-71927876D01*
X105957277Y-72022844D01*
X105957274Y-72022846D01*
X105952309Y-72025800D01*
X105947969Y-72029606D01*
X105947965Y-72029609D01*
X105822267Y-72139844D01*
X105803975Y-72155886D01*
X105681830Y-72310825D01*
X105679141Y-72315936D01*
X105679139Y-72315939D01*
X105657395Y-72357268D01*
X105589966Y-72485429D01*
X105531460Y-72673851D01*
X105508270Y-72869779D01*
X104898500Y-72869779D01*
X104898500Y-72137070D01*
X104899933Y-72118120D01*
X104902099Y-72103885D01*
X104902099Y-72103881D01*
X104903199Y-72096651D01*
X104902469Y-72087669D01*
X104898915Y-72043982D01*
X104898500Y-72033767D01*
X104898500Y-72025707D01*
X104895209Y-71997480D01*
X104894778Y-71993121D01*
X104888860Y-71920364D01*
X104886605Y-71913403D01*
X104885418Y-71907463D01*
X104884029Y-71901588D01*
X104883182Y-71894319D01*
X104858264Y-71825670D01*
X104856847Y-71821542D01*
X104836607Y-71759064D01*
X104836606Y-71759062D01*
X104834351Y-71752101D01*
X104830555Y-71745846D01*
X104828049Y-71740372D01*
X104825330Y-71734942D01*
X104822833Y-71728063D01*
X104782814Y-71667024D01*
X104780467Y-71663305D01*
X104742595Y-71600893D01*
X104735197Y-71592516D01*
X104735224Y-71592492D01*
X104732571Y-71589500D01*
X104729868Y-71586267D01*
X104725856Y-71580148D01*
X104669617Y-71526872D01*
X104667175Y-71524494D01*
X103632405Y-70489724D01*
X103598379Y-70427412D01*
X103595500Y-70400629D01*
X103595500Y-70329779D01*
X105508270Y-70329779D01*
X105521174Y-70526652D01*
X105569739Y-70717877D01*
X105652339Y-70897049D01*
X105766207Y-71058169D01*
X105907530Y-71195840D01*
X105912326Y-71199045D01*
X105912329Y-71199047D01*
X106024593Y-71274059D01*
X106071576Y-71305452D01*
X106076879Y-71307730D01*
X106076882Y-71307732D01*
X106246432Y-71380576D01*
X106252849Y-71383333D01*
X106344038Y-71403967D01*
X106439644Y-71425601D01*
X106439647Y-71425601D01*
X106445280Y-71426876D01*
X106451051Y-71427103D01*
X106451053Y-71427103D01*
X106510054Y-71429421D01*
X106642423Y-71434622D01*
X106757789Y-71417894D01*
X106831955Y-71407141D01*
X106831959Y-71407140D01*
X106837677Y-71406311D01*
X106843149Y-71404453D01*
X106843151Y-71404453D01*
X107019038Y-71344747D01*
X107019040Y-71344746D01*
X107024502Y-71342892D01*
X107147333Y-71274104D01*
X107191605Y-71249311D01*
X107191606Y-71249310D01*
X107196642Y-71246490D01*
X107348331Y-71120331D01*
X107474490Y-70968642D01*
X107570892Y-70796502D01*
X107573685Y-70788276D01*
X107632453Y-70615151D01*
X107632453Y-70615149D01*
X107634311Y-70609677D01*
X107635157Y-70603846D01*
X107651704Y-70489724D01*
X107662622Y-70414423D01*
X107664099Y-70358000D01*
X107646046Y-70161532D01*
X107639887Y-70139692D01*
X107594060Y-69977203D01*
X107594059Y-69977201D01*
X107592492Y-69971644D01*
X107582381Y-69951139D01*
X107507786Y-69799876D01*
X107505231Y-69794695D01*
X107487407Y-69770825D01*
X107390637Y-69641235D01*
X107390636Y-69641234D01*
X107387184Y-69636611D01*
X107369671Y-69620422D01*
X107246546Y-69506607D01*
X107246544Y-69506605D01*
X107242305Y-69502687D01*
X107075447Y-69397407D01*
X106892197Y-69324297D01*
X106886529Y-69323170D01*
X106886527Y-69323169D01*
X106704360Y-69286934D01*
X106704356Y-69286934D01*
X106698692Y-69285807D01*
X106692917Y-69285731D01*
X106692913Y-69285731D01*
X106594267Y-69284440D01*
X106501413Y-69283224D01*
X106495716Y-69284203D01*
X106495715Y-69284203D01*
X106483919Y-69286230D01*
X106306967Y-69316636D01*
X106121866Y-69384924D01*
X106116905Y-69387876D01*
X106116904Y-69387876D01*
X105957277Y-69482844D01*
X105957274Y-69482846D01*
X105952309Y-69485800D01*
X105947969Y-69489606D01*
X105947965Y-69489609D01*
X105851873Y-69573880D01*
X105803975Y-69615886D01*
X105681830Y-69770825D01*
X105679141Y-69775936D01*
X105679139Y-69775939D01*
X105632732Y-69864144D01*
X105589966Y-69945429D01*
X105531460Y-70133851D01*
X105508270Y-70329779D01*
X103595500Y-70329779D01*
X103595500Y-69991600D01*
X103594006Y-69977203D01*
X103585238Y-69892692D01*
X103585237Y-69892688D01*
X103584526Y-69885834D01*
X103560399Y-69813515D01*
X103530868Y-69725002D01*
X103528550Y-69718054D01*
X103435478Y-69567652D01*
X103310303Y-69442695D01*
X103306084Y-69440094D01*
X103265583Y-69382970D01*
X103262351Y-69312047D01*
X103297976Y-69250635D01*
X103305530Y-69244078D01*
X103311348Y-69240478D01*
X103436305Y-69115303D01*
X103529115Y-68964738D01*
X103570139Y-68841053D01*
X103582632Y-68803389D01*
X103582632Y-68803387D01*
X103584797Y-68796861D01*
X103595500Y-68692400D01*
X103595500Y-68091600D01*
X103595163Y-68088350D01*
X103585238Y-67992692D01*
X103585237Y-67992688D01*
X103584526Y-67985834D01*
X103575069Y-67957486D01*
X103530868Y-67825002D01*
X103528550Y-67818054D01*
X103511053Y-67789779D01*
X105508270Y-67789779D01*
X105521174Y-67986652D01*
X105569739Y-68177877D01*
X105652339Y-68357049D01*
X105766207Y-68518169D01*
X105816270Y-68566938D01*
X105891646Y-68640366D01*
X105907530Y-68655840D01*
X105912326Y-68659045D01*
X105912329Y-68659047D01*
X105957358Y-68689134D01*
X106071576Y-68765452D01*
X106076879Y-68767730D01*
X106076882Y-68767732D01*
X106247542Y-68841053D01*
X106252849Y-68843333D01*
X106346185Y-68864453D01*
X106439644Y-68885601D01*
X106439647Y-68885601D01*
X106445280Y-68886876D01*
X106451051Y-68887103D01*
X106451053Y-68887103D01*
X106510054Y-68889421D01*
X106642423Y-68894622D01*
X106757789Y-68877894D01*
X106831955Y-68867141D01*
X106831959Y-68867140D01*
X106837677Y-68866311D01*
X106843149Y-68864453D01*
X106843151Y-68864453D01*
X107019038Y-68804747D01*
X107019040Y-68804746D01*
X107024502Y-68802892D01*
X107196642Y-68706490D01*
X107348331Y-68580331D01*
X107474490Y-68428642D01*
X107482691Y-68413999D01*
X107511904Y-68361834D01*
X107570892Y-68256502D01*
X107579488Y-68231181D01*
X107632453Y-68075151D01*
X107632453Y-68075149D01*
X107634311Y-68069677D01*
X107637182Y-68049880D01*
X107656083Y-67919522D01*
X107662622Y-67874423D01*
X107664099Y-67818000D01*
X107646046Y-67621532D01*
X107639275Y-67597521D01*
X107594060Y-67437203D01*
X107594059Y-67437201D01*
X107592492Y-67431644D01*
X107582286Y-67410947D01*
X107507786Y-67259876D01*
X107505231Y-67254695D01*
X107487407Y-67230825D01*
X107390637Y-67101235D01*
X107390636Y-67101234D01*
X107387184Y-67096611D01*
X107382948Y-67092695D01*
X107246546Y-66966607D01*
X107246544Y-66966605D01*
X107242305Y-66962687D01*
X107075447Y-66857407D01*
X106892197Y-66784297D01*
X106886529Y-66783170D01*
X106886527Y-66783169D01*
X106704360Y-66746934D01*
X106704356Y-66746934D01*
X106698692Y-66745807D01*
X106692917Y-66745731D01*
X106692913Y-66745731D01*
X106594267Y-66744440D01*
X106501413Y-66743224D01*
X106495716Y-66744203D01*
X106495715Y-66744203D01*
X106312664Y-66775657D01*
X106306967Y-66776636D01*
X106121866Y-66844924D01*
X106116905Y-66847876D01*
X106116904Y-66847876D01*
X105957277Y-66942844D01*
X105957274Y-66942846D01*
X105952309Y-66945800D01*
X105947969Y-66949606D01*
X105947965Y-66949609D01*
X105810148Y-67070472D01*
X105803975Y-67075886D01*
X105681830Y-67230825D01*
X105679141Y-67235936D01*
X105679139Y-67235939D01*
X105640174Y-67310000D01*
X105589966Y-67405429D01*
X105560368Y-67500751D01*
X105533861Y-67586120D01*
X105531460Y-67593851D01*
X105508270Y-67789779D01*
X103511053Y-67789779D01*
X103435478Y-67667652D01*
X103310303Y-67542695D01*
X103304072Y-67538854D01*
X103165968Y-67453725D01*
X103165966Y-67453724D01*
X103159738Y-67449885D01*
X103025707Y-67405429D01*
X102998389Y-67396368D01*
X102998387Y-67396368D01*
X102991861Y-67394203D01*
X102985025Y-67393503D01*
X102985022Y-67393502D01*
X102941969Y-67389091D01*
X102887400Y-67383500D01*
X101876371Y-67383500D01*
X101808250Y-67363498D01*
X101787276Y-67346595D01*
X99756855Y-65316174D01*
X99722829Y-65253862D01*
X99720479Y-65238608D01*
X99706575Y-65087286D01*
X99706574Y-65087283D01*
X99706046Y-65081532D01*
X99662379Y-64926701D01*
X99663139Y-64855709D01*
X99702160Y-64796398D01*
X99767053Y-64767598D01*
X99783648Y-64766500D01*
X102548930Y-64766500D01*
X102567880Y-64767933D01*
X102582115Y-64770099D01*
X102582119Y-64770099D01*
X102589349Y-64771199D01*
X102596641Y-64770606D01*
X102596644Y-64770606D01*
X102642018Y-64766915D01*
X102652233Y-64766500D01*
X104949629Y-64766500D01*
X105017750Y-64786502D01*
X105038724Y-64803405D01*
X105476362Y-65241043D01*
X105510388Y-65303355D01*
X105512996Y-65321893D01*
X105521174Y-65446652D01*
X105569739Y-65637877D01*
X105652339Y-65817049D01*
X105766207Y-65978169D01*
X105816190Y-66026860D01*
X105895016Y-66103649D01*
X105907530Y-66115840D01*
X105912326Y-66119045D01*
X105912329Y-66119047D01*
X106020218Y-66191136D01*
X106071576Y-66225452D01*
X106076879Y-66227730D01*
X106076882Y-66227732D01*
X106233218Y-66294899D01*
X106252849Y-66303333D01*
X106346185Y-66324453D01*
X106439644Y-66345601D01*
X106439647Y-66345601D01*
X106445280Y-66346876D01*
X106451051Y-66347103D01*
X106451053Y-66347103D01*
X106510054Y-66349421D01*
X106642423Y-66354622D01*
X106757789Y-66337894D01*
X106831955Y-66327141D01*
X106831959Y-66327140D01*
X106837677Y-66326311D01*
X106843149Y-66324453D01*
X106843151Y-66324453D01*
X107019038Y-66264747D01*
X107019040Y-66264746D01*
X107024502Y-66262892D01*
X107196642Y-66166490D01*
X107201440Y-66162500D01*
X107312537Y-66070101D01*
X107348331Y-66040331D01*
X107474490Y-65888642D01*
X107478997Y-65880595D01*
X107507698Y-65829345D01*
X107570892Y-65716502D01*
X107573941Y-65707522D01*
X107632453Y-65535151D01*
X107632453Y-65535149D01*
X107634311Y-65529677D01*
X107662622Y-65334423D01*
X107664099Y-65278000D01*
X107656608Y-65196479D01*
X107670292Y-65126814D01*
X107719469Y-65075607D01*
X107788523Y-65059115D01*
X107855532Y-65082575D01*
X107871174Y-65095855D01*
X109322930Y-66547611D01*
X109356956Y-66609923D01*
X109351891Y-66680738D01*
X109341616Y-66701969D01*
X109310528Y-66753301D01*
X109308257Y-66760548D01*
X109308256Y-66760550D01*
X109291110Y-66815264D01*
X109259247Y-66916938D01*
X109252500Y-66990365D01*
X109252501Y-67503634D01*
X109252764Y-67506492D01*
X109252764Y-67506501D01*
X109255737Y-67538854D01*
X109259247Y-67577062D01*
X109261246Y-67583440D01*
X109261246Y-67583441D01*
X109306121Y-67726635D01*
X109310528Y-67740699D01*
X109399361Y-67887381D01*
X109494885Y-67982905D01*
X109528911Y-68045217D01*
X109523846Y-68116032D01*
X109494885Y-68161095D01*
X109399361Y-68256619D01*
X109310528Y-68403301D01*
X109308257Y-68410548D01*
X109308256Y-68410550D01*
X109301196Y-68433080D01*
X109259247Y-68566938D01*
X109252500Y-68640365D01*
X109252501Y-69153634D01*
X109252764Y-69156492D01*
X109252764Y-69156501D01*
X109253639Y-69166022D01*
X109259247Y-69227062D01*
X109261246Y-69233440D01*
X109261246Y-69233441D01*
X109297915Y-69350450D01*
X109310528Y-69390699D01*
X109399361Y-69537381D01*
X109440595Y-69578615D01*
X109474621Y-69640927D01*
X109477500Y-69667710D01*
X109477500Y-71824995D01*
X109457498Y-71893116D01*
X109440673Y-71914012D01*
X109411624Y-71943112D01*
X109411620Y-71943117D01*
X109406448Y-71948298D01*
X109402608Y-71954528D01*
X109402607Y-71954529D01*
X109321255Y-72086507D01*
X109316698Y-72093899D01*
X109262851Y-72256243D01*
X109262151Y-72263080D01*
X109262150Y-72263082D01*
X109260838Y-72275885D01*
X109252500Y-72357268D01*
X109252500Y-72904732D01*
X109263113Y-73007019D01*
X109265295Y-73013559D01*
X109302806Y-73125991D01*
X109317244Y-73169268D01*
X109321096Y-73175492D01*
X109321096Y-73175493D01*
X109336332Y-73200114D01*
X109407248Y-73314713D01*
X109412430Y-73319886D01*
X109416977Y-73325623D01*
X109415170Y-73327055D01*
X109443902Y-73379575D01*
X109438892Y-73450395D01*
X109415501Y-73486853D01*
X109416552Y-73487683D01*
X109403002Y-73504840D01*
X109320996Y-73637880D01*
X109314849Y-73651061D01*
X109265509Y-73799814D01*
X109262642Y-73813190D01*
X109253328Y-73904097D01*
X109253071Y-73909126D01*
X109257475Y-73924124D01*
X109258865Y-73925329D01*
X109266548Y-73927000D01*
X110364000Y-73927000D01*
X110432121Y-73947002D01*
X110478614Y-74000658D01*
X110490000Y-74053000D01*
X110490000Y-75120885D01*
X110494475Y-75136124D01*
X110495865Y-75137329D01*
X110503548Y-75139000D01*
X110531438Y-75139000D01*
X110537953Y-75138663D01*
X110630057Y-75129106D01*
X110643456Y-75126212D01*
X110792107Y-75076619D01*
X110805286Y-75070445D01*
X110938173Y-74988212D01*
X110949579Y-74979172D01*
X111040327Y-74888265D01*
X111102609Y-74854185D01*
X111173429Y-74859188D01*
X111230302Y-74901685D01*
X111255171Y-74968183D01*
X111255500Y-74977282D01*
X111255500Y-77865629D01*
X111235498Y-77933750D01*
X111218595Y-77954724D01*
X109747089Y-79426230D01*
X109732677Y-79438616D01*
X109721082Y-79447149D01*
X109721077Y-79447154D01*
X109715182Y-79451492D01*
X109710443Y-79457070D01*
X109710440Y-79457073D01*
X109680965Y-79491768D01*
X109674035Y-79499284D01*
X109668340Y-79504979D01*
X109666060Y-79507861D01*
X109650719Y-79527251D01*
X109647928Y-79530655D01*
X109626468Y-79555915D01*
X109600667Y-79586285D01*
X109597339Y-79592801D01*
X109593972Y-79597850D01*
X109590805Y-79602979D01*
X109586266Y-79608716D01*
X109555345Y-79674875D01*
X109553442Y-79678769D01*
X109520231Y-79743808D01*
X109518492Y-79750916D01*
X109516393Y-79756559D01*
X109514476Y-79762322D01*
X109511378Y-79768950D01*
X109509888Y-79776112D01*
X109509888Y-79776113D01*
X109496514Y-79840412D01*
X109495544Y-79844696D01*
X109478192Y-79915610D01*
X109477500Y-79926764D01*
X109477464Y-79926762D01*
X109477225Y-79930755D01*
X109476851Y-79934947D01*
X109475360Y-79942115D01*
X109475558Y-79949432D01*
X109477454Y-80019521D01*
X109477500Y-80022928D01*
X109477500Y-80303500D01*
X109457498Y-80371621D01*
X109403842Y-80418114D01*
X109351500Y-80429500D01*
X109337866Y-80429500D01*
X109275684Y-80436255D01*
X109139295Y-80487385D01*
X109022739Y-80574739D01*
X108935385Y-80691295D01*
X108884255Y-80827684D01*
X108877500Y-80889866D01*
X108877500Y-82686134D01*
X108884255Y-82748316D01*
X108935385Y-82884705D01*
X109022739Y-83001261D01*
X109139295Y-83088615D01*
X109275684Y-83139745D01*
X109337866Y-83146500D01*
X111134134Y-83146500D01*
X111196316Y-83139745D01*
X111332705Y-83088615D01*
X111449261Y-83001261D01*
X111536615Y-82884705D01*
X111587745Y-82748316D01*
X111594500Y-82686134D01*
X111594500Y-80889866D01*
X111587745Y-80827684D01*
X111536615Y-80691295D01*
X111449261Y-80574739D01*
X111332705Y-80487385D01*
X111196316Y-80436255D01*
X111188464Y-80435402D01*
X111188460Y-80435401D01*
X111174628Y-80433899D01*
X111109066Y-80406658D01*
X111068639Y-80348295D01*
X111066183Y-80277341D01*
X111099140Y-80219541D01*
X112502911Y-78815770D01*
X112517323Y-78803384D01*
X112528918Y-78794851D01*
X112528923Y-78794846D01*
X112534818Y-78790508D01*
X112539557Y-78784930D01*
X112539560Y-78784927D01*
X112569035Y-78750232D01*
X112575965Y-78742716D01*
X112581661Y-78737020D01*
X112583924Y-78734159D01*
X112583929Y-78734154D01*
X112599293Y-78714734D01*
X112602082Y-78711333D01*
X112603743Y-78709378D01*
X112649333Y-78655715D01*
X112652659Y-78649202D01*
X112656020Y-78644163D01*
X112659196Y-78639021D01*
X112663734Y-78633284D01*
X112694655Y-78567125D01*
X112696561Y-78563225D01*
X112716591Y-78523999D01*
X112729769Y-78498192D01*
X112731508Y-78491083D01*
X112733604Y-78485449D01*
X112735523Y-78479679D01*
X112738622Y-78473050D01*
X112749338Y-78421535D01*
X112753490Y-78401571D01*
X112754461Y-78397282D01*
X112766816Y-78346790D01*
X112771808Y-78326390D01*
X112772500Y-78315236D01*
X112772535Y-78315238D01*
X112772775Y-78311266D01*
X112773152Y-78307045D01*
X112774641Y-78299885D01*
X112772546Y-78222458D01*
X112772500Y-78219050D01*
X112772500Y-77949779D01*
X113062270Y-77949779D01*
X113075174Y-78146652D01*
X113123739Y-78337877D01*
X113206339Y-78517049D01*
X113320207Y-78678169D01*
X113324341Y-78682196D01*
X113448744Y-78803384D01*
X113461530Y-78815840D01*
X113466326Y-78819045D01*
X113466329Y-78819047D01*
X113531809Y-78862799D01*
X113625576Y-78925452D01*
X113630879Y-78927730D01*
X113630882Y-78927732D01*
X113800432Y-79000576D01*
X113806849Y-79003333D01*
X113898038Y-79023967D01*
X113993644Y-79045601D01*
X113993647Y-79045601D01*
X113999280Y-79046876D01*
X114005051Y-79047103D01*
X114005053Y-79047103D01*
X114064054Y-79049421D01*
X114196423Y-79054622D01*
X114311789Y-79037894D01*
X114385955Y-79027141D01*
X114385959Y-79027140D01*
X114391677Y-79026311D01*
X114397149Y-79024453D01*
X114397151Y-79024453D01*
X114573038Y-78964747D01*
X114573040Y-78964746D01*
X114578502Y-78962892D01*
X114701333Y-78894104D01*
X114745605Y-78869311D01*
X114745606Y-78869310D01*
X114750642Y-78866490D01*
X114902331Y-78740331D01*
X115028490Y-78588642D01*
X115124892Y-78416502D01*
X115129961Y-78401571D01*
X115186453Y-78235151D01*
X115186453Y-78235149D01*
X115188311Y-78229677D01*
X115189157Y-78223846D01*
X115216089Y-78038096D01*
X115216622Y-78034423D01*
X115218099Y-77978000D01*
X115200046Y-77781532D01*
X115193887Y-77759692D01*
X115148060Y-77597203D01*
X115148059Y-77597201D01*
X115146492Y-77591644D01*
X115136381Y-77571139D01*
X115061786Y-77419876D01*
X115059231Y-77414695D01*
X115041407Y-77390825D01*
X114944637Y-77261235D01*
X114944636Y-77261234D01*
X114941184Y-77256611D01*
X114918764Y-77235886D01*
X114800546Y-77126607D01*
X114800544Y-77126605D01*
X114796305Y-77122687D01*
X114629447Y-77017407D01*
X114446197Y-76944297D01*
X114440529Y-76943170D01*
X114440527Y-76943169D01*
X114258360Y-76906934D01*
X114258356Y-76906934D01*
X114252692Y-76905807D01*
X114246917Y-76905731D01*
X114246913Y-76905731D01*
X114148267Y-76904440D01*
X114055413Y-76903224D01*
X114049716Y-76904203D01*
X114049715Y-76904203D01*
X114037919Y-76906230D01*
X113860967Y-76936636D01*
X113675866Y-77004924D01*
X113670905Y-77007876D01*
X113670904Y-77007876D01*
X113511277Y-77102844D01*
X113511274Y-77102846D01*
X113506309Y-77105800D01*
X113501969Y-77109606D01*
X113501965Y-77109609D01*
X113391493Y-77206491D01*
X113357975Y-77235886D01*
X113235830Y-77390825D01*
X113233141Y-77395936D01*
X113233139Y-77395939D01*
X113186732Y-77484144D01*
X113143966Y-77565429D01*
X113085460Y-77753851D01*
X113062270Y-77949779D01*
X112772500Y-77949779D01*
X112772500Y-75409779D01*
X113062270Y-75409779D01*
X113075174Y-75606652D01*
X113123739Y-75797877D01*
X113206339Y-75977049D01*
X113320207Y-76138169D01*
X113461530Y-76275840D01*
X113466326Y-76279045D01*
X113466329Y-76279047D01*
X113474565Y-76284550D01*
X113625576Y-76385452D01*
X113630879Y-76387730D01*
X113630882Y-76387732D01*
X113801542Y-76461053D01*
X113806849Y-76463333D01*
X113900185Y-76484453D01*
X113993644Y-76505601D01*
X113993647Y-76505601D01*
X113999280Y-76506876D01*
X114005051Y-76507103D01*
X114005053Y-76507103D01*
X114064054Y-76509421D01*
X114196423Y-76514622D01*
X114311789Y-76497894D01*
X114385955Y-76487141D01*
X114385959Y-76487140D01*
X114391677Y-76486311D01*
X114397149Y-76484453D01*
X114397151Y-76484453D01*
X114573038Y-76424747D01*
X114573040Y-76424746D01*
X114578502Y-76422892D01*
X114750642Y-76326490D01*
X114902331Y-76200331D01*
X115028490Y-76048642D01*
X115124892Y-75876502D01*
X115131545Y-75856905D01*
X115186453Y-75695151D01*
X115186453Y-75695149D01*
X115188311Y-75689677D01*
X115189165Y-75683791D01*
X115208510Y-75550371D01*
X115216622Y-75494423D01*
X115218099Y-75438000D01*
X115200046Y-75241532D01*
X115190684Y-75208334D01*
X115148060Y-75057203D01*
X115148059Y-75057201D01*
X115146492Y-75051644D01*
X115136286Y-75030947D01*
X115061786Y-74879876D01*
X115059231Y-74874695D01*
X115049359Y-74861474D01*
X114944637Y-74721235D01*
X114944636Y-74721234D01*
X114941184Y-74716611D01*
X114936312Y-74712107D01*
X114800546Y-74586607D01*
X114800544Y-74586605D01*
X114796305Y-74582687D01*
X114629447Y-74477407D01*
X114446197Y-74404297D01*
X114440529Y-74403170D01*
X114440527Y-74403169D01*
X114258360Y-74366934D01*
X114258356Y-74366934D01*
X114252692Y-74365807D01*
X114246917Y-74365731D01*
X114246913Y-74365731D01*
X114148267Y-74364440D01*
X114055413Y-74363224D01*
X114049716Y-74364203D01*
X114049715Y-74364203D01*
X113872251Y-74394697D01*
X113860967Y-74396636D01*
X113675866Y-74464924D01*
X113670905Y-74467876D01*
X113670904Y-74467876D01*
X113511277Y-74562844D01*
X113511274Y-74562846D01*
X113506309Y-74565800D01*
X113501969Y-74569606D01*
X113501965Y-74569609D01*
X113362316Y-74692079D01*
X113357975Y-74695886D01*
X113354399Y-74700422D01*
X113345187Y-74712107D01*
X113235830Y-74850825D01*
X113233141Y-74855936D01*
X113233139Y-74855939D01*
X113189457Y-74938966D01*
X113143966Y-75025429D01*
X113085460Y-75213851D01*
X113062270Y-75409779D01*
X112772500Y-75409779D01*
X112772500Y-74476070D01*
X112773933Y-74457120D01*
X112776099Y-74442885D01*
X112776099Y-74442881D01*
X112777199Y-74435651D01*
X112774290Y-74399880D01*
X112772915Y-74382982D01*
X112772500Y-74372767D01*
X112772500Y-74364707D01*
X112769209Y-74336480D01*
X112768778Y-74332121D01*
X112764171Y-74275484D01*
X112762860Y-74259364D01*
X112760605Y-74252403D01*
X112759418Y-74246463D01*
X112758029Y-74240588D01*
X112757182Y-74233319D01*
X112732264Y-74164670D01*
X112730847Y-74160542D01*
X112710607Y-74098064D01*
X112710606Y-74098062D01*
X112708351Y-74091101D01*
X112704555Y-74084846D01*
X112702049Y-74079372D01*
X112699330Y-74073942D01*
X112696833Y-74067063D01*
X112656814Y-74006024D01*
X112654467Y-74002305D01*
X112653468Y-74000658D01*
X112616595Y-73939893D01*
X112612338Y-73935072D01*
X112609197Y-73931516D01*
X112609224Y-73931492D01*
X112606571Y-73928500D01*
X112603868Y-73925267D01*
X112599856Y-73919148D01*
X112543617Y-73865872D01*
X112541175Y-73863494D01*
X111547460Y-72869779D01*
X113062270Y-72869779D01*
X113075174Y-73066652D01*
X113123739Y-73257877D01*
X113206339Y-73437049D01*
X113320207Y-73598169D01*
X113461530Y-73735840D01*
X113466326Y-73739045D01*
X113466329Y-73739047D01*
X113554822Y-73798176D01*
X113625576Y-73845452D01*
X113630879Y-73847730D01*
X113630882Y-73847732D01*
X113762076Y-73904097D01*
X113806849Y-73923333D01*
X113890883Y-73942348D01*
X113993644Y-73965601D01*
X113993647Y-73965601D01*
X113999280Y-73966876D01*
X114005051Y-73967103D01*
X114005053Y-73967103D01*
X114064054Y-73969421D01*
X114196423Y-73974622D01*
X114311789Y-73957894D01*
X114385955Y-73947141D01*
X114385959Y-73947140D01*
X114391677Y-73946311D01*
X114397149Y-73944453D01*
X114397151Y-73944453D01*
X114573038Y-73884747D01*
X114573040Y-73884746D01*
X114578502Y-73882892D01*
X114750642Y-73786490D01*
X114902331Y-73660331D01*
X115028490Y-73508642D01*
X115040228Y-73487683D01*
X115061110Y-73450395D01*
X115124892Y-73336502D01*
X115132289Y-73314713D01*
X115186453Y-73155151D01*
X115186453Y-73155149D01*
X115188311Y-73149677D01*
X115191746Y-73125991D01*
X115206285Y-73025717D01*
X115216622Y-72954423D01*
X115218099Y-72898000D01*
X115200046Y-72701532D01*
X115192421Y-72674493D01*
X115148060Y-72517203D01*
X115148059Y-72517201D01*
X115146492Y-72511644D01*
X115137620Y-72493652D01*
X115061786Y-72339876D01*
X115059231Y-72334695D01*
X115053938Y-72327606D01*
X114944637Y-72181235D01*
X114944636Y-72181234D01*
X114941184Y-72176611D01*
X114921607Y-72158514D01*
X114800546Y-72046607D01*
X114800544Y-72046605D01*
X114796305Y-72042687D01*
X114629447Y-71937407D01*
X114446197Y-71864297D01*
X114440529Y-71863170D01*
X114440527Y-71863169D01*
X114258360Y-71826934D01*
X114258356Y-71826934D01*
X114252692Y-71825807D01*
X114246917Y-71825731D01*
X114246913Y-71825731D01*
X114148267Y-71824440D01*
X114055413Y-71823224D01*
X114049716Y-71824203D01*
X114049715Y-71824203D01*
X113866664Y-71855657D01*
X113860967Y-71856636D01*
X113675866Y-71924924D01*
X113670905Y-71927876D01*
X113670904Y-71927876D01*
X113511277Y-72022844D01*
X113511274Y-72022846D01*
X113506309Y-72025800D01*
X113501969Y-72029606D01*
X113501965Y-72029609D01*
X113376267Y-72139844D01*
X113357975Y-72155886D01*
X113235830Y-72310825D01*
X113233141Y-72315936D01*
X113233139Y-72315939D01*
X113211395Y-72357268D01*
X113143966Y-72485429D01*
X113085460Y-72673851D01*
X113062270Y-72869779D01*
X111547460Y-72869779D01*
X111256405Y-72578724D01*
X111222379Y-72516412D01*
X111219500Y-72489629D01*
X111219500Y-72357268D01*
X111217696Y-72339876D01*
X111210817Y-72273581D01*
X111208887Y-72254981D01*
X111189115Y-72195717D01*
X111157073Y-72099676D01*
X111157072Y-72099674D01*
X111154756Y-72092732D01*
X111143202Y-72074060D01*
X111068606Y-71953515D01*
X111064752Y-71947287D01*
X111031482Y-71914075D01*
X110997403Y-71851793D01*
X110994500Y-71824902D01*
X110994500Y-70329779D01*
X113062270Y-70329779D01*
X113075174Y-70526652D01*
X113123739Y-70717877D01*
X113206339Y-70897049D01*
X113320207Y-71058169D01*
X113461530Y-71195840D01*
X113466326Y-71199045D01*
X113466329Y-71199047D01*
X113578593Y-71274059D01*
X113625576Y-71305452D01*
X113630879Y-71307730D01*
X113630882Y-71307732D01*
X113800432Y-71380576D01*
X113806849Y-71383333D01*
X113898038Y-71403967D01*
X113993644Y-71425601D01*
X113993647Y-71425601D01*
X113999280Y-71426876D01*
X114005051Y-71427103D01*
X114005053Y-71427103D01*
X114064054Y-71429421D01*
X114196423Y-71434622D01*
X114311789Y-71417894D01*
X114385955Y-71407141D01*
X114385959Y-71407140D01*
X114391677Y-71406311D01*
X114397149Y-71404453D01*
X114397151Y-71404453D01*
X114573038Y-71344747D01*
X114573040Y-71344746D01*
X114578502Y-71342892D01*
X114701333Y-71274104D01*
X114745605Y-71249311D01*
X114745606Y-71249310D01*
X114750642Y-71246490D01*
X114902331Y-71120331D01*
X115028490Y-70968642D01*
X115124892Y-70796502D01*
X115127685Y-70788276D01*
X115186453Y-70615151D01*
X115186453Y-70615149D01*
X115188311Y-70609677D01*
X115189157Y-70603846D01*
X115205704Y-70489724D01*
X115216622Y-70414423D01*
X115218099Y-70358000D01*
X115200046Y-70161532D01*
X115193887Y-70139692D01*
X115148060Y-69977203D01*
X115148059Y-69977201D01*
X115146492Y-69971644D01*
X115136381Y-69951139D01*
X115061786Y-69799876D01*
X115059231Y-69794695D01*
X115041407Y-69770825D01*
X114944637Y-69641235D01*
X114944636Y-69641234D01*
X114941184Y-69636611D01*
X114923671Y-69620422D01*
X114800546Y-69506607D01*
X114800544Y-69506605D01*
X114796305Y-69502687D01*
X114629447Y-69397407D01*
X114446197Y-69324297D01*
X114440529Y-69323170D01*
X114440527Y-69323169D01*
X114258360Y-69286934D01*
X114258356Y-69286934D01*
X114252692Y-69285807D01*
X114246917Y-69285731D01*
X114246913Y-69285731D01*
X114148267Y-69284440D01*
X114055413Y-69283224D01*
X114049716Y-69284203D01*
X114049715Y-69284203D01*
X114037919Y-69286230D01*
X113860967Y-69316636D01*
X113675866Y-69384924D01*
X113670905Y-69387876D01*
X113670904Y-69387876D01*
X113511277Y-69482844D01*
X113511274Y-69482846D01*
X113506309Y-69485800D01*
X113501969Y-69489606D01*
X113501965Y-69489609D01*
X113405873Y-69573880D01*
X113357975Y-69615886D01*
X113235830Y-69770825D01*
X113233141Y-69775936D01*
X113233139Y-69775939D01*
X113186732Y-69864144D01*
X113143966Y-69945429D01*
X113085460Y-70133851D01*
X113062270Y-70329779D01*
X110994500Y-70329779D01*
X110994500Y-69667710D01*
X111014502Y-69599589D01*
X111031405Y-69578615D01*
X111072639Y-69537381D01*
X111161472Y-69390699D01*
X111174263Y-69349885D01*
X111195153Y-69283224D01*
X111212753Y-69227062D01*
X111219500Y-69153635D01*
X111219499Y-68640366D01*
X111219234Y-68637474D01*
X111213364Y-68573592D01*
X111212753Y-68566938D01*
X111182646Y-68470866D01*
X111163744Y-68410550D01*
X111163743Y-68410548D01*
X111161472Y-68403301D01*
X111072639Y-68256619D01*
X110977115Y-68161095D01*
X110943089Y-68098783D01*
X110948154Y-68027968D01*
X110977115Y-67982905D01*
X111072639Y-67887381D01*
X111131748Y-67789779D01*
X113062270Y-67789779D01*
X113075174Y-67986652D01*
X113123739Y-68177877D01*
X113206339Y-68357049D01*
X113320207Y-68518169D01*
X113370270Y-68566938D01*
X113445646Y-68640366D01*
X113461530Y-68655840D01*
X113466326Y-68659045D01*
X113466329Y-68659047D01*
X113511358Y-68689134D01*
X113625576Y-68765452D01*
X113630879Y-68767730D01*
X113630882Y-68767732D01*
X113801542Y-68841053D01*
X113806849Y-68843333D01*
X113900185Y-68864453D01*
X113993644Y-68885601D01*
X113993647Y-68885601D01*
X113999280Y-68886876D01*
X114005051Y-68887103D01*
X114005053Y-68887103D01*
X114064054Y-68889421D01*
X114196423Y-68894622D01*
X114311789Y-68877894D01*
X114385955Y-68867141D01*
X114385959Y-68867140D01*
X114391677Y-68866311D01*
X114397149Y-68864453D01*
X114397151Y-68864453D01*
X114573038Y-68804747D01*
X114573040Y-68804746D01*
X114578502Y-68802892D01*
X114750642Y-68706490D01*
X114902331Y-68580331D01*
X115028490Y-68428642D01*
X115036691Y-68413999D01*
X115065904Y-68361834D01*
X115124892Y-68256502D01*
X115133488Y-68231181D01*
X115186453Y-68075151D01*
X115186453Y-68075149D01*
X115188311Y-68069677D01*
X115191182Y-68049880D01*
X115210083Y-67919522D01*
X115216622Y-67874423D01*
X115218099Y-67818000D01*
X115217760Y-67814305D01*
X115210608Y-67736480D01*
X115224292Y-67666814D01*
X115273469Y-67615607D01*
X115342523Y-67599115D01*
X115409532Y-67622575D01*
X115425174Y-67635855D01*
X116635477Y-68846158D01*
X116665905Y-68895376D01*
X116686729Y-68957791D01*
X116689450Y-68965946D01*
X116782522Y-69116348D01*
X116907697Y-69241305D01*
X116911916Y-69243906D01*
X116952417Y-69301030D01*
X116955649Y-69371953D01*
X116920024Y-69433365D01*
X116912470Y-69439922D01*
X116906652Y-69443522D01*
X116781695Y-69568697D01*
X116777855Y-69574927D01*
X116777854Y-69574928D01*
X116694872Y-69709550D01*
X116688885Y-69719262D01*
X116633203Y-69887139D01*
X116622500Y-69991600D01*
X116622500Y-70592400D01*
X116622837Y-70595646D01*
X116622837Y-70595650D01*
X116630059Y-70665248D01*
X116633474Y-70698166D01*
X116635655Y-70704702D01*
X116635655Y-70704704D01*
X116676534Y-70827233D01*
X116689450Y-70865946D01*
X116782522Y-71016348D01*
X116907697Y-71141305D01*
X116913927Y-71145145D01*
X116913928Y-71145146D01*
X117050725Y-71229469D01*
X117058262Y-71234115D01*
X117080832Y-71241601D01*
X117219611Y-71287632D01*
X117219613Y-71287632D01*
X117226139Y-71289797D01*
X117232975Y-71290497D01*
X117232978Y-71290498D01*
X117276031Y-71294909D01*
X117330600Y-71300500D01*
X117739629Y-71300500D01*
X117807750Y-71320502D01*
X117828724Y-71337405D01*
X118584595Y-72093276D01*
X118618621Y-72155588D01*
X118621500Y-72182371D01*
X118621500Y-80303500D01*
X118601498Y-80371621D01*
X118547842Y-80418114D01*
X118495500Y-80429500D01*
X118481866Y-80429500D01*
X118419684Y-80436255D01*
X118283295Y-80487385D01*
X118166739Y-80574739D01*
X118079385Y-80691295D01*
X118028255Y-80827684D01*
X118021500Y-80889866D01*
X118021500Y-82686134D01*
X118028255Y-82748316D01*
X118079385Y-82884705D01*
X118166739Y-83001261D01*
X118283295Y-83088615D01*
X118419684Y-83139745D01*
X118481866Y-83146500D01*
X120278134Y-83146500D01*
X120340316Y-83139745D01*
X120476705Y-83088615D01*
X120593261Y-83001261D01*
X120680615Y-82884705D01*
X120724798Y-82766848D01*
X120767440Y-82710084D01*
X120834001Y-82685384D01*
X120903350Y-82700592D01*
X120938017Y-82728580D01*
X120963218Y-82757673D01*
X120970580Y-82764883D01*
X121134434Y-82900916D01*
X121142881Y-82906831D01*
X121326756Y-83014279D01*
X121336042Y-83018729D01*
X121535001Y-83094703D01*
X121544899Y-83097579D01*
X121648250Y-83118606D01*
X121662299Y-83117410D01*
X121666000Y-83107065D01*
X121666000Y-83106517D01*
X122174000Y-83106517D01*
X122178064Y-83120359D01*
X122191478Y-83122393D01*
X122198184Y-83121534D01*
X122208262Y-83119392D01*
X122412255Y-83058191D01*
X122421842Y-83054433D01*
X122613095Y-82960739D01*
X122621945Y-82955464D01*
X122795328Y-82831792D01*
X122803200Y-82825139D01*
X122954052Y-82674812D01*
X122960730Y-82666965D01*
X123085003Y-82494020D01*
X123090313Y-82485183D01*
X123184670Y-82294267D01*
X123188469Y-82284672D01*
X123250377Y-82080910D01*
X123252555Y-82070837D01*
X123253986Y-82059962D01*
X123251775Y-82045778D01*
X123238617Y-82042000D01*
X122192115Y-82042000D01*
X122176876Y-82046475D01*
X122175671Y-82047865D01*
X122174000Y-82055548D01*
X122174000Y-83106517D01*
X121666000Y-83106517D01*
X121666000Y-81515885D01*
X122174000Y-81515885D01*
X122178475Y-81531124D01*
X122179865Y-81532329D01*
X122187548Y-81534000D01*
X123238344Y-81534000D01*
X123251875Y-81530027D01*
X123253180Y-81520947D01*
X123211214Y-81353875D01*
X123207894Y-81344124D01*
X123122972Y-81148814D01*
X123118105Y-81139739D01*
X123002426Y-80960926D01*
X122996136Y-80952757D01*
X122852806Y-80795240D01*
X122845273Y-80788215D01*
X122678139Y-80656222D01*
X122669552Y-80650517D01*
X122483117Y-80547599D01*
X122473705Y-80543369D01*
X122272959Y-80472280D01*
X122262988Y-80469646D01*
X122191837Y-80456972D01*
X122178540Y-80458432D01*
X122174000Y-80472989D01*
X122174000Y-81515885D01*
X121666000Y-81515885D01*
X121666000Y-80471102D01*
X121662082Y-80457758D01*
X121647806Y-80455771D01*
X121609324Y-80461660D01*
X121599288Y-80464051D01*
X121396868Y-80530212D01*
X121387359Y-80534209D01*
X121198463Y-80632542D01*
X121189738Y-80638036D01*
X121019433Y-80765905D01*
X121011726Y-80772748D01*
X120934478Y-80853584D01*
X120872954Y-80889014D01*
X120802042Y-80885557D01*
X120744255Y-80844311D01*
X120725402Y-80810763D01*
X120683767Y-80699703D01*
X120680615Y-80691295D01*
X120593261Y-80574739D01*
X120476705Y-80487385D01*
X120340316Y-80436255D01*
X120278134Y-80429500D01*
X120264500Y-80429500D01*
X120196379Y-80409498D01*
X120149886Y-80355842D01*
X120138500Y-80303500D01*
X120138500Y-78894059D01*
X121528302Y-78894059D01*
X121538184Y-78906548D01*
X121561009Y-78921799D01*
X121571123Y-78927291D01*
X121741697Y-79000576D01*
X121752640Y-79004131D01*
X121933708Y-79045103D01*
X121945118Y-79046605D01*
X122130629Y-79053893D01*
X122142111Y-79053291D01*
X122325846Y-79026652D01*
X122337029Y-79023967D01*
X122512826Y-78964292D01*
X122523339Y-78959611D01*
X122622313Y-78904182D01*
X122632178Y-78894104D01*
X122629222Y-78886432D01*
X122092812Y-78350022D01*
X122078868Y-78342408D01*
X122077035Y-78342539D01*
X122070420Y-78346790D01*
X121534498Y-78882712D01*
X121528302Y-78894059D01*
X120138500Y-78894059D01*
X120138500Y-77955558D01*
X121003150Y-77955558D01*
X121015292Y-78140805D01*
X121017093Y-78152175D01*
X121062789Y-78332107D01*
X121066631Y-78342956D01*
X121144358Y-78511557D01*
X121150105Y-78521511D01*
X121150902Y-78522640D01*
X121161490Y-78531027D01*
X121174791Y-78523999D01*
X121707978Y-77990812D01*
X121714356Y-77979132D01*
X122444408Y-77979132D01*
X122444539Y-77980965D01*
X122448790Y-77987580D01*
X122984518Y-78523308D01*
X122996898Y-78530068D01*
X123003478Y-78525142D01*
X123061611Y-78421339D01*
X123066292Y-78410826D01*
X123125967Y-78235029D01*
X123128652Y-78223846D01*
X123155587Y-78038071D01*
X123156217Y-78030689D01*
X123157500Y-77981704D01*
X123157257Y-77974305D01*
X123140082Y-77787378D01*
X123137985Y-77776064D01*
X123087591Y-77597383D01*
X123083469Y-77586644D01*
X123007954Y-77433515D01*
X122998407Y-77423138D01*
X122991974Y-77425236D01*
X122452022Y-77965188D01*
X122444408Y-77979132D01*
X121714356Y-77979132D01*
X121715592Y-77976868D01*
X121715461Y-77975035D01*
X121711210Y-77968420D01*
X121174459Y-77431669D01*
X121162079Y-77424909D01*
X121156113Y-77429375D01*
X121087122Y-77560505D01*
X121082717Y-77571139D01*
X121027664Y-77748438D01*
X121025272Y-77759692D01*
X121003451Y-77944057D01*
X121003150Y-77955558D01*
X120138500Y-77955558D01*
X120138500Y-77062211D01*
X121528323Y-77062211D01*
X121531810Y-77070600D01*
X122067188Y-77605978D01*
X122081132Y-77613592D01*
X122082965Y-77613461D01*
X122089580Y-77609210D01*
X122624905Y-77073885D01*
X122631665Y-77061505D01*
X122625635Y-77053450D01*
X122574102Y-77020935D01*
X122563855Y-77015714D01*
X122391423Y-76946921D01*
X122380386Y-76943652D01*
X122198306Y-76907433D01*
X122186861Y-76906230D01*
X122001235Y-76903801D01*
X121989755Y-76904704D01*
X121806794Y-76936142D01*
X121795674Y-76939122D01*
X121621498Y-77003379D01*
X121611124Y-77008327D01*
X121537921Y-77051878D01*
X121528323Y-77062211D01*
X120138500Y-77062211D01*
X120138500Y-75409779D01*
X121002270Y-75409779D01*
X121015174Y-75606652D01*
X121063739Y-75797877D01*
X121146339Y-75977049D01*
X121260207Y-76138169D01*
X121401530Y-76275840D01*
X121406326Y-76279045D01*
X121406329Y-76279047D01*
X121414565Y-76284550D01*
X121565576Y-76385452D01*
X121570879Y-76387730D01*
X121570882Y-76387732D01*
X121741542Y-76461053D01*
X121746849Y-76463333D01*
X121840185Y-76484453D01*
X121933644Y-76505601D01*
X121933647Y-76505601D01*
X121939280Y-76506876D01*
X121945051Y-76507103D01*
X121945053Y-76507103D01*
X122004054Y-76509421D01*
X122136423Y-76514622D01*
X122251789Y-76497894D01*
X122325955Y-76487141D01*
X122325959Y-76487140D01*
X122331677Y-76486311D01*
X122337149Y-76484453D01*
X122337151Y-76484453D01*
X122513038Y-76424747D01*
X122513040Y-76424746D01*
X122518502Y-76422892D01*
X122690642Y-76326490D01*
X122842331Y-76200331D01*
X122968490Y-76048642D01*
X123064892Y-75876502D01*
X123071545Y-75856905D01*
X123126453Y-75695151D01*
X123126453Y-75695149D01*
X123128311Y-75689677D01*
X123129165Y-75683791D01*
X123148510Y-75550371D01*
X123156622Y-75494423D01*
X123158099Y-75438000D01*
X123140046Y-75241532D01*
X123130684Y-75208334D01*
X123088060Y-75057203D01*
X123088059Y-75057201D01*
X123086492Y-75051644D01*
X123076286Y-75030947D01*
X123001786Y-74879876D01*
X122999231Y-74874695D01*
X122989359Y-74861474D01*
X122884637Y-74721235D01*
X122884636Y-74721234D01*
X122881184Y-74716611D01*
X122876312Y-74712107D01*
X122740546Y-74586607D01*
X122740544Y-74586605D01*
X122736305Y-74582687D01*
X122569447Y-74477407D01*
X122504356Y-74451438D01*
X123731000Y-74451438D01*
X123731337Y-74457953D01*
X123740894Y-74550057D01*
X123743788Y-74563456D01*
X123793381Y-74712107D01*
X123799555Y-74725286D01*
X123881788Y-74858173D01*
X123890824Y-74869574D01*
X124001429Y-74979986D01*
X124012840Y-74988998D01*
X124145880Y-75071004D01*
X124159061Y-75077151D01*
X124307814Y-75126491D01*
X124321190Y-75129358D01*
X124412097Y-75138672D01*
X124418513Y-75139000D01*
X124441885Y-75139000D01*
X124457124Y-75134525D01*
X124458329Y-75133135D01*
X124460000Y-75125452D01*
X124460000Y-74453115D01*
X124455525Y-74437876D01*
X124454135Y-74436671D01*
X124446452Y-74435000D01*
X123749115Y-74435000D01*
X123733876Y-74439475D01*
X123732671Y-74440865D01*
X123731000Y-74448548D01*
X123731000Y-74451438D01*
X122504356Y-74451438D01*
X122386197Y-74404297D01*
X122380529Y-74403170D01*
X122380527Y-74403169D01*
X122198360Y-74366934D01*
X122198356Y-74366934D01*
X122192692Y-74365807D01*
X122186917Y-74365731D01*
X122186913Y-74365731D01*
X122088267Y-74364440D01*
X121995413Y-74363224D01*
X121989716Y-74364203D01*
X121989715Y-74364203D01*
X121812251Y-74394697D01*
X121800967Y-74396636D01*
X121615866Y-74464924D01*
X121610905Y-74467876D01*
X121610904Y-74467876D01*
X121451277Y-74562844D01*
X121451274Y-74562846D01*
X121446309Y-74565800D01*
X121441969Y-74569606D01*
X121441965Y-74569609D01*
X121302316Y-74692079D01*
X121297975Y-74695886D01*
X121294399Y-74700422D01*
X121285187Y-74712107D01*
X121175830Y-74850825D01*
X121173141Y-74855936D01*
X121173139Y-74855939D01*
X121129457Y-74938966D01*
X121083966Y-75025429D01*
X121025460Y-75213851D01*
X121002270Y-75409779D01*
X120138500Y-75409779D01*
X120138500Y-72869779D01*
X121002270Y-72869779D01*
X121015174Y-73066652D01*
X121063739Y-73257877D01*
X121146339Y-73437049D01*
X121260207Y-73598169D01*
X121401530Y-73735840D01*
X121406326Y-73739045D01*
X121406329Y-73739047D01*
X121494822Y-73798176D01*
X121565576Y-73845452D01*
X121570879Y-73847730D01*
X121570882Y-73847732D01*
X121702076Y-73904097D01*
X121746849Y-73923333D01*
X121830883Y-73942348D01*
X121933644Y-73965601D01*
X121933647Y-73965601D01*
X121939280Y-73966876D01*
X121945051Y-73967103D01*
X121945053Y-73967103D01*
X122004054Y-73969421D01*
X122136423Y-73974622D01*
X122251789Y-73957894D01*
X122325955Y-73947141D01*
X122325959Y-73947140D01*
X122331677Y-73946311D01*
X122337149Y-73944453D01*
X122337151Y-73944453D01*
X122513038Y-73884747D01*
X122513040Y-73884746D01*
X122518502Y-73882892D01*
X122690642Y-73786490D01*
X122842331Y-73660331D01*
X122968490Y-73508642D01*
X122980228Y-73487683D01*
X123001110Y-73450395D01*
X123064892Y-73336502D01*
X123072289Y-73314713D01*
X123126453Y-73155151D01*
X123126453Y-73155149D01*
X123128311Y-73149677D01*
X123131746Y-73125991D01*
X123146285Y-73025717D01*
X123156622Y-72954423D01*
X123158099Y-72898000D01*
X123140046Y-72701532D01*
X123132421Y-72674493D01*
X123088060Y-72517203D01*
X123088059Y-72517201D01*
X123086492Y-72511644D01*
X123077620Y-72493652D01*
X123001786Y-72339876D01*
X122999231Y-72334695D01*
X122993938Y-72327606D01*
X122884637Y-72181235D01*
X122884636Y-72181234D01*
X122881184Y-72176611D01*
X122861607Y-72158514D01*
X122740546Y-72046607D01*
X122740544Y-72046605D01*
X122736305Y-72042687D01*
X122569447Y-71937407D01*
X122386197Y-71864297D01*
X122380529Y-71863170D01*
X122380527Y-71863169D01*
X122198360Y-71826934D01*
X122198356Y-71826934D01*
X122192692Y-71825807D01*
X122186917Y-71825731D01*
X122186913Y-71825731D01*
X122088267Y-71824440D01*
X121995413Y-71823224D01*
X121989716Y-71824203D01*
X121989715Y-71824203D01*
X121806664Y-71855657D01*
X121800967Y-71856636D01*
X121615866Y-71924924D01*
X121610905Y-71927876D01*
X121610904Y-71927876D01*
X121451277Y-72022844D01*
X121451274Y-72022846D01*
X121446309Y-72025800D01*
X121441969Y-72029606D01*
X121441965Y-72029609D01*
X121316267Y-72139844D01*
X121297975Y-72155886D01*
X121175830Y-72310825D01*
X121173141Y-72315936D01*
X121173139Y-72315939D01*
X121151395Y-72357268D01*
X121083966Y-72485429D01*
X121025460Y-72673851D01*
X121002270Y-72869779D01*
X120138500Y-72869779D01*
X120138500Y-71883063D01*
X120139933Y-71864114D01*
X120140766Y-71858637D01*
X120143198Y-71842651D01*
X120141755Y-71824902D01*
X120138915Y-71789991D01*
X120138500Y-71779777D01*
X120138500Y-71771707D01*
X120138078Y-71768087D01*
X120138077Y-71768069D01*
X120135208Y-71743461D01*
X120134775Y-71739086D01*
X120129454Y-71673661D01*
X120129453Y-71673658D01*
X120128860Y-71666363D01*
X120126604Y-71659399D01*
X120125413Y-71653440D01*
X120124029Y-71647585D01*
X120123182Y-71640319D01*
X120098265Y-71571673D01*
X120096848Y-71567545D01*
X120076607Y-71505064D01*
X120076606Y-71505062D01*
X120074351Y-71498101D01*
X120070555Y-71491846D01*
X120068049Y-71486372D01*
X120065330Y-71480942D01*
X120062833Y-71474063D01*
X120022809Y-71413016D01*
X120020472Y-71409312D01*
X119985509Y-71351693D01*
X119985505Y-71351688D01*
X119982595Y-71346892D01*
X119975197Y-71338516D01*
X119975223Y-71338493D01*
X119972574Y-71335503D01*
X119969866Y-71332264D01*
X119965856Y-71326148D01*
X119960549Y-71321121D01*
X119960546Y-71321117D01*
X119909617Y-71272872D01*
X119907175Y-71270494D01*
X119126405Y-70489724D01*
X119092379Y-70427412D01*
X119089500Y-70400629D01*
X119089500Y-70329779D01*
X121002270Y-70329779D01*
X121015174Y-70526652D01*
X121063739Y-70717877D01*
X121146339Y-70897049D01*
X121260207Y-71058169D01*
X121401530Y-71195840D01*
X121406326Y-71199045D01*
X121406329Y-71199047D01*
X121518593Y-71274059D01*
X121565576Y-71305452D01*
X121570879Y-71307730D01*
X121570882Y-71307732D01*
X121740432Y-71380576D01*
X121746849Y-71383333D01*
X121838038Y-71403967D01*
X121933644Y-71425601D01*
X121933647Y-71425601D01*
X121939280Y-71426876D01*
X121945051Y-71427103D01*
X121945053Y-71427103D01*
X122004054Y-71429421D01*
X122136423Y-71434622D01*
X122251789Y-71417894D01*
X122325955Y-71407141D01*
X122325959Y-71407140D01*
X122331677Y-71406311D01*
X122337149Y-71404453D01*
X122337151Y-71404453D01*
X122513038Y-71344747D01*
X122513040Y-71344746D01*
X122518502Y-71342892D01*
X122641333Y-71274104D01*
X122685605Y-71249311D01*
X122685606Y-71249310D01*
X122690642Y-71246490D01*
X122842331Y-71120331D01*
X122968490Y-70968642D01*
X123064892Y-70796502D01*
X123067685Y-70788276D01*
X123126453Y-70615151D01*
X123126453Y-70615149D01*
X123128311Y-70609677D01*
X123129157Y-70603846D01*
X123145704Y-70489724D01*
X123156622Y-70414423D01*
X123158099Y-70358000D01*
X123140046Y-70161532D01*
X123133887Y-70139692D01*
X123088060Y-69977203D01*
X123088059Y-69977201D01*
X123086492Y-69971644D01*
X123076381Y-69951139D01*
X123001786Y-69799876D01*
X122999231Y-69794695D01*
X122981407Y-69770825D01*
X122884637Y-69641235D01*
X122884636Y-69641234D01*
X122881184Y-69636611D01*
X122863671Y-69620422D01*
X122740546Y-69506607D01*
X122740544Y-69506605D01*
X122736305Y-69502687D01*
X122569447Y-69397407D01*
X122386197Y-69324297D01*
X122380529Y-69323170D01*
X122380527Y-69323169D01*
X122198360Y-69286934D01*
X122198356Y-69286934D01*
X122192692Y-69285807D01*
X122186917Y-69285731D01*
X122186913Y-69285731D01*
X122088267Y-69284440D01*
X121995413Y-69283224D01*
X121989716Y-69284203D01*
X121989715Y-69284203D01*
X121977919Y-69286230D01*
X121800967Y-69316636D01*
X121615866Y-69384924D01*
X121610905Y-69387876D01*
X121610904Y-69387876D01*
X121451277Y-69482844D01*
X121451274Y-69482846D01*
X121446309Y-69485800D01*
X121441969Y-69489606D01*
X121441965Y-69489609D01*
X121345873Y-69573880D01*
X121297975Y-69615886D01*
X121175830Y-69770825D01*
X121173141Y-69775936D01*
X121173139Y-69775939D01*
X121126732Y-69864144D01*
X121083966Y-69945429D01*
X121025460Y-70133851D01*
X121002270Y-70329779D01*
X119089500Y-70329779D01*
X119089500Y-69991600D01*
X119088006Y-69977203D01*
X119079238Y-69892692D01*
X119079237Y-69892688D01*
X119078526Y-69885834D01*
X119054399Y-69813515D01*
X119024868Y-69725002D01*
X119022550Y-69718054D01*
X118929478Y-69567652D01*
X118804303Y-69442695D01*
X118800084Y-69440094D01*
X118759583Y-69382970D01*
X118756351Y-69312047D01*
X118791976Y-69250635D01*
X118799530Y-69244078D01*
X118805348Y-69240478D01*
X118930305Y-69115303D01*
X119023115Y-68964738D01*
X119064139Y-68841053D01*
X119076632Y-68803389D01*
X119076632Y-68803387D01*
X119078797Y-68796861D01*
X119089500Y-68692400D01*
X119089500Y-68091600D01*
X119089163Y-68088350D01*
X119079238Y-67992692D01*
X119079237Y-67992688D01*
X119078526Y-67985834D01*
X119069069Y-67957486D01*
X119024868Y-67825002D01*
X119022550Y-67818054D01*
X119005053Y-67789779D01*
X121002270Y-67789779D01*
X121015174Y-67986652D01*
X121063739Y-68177877D01*
X121146339Y-68357049D01*
X121260207Y-68518169D01*
X121310270Y-68566938D01*
X121385646Y-68640366D01*
X121401530Y-68655840D01*
X121406326Y-68659045D01*
X121406329Y-68659047D01*
X121451358Y-68689134D01*
X121565576Y-68765452D01*
X121570879Y-68767730D01*
X121570882Y-68767732D01*
X121741542Y-68841053D01*
X121746849Y-68843333D01*
X121840185Y-68864453D01*
X121933644Y-68885601D01*
X121933647Y-68885601D01*
X121939280Y-68886876D01*
X121945051Y-68887103D01*
X121945053Y-68887103D01*
X122004054Y-68889421D01*
X122136423Y-68894622D01*
X122251789Y-68877894D01*
X122325955Y-68867141D01*
X122325959Y-68867140D01*
X122331677Y-68866311D01*
X122337149Y-68864453D01*
X122337151Y-68864453D01*
X122513038Y-68804747D01*
X122513040Y-68804746D01*
X122518502Y-68802892D01*
X122690642Y-68706490D01*
X122842331Y-68580331D01*
X122968490Y-68428642D01*
X122976691Y-68413999D01*
X123005904Y-68361834D01*
X123064892Y-68256502D01*
X123073488Y-68231181D01*
X123126453Y-68075151D01*
X123126453Y-68075149D01*
X123128311Y-68069677D01*
X123131182Y-68049880D01*
X123150083Y-67919522D01*
X123156622Y-67874423D01*
X123158099Y-67818000D01*
X123140046Y-67621532D01*
X123133275Y-67597521D01*
X123088060Y-67437203D01*
X123088059Y-67437201D01*
X123086492Y-67431644D01*
X123076286Y-67410947D01*
X123001786Y-67259876D01*
X122999231Y-67254695D01*
X122981407Y-67230825D01*
X122884637Y-67101235D01*
X122884636Y-67101234D01*
X122881184Y-67096611D01*
X122876948Y-67092695D01*
X122740546Y-66966607D01*
X122740544Y-66966605D01*
X122736305Y-66962687D01*
X122569447Y-66857407D01*
X122386197Y-66784297D01*
X122380529Y-66783170D01*
X122380527Y-66783169D01*
X122198360Y-66746934D01*
X122198356Y-66746934D01*
X122192692Y-66745807D01*
X122186917Y-66745731D01*
X122186913Y-66745731D01*
X122088267Y-66744440D01*
X121995413Y-66743224D01*
X121989716Y-66744203D01*
X121989715Y-66744203D01*
X121806664Y-66775657D01*
X121800967Y-66776636D01*
X121615866Y-66844924D01*
X121610905Y-66847876D01*
X121610904Y-66847876D01*
X121451277Y-66942844D01*
X121451274Y-66942846D01*
X121446309Y-66945800D01*
X121441969Y-66949606D01*
X121441965Y-66949609D01*
X121304148Y-67070472D01*
X121297975Y-67075886D01*
X121175830Y-67230825D01*
X121173141Y-67235936D01*
X121173139Y-67235939D01*
X121134174Y-67310000D01*
X121083966Y-67405429D01*
X121054368Y-67500751D01*
X121027861Y-67586120D01*
X121025460Y-67593851D01*
X121002270Y-67789779D01*
X119005053Y-67789779D01*
X118929478Y-67667652D01*
X118804303Y-67542695D01*
X118798072Y-67538854D01*
X118659968Y-67453725D01*
X118659966Y-67453724D01*
X118653738Y-67449885D01*
X118519707Y-67405429D01*
X118492389Y-67396368D01*
X118492387Y-67396368D01*
X118485861Y-67394203D01*
X118479025Y-67393503D01*
X118479022Y-67393502D01*
X118435969Y-67389091D01*
X118381400Y-67383500D01*
X117370371Y-67383500D01*
X117302250Y-67363498D01*
X117281276Y-67346595D01*
X115250855Y-65316174D01*
X115216829Y-65253862D01*
X115214479Y-65238608D01*
X115200575Y-65087286D01*
X115200574Y-65087283D01*
X115200046Y-65081532D01*
X115190684Y-65048334D01*
X115148060Y-64897203D01*
X115148059Y-64897201D01*
X115146492Y-64891644D01*
X115136286Y-64870947D01*
X115061786Y-64719876D01*
X115059231Y-64714695D01*
X115054277Y-64708060D01*
X114944637Y-64561235D01*
X114944636Y-64561234D01*
X114941184Y-64556611D01*
X114933780Y-64549767D01*
X114800546Y-64426607D01*
X114800544Y-64426605D01*
X114796305Y-64422687D01*
X114629447Y-64317407D01*
X114446197Y-64244297D01*
X114440529Y-64243170D01*
X114440527Y-64243169D01*
X114258360Y-64206934D01*
X114258356Y-64206934D01*
X114252692Y-64205807D01*
X114246917Y-64205731D01*
X114246913Y-64205731D01*
X114148267Y-64204440D01*
X114055413Y-64203224D01*
X114049716Y-64204203D01*
X114049715Y-64204203D01*
X113866664Y-64235657D01*
X113860967Y-64236636D01*
X113675866Y-64304924D01*
X113670905Y-64307876D01*
X113670904Y-64307876D01*
X113511277Y-64402844D01*
X113511274Y-64402846D01*
X113506309Y-64405800D01*
X113501969Y-64409606D01*
X113501965Y-64409609D01*
X113376267Y-64519844D01*
X113357975Y-64535886D01*
X113235830Y-64690825D01*
X113233141Y-64695936D01*
X113233139Y-64695939D01*
X113196015Y-64766500D01*
X113143966Y-64865429D01*
X113085460Y-65053851D01*
X113062270Y-65249779D01*
X113075174Y-65446652D01*
X113123739Y-65637877D01*
X113206339Y-65817049D01*
X113320207Y-65978169D01*
X113370190Y-66026860D01*
X113449016Y-66103649D01*
X113461530Y-66115840D01*
X113466326Y-66119045D01*
X113466329Y-66119047D01*
X113574218Y-66191136D01*
X113625576Y-66225452D01*
X113630879Y-66227730D01*
X113630882Y-66227732D01*
X113787218Y-66294899D01*
X113806849Y-66303333D01*
X113900185Y-66324453D01*
X113993644Y-66345601D01*
X113993647Y-66345601D01*
X113999280Y-66346876D01*
X114005051Y-66347103D01*
X114005053Y-66347103D01*
X114092520Y-66350540D01*
X114159802Y-66373202D01*
X114176667Y-66387348D01*
X114319732Y-66530413D01*
X114353758Y-66592725D01*
X114348693Y-66663540D01*
X114306146Y-66720376D01*
X114239626Y-66745187D01*
X114228996Y-66745497D01*
X114055413Y-66743224D01*
X114049716Y-66744203D01*
X114049715Y-66744203D01*
X113866664Y-66775657D01*
X113860967Y-66776636D01*
X113675866Y-66844924D01*
X113670905Y-66847876D01*
X113670904Y-66847876D01*
X113511277Y-66942844D01*
X113511274Y-66942846D01*
X113506309Y-66945800D01*
X113501969Y-66949606D01*
X113501965Y-66949609D01*
X113364148Y-67070472D01*
X113357975Y-67075886D01*
X113235830Y-67230825D01*
X113233141Y-67235936D01*
X113233139Y-67235939D01*
X113194174Y-67310000D01*
X113143966Y-67405429D01*
X113114368Y-67500751D01*
X113087861Y-67586120D01*
X113085460Y-67593851D01*
X113062270Y-67789779D01*
X111131748Y-67789779D01*
X111161472Y-67740699D01*
X111165880Y-67726635D01*
X111194328Y-67635855D01*
X111212753Y-67577062D01*
X111219500Y-67503635D01*
X111219499Y-66990366D01*
X111219234Y-66987474D01*
X111213364Y-66923592D01*
X111212753Y-66916938D01*
X111180890Y-66815264D01*
X111163744Y-66760550D01*
X111163743Y-66760548D01*
X111161472Y-66753301D01*
X111072639Y-66606619D01*
X111031405Y-66565385D01*
X110997379Y-66503073D01*
X110994500Y-66476290D01*
X110994500Y-66455070D01*
X110995933Y-66436120D01*
X110998099Y-66421885D01*
X110998099Y-66421881D01*
X110999199Y-66414651D01*
X110994915Y-66361982D01*
X110994500Y-66351767D01*
X110994500Y-66343707D01*
X110991209Y-66315480D01*
X110990778Y-66311121D01*
X110985454Y-66245662D01*
X110985453Y-66245659D01*
X110984860Y-66238364D01*
X110982604Y-66231400D01*
X110981417Y-66225461D01*
X110980030Y-66219590D01*
X110979182Y-66212319D01*
X110976686Y-66205443D01*
X110976684Y-66205434D01*
X110954275Y-66143702D01*
X110952865Y-66139598D01*
X110930352Y-66070101D01*
X110926556Y-66063846D01*
X110924057Y-66058387D01*
X110921329Y-66052939D01*
X110918833Y-66046063D01*
X110878805Y-65985010D01*
X110876481Y-65981327D01*
X110841500Y-65923680D01*
X110841499Y-65923679D01*
X110838595Y-65918893D01*
X110831198Y-65910517D01*
X110831225Y-65910493D01*
X110828570Y-65907499D01*
X110825868Y-65904268D01*
X110821856Y-65898148D01*
X110765617Y-65844872D01*
X110763175Y-65842494D01*
X107696855Y-62776174D01*
X107662829Y-62713862D01*
X107660479Y-62698608D01*
X107646575Y-62547286D01*
X107646574Y-62547283D01*
X107646046Y-62541532D01*
X107641036Y-62523766D01*
X107602379Y-62386702D01*
X107603139Y-62315709D01*
X107642160Y-62256398D01*
X107707053Y-62227598D01*
X107723648Y-62226500D01*
X113003626Y-62226500D01*
X113071747Y-62246502D01*
X113118240Y-62300158D01*
X113128344Y-62370432D01*
X113123960Y-62389859D01*
X113085460Y-62513851D01*
X113062270Y-62709779D01*
X113075174Y-62906652D01*
X113123739Y-63097877D01*
X113206339Y-63277049D01*
X113320207Y-63438169D01*
X113461530Y-63575840D01*
X113466326Y-63579045D01*
X113466329Y-63579047D01*
X113531809Y-63622799D01*
X113625576Y-63685452D01*
X113630879Y-63687730D01*
X113630882Y-63687732D01*
X113771142Y-63747992D01*
X113806849Y-63763333D01*
X113900185Y-63784453D01*
X113993644Y-63805601D01*
X113993647Y-63805601D01*
X113999280Y-63806876D01*
X114005051Y-63807103D01*
X114005053Y-63807103D01*
X114064054Y-63809421D01*
X114196423Y-63814622D01*
X114338869Y-63793968D01*
X114385955Y-63787141D01*
X114385959Y-63787140D01*
X114391677Y-63786311D01*
X114397149Y-63784453D01*
X114397151Y-63784453D01*
X114573038Y-63724747D01*
X114573040Y-63724746D01*
X114578502Y-63722892D01*
X114750642Y-63626490D01*
X114780074Y-63602012D01*
X114897899Y-63504017D01*
X114902331Y-63500331D01*
X114980434Y-63406423D01*
X115024799Y-63353080D01*
X115028490Y-63348642D01*
X115033803Y-63339156D01*
X115065039Y-63283378D01*
X115124892Y-63176502D01*
X115129329Y-63163433D01*
X115186453Y-62995151D01*
X115186453Y-62995149D01*
X115188311Y-62989677D01*
X115192990Y-62957411D01*
X115205947Y-62868044D01*
X115216622Y-62794423D01*
X115218099Y-62738000D01*
X115203721Y-62581528D01*
X115200575Y-62547286D01*
X115200574Y-62547283D01*
X115200046Y-62541532D01*
X115195036Y-62523766D01*
X115156379Y-62386702D01*
X115157139Y-62315709D01*
X115196160Y-62256398D01*
X115261053Y-62227598D01*
X115277648Y-62226500D01*
X116473629Y-62226500D01*
X116541750Y-62246502D01*
X116562724Y-62263405D01*
X120066230Y-65766911D01*
X120078616Y-65781323D01*
X120087149Y-65792918D01*
X120087154Y-65792923D01*
X120091492Y-65798818D01*
X120097070Y-65803557D01*
X120097073Y-65803560D01*
X120131768Y-65833035D01*
X120139284Y-65839965D01*
X120144980Y-65845661D01*
X120147841Y-65847924D01*
X120147846Y-65847929D01*
X120167266Y-65863293D01*
X120170667Y-65866082D01*
X120226285Y-65913333D01*
X120232798Y-65916659D01*
X120237837Y-65920020D01*
X120242979Y-65923196D01*
X120248716Y-65927734D01*
X120314875Y-65958655D01*
X120318769Y-65960558D01*
X120383808Y-65993769D01*
X120390917Y-65995508D01*
X120396551Y-65997604D01*
X120402321Y-65999523D01*
X120408950Y-66002622D01*
X120416113Y-66004112D01*
X120416116Y-66004113D01*
X120466830Y-66014661D01*
X120480435Y-66017491D01*
X120484701Y-66018457D01*
X120555610Y-66035808D01*
X120561212Y-66036156D01*
X120561215Y-66036156D01*
X120566764Y-66036500D01*
X120566762Y-66036535D01*
X120570734Y-66036775D01*
X120574955Y-66037152D01*
X120582115Y-66038641D01*
X120659542Y-66036546D01*
X120662950Y-66036500D01*
X121268858Y-66036500D01*
X121336979Y-66056502D01*
X121356776Y-66072242D01*
X121401530Y-66115840D01*
X121565576Y-66225452D01*
X121570879Y-66227730D01*
X121570882Y-66227732D01*
X121727218Y-66294899D01*
X121746849Y-66303333D01*
X121840185Y-66324453D01*
X121933644Y-66345601D01*
X121933647Y-66345601D01*
X121939280Y-66346876D01*
X121945051Y-66347103D01*
X121945053Y-66347103D01*
X122004054Y-66349421D01*
X122136423Y-66354622D01*
X122251789Y-66337894D01*
X122325955Y-66327141D01*
X122325959Y-66327140D01*
X122331677Y-66326311D01*
X122337149Y-66324453D01*
X122337151Y-66324453D01*
X122513038Y-66264747D01*
X122513040Y-66264746D01*
X122518502Y-66262892D01*
X122572318Y-66232754D01*
X122641527Y-66216921D01*
X122708309Y-66241018D01*
X122747935Y-66289608D01*
X122749649Y-66294899D01*
X122753450Y-66301163D01*
X122755964Y-66306654D01*
X122758670Y-66312058D01*
X122761167Y-66318937D01*
X122765180Y-66325057D01*
X122765180Y-66325058D01*
X122801186Y-66379976D01*
X122803523Y-66383680D01*
X122841405Y-66446107D01*
X122845121Y-66450315D01*
X122845122Y-66450316D01*
X122848803Y-66454484D01*
X122848776Y-66454508D01*
X122851429Y-66457500D01*
X122854132Y-66460733D01*
X122858144Y-66466852D01*
X122914383Y-66520128D01*
X122916825Y-66522506D01*
X123693596Y-67299277D01*
X123727622Y-67361589D01*
X123730501Y-67388372D01*
X123730501Y-67503634D01*
X123730764Y-67506492D01*
X123730764Y-67506501D01*
X123733737Y-67538854D01*
X123737247Y-67577062D01*
X123739246Y-67583440D01*
X123739246Y-67583441D01*
X123784121Y-67726635D01*
X123788528Y-67740699D01*
X123877361Y-67887381D01*
X123972885Y-67982905D01*
X124006911Y-68045217D01*
X124001846Y-68116032D01*
X123972885Y-68161095D01*
X123877361Y-68256619D01*
X123788528Y-68403301D01*
X123786257Y-68410548D01*
X123786256Y-68410550D01*
X123779196Y-68433080D01*
X123737247Y-68566938D01*
X123730500Y-68640365D01*
X123730501Y-69153634D01*
X123730764Y-69156492D01*
X123730764Y-69156501D01*
X123731639Y-69166022D01*
X123737247Y-69227062D01*
X123739246Y-69233440D01*
X123739246Y-69233441D01*
X123775915Y-69350450D01*
X123788528Y-69390699D01*
X123877361Y-69537381D01*
X123918595Y-69578615D01*
X123952621Y-69640927D01*
X123955500Y-69667710D01*
X123955500Y-71824995D01*
X123935498Y-71893116D01*
X123918673Y-71914012D01*
X123889624Y-71943112D01*
X123889620Y-71943117D01*
X123884448Y-71948298D01*
X123880608Y-71954528D01*
X123880607Y-71954529D01*
X123799255Y-72086507D01*
X123794698Y-72093899D01*
X123740851Y-72256243D01*
X123740151Y-72263080D01*
X123740150Y-72263082D01*
X123738838Y-72275885D01*
X123730500Y-72357268D01*
X123730500Y-72904732D01*
X123741113Y-73007019D01*
X123743295Y-73013559D01*
X123780806Y-73125991D01*
X123795244Y-73169268D01*
X123799096Y-73175492D01*
X123799096Y-73175493D01*
X123814332Y-73200114D01*
X123885248Y-73314713D01*
X123890430Y-73319886D01*
X123894977Y-73325623D01*
X123893170Y-73327055D01*
X123921902Y-73379575D01*
X123916892Y-73450395D01*
X123893501Y-73486853D01*
X123894552Y-73487683D01*
X123881002Y-73504840D01*
X123798996Y-73637880D01*
X123792849Y-73651061D01*
X123743509Y-73799814D01*
X123740642Y-73813190D01*
X123731328Y-73904097D01*
X123731071Y-73909126D01*
X123735475Y-73924124D01*
X123736865Y-73925329D01*
X123744548Y-73927000D01*
X124842000Y-73927000D01*
X124910121Y-73947002D01*
X124956614Y-74000658D01*
X124968000Y-74053000D01*
X124968000Y-75129626D01*
X124970083Y-75142844D01*
X124971454Y-75193522D01*
X124971500Y-75196929D01*
X124971500Y-80303500D01*
X124951498Y-80371621D01*
X124897842Y-80418114D01*
X124845500Y-80429500D01*
X124831866Y-80429500D01*
X124769684Y-80436255D01*
X124633295Y-80487385D01*
X124516739Y-80574739D01*
X124429385Y-80691295D01*
X124378255Y-80827684D01*
X124371500Y-80889866D01*
X124371500Y-82686134D01*
X124378255Y-82748316D01*
X124429385Y-82884705D01*
X124516739Y-83001261D01*
X124633295Y-83088615D01*
X124769684Y-83139745D01*
X124831866Y-83146500D01*
X126628134Y-83146500D01*
X126690316Y-83139745D01*
X126826705Y-83088615D01*
X126943261Y-83001261D01*
X127030615Y-82884705D01*
X127081745Y-82748316D01*
X127088500Y-82686134D01*
X127088500Y-80889866D01*
X127081745Y-80827684D01*
X127030615Y-80691295D01*
X126943261Y-80574739D01*
X126826705Y-80487385D01*
X126690316Y-80436255D01*
X126628134Y-80429500D01*
X126614500Y-80429500D01*
X126546379Y-80409498D01*
X126499886Y-80355842D01*
X126488500Y-80303500D01*
X126488500Y-75550371D01*
X126508502Y-75482250D01*
X126525405Y-75461276D01*
X126726911Y-75259770D01*
X126741323Y-75247384D01*
X126752918Y-75238851D01*
X126752923Y-75238846D01*
X126758818Y-75234508D01*
X126763557Y-75228930D01*
X126763560Y-75228927D01*
X126793035Y-75194232D01*
X126799965Y-75186716D01*
X126805660Y-75181021D01*
X126823281Y-75158749D01*
X126826072Y-75155345D01*
X126868591Y-75105297D01*
X126868592Y-75105295D01*
X126873333Y-75099715D01*
X126876661Y-75093199D01*
X126880020Y-75088162D01*
X126883194Y-75083023D01*
X126887734Y-75077284D01*
X126918636Y-75011163D01*
X126920569Y-75007209D01*
X126934470Y-74979986D01*
X126953769Y-74942192D01*
X126954558Y-74938966D01*
X127954257Y-74938966D01*
X127984565Y-75073446D01*
X127987645Y-75083275D01*
X128067770Y-75280603D01*
X128072413Y-75289794D01*
X128183694Y-75471388D01*
X128189777Y-75479699D01*
X128329213Y-75640667D01*
X128336580Y-75647883D01*
X128500434Y-75783916D01*
X128508881Y-75789831D01*
X128692756Y-75897279D01*
X128702042Y-75901729D01*
X128901001Y-75977703D01*
X128910899Y-75980579D01*
X129014250Y-76001606D01*
X129028299Y-76000410D01*
X129032000Y-75990065D01*
X129032000Y-75989517D01*
X129540000Y-75989517D01*
X129544064Y-76003359D01*
X129557478Y-76005393D01*
X129564184Y-76004534D01*
X129574262Y-76002392D01*
X129778255Y-75941191D01*
X129787842Y-75937433D01*
X129979095Y-75843739D01*
X129987945Y-75838464D01*
X130161328Y-75714792D01*
X130169200Y-75708139D01*
X130320052Y-75557812D01*
X130326730Y-75549965D01*
X130451003Y-75377020D01*
X130456313Y-75368183D01*
X130550670Y-75177267D01*
X130554469Y-75167672D01*
X130616377Y-74963910D01*
X130618555Y-74953837D01*
X130619986Y-74942962D01*
X130617775Y-74928778D01*
X130604617Y-74925000D01*
X129558115Y-74925000D01*
X129542876Y-74929475D01*
X129541671Y-74930865D01*
X129540000Y-74938548D01*
X129540000Y-75989517D01*
X129032000Y-75989517D01*
X129032000Y-74943115D01*
X129027525Y-74927876D01*
X129026135Y-74926671D01*
X129018452Y-74925000D01*
X127969225Y-74925000D01*
X127955694Y-74928973D01*
X127954257Y-74938966D01*
X126954558Y-74938966D01*
X126955510Y-74935076D01*
X126957604Y-74929446D01*
X126959523Y-74923679D01*
X126962621Y-74917050D01*
X126968609Y-74888265D01*
X126977482Y-74845604D01*
X126978453Y-74841315D01*
X126985051Y-74814350D01*
X126995808Y-74770390D01*
X126996500Y-74759236D01*
X126996536Y-74759238D01*
X126996775Y-74755248D01*
X126997150Y-74751050D01*
X126998640Y-74743885D01*
X126996546Y-74666496D01*
X126996500Y-74663088D01*
X126996500Y-73219063D01*
X126997933Y-73200114D01*
X127000097Y-73185886D01*
X127001198Y-73178651D01*
X126998842Y-73149677D01*
X126996915Y-73125991D01*
X126996500Y-73115777D01*
X126996500Y-73107707D01*
X126996078Y-73104087D01*
X126996077Y-73104069D01*
X126993208Y-73079461D01*
X126992775Y-73075086D01*
X126987454Y-73009661D01*
X126987453Y-73009658D01*
X126986860Y-73002363D01*
X126984604Y-72995399D01*
X126983413Y-72989440D01*
X126982029Y-72983585D01*
X126981182Y-72976319D01*
X126956265Y-72907673D01*
X126954848Y-72903545D01*
X126934607Y-72841064D01*
X126934606Y-72841062D01*
X126932351Y-72834101D01*
X126928555Y-72827846D01*
X126926049Y-72822372D01*
X126923330Y-72816942D01*
X126920833Y-72810063D01*
X126880809Y-72749016D01*
X126878472Y-72745312D01*
X126868427Y-72728757D01*
X126848532Y-72695971D01*
X126843509Y-72687693D01*
X126843505Y-72687688D01*
X126840595Y-72682892D01*
X126833197Y-72674516D01*
X126833223Y-72674493D01*
X126830574Y-72671503D01*
X126827866Y-72668264D01*
X126823856Y-72662148D01*
X126818549Y-72657121D01*
X126818546Y-72657117D01*
X126767617Y-72608872D01*
X126765175Y-72606494D01*
X126313770Y-72155089D01*
X126301384Y-72140677D01*
X126292851Y-72129082D01*
X126292846Y-72129077D01*
X126288508Y-72123182D01*
X126282930Y-72118443D01*
X126282927Y-72118440D01*
X126248232Y-72088965D01*
X126240716Y-72082035D01*
X126235021Y-72076340D01*
X126220935Y-72065196D01*
X126212749Y-72058719D01*
X126209345Y-72055928D01*
X126159297Y-72013409D01*
X126159295Y-72013408D01*
X126153715Y-72008667D01*
X126147199Y-72005339D01*
X126142150Y-72001972D01*
X126137021Y-71998805D01*
X126131284Y-71994266D01*
X126065125Y-71963345D01*
X126061225Y-71961439D01*
X125996192Y-71928231D01*
X125989084Y-71926492D01*
X125983441Y-71924393D01*
X125977678Y-71922476D01*
X125971050Y-71919378D01*
X125899583Y-71904513D01*
X125895299Y-71903543D01*
X125886709Y-71901441D01*
X125824390Y-71886192D01*
X125818788Y-71885844D01*
X125818785Y-71885844D01*
X125813236Y-71885500D01*
X125813238Y-71885464D01*
X125809245Y-71885225D01*
X125805053Y-71884851D01*
X125797885Y-71883360D01*
X125731675Y-71885151D01*
X125720479Y-71885454D01*
X125717072Y-71885500D01*
X125598500Y-71885500D01*
X125530379Y-71865498D01*
X125483886Y-71811842D01*
X125472500Y-71759500D01*
X125472500Y-69667710D01*
X125492502Y-69599589D01*
X125509405Y-69578615D01*
X125550639Y-69537381D01*
X125639472Y-69390699D01*
X125652263Y-69349885D01*
X125673153Y-69283224D01*
X125690753Y-69227062D01*
X125697500Y-69153635D01*
X125697499Y-68640366D01*
X125697234Y-68637474D01*
X125691364Y-68573592D01*
X125690753Y-68566938D01*
X125660646Y-68470866D01*
X125641744Y-68410550D01*
X125641743Y-68410548D01*
X125639472Y-68403301D01*
X125550639Y-68256619D01*
X125455115Y-68161095D01*
X125421089Y-68098783D01*
X125426154Y-68027968D01*
X125455115Y-67982905D01*
X125550639Y-67887381D01*
X125639472Y-67740699D01*
X125643880Y-67726635D01*
X125672328Y-67635855D01*
X125690753Y-67577062D01*
X125697500Y-67503635D01*
X125697499Y-66990366D01*
X125697234Y-66987474D01*
X125691364Y-66923592D01*
X125690753Y-66916938D01*
X125658890Y-66815264D01*
X125641744Y-66760550D01*
X125641743Y-66760548D01*
X125639472Y-66753301D01*
X125550639Y-66606619D01*
X125429381Y-66485361D01*
X125282699Y-66396528D01*
X125275452Y-66394257D01*
X125275450Y-66394256D01*
X125172463Y-66361982D01*
X125119062Y-66345247D01*
X125045635Y-66338500D01*
X124930371Y-66338500D01*
X124862250Y-66318498D01*
X124841276Y-66301595D01*
X124745275Y-66205594D01*
X124711249Y-66143282D01*
X124716314Y-66072467D01*
X124758861Y-66015631D01*
X124825381Y-65990820D01*
X124834359Y-65990499D01*
X125045634Y-65990499D01*
X125048492Y-65990236D01*
X125048501Y-65990236D01*
X125084004Y-65986974D01*
X125119062Y-65983753D01*
X125125441Y-65981754D01*
X125275450Y-65934744D01*
X125275452Y-65934743D01*
X125282699Y-65932472D01*
X125404473Y-65858724D01*
X125469743Y-65840500D01*
X127141430Y-65840500D01*
X127160380Y-65841933D01*
X127174615Y-65844099D01*
X127174619Y-65844099D01*
X127181849Y-65845199D01*
X127189141Y-65844606D01*
X127189144Y-65844606D01*
X127234518Y-65840915D01*
X127244733Y-65840500D01*
X127252793Y-65840500D01*
X127266083Y-65838951D01*
X127281007Y-65837211D01*
X127285382Y-65836778D01*
X127350839Y-65831454D01*
X127350842Y-65831453D01*
X127358137Y-65830860D01*
X127365101Y-65828604D01*
X127371060Y-65827413D01*
X127376915Y-65826029D01*
X127384181Y-65825182D01*
X127452827Y-65800265D01*
X127456955Y-65798848D01*
X127519429Y-65778609D01*
X127522744Y-65777535D01*
X127522749Y-65777534D01*
X127526400Y-65776351D01*
X127526517Y-65776712D01*
X127573351Y-65766500D01*
X127986502Y-65766500D01*
X127988950Y-65766307D01*
X127988958Y-65766307D01*
X128017421Y-65764067D01*
X128017426Y-65764066D01*
X128023831Y-65763562D01*
X128129994Y-65732719D01*
X128175988Y-65719357D01*
X128175990Y-65719356D01*
X128183601Y-65717145D01*
X128326807Y-65632453D01*
X128327279Y-65631981D01*
X128390356Y-65607213D01*
X128459978Y-65621111D01*
X128511035Y-65670444D01*
X128527500Y-65732719D01*
X128527500Y-65831219D01*
X128507498Y-65899340D01*
X128467803Y-65938363D01*
X128336652Y-66019522D01*
X128211695Y-66144697D01*
X128207855Y-66150927D01*
X128207854Y-66150928D01*
X128152322Y-66241018D01*
X128118885Y-66295262D01*
X128101690Y-66347103D01*
X128066074Y-66454484D01*
X128063203Y-66463139D01*
X128062503Y-66469975D01*
X128062502Y-66469978D01*
X128060926Y-66485361D01*
X128052500Y-66567600D01*
X128052500Y-67168400D01*
X128052837Y-67171646D01*
X128052837Y-67171650D01*
X128061849Y-67258500D01*
X128063474Y-67274166D01*
X128065655Y-67280702D01*
X128065655Y-67280704D01*
X128076389Y-67312876D01*
X128119450Y-67441946D01*
X128212522Y-67592348D01*
X128337697Y-67717305D01*
X128341916Y-67719906D01*
X128382417Y-67777030D01*
X128385649Y-67847953D01*
X128350024Y-67909365D01*
X128342470Y-67915922D01*
X128336652Y-67919522D01*
X128211695Y-68044697D01*
X128207855Y-68050927D01*
X128207854Y-68050928D01*
X128126368Y-68183123D01*
X128118885Y-68195262D01*
X128116581Y-68202209D01*
X128066963Y-68351804D01*
X128063203Y-68363139D01*
X128052500Y-68467600D01*
X128052500Y-69068400D01*
X128052837Y-69071646D01*
X128052837Y-69071650D01*
X128061644Y-69156526D01*
X128063474Y-69174166D01*
X128065655Y-69180702D01*
X128065655Y-69180704D01*
X128100695Y-69285731D01*
X128119450Y-69341946D01*
X128212522Y-69492348D01*
X128337697Y-69617305D01*
X128343927Y-69621145D01*
X128343928Y-69621146D01*
X128467616Y-69697389D01*
X128515110Y-69750162D01*
X128527500Y-69804649D01*
X128527500Y-70646500D01*
X128507498Y-70714621D01*
X128453842Y-70761114D01*
X128401500Y-70772500D01*
X128387866Y-70772500D01*
X128325684Y-70779255D01*
X128189295Y-70830385D01*
X128072739Y-70917739D01*
X127985385Y-71034295D01*
X127934255Y-71170684D01*
X127927500Y-71232866D01*
X127927500Y-73029134D01*
X127934255Y-73091316D01*
X127985385Y-73227705D01*
X128072739Y-73344261D01*
X128189295Y-73431615D01*
X128197704Y-73434767D01*
X128197705Y-73434768D01*
X128306960Y-73475726D01*
X128363725Y-73518367D01*
X128388425Y-73584929D01*
X128373218Y-73654278D01*
X128353825Y-73680759D01*
X128230590Y-73809717D01*
X128224104Y-73817727D01*
X128104098Y-73993649D01*
X128099000Y-74002623D01*
X128009338Y-74195783D01*
X128005775Y-74205470D01*
X127950389Y-74405183D01*
X127951912Y-74413607D01*
X127964292Y-74417000D01*
X130604344Y-74417000D01*
X130617875Y-74413027D01*
X130619180Y-74403947D01*
X130577214Y-74236875D01*
X130573894Y-74227124D01*
X130488972Y-74031814D01*
X130484105Y-74022739D01*
X130368426Y-73843926D01*
X130362136Y-73835757D01*
X130218293Y-73677677D01*
X130187241Y-73613831D01*
X130195635Y-73543333D01*
X130240812Y-73488564D01*
X130267256Y-73474895D01*
X130374297Y-73434767D01*
X130382705Y-73431615D01*
X130499261Y-73344261D01*
X130586615Y-73227705D01*
X130637745Y-73091316D01*
X130644500Y-73029134D01*
X130644500Y-71232866D01*
X130637745Y-71170684D01*
X130586615Y-71034295D01*
X130499261Y-70917739D01*
X130382705Y-70830385D01*
X130246316Y-70779255D01*
X130184134Y-70772500D01*
X130170500Y-70772500D01*
X130102379Y-70752498D01*
X130055886Y-70698842D01*
X130044500Y-70646500D01*
X130044500Y-69804781D01*
X130064502Y-69736660D01*
X130104197Y-69697637D01*
X130229120Y-69620332D01*
X130235348Y-69616478D01*
X130360305Y-69491303D01*
X130391382Y-69440887D01*
X130449275Y-69346968D01*
X130449276Y-69346966D01*
X130453115Y-69340738D01*
X130483001Y-69250635D01*
X130506632Y-69179389D01*
X130506632Y-69179387D01*
X130508797Y-69172861D01*
X130511063Y-69150751D01*
X130519172Y-69071598D01*
X130519500Y-69068400D01*
X130519500Y-68467600D01*
X130519163Y-68464350D01*
X130509238Y-68368692D01*
X130509237Y-68368688D01*
X130508526Y-68361834D01*
X130452550Y-68194054D01*
X130359478Y-68043652D01*
X130234303Y-67918695D01*
X130230084Y-67916094D01*
X130189583Y-67858970D01*
X130186351Y-67788047D01*
X130221976Y-67726635D01*
X130229530Y-67720078D01*
X130235348Y-67716478D01*
X130360305Y-67591303D01*
X130373185Y-67570408D01*
X130449275Y-67446968D01*
X130449276Y-67446966D01*
X130453115Y-67440738D01*
X130484341Y-67346595D01*
X130506632Y-67279389D01*
X130506632Y-67279387D01*
X130508797Y-67272861D01*
X130510128Y-67259876D01*
X130519172Y-67171598D01*
X130519500Y-67168400D01*
X130519500Y-66567600D01*
X130514694Y-66521279D01*
X130509238Y-66468692D01*
X130509237Y-66468688D01*
X130508526Y-66461834D01*
X130506270Y-66455070D01*
X130454868Y-66301002D01*
X130452550Y-66294054D01*
X130359478Y-66143652D01*
X130234303Y-66018695D01*
X130205246Y-66000784D01*
X130104384Y-65938611D01*
X130056890Y-65885838D01*
X130044500Y-65831351D01*
X130044500Y-64847353D01*
X130064502Y-64779232D01*
X130106359Y-64738901D01*
X130201807Y-64682453D01*
X130319453Y-64564807D01*
X130323489Y-64557983D01*
X130323491Y-64557980D01*
X130400108Y-64428427D01*
X130404145Y-64421601D01*
X130407631Y-64409604D01*
X130433521Y-64320486D01*
X130450562Y-64261831D01*
X130451774Y-64246439D01*
X130453307Y-64226958D01*
X130453307Y-64226950D01*
X130453500Y-64224502D01*
X130453500Y-63791498D01*
X130451384Y-63764608D01*
X130451067Y-63760579D01*
X130451066Y-63760574D01*
X130450562Y-63754169D01*
X130417735Y-63641176D01*
X130406357Y-63602012D01*
X130406356Y-63602010D01*
X130404145Y-63594399D01*
X130365217Y-63528576D01*
X130323491Y-63458020D01*
X130323489Y-63458017D01*
X130319453Y-63451193D01*
X130201807Y-63333547D01*
X130194983Y-63329511D01*
X130194980Y-63329509D01*
X130116976Y-63283378D01*
X130058601Y-63248855D01*
X130026207Y-63239444D01*
X129966372Y-63201231D01*
X129942921Y-63161439D01*
X129925764Y-63114170D01*
X129924347Y-63110042D01*
X129904107Y-63047564D01*
X129904106Y-63047562D01*
X129901851Y-63040601D01*
X129898055Y-63034346D01*
X129895549Y-63028872D01*
X129892830Y-63023442D01*
X129890333Y-63016563D01*
X129886320Y-63010442D01*
X129850314Y-62955524D01*
X129847967Y-62951805D01*
X129810095Y-62889393D01*
X129802697Y-62881016D01*
X129802724Y-62880992D01*
X129800071Y-62878000D01*
X129797368Y-62874767D01*
X129793356Y-62868648D01*
X129737117Y-62815372D01*
X129734675Y-62812994D01*
X126992404Y-60070723D01*
X126958378Y-60008411D01*
X126955499Y-59981628D01*
X126955499Y-59866366D01*
X126948753Y-59792938D01*
X126917580Y-59693464D01*
X126899744Y-59636550D01*
X126899743Y-59636548D01*
X126897472Y-59629301D01*
X126808639Y-59482619D01*
X126687381Y-59361361D01*
X126540699Y-59272528D01*
X126533452Y-59270257D01*
X126533450Y-59270256D01*
X126428628Y-59237407D01*
X126377062Y-59221247D01*
X126303635Y-59214500D01*
X126300737Y-59214500D01*
X126046335Y-59214501D01*
X125790366Y-59214501D01*
X125787508Y-59214764D01*
X125787499Y-59214764D01*
X125751996Y-59218026D01*
X125716938Y-59221247D01*
X125710560Y-59223246D01*
X125710559Y-59223246D01*
X125560550Y-59270256D01*
X125560548Y-59270257D01*
X125553301Y-59272528D01*
X125406619Y-59361361D01*
X125311095Y-59456885D01*
X125248783Y-59490911D01*
X125177968Y-59485846D01*
X125132905Y-59456885D01*
X125037381Y-59361361D01*
X124890699Y-59272528D01*
X124883452Y-59270257D01*
X124883450Y-59270256D01*
X124778628Y-59237407D01*
X124727062Y-59221247D01*
X124653635Y-59214500D01*
X124538371Y-59214500D01*
X124470250Y-59194498D01*
X124449276Y-59177595D01*
X123456770Y-58185089D01*
X123444384Y-58170677D01*
X123435851Y-58159082D01*
X123435846Y-58159077D01*
X123431508Y-58153182D01*
X123409545Y-58134523D01*
X123370582Y-58075177D01*
X123369889Y-58004184D01*
X123407688Y-57944086D01*
X123471977Y-57913964D01*
X123491126Y-57912500D01*
X131445500Y-57912500D01*
X131513621Y-57932502D01*
X131560114Y-57986158D01*
X131571500Y-58038500D01*
X131571500Y-89281500D01*
X131551498Y-89349621D01*
X131497842Y-89396114D01*
X131445500Y-89407500D01*
X84689371Y-89407500D01*
X84621250Y-89387498D01*
X84574757Y-89333842D01*
X84564653Y-89263568D01*
X84594147Y-89198988D01*
X84600276Y-89192405D01*
X86848911Y-86943770D01*
X86863323Y-86931384D01*
X86874918Y-86922851D01*
X86874923Y-86922846D01*
X86880818Y-86918508D01*
X86885557Y-86912930D01*
X86885560Y-86912927D01*
X86915035Y-86878232D01*
X86921965Y-86870716D01*
X86927660Y-86865021D01*
X86945281Y-86842749D01*
X86948072Y-86839345D01*
X86990591Y-86789297D01*
X86990592Y-86789295D01*
X86995333Y-86783715D01*
X86998661Y-86777199D01*
X87002020Y-86772162D01*
X87005194Y-86767023D01*
X87009734Y-86761284D01*
X87040636Y-86695163D01*
X87042569Y-86691209D01*
X87046239Y-86684021D01*
X87075769Y-86626192D01*
X87077510Y-86619076D01*
X87079604Y-86613446D01*
X87081523Y-86607679D01*
X87084621Y-86601050D01*
X87099483Y-86529600D01*
X87100453Y-86525315D01*
X87116473Y-86459844D01*
X87117808Y-86454390D01*
X87118500Y-86443236D01*
X87118536Y-86443238D01*
X87118775Y-86439248D01*
X87119150Y-86435050D01*
X87120640Y-86427885D01*
X87118546Y-86350479D01*
X87118500Y-86347072D01*
X87118500Y-81253070D01*
X87119933Y-81234120D01*
X87122099Y-81219885D01*
X87122099Y-81219881D01*
X87123199Y-81212651D01*
X87118915Y-81159982D01*
X87118500Y-81149767D01*
X87118500Y-81141707D01*
X87115211Y-81113493D01*
X87114778Y-81109118D01*
X87109454Y-81043661D01*
X87109453Y-81043658D01*
X87108860Y-81036363D01*
X87106604Y-81029399D01*
X87105413Y-81023440D01*
X87104029Y-81017585D01*
X87103182Y-81010319D01*
X87078265Y-80941673D01*
X87076848Y-80937545D01*
X87056607Y-80875064D01*
X87056606Y-80875062D01*
X87054351Y-80868101D01*
X87050555Y-80861846D01*
X87048049Y-80856372D01*
X87045330Y-80850942D01*
X87042833Y-80844063D01*
X87037245Y-80835540D01*
X87002814Y-80783024D01*
X87000467Y-80779305D01*
X86962595Y-80716893D01*
X86955197Y-80708516D01*
X86955224Y-80708492D01*
X86952571Y-80705500D01*
X86949868Y-80702267D01*
X86945856Y-80696148D01*
X86889617Y-80642872D01*
X86887175Y-80640494D01*
X84262855Y-78016174D01*
X84228829Y-77953862D01*
X84226479Y-77938608D01*
X84212575Y-77787286D01*
X84212574Y-77787283D01*
X84212046Y-77781532D01*
X84205887Y-77759692D01*
X84160060Y-77597203D01*
X84160059Y-77597201D01*
X84158492Y-77591644D01*
X84148381Y-77571139D01*
X84073786Y-77419876D01*
X84071231Y-77414695D01*
X84053407Y-77390825D01*
X83956637Y-77261235D01*
X83956636Y-77261234D01*
X83953184Y-77256611D01*
X83930764Y-77235886D01*
X83812546Y-77126607D01*
X83812544Y-77126605D01*
X83808305Y-77122687D01*
X83641447Y-77017407D01*
X83458197Y-76944297D01*
X83452529Y-76943170D01*
X83452527Y-76943169D01*
X83270360Y-76906934D01*
X83270356Y-76906934D01*
X83264692Y-76905807D01*
X83258917Y-76905731D01*
X83258913Y-76905731D01*
X83160267Y-76904440D01*
X83067413Y-76903224D01*
X83061716Y-76904203D01*
X83061715Y-76904203D01*
X83049919Y-76906230D01*
X82872967Y-76936636D01*
X82687866Y-77004924D01*
X82682905Y-77007876D01*
X82682904Y-77007876D01*
X82523277Y-77102844D01*
X82523274Y-77102846D01*
X82518309Y-77105800D01*
X82513969Y-77109606D01*
X82513965Y-77109609D01*
X82502566Y-77119606D01*
X82432945Y-77180663D01*
X82426517Y-77186300D01*
X82362113Y-77216177D01*
X82291780Y-77206491D01*
X82254344Y-77180663D01*
X81792404Y-76718723D01*
X81758378Y-76656411D01*
X81755499Y-76629628D01*
X81755499Y-76514366D01*
X81755234Y-76511474D01*
X81751974Y-76475996D01*
X81748753Y-76440938D01*
X81712887Y-76326490D01*
X81699744Y-76284550D01*
X81699743Y-76284548D01*
X81697472Y-76277301D01*
X81608639Y-76130619D01*
X81513115Y-76035095D01*
X81479089Y-75972783D01*
X81484154Y-75901968D01*
X81513115Y-75856905D01*
X81608639Y-75761381D01*
X81697472Y-75614699D01*
X81701802Y-75600884D01*
X81738979Y-75482250D01*
X81748753Y-75451062D01*
X81752390Y-75411481D01*
X81778541Y-75345476D01*
X81788766Y-75333915D01*
X81865853Y-75256828D01*
X81928165Y-75222802D01*
X81998980Y-75227867D01*
X82055816Y-75270414D01*
X82080627Y-75336934D01*
X82080075Y-75360733D01*
X82074270Y-75409779D01*
X82087174Y-75606652D01*
X82135739Y-75797877D01*
X82218339Y-75977049D01*
X82332207Y-76138169D01*
X82473530Y-76275840D01*
X82478326Y-76279045D01*
X82478329Y-76279047D01*
X82486565Y-76284550D01*
X82637576Y-76385452D01*
X82642879Y-76387730D01*
X82642882Y-76387732D01*
X82813542Y-76461053D01*
X82818849Y-76463333D01*
X82912185Y-76484453D01*
X83005644Y-76505601D01*
X83005647Y-76505601D01*
X83011280Y-76506876D01*
X83017051Y-76507103D01*
X83017053Y-76507103D01*
X83076054Y-76509421D01*
X83208423Y-76514622D01*
X83323789Y-76497894D01*
X83397955Y-76487141D01*
X83397959Y-76487140D01*
X83403677Y-76486311D01*
X83409149Y-76484453D01*
X83409151Y-76484453D01*
X83585038Y-76424747D01*
X83585040Y-76424746D01*
X83590502Y-76422892D01*
X83762642Y-76326490D01*
X83914331Y-76200331D01*
X84040490Y-76048642D01*
X84136892Y-75876502D01*
X84143545Y-75856905D01*
X84198453Y-75695151D01*
X84198453Y-75695149D01*
X84200311Y-75689677D01*
X84201165Y-75683791D01*
X84220510Y-75550371D01*
X84228622Y-75494423D01*
X84230099Y-75438000D01*
X84212046Y-75241532D01*
X84202684Y-75208334D01*
X84160060Y-75057203D01*
X84160059Y-75057201D01*
X84158492Y-75051644D01*
X84148286Y-75030947D01*
X84073786Y-74879876D01*
X84071231Y-74874695D01*
X84061359Y-74861474D01*
X83956637Y-74721235D01*
X83956636Y-74721234D01*
X83953184Y-74716611D01*
X83948312Y-74712107D01*
X83812546Y-74586607D01*
X83812544Y-74586605D01*
X83808305Y-74582687D01*
X83641447Y-74477407D01*
X83458197Y-74404297D01*
X83452529Y-74403170D01*
X83452527Y-74403169D01*
X83270360Y-74366934D01*
X83270356Y-74366934D01*
X83264692Y-74365807D01*
X83258917Y-74365731D01*
X83258913Y-74365731D01*
X83158175Y-74364412D01*
X83073006Y-74363297D01*
X83073005Y-74363297D01*
X83067413Y-74363224D01*
X83067427Y-74362126D01*
X83003585Y-74348719D01*
X82953022Y-74298879D01*
X82937432Y-74229616D01*
X82961763Y-74162918D01*
X82974077Y-74148604D01*
X83111369Y-74011312D01*
X83173681Y-73977286D01*
X83196910Y-73975248D01*
X83196881Y-73974698D01*
X83202653Y-73974395D01*
X83208423Y-73974622D01*
X83323789Y-73957894D01*
X83397955Y-73947141D01*
X83397959Y-73947140D01*
X83403677Y-73946311D01*
X83409149Y-73944453D01*
X83409151Y-73944453D01*
X83585038Y-73884747D01*
X83585040Y-73884746D01*
X83590502Y-73882892D01*
X83762642Y-73786490D01*
X83914331Y-73660331D01*
X84040490Y-73508642D01*
X84052228Y-73487683D01*
X84073110Y-73450395D01*
X84136892Y-73336502D01*
X84144289Y-73314713D01*
X84198453Y-73155151D01*
X84198453Y-73155149D01*
X84200311Y-73149677D01*
X84203746Y-73125991D01*
X84218285Y-73025717D01*
X84228622Y-72954423D01*
X84230099Y-72898000D01*
X84212046Y-72701532D01*
X84204421Y-72674493D01*
X84160060Y-72517203D01*
X84160059Y-72517201D01*
X84158492Y-72511644D01*
X84149620Y-72493652D01*
X84073786Y-72339876D01*
X84071231Y-72334695D01*
X84065938Y-72327606D01*
X83956637Y-72181235D01*
X83956636Y-72181234D01*
X83953184Y-72176611D01*
X83933607Y-72158514D01*
X83812546Y-72046607D01*
X83812544Y-72046605D01*
X83808305Y-72042687D01*
X83641447Y-71937407D01*
X83458197Y-71864297D01*
X83452529Y-71863170D01*
X83452527Y-71863169D01*
X83270360Y-71826934D01*
X83270356Y-71826934D01*
X83264692Y-71825807D01*
X83258917Y-71825731D01*
X83258913Y-71825731D01*
X83158175Y-71824412D01*
X83073006Y-71823297D01*
X83073005Y-71823297D01*
X83067413Y-71823224D01*
X83067427Y-71822126D01*
X83003585Y-71808719D01*
X82953022Y-71758879D01*
X82937432Y-71689616D01*
X82961763Y-71622918D01*
X82974077Y-71608604D01*
X83111369Y-71471312D01*
X83173681Y-71437286D01*
X83196910Y-71435248D01*
X83196881Y-71434698D01*
X83202653Y-71434395D01*
X83208423Y-71434622D01*
X83323789Y-71417894D01*
X83397955Y-71407141D01*
X83397959Y-71407140D01*
X83403677Y-71406311D01*
X83409149Y-71404453D01*
X83409151Y-71404453D01*
X83585038Y-71344747D01*
X83585040Y-71344746D01*
X83590502Y-71342892D01*
X83713333Y-71274104D01*
X83757605Y-71249311D01*
X83757606Y-71249310D01*
X83762642Y-71246490D01*
X83914331Y-71120331D01*
X84040490Y-70968642D01*
X84136892Y-70796502D01*
X84139685Y-70788276D01*
X84198453Y-70615151D01*
X84198453Y-70615149D01*
X84200311Y-70609677D01*
X84201157Y-70603846D01*
X84217704Y-70489724D01*
X84228622Y-70414423D01*
X84230099Y-70358000D01*
X84212046Y-70161532D01*
X84205887Y-70139692D01*
X84160060Y-69977203D01*
X84160059Y-69977201D01*
X84158492Y-69971644D01*
X84148381Y-69951139D01*
X84073786Y-69799876D01*
X84071231Y-69794695D01*
X84053407Y-69770825D01*
X83956637Y-69641235D01*
X83956636Y-69641234D01*
X83953184Y-69636611D01*
X83935671Y-69620422D01*
X83812546Y-69506607D01*
X83812544Y-69506605D01*
X83808305Y-69502687D01*
X83641447Y-69397407D01*
X83458197Y-69324297D01*
X83452529Y-69323170D01*
X83452527Y-69323169D01*
X83270360Y-69286934D01*
X83270356Y-69286934D01*
X83264692Y-69285807D01*
X83258917Y-69285731D01*
X83258913Y-69285731D01*
X83160267Y-69284440D01*
X83067413Y-69283224D01*
X83061716Y-69284203D01*
X83061715Y-69284203D01*
X83049919Y-69286230D01*
X82872967Y-69316636D01*
X82687866Y-69384924D01*
X82682905Y-69387876D01*
X82682904Y-69387876D01*
X82523277Y-69482844D01*
X82523274Y-69482846D01*
X82518309Y-69485800D01*
X82513969Y-69489606D01*
X82513965Y-69489609D01*
X82417873Y-69573880D01*
X82369975Y-69615886D01*
X82247830Y-69770825D01*
X82245141Y-69775936D01*
X82245139Y-69775939D01*
X82198732Y-69864144D01*
X82155966Y-69945429D01*
X82097460Y-70133851D01*
X82096781Y-70139588D01*
X82074939Y-70324127D01*
X82047068Y-70389424D01*
X82038907Y-70398412D01*
X81667724Y-70769595D01*
X81605412Y-70803621D01*
X81578629Y-70806500D01*
X81527743Y-70806500D01*
X81462472Y-70788276D01*
X81452157Y-70782029D01*
X81340699Y-70714528D01*
X81333452Y-70712257D01*
X81333450Y-70712256D01*
X81266604Y-70691308D01*
X81177062Y-70663247D01*
X81103635Y-70656500D01*
X81100737Y-70656500D01*
X80771140Y-70656501D01*
X80440366Y-70656501D01*
X80437508Y-70656764D01*
X80437499Y-70656764D01*
X80401996Y-70660026D01*
X80366938Y-70663247D01*
X80360560Y-70665246D01*
X80360559Y-70665246D01*
X80210550Y-70712256D01*
X80210548Y-70712257D01*
X80203301Y-70714528D01*
X80056619Y-70803361D01*
X79935361Y-70924619D01*
X79846528Y-71071301D01*
X79795247Y-71234938D01*
X79788500Y-71308365D01*
X79788501Y-71821634D01*
X79788764Y-71824492D01*
X79788764Y-71824501D01*
X79791272Y-71851793D01*
X79795247Y-71895062D01*
X79797246Y-71901440D01*
X79797246Y-71901441D01*
X79842739Y-72046607D01*
X79846528Y-72058699D01*
X79935361Y-72205381D01*
X80031239Y-72301259D01*
X80065265Y-72363571D01*
X80060200Y-72434386D01*
X80031239Y-72479449D01*
X79941131Y-72569557D01*
X79931824Y-72581426D01*
X79850921Y-72715012D01*
X79844715Y-72728757D01*
X79797744Y-72878644D01*
X79795131Y-72891694D01*
X79790087Y-72946586D01*
X79793475Y-72958124D01*
X79794865Y-72959329D01*
X79802548Y-72961000D01*
X80900000Y-72961000D01*
X80968121Y-72981002D01*
X81014614Y-73034658D01*
X81026000Y-73087000D01*
X81026000Y-73343000D01*
X81005998Y-73411121D01*
X80952342Y-73457614D01*
X80900000Y-73469000D01*
X79807116Y-73469000D01*
X79791877Y-73473475D01*
X79790672Y-73474865D01*
X79789709Y-73479294D01*
X79795132Y-73538315D01*
X79797743Y-73551351D01*
X79844715Y-73701243D01*
X79850921Y-73714988D01*
X79931824Y-73848574D01*
X79941131Y-73860443D01*
X80051557Y-73970869D01*
X80063426Y-73980176D01*
X80195118Y-74059932D01*
X80243024Y-74112330D01*
X80254997Y-74182309D01*
X80227236Y-74247653D01*
X80195117Y-74275484D01*
X80101598Y-74332121D01*
X80056619Y-74359361D01*
X79935361Y-74480619D01*
X79846528Y-74627301D01*
X79795247Y-74790938D01*
X79788500Y-74864365D01*
X79788501Y-75377634D01*
X79795247Y-75451062D01*
X79797246Y-75457440D01*
X79797246Y-75457441D01*
X79842199Y-75600884D01*
X79846528Y-75614699D01*
X79935361Y-75761381D01*
X80030885Y-75856905D01*
X80064911Y-75919217D01*
X80059846Y-75990032D01*
X80030885Y-76035095D01*
X79935361Y-76130619D01*
X79846528Y-76277301D01*
X79795247Y-76440938D01*
X79788500Y-76514365D01*
X79788501Y-77027634D01*
X79795247Y-77101062D01*
X79797246Y-77107440D01*
X79797246Y-77107441D01*
X79837499Y-77235886D01*
X79846528Y-77264699D01*
X79935361Y-77411381D01*
X80056619Y-77532639D01*
X80203301Y-77621472D01*
X80210548Y-77623743D01*
X80210550Y-77623744D01*
X80276836Y-77644517D01*
X80366938Y-77672753D01*
X80440365Y-77679500D01*
X80555629Y-77679500D01*
X80623750Y-77699502D01*
X80644724Y-77716405D01*
X81380595Y-78452276D01*
X81414621Y-78514588D01*
X81417500Y-78541371D01*
X81417500Y-79322246D01*
X81397498Y-79390367D01*
X81343842Y-79436860D01*
X81335730Y-79440228D01*
X81290797Y-79457073D01*
X81279295Y-79461385D01*
X81162739Y-79548739D01*
X81126824Y-79596660D01*
X81069967Y-79639173D01*
X80999149Y-79644199D01*
X80936855Y-79610139D01*
X80925183Y-79596670D01*
X80889261Y-79548739D01*
X80772705Y-79461385D01*
X80636316Y-79410255D01*
X80574134Y-79403500D01*
X79177866Y-79403500D01*
X79115684Y-79410255D01*
X78979295Y-79461385D01*
X78862739Y-79548739D01*
X78775385Y-79665295D01*
X78724255Y-79801684D01*
X78717500Y-79863866D01*
X78717500Y-81260134D01*
X78724255Y-81322316D01*
X78775385Y-81458705D01*
X78862739Y-81575261D01*
X78979295Y-81662615D01*
X79115684Y-81713745D01*
X79177866Y-81720500D01*
X80574134Y-81720500D01*
X80636316Y-81713745D01*
X80772705Y-81662615D01*
X80889261Y-81575261D01*
X80925176Y-81527340D01*
X80982033Y-81484827D01*
X81052851Y-81479801D01*
X81115145Y-81513861D01*
X81126817Y-81527330D01*
X81162739Y-81575261D01*
X81279295Y-81662615D01*
X81415684Y-81713745D01*
X81477866Y-81720500D01*
X82874134Y-81720500D01*
X82936316Y-81713745D01*
X83072705Y-81662615D01*
X83189261Y-81575261D01*
X83276615Y-81458705D01*
X83327745Y-81322316D01*
X83334500Y-81260134D01*
X83334500Y-79863866D01*
X83327745Y-79801684D01*
X83276615Y-79665295D01*
X83189261Y-79548739D01*
X83072705Y-79461385D01*
X83061203Y-79457073D01*
X83016270Y-79440228D01*
X82959505Y-79397586D01*
X82934806Y-79331024D01*
X82934500Y-79322246D01*
X82934500Y-79174907D01*
X82954502Y-79106786D01*
X83008158Y-79060293D01*
X83065447Y-79049004D01*
X83094596Y-79050150D01*
X83104521Y-79050540D01*
X83171804Y-79073203D01*
X83188667Y-79087348D01*
X85564595Y-81463276D01*
X85598621Y-81525588D01*
X85601500Y-81552371D01*
X85601500Y-85993629D01*
X85581498Y-86061750D01*
X85564595Y-86082724D01*
X83542724Y-88104595D01*
X83480412Y-88138621D01*
X83453629Y-88141500D01*
X79106371Y-88141500D01*
X79038250Y-88121498D01*
X79017276Y-88104595D01*
X78019350Y-87106669D01*
X79868001Y-87106669D01*
X79868371Y-87113490D01*
X79873895Y-87164352D01*
X79877521Y-87179604D01*
X79922676Y-87300054D01*
X79931214Y-87315649D01*
X80007715Y-87417724D01*
X80020276Y-87430285D01*
X80122351Y-87506786D01*
X80137946Y-87515324D01*
X80258394Y-87560478D01*
X80273649Y-87564105D01*
X80324514Y-87569631D01*
X80331328Y-87570000D01*
X80753885Y-87570000D01*
X80769124Y-87565525D01*
X80770329Y-87564135D01*
X80772000Y-87556452D01*
X80772000Y-87551884D01*
X81280000Y-87551884D01*
X81284475Y-87567123D01*
X81285865Y-87568328D01*
X81293548Y-87569999D01*
X81720669Y-87569999D01*
X81727490Y-87569629D01*
X81778352Y-87564105D01*
X81793604Y-87560479D01*
X81914054Y-87515324D01*
X81929649Y-87506786D01*
X82031724Y-87430285D01*
X82044285Y-87417724D01*
X82120786Y-87315649D01*
X82129324Y-87300054D01*
X82174478Y-87179606D01*
X82178105Y-87164351D01*
X82183631Y-87113486D01*
X82184000Y-87106672D01*
X82184000Y-86334115D01*
X82179525Y-86318876D01*
X82178135Y-86317671D01*
X82170452Y-86316000D01*
X81298115Y-86316000D01*
X81282876Y-86320475D01*
X81281671Y-86321865D01*
X81280000Y-86329548D01*
X81280000Y-87551884D01*
X80772000Y-87551884D01*
X80772000Y-86334115D01*
X80767525Y-86318876D01*
X80766135Y-86317671D01*
X80758452Y-86316000D01*
X79886116Y-86316000D01*
X79870877Y-86320475D01*
X79869672Y-86321865D01*
X79868001Y-86329548D01*
X79868001Y-87106669D01*
X78019350Y-87106669D01*
X76995405Y-86082724D01*
X76961379Y-86020412D01*
X76958500Y-85993629D01*
X76958500Y-85789885D01*
X79868000Y-85789885D01*
X79872475Y-85805124D01*
X79873865Y-85806329D01*
X79881548Y-85808000D01*
X80753885Y-85808000D01*
X80769124Y-85803525D01*
X80770329Y-85802135D01*
X80772000Y-85794452D01*
X80772000Y-85789885D01*
X81280000Y-85789885D01*
X81284475Y-85805124D01*
X81285865Y-85806329D01*
X81293548Y-85808000D01*
X82165884Y-85808000D01*
X82181123Y-85803525D01*
X82182328Y-85802135D01*
X82183999Y-85794452D01*
X82183999Y-85017331D01*
X82183629Y-85010510D01*
X82178105Y-84959648D01*
X82174479Y-84944396D01*
X82129324Y-84823946D01*
X82120786Y-84808351D01*
X82044285Y-84706276D01*
X82031724Y-84693715D01*
X81929649Y-84617214D01*
X81914054Y-84608676D01*
X81793606Y-84563522D01*
X81778351Y-84559895D01*
X81727486Y-84554369D01*
X81720672Y-84554000D01*
X81298115Y-84554000D01*
X81282876Y-84558475D01*
X81281671Y-84559865D01*
X81280000Y-84567548D01*
X81280000Y-85789885D01*
X80772000Y-85789885D01*
X80772000Y-84572116D01*
X80767525Y-84556877D01*
X80766135Y-84555672D01*
X80758452Y-84554001D01*
X80331331Y-84554001D01*
X80324510Y-84554371D01*
X80273648Y-84559895D01*
X80258396Y-84563521D01*
X80137946Y-84608676D01*
X80122351Y-84617214D01*
X80020276Y-84693715D01*
X80007715Y-84706276D01*
X79931214Y-84808351D01*
X79922676Y-84823946D01*
X79877522Y-84944394D01*
X79873895Y-84959649D01*
X79868369Y-85010514D01*
X79868000Y-85017328D01*
X79868000Y-85789885D01*
X76958500Y-85789885D01*
X76958500Y-67950669D01*
X78652001Y-67950669D01*
X78652371Y-67957490D01*
X78657895Y-68008352D01*
X78661521Y-68023604D01*
X78706676Y-68144054D01*
X78715214Y-68159649D01*
X78791715Y-68261724D01*
X78804276Y-68274285D01*
X78906351Y-68350786D01*
X78921946Y-68359324D01*
X79042394Y-68404478D01*
X79057649Y-68408105D01*
X79108514Y-68413631D01*
X79115328Y-68414000D01*
X79737885Y-68414000D01*
X79753124Y-68409525D01*
X79754329Y-68408135D01*
X79756000Y-68400452D01*
X79756000Y-68395884D01*
X80264000Y-68395884D01*
X80268475Y-68411123D01*
X80269865Y-68412328D01*
X80277548Y-68413999D01*
X80904669Y-68413999D01*
X80911490Y-68413629D01*
X80962352Y-68408105D01*
X80977604Y-68404479D01*
X81098054Y-68359324D01*
X81113649Y-68350786D01*
X81215724Y-68274285D01*
X81228285Y-68261724D01*
X81304786Y-68159649D01*
X81313324Y-68144054D01*
X81358478Y-68023606D01*
X81362105Y-68008351D01*
X81367631Y-67957486D01*
X81368000Y-67950672D01*
X81368000Y-67789779D01*
X82074270Y-67789779D01*
X82087174Y-67986652D01*
X82135739Y-68177877D01*
X82218339Y-68357049D01*
X82332207Y-68518169D01*
X82382270Y-68566938D01*
X82457646Y-68640366D01*
X82473530Y-68655840D01*
X82478326Y-68659045D01*
X82478329Y-68659047D01*
X82523358Y-68689134D01*
X82637576Y-68765452D01*
X82642879Y-68767730D01*
X82642882Y-68767732D01*
X82813542Y-68841053D01*
X82818849Y-68843333D01*
X82912185Y-68864453D01*
X83005644Y-68885601D01*
X83005647Y-68885601D01*
X83011280Y-68886876D01*
X83017051Y-68887103D01*
X83017053Y-68887103D01*
X83076054Y-68889421D01*
X83208423Y-68894622D01*
X83323789Y-68877894D01*
X83397955Y-68867141D01*
X83397959Y-68867140D01*
X83403677Y-68866311D01*
X83409149Y-68864453D01*
X83409151Y-68864453D01*
X83585038Y-68804747D01*
X83585040Y-68804746D01*
X83590502Y-68802892D01*
X83762642Y-68706490D01*
X83914331Y-68580331D01*
X84040490Y-68428642D01*
X84048691Y-68413999D01*
X84077904Y-68361834D01*
X84136892Y-68256502D01*
X84145488Y-68231181D01*
X84198453Y-68075151D01*
X84198453Y-68075149D01*
X84200311Y-68069677D01*
X84203182Y-68049880D01*
X84222083Y-67919522D01*
X84228622Y-67874423D01*
X84230099Y-67818000D01*
X84212046Y-67621532D01*
X84205275Y-67597521D01*
X84160060Y-67437203D01*
X84160059Y-67437201D01*
X84158492Y-67431644D01*
X84148286Y-67410947D01*
X84073786Y-67259876D01*
X84071231Y-67254695D01*
X84053407Y-67230825D01*
X83956637Y-67101235D01*
X83956636Y-67101234D01*
X83953184Y-67096611D01*
X83948948Y-67092695D01*
X83812546Y-66966607D01*
X83812544Y-66966605D01*
X83808305Y-66962687D01*
X83641447Y-66857407D01*
X83458197Y-66784297D01*
X83452529Y-66783170D01*
X83452527Y-66783169D01*
X83270360Y-66746934D01*
X83270356Y-66746934D01*
X83264692Y-66745807D01*
X83258917Y-66745731D01*
X83258913Y-66745731D01*
X83160267Y-66744440D01*
X83067413Y-66743224D01*
X83061716Y-66744203D01*
X83061715Y-66744203D01*
X82878664Y-66775657D01*
X82872967Y-66776636D01*
X82687866Y-66844924D01*
X82682905Y-66847876D01*
X82682904Y-66847876D01*
X82523277Y-66942844D01*
X82523274Y-66942846D01*
X82518309Y-66945800D01*
X82513969Y-66949606D01*
X82513965Y-66949609D01*
X82376148Y-67070472D01*
X82369975Y-67075886D01*
X82247830Y-67230825D01*
X82245141Y-67235936D01*
X82245139Y-67235939D01*
X82206174Y-67310000D01*
X82155966Y-67405429D01*
X82126368Y-67500751D01*
X82099861Y-67586120D01*
X82097460Y-67593851D01*
X82074270Y-67789779D01*
X81368000Y-67789779D01*
X81368000Y-67328115D01*
X81363525Y-67312876D01*
X81362135Y-67311671D01*
X81354452Y-67310000D01*
X80282115Y-67310000D01*
X80266876Y-67314475D01*
X80265671Y-67315865D01*
X80264000Y-67323548D01*
X80264000Y-68395884D01*
X79756000Y-68395884D01*
X79756000Y-67328115D01*
X79751525Y-67312876D01*
X79750135Y-67311671D01*
X79742452Y-67310000D01*
X78670116Y-67310000D01*
X78654877Y-67314475D01*
X78653672Y-67315865D01*
X78652001Y-67323548D01*
X78652001Y-67950669D01*
X76958500Y-67950669D01*
X76958500Y-66783885D01*
X78652000Y-66783885D01*
X78656475Y-66799124D01*
X78657865Y-66800329D01*
X78665548Y-66802000D01*
X79737885Y-66802000D01*
X79753124Y-66797525D01*
X79754329Y-66796135D01*
X79756000Y-66788452D01*
X79756000Y-66783885D01*
X80264000Y-66783885D01*
X80268475Y-66799124D01*
X80269865Y-66800329D01*
X80277548Y-66802000D01*
X81349884Y-66802000D01*
X81365123Y-66797525D01*
X81366328Y-66796135D01*
X81367999Y-66788452D01*
X81367999Y-66161331D01*
X81367629Y-66154510D01*
X81362105Y-66103648D01*
X81358479Y-66088396D01*
X81313324Y-65967946D01*
X81304786Y-65952351D01*
X81228285Y-65850276D01*
X81215724Y-65837715D01*
X81113649Y-65761214D01*
X81098054Y-65752676D01*
X80977606Y-65707522D01*
X80962351Y-65703895D01*
X80911486Y-65698369D01*
X80904672Y-65698000D01*
X80282115Y-65698000D01*
X80266876Y-65702475D01*
X80265671Y-65703865D01*
X80264000Y-65711548D01*
X80264000Y-66783885D01*
X79756000Y-66783885D01*
X79756000Y-65716116D01*
X79751525Y-65700877D01*
X79750135Y-65699672D01*
X79742452Y-65698001D01*
X79115331Y-65698001D01*
X79108510Y-65698371D01*
X79057648Y-65703895D01*
X79042396Y-65707521D01*
X78921946Y-65752676D01*
X78906351Y-65761214D01*
X78804276Y-65837715D01*
X78791715Y-65850276D01*
X78715214Y-65952351D01*
X78706676Y-65967946D01*
X78661522Y-66088394D01*
X78657895Y-66103649D01*
X78652369Y-66154514D01*
X78652000Y-66161328D01*
X78652000Y-66783885D01*
X76958500Y-66783885D01*
X76958500Y-61326371D01*
X76978502Y-61258250D01*
X76995405Y-61237276D01*
X79017276Y-59215405D01*
X79079588Y-59181379D01*
X79106371Y-59178500D01*
X82351498Y-59178500D01*
X82419619Y-59198502D01*
X82466112Y-59252158D01*
X82476216Y-59322432D01*
X82446722Y-59387012D01*
X82434576Y-59399231D01*
X82374322Y-59452073D01*
X82374318Y-59452078D01*
X82369975Y-59455886D01*
X82247830Y-59610825D01*
X82245141Y-59615936D01*
X82245139Y-59615939D01*
X82214856Y-59673498D01*
X82155966Y-59785429D01*
X82097460Y-59973851D01*
X82093370Y-60008411D01*
X82074939Y-60164127D01*
X82047068Y-60229424D01*
X82038907Y-60238412D01*
X80426724Y-61850595D01*
X80364412Y-61884621D01*
X80337629Y-61887500D01*
X79111866Y-61887500D01*
X79049684Y-61894255D01*
X78913295Y-61945385D01*
X78796739Y-62032739D01*
X78709385Y-62149295D01*
X78658255Y-62285684D01*
X78651500Y-62347866D01*
X78651500Y-64144134D01*
X78658255Y-64206316D01*
X78709385Y-64342705D01*
X78796739Y-64459261D01*
X78913295Y-64546615D01*
X79049684Y-64597745D01*
X79111866Y-64604500D01*
X80908134Y-64604500D01*
X80970316Y-64597745D01*
X81106705Y-64546615D01*
X81223261Y-64459261D01*
X81310615Y-64342705D01*
X81361745Y-64206316D01*
X81368500Y-64144134D01*
X81368500Y-63106371D01*
X81388502Y-63038250D01*
X81405405Y-63017276D01*
X81865853Y-62556828D01*
X81928165Y-62522802D01*
X81998980Y-62527867D01*
X82055816Y-62570414D01*
X82080627Y-62636934D01*
X82080075Y-62660733D01*
X82078709Y-62672275D01*
X82074270Y-62709779D01*
X82087174Y-62906652D01*
X82135739Y-63097877D01*
X82218339Y-63277049D01*
X82332207Y-63438169D01*
X82473530Y-63575840D01*
X82478326Y-63579045D01*
X82478329Y-63579047D01*
X82543809Y-63622799D01*
X82637576Y-63685452D01*
X82642879Y-63687730D01*
X82642882Y-63687732D01*
X82783142Y-63747992D01*
X82818849Y-63763333D01*
X82912185Y-63784453D01*
X83005644Y-63805601D01*
X83005647Y-63805601D01*
X83011280Y-63806876D01*
X83017051Y-63807103D01*
X83017053Y-63807103D01*
X83076054Y-63809421D01*
X83208423Y-63814622D01*
X83350869Y-63793968D01*
X83397955Y-63787141D01*
X83397959Y-63787140D01*
X83403677Y-63786311D01*
X83409149Y-63784453D01*
X83409151Y-63784453D01*
X83585038Y-63724747D01*
X83585040Y-63724746D01*
X83590502Y-63722892D01*
X83762642Y-63626490D01*
X83785261Y-63607678D01*
X83909891Y-63504024D01*
X83909893Y-63504022D01*
X83914331Y-63500331D01*
X83931529Y-63479653D01*
X83990463Y-63440069D01*
X84061445Y-63438632D01*
X84117497Y-63471127D01*
X86636970Y-65990600D01*
X86670996Y-66052912D01*
X86673396Y-66068713D01*
X86674126Y-66077061D01*
X86689314Y-66250655D01*
X86690738Y-66255968D01*
X86690738Y-66255970D01*
X86733257Y-66414651D01*
X86744044Y-66454910D01*
X86746366Y-66459891D01*
X86746367Y-66459892D01*
X86817819Y-66613120D01*
X86833411Y-66646558D01*
X86903695Y-66746934D01*
X86904645Y-66748291D01*
X86927333Y-66815564D01*
X86910048Y-66884425D01*
X86858278Y-66933009D01*
X86788460Y-66945891D01*
X86722761Y-66918983D01*
X86712337Y-66909656D01*
X84591770Y-64789089D01*
X84579384Y-64774677D01*
X84570851Y-64763082D01*
X84570846Y-64763077D01*
X84566508Y-64757182D01*
X84560930Y-64752443D01*
X84560927Y-64752440D01*
X84526232Y-64722965D01*
X84518716Y-64716035D01*
X84513021Y-64710340D01*
X84506880Y-64705482D01*
X84490749Y-64692719D01*
X84487345Y-64689928D01*
X84437297Y-64647409D01*
X84437295Y-64647408D01*
X84431715Y-64642667D01*
X84425199Y-64639339D01*
X84420150Y-64635972D01*
X84415021Y-64632805D01*
X84409284Y-64628266D01*
X84343125Y-64597345D01*
X84339225Y-64595439D01*
X84274192Y-64562231D01*
X84267084Y-64560492D01*
X84261441Y-64558393D01*
X84255678Y-64556476D01*
X84249050Y-64553378D01*
X84231690Y-64549767D01*
X84190641Y-64541229D01*
X84177583Y-64538513D01*
X84173299Y-64537543D01*
X84102390Y-64520192D01*
X84096788Y-64519844D01*
X84096785Y-64519844D01*
X84091236Y-64519500D01*
X84091238Y-64519464D01*
X84087245Y-64519225D01*
X84083053Y-64518851D01*
X84075885Y-64517360D01*
X84009675Y-64519151D01*
X83998479Y-64519454D01*
X83995072Y-64519500D01*
X83962353Y-64519500D01*
X83894232Y-64499498D01*
X83876824Y-64486025D01*
X83812546Y-64426607D01*
X83812544Y-64426605D01*
X83808305Y-64422687D01*
X83641447Y-64317407D01*
X83458197Y-64244297D01*
X83452529Y-64243170D01*
X83452527Y-64243169D01*
X83270360Y-64206934D01*
X83270356Y-64206934D01*
X83264692Y-64205807D01*
X83258917Y-64205731D01*
X83258913Y-64205731D01*
X83160267Y-64204440D01*
X83067413Y-64203224D01*
X83061716Y-64204203D01*
X83061715Y-64204203D01*
X82878664Y-64235657D01*
X82872967Y-64236636D01*
X82687866Y-64304924D01*
X82682905Y-64307876D01*
X82682904Y-64307876D01*
X82523277Y-64402844D01*
X82523274Y-64402846D01*
X82518309Y-64405800D01*
X82513969Y-64409606D01*
X82513965Y-64409609D01*
X82388267Y-64519844D01*
X82369975Y-64535886D01*
X82247830Y-64690825D01*
X82245141Y-64695936D01*
X82245139Y-64695939D01*
X82208015Y-64766500D01*
X82155966Y-64865429D01*
X82097460Y-65053851D01*
X82074270Y-65249779D01*
X82087174Y-65446652D01*
X82135739Y-65637877D01*
X82218339Y-65817049D01*
X82332207Y-65978169D01*
X82382190Y-66026860D01*
X82461016Y-66103649D01*
X82473530Y-66115840D01*
X82478326Y-66119045D01*
X82478329Y-66119047D01*
X82586218Y-66191136D01*
X82637576Y-66225452D01*
X82642879Y-66227730D01*
X82642882Y-66227732D01*
X82799218Y-66294899D01*
X82818849Y-66303333D01*
X82912185Y-66324453D01*
X83005644Y-66345601D01*
X83005647Y-66345601D01*
X83011280Y-66346876D01*
X83017051Y-66347103D01*
X83017053Y-66347103D01*
X83076054Y-66349421D01*
X83208423Y-66354622D01*
X83323789Y-66337894D01*
X83397955Y-66327141D01*
X83397959Y-66327140D01*
X83403677Y-66326311D01*
X83409149Y-66324453D01*
X83409151Y-66324453D01*
X83585038Y-66264747D01*
X83585040Y-66264746D01*
X83590502Y-66262892D01*
X83595537Y-66260072D01*
X83595540Y-66260071D01*
X83718635Y-66191136D01*
X83787843Y-66175303D01*
X83854625Y-66199401D01*
X83869295Y-66211976D01*
X85851595Y-68194276D01*
X85885621Y-68256588D01*
X85888500Y-68283371D01*
X85888500Y-68692400D01*
X85888837Y-68695646D01*
X85888837Y-68695650D01*
X85896080Y-68765452D01*
X85899474Y-68798166D01*
X85901655Y-68804702D01*
X85901655Y-68804704D01*
X85913782Y-68841053D01*
X85955450Y-68965946D01*
X86048522Y-69116348D01*
X86173697Y-69241305D01*
X86177916Y-69243906D01*
X86218417Y-69301030D01*
X86221649Y-69371953D01*
X86186024Y-69433365D01*
X86178470Y-69439922D01*
X86172652Y-69443522D01*
X86047695Y-69568697D01*
X86043855Y-69574927D01*
X86043854Y-69574928D01*
X85960872Y-69709550D01*
X85954885Y-69719262D01*
X85899203Y-69887139D01*
X85888500Y-69991600D01*
X85888500Y-70592400D01*
X85888837Y-70595646D01*
X85888837Y-70595650D01*
X85896059Y-70665248D01*
X85899474Y-70698166D01*
X85901655Y-70704702D01*
X85901655Y-70704704D01*
X85942534Y-70827233D01*
X85955450Y-70865946D01*
X86048522Y-71016348D01*
X86173697Y-71141305D01*
X86179927Y-71145145D01*
X86179928Y-71145146D01*
X86316725Y-71229469D01*
X86324262Y-71234115D01*
X86346832Y-71241601D01*
X86485611Y-71287632D01*
X86485613Y-71287632D01*
X86492139Y-71289797D01*
X86498975Y-71290497D01*
X86498978Y-71290498D01*
X86542031Y-71294909D01*
X86596600Y-71300500D01*
X87005629Y-71300500D01*
X87073750Y-71320502D01*
X87094724Y-71337405D01*
X88104595Y-72347276D01*
X88138621Y-72409588D01*
X88141500Y-72436371D01*
X88141500Y-80303500D01*
X88121498Y-80371621D01*
X88067842Y-80418114D01*
X88015500Y-80429500D01*
X88001866Y-80429500D01*
X87939684Y-80436255D01*
X87803295Y-80487385D01*
X87686739Y-80574739D01*
X87599385Y-80691295D01*
X87548255Y-80827684D01*
X87541500Y-80889866D01*
X87541500Y-82686134D01*
X87548255Y-82748316D01*
X87599385Y-82884705D01*
X87686739Y-83001261D01*
X87803295Y-83088615D01*
X87939684Y-83139745D01*
X88001866Y-83146500D01*
X89798134Y-83146500D01*
X89860316Y-83139745D01*
X89996705Y-83088615D01*
X90113261Y-83001261D01*
X90200615Y-82884705D01*
X90244798Y-82766848D01*
X90287440Y-82710084D01*
X90354001Y-82685384D01*
X90423350Y-82700592D01*
X90458017Y-82728580D01*
X90483218Y-82757673D01*
X90490580Y-82764883D01*
X90654434Y-82900916D01*
X90662881Y-82906831D01*
X90846756Y-83014279D01*
X90856042Y-83018729D01*
X91055001Y-83094703D01*
X91064899Y-83097579D01*
X91168250Y-83118606D01*
X91182299Y-83117410D01*
X91186000Y-83107065D01*
X91186000Y-83106517D01*
X91694000Y-83106517D01*
X91698064Y-83120359D01*
X91711478Y-83122393D01*
X91718184Y-83121534D01*
X91728262Y-83119392D01*
X91932255Y-83058191D01*
X91941842Y-83054433D01*
X92133095Y-82960739D01*
X92141945Y-82955464D01*
X92315328Y-82831792D01*
X92323200Y-82825139D01*
X92474052Y-82674812D01*
X92480730Y-82666965D01*
X92605003Y-82494020D01*
X92610313Y-82485183D01*
X92704670Y-82294267D01*
X92708469Y-82284672D01*
X92770377Y-82080910D01*
X92772555Y-82070837D01*
X92773986Y-82059962D01*
X92771775Y-82045778D01*
X92758617Y-82042000D01*
X91712115Y-82042000D01*
X91696876Y-82046475D01*
X91695671Y-82047865D01*
X91694000Y-82055548D01*
X91694000Y-83106517D01*
X91186000Y-83106517D01*
X91186000Y-81515885D01*
X91694000Y-81515885D01*
X91698475Y-81531124D01*
X91699865Y-81532329D01*
X91707548Y-81534000D01*
X92758344Y-81534000D01*
X92771875Y-81530027D01*
X92773180Y-81520947D01*
X92731214Y-81353875D01*
X92727894Y-81344124D01*
X92642972Y-81148814D01*
X92638105Y-81139739D01*
X92522426Y-80960926D01*
X92516136Y-80952757D01*
X92372806Y-80795240D01*
X92365273Y-80788215D01*
X92198139Y-80656222D01*
X92189552Y-80650517D01*
X92003117Y-80547599D01*
X91993705Y-80543369D01*
X91792959Y-80472280D01*
X91782988Y-80469646D01*
X91711837Y-80456972D01*
X91698540Y-80458432D01*
X91694000Y-80472989D01*
X91694000Y-81515885D01*
X91186000Y-81515885D01*
X91186000Y-80471102D01*
X91182082Y-80457758D01*
X91167806Y-80455771D01*
X91129324Y-80461660D01*
X91119288Y-80464051D01*
X90916868Y-80530212D01*
X90907359Y-80534209D01*
X90718463Y-80632542D01*
X90709738Y-80638036D01*
X90539433Y-80765905D01*
X90531726Y-80772748D01*
X90454478Y-80853584D01*
X90392954Y-80889014D01*
X90322042Y-80885557D01*
X90264255Y-80844311D01*
X90245402Y-80810763D01*
X90203767Y-80699703D01*
X90200615Y-80691295D01*
X90113261Y-80574739D01*
X89996705Y-80487385D01*
X89860316Y-80436255D01*
X89798134Y-80429500D01*
X89784500Y-80429500D01*
X89716379Y-80409498D01*
X89669886Y-80355842D01*
X89658500Y-80303500D01*
X89658500Y-78894059D01*
X90540302Y-78894059D01*
X90550184Y-78906548D01*
X90573009Y-78921799D01*
X90583123Y-78927291D01*
X90753697Y-79000576D01*
X90764640Y-79004131D01*
X90945708Y-79045103D01*
X90957118Y-79046605D01*
X91142629Y-79053893D01*
X91154111Y-79053291D01*
X91337846Y-79026652D01*
X91349029Y-79023967D01*
X91524826Y-78964292D01*
X91535339Y-78959611D01*
X91634313Y-78904182D01*
X91644178Y-78894104D01*
X91641222Y-78886432D01*
X91104812Y-78350022D01*
X91090868Y-78342408D01*
X91089035Y-78342539D01*
X91082420Y-78346790D01*
X90546498Y-78882712D01*
X90540302Y-78894059D01*
X89658500Y-78894059D01*
X89658500Y-77955558D01*
X90015150Y-77955558D01*
X90027292Y-78140805D01*
X90029093Y-78152175D01*
X90074789Y-78332107D01*
X90078631Y-78342956D01*
X90156358Y-78511557D01*
X90162105Y-78521511D01*
X90162902Y-78522640D01*
X90173490Y-78531027D01*
X90186791Y-78523999D01*
X90719978Y-77990812D01*
X90726356Y-77979132D01*
X91456408Y-77979132D01*
X91456539Y-77980965D01*
X91460790Y-77987580D01*
X91996518Y-78523308D01*
X92008898Y-78530068D01*
X92015478Y-78525142D01*
X92073611Y-78421339D01*
X92078292Y-78410826D01*
X92137967Y-78235029D01*
X92140652Y-78223846D01*
X92167587Y-78038071D01*
X92168217Y-78030689D01*
X92169500Y-77981704D01*
X92169257Y-77974305D01*
X92167004Y-77949779D01*
X97568270Y-77949779D01*
X97581174Y-78146652D01*
X97629739Y-78337877D01*
X97712339Y-78517049D01*
X97826207Y-78678169D01*
X97830341Y-78682196D01*
X97954744Y-78803384D01*
X97967530Y-78815840D01*
X97972326Y-78819045D01*
X97972329Y-78819047D01*
X98037809Y-78862799D01*
X98131576Y-78925452D01*
X98136879Y-78927730D01*
X98136882Y-78927732D01*
X98306432Y-79000576D01*
X98312849Y-79003333D01*
X98404038Y-79023967D01*
X98499644Y-79045601D01*
X98499647Y-79045601D01*
X98505280Y-79046876D01*
X98511051Y-79047103D01*
X98511053Y-79047103D01*
X98570054Y-79049421D01*
X98702423Y-79054622D01*
X98817789Y-79037894D01*
X98891955Y-79027141D01*
X98891959Y-79027140D01*
X98897677Y-79026311D01*
X98903149Y-79024453D01*
X98903151Y-79024453D01*
X99079038Y-78964747D01*
X99079040Y-78964746D01*
X99084502Y-78962892D01*
X99207333Y-78894104D01*
X99251605Y-78869311D01*
X99251606Y-78869310D01*
X99256642Y-78866490D01*
X99408331Y-78740331D01*
X99534490Y-78588642D01*
X99630892Y-78416502D01*
X99635961Y-78401571D01*
X99692453Y-78235151D01*
X99692453Y-78235149D01*
X99694311Y-78229677D01*
X99695157Y-78223846D01*
X99722089Y-78038096D01*
X99722622Y-78034423D01*
X99724099Y-77978000D01*
X99706046Y-77781532D01*
X99699887Y-77759692D01*
X99654060Y-77597203D01*
X99654059Y-77597201D01*
X99652492Y-77591644D01*
X99642381Y-77571139D01*
X99567786Y-77419876D01*
X99565231Y-77414695D01*
X99547407Y-77390825D01*
X99450637Y-77261235D01*
X99450636Y-77261234D01*
X99447184Y-77256611D01*
X99424764Y-77235886D01*
X99306546Y-77126607D01*
X99306544Y-77126605D01*
X99302305Y-77122687D01*
X99135447Y-77017407D01*
X98952197Y-76944297D01*
X98946529Y-76943170D01*
X98946527Y-76943169D01*
X98764360Y-76906934D01*
X98764356Y-76906934D01*
X98758692Y-76905807D01*
X98752917Y-76905731D01*
X98752913Y-76905731D01*
X98654267Y-76904440D01*
X98561413Y-76903224D01*
X98555716Y-76904203D01*
X98555715Y-76904203D01*
X98543919Y-76906230D01*
X98366967Y-76936636D01*
X98181866Y-77004924D01*
X98176905Y-77007876D01*
X98176904Y-77007876D01*
X98017277Y-77102844D01*
X98017274Y-77102846D01*
X98012309Y-77105800D01*
X98007969Y-77109606D01*
X98007965Y-77109609D01*
X97897493Y-77206491D01*
X97863975Y-77235886D01*
X97741830Y-77390825D01*
X97739141Y-77395936D01*
X97739139Y-77395939D01*
X97692732Y-77484144D01*
X97649966Y-77565429D01*
X97591460Y-77753851D01*
X97568270Y-77949779D01*
X92167004Y-77949779D01*
X92152082Y-77787378D01*
X92149985Y-77776064D01*
X92099591Y-77597383D01*
X92095469Y-77586644D01*
X92019954Y-77433515D01*
X92010407Y-77423138D01*
X92003974Y-77425236D01*
X91464022Y-77965188D01*
X91456408Y-77979132D01*
X90726356Y-77979132D01*
X90727592Y-77976868D01*
X90727461Y-77975035D01*
X90723210Y-77968420D01*
X90186459Y-77431669D01*
X90174079Y-77424909D01*
X90168113Y-77429375D01*
X90099122Y-77560505D01*
X90094717Y-77571139D01*
X90039664Y-77748438D01*
X90037272Y-77759692D01*
X90015451Y-77944057D01*
X90015150Y-77955558D01*
X89658500Y-77955558D01*
X89658500Y-77062211D01*
X90540323Y-77062211D01*
X90543810Y-77070600D01*
X91079188Y-77605978D01*
X91093132Y-77613592D01*
X91094965Y-77613461D01*
X91101580Y-77609210D01*
X91636905Y-77073885D01*
X91643665Y-77061505D01*
X91637635Y-77053450D01*
X91586102Y-77020935D01*
X91575855Y-77015714D01*
X91403423Y-76946921D01*
X91392386Y-76943652D01*
X91210306Y-76907433D01*
X91198861Y-76906230D01*
X91013235Y-76903801D01*
X91001755Y-76904704D01*
X90818794Y-76936142D01*
X90807674Y-76939122D01*
X90633498Y-77003379D01*
X90623124Y-77008327D01*
X90549921Y-77051878D01*
X90540323Y-77062211D01*
X89658500Y-77062211D01*
X89658500Y-75409779D01*
X90014270Y-75409779D01*
X90027174Y-75606652D01*
X90075739Y-75797877D01*
X90158339Y-75977049D01*
X90272207Y-76138169D01*
X90413530Y-76275840D01*
X90418326Y-76279045D01*
X90418329Y-76279047D01*
X90426565Y-76284550D01*
X90577576Y-76385452D01*
X90582879Y-76387730D01*
X90582882Y-76387732D01*
X90753542Y-76461053D01*
X90758849Y-76463333D01*
X90852185Y-76484453D01*
X90945644Y-76505601D01*
X90945647Y-76505601D01*
X90951280Y-76506876D01*
X90957051Y-76507103D01*
X90957053Y-76507103D01*
X91016054Y-76509421D01*
X91148423Y-76514622D01*
X91263789Y-76497894D01*
X91337955Y-76487141D01*
X91337959Y-76487140D01*
X91343677Y-76486311D01*
X91349149Y-76484453D01*
X91349151Y-76484453D01*
X91525038Y-76424747D01*
X91525040Y-76424746D01*
X91530502Y-76422892D01*
X91702642Y-76326490D01*
X91823917Y-76225626D01*
X91889081Y-76197445D01*
X91904487Y-76196500D01*
X93846930Y-76196500D01*
X93865880Y-76197933D01*
X93880115Y-76200099D01*
X93880119Y-76200099D01*
X93887349Y-76201199D01*
X93894641Y-76200606D01*
X93894644Y-76200606D01*
X93940018Y-76196915D01*
X93950233Y-76196500D01*
X93958293Y-76196500D01*
X93971583Y-76194951D01*
X93986507Y-76193211D01*
X93990882Y-76192778D01*
X94056339Y-76187454D01*
X94056342Y-76187453D01*
X94063637Y-76186860D01*
X94070601Y-76184604D01*
X94076560Y-76183413D01*
X94082415Y-76182029D01*
X94089681Y-76181182D01*
X94158327Y-76156265D01*
X94162455Y-76154848D01*
X94231030Y-76132633D01*
X94269861Y-76126500D01*
X94759400Y-76126500D01*
X94762646Y-76126163D01*
X94762650Y-76126163D01*
X94858308Y-76116238D01*
X94858312Y-76116237D01*
X94865166Y-76115526D01*
X94871702Y-76113345D01*
X94871704Y-76113345D01*
X95025998Y-76061868D01*
X95032946Y-76059550D01*
X95183348Y-75966478D01*
X95308305Y-75841303D01*
X95401115Y-75690738D01*
X95445204Y-75557812D01*
X95454632Y-75529389D01*
X95454632Y-75529387D01*
X95456797Y-75522861D01*
X95459335Y-75498096D01*
X95467172Y-75421598D01*
X95467500Y-75418400D01*
X95467500Y-75409779D01*
X97568270Y-75409779D01*
X97581174Y-75606652D01*
X97629739Y-75797877D01*
X97712339Y-75977049D01*
X97826207Y-76138169D01*
X97967530Y-76275840D01*
X97972326Y-76279045D01*
X97972329Y-76279047D01*
X97980565Y-76284550D01*
X98131576Y-76385452D01*
X98136879Y-76387730D01*
X98136882Y-76387732D01*
X98307542Y-76461053D01*
X98312849Y-76463333D01*
X98406185Y-76484453D01*
X98499644Y-76505601D01*
X98499647Y-76505601D01*
X98505280Y-76506876D01*
X98511051Y-76507103D01*
X98511053Y-76507103D01*
X98570054Y-76509421D01*
X98702423Y-76514622D01*
X98817789Y-76497894D01*
X98891955Y-76487141D01*
X98891959Y-76487140D01*
X98897677Y-76486311D01*
X98903149Y-76484453D01*
X98903151Y-76484453D01*
X99079038Y-76424747D01*
X99079040Y-76424746D01*
X99084502Y-76422892D01*
X99256642Y-76326490D01*
X99408331Y-76200331D01*
X99534490Y-76048642D01*
X99630892Y-75876502D01*
X99637545Y-75856905D01*
X99692453Y-75695151D01*
X99692453Y-75695149D01*
X99694311Y-75689677D01*
X99695165Y-75683791D01*
X99714510Y-75550371D01*
X99722622Y-75494423D01*
X99724099Y-75438000D01*
X99706046Y-75241532D01*
X99696684Y-75208334D01*
X99654060Y-75057203D01*
X99654059Y-75057201D01*
X99652492Y-75051644D01*
X99642286Y-75030947D01*
X99567786Y-74879876D01*
X99565231Y-74874695D01*
X99555359Y-74861474D01*
X99450637Y-74721235D01*
X99450636Y-74721234D01*
X99447184Y-74716611D01*
X99442312Y-74712107D01*
X99306546Y-74586607D01*
X99306544Y-74586605D01*
X99302305Y-74582687D01*
X99135447Y-74477407D01*
X98952197Y-74404297D01*
X98946529Y-74403170D01*
X98946527Y-74403169D01*
X98764360Y-74366934D01*
X98764356Y-74366934D01*
X98758692Y-74365807D01*
X98752917Y-74365731D01*
X98752913Y-74365731D01*
X98654267Y-74364440D01*
X98561413Y-74363224D01*
X98555716Y-74364203D01*
X98555715Y-74364203D01*
X98378251Y-74394697D01*
X98366967Y-74396636D01*
X98181866Y-74464924D01*
X98176905Y-74467876D01*
X98176904Y-74467876D01*
X98017277Y-74562844D01*
X98017274Y-74562846D01*
X98012309Y-74565800D01*
X98007969Y-74569606D01*
X98007965Y-74569609D01*
X97868316Y-74692079D01*
X97863975Y-74695886D01*
X97860399Y-74700422D01*
X97851187Y-74712107D01*
X97741830Y-74850825D01*
X97739141Y-74855936D01*
X97739139Y-74855939D01*
X97695457Y-74938966D01*
X97649966Y-75025429D01*
X97591460Y-75213851D01*
X97568270Y-75409779D01*
X95467500Y-75409779D01*
X95467500Y-74817600D01*
X95464734Y-74790938D01*
X95457238Y-74718692D01*
X95457237Y-74718688D01*
X95456526Y-74711834D01*
X95451206Y-74695886D01*
X95402868Y-74551002D01*
X95400550Y-74544054D01*
X95307478Y-74393652D01*
X95291679Y-74377880D01*
X95187483Y-74273866D01*
X95182303Y-74268695D01*
X95178084Y-74266094D01*
X95137583Y-74208970D01*
X95134351Y-74138047D01*
X95169976Y-74076635D01*
X95177530Y-74070078D01*
X95183348Y-74066478D01*
X95308305Y-73941303D01*
X95321962Y-73919148D01*
X95397275Y-73796968D01*
X95397276Y-73796966D01*
X95401115Y-73790738D01*
X95437593Y-73680759D01*
X95454632Y-73629389D01*
X95454632Y-73629387D01*
X95456797Y-73622861D01*
X95458915Y-73602196D01*
X95464945Y-73543333D01*
X95467500Y-73518400D01*
X95467500Y-72917600D01*
X95466502Y-72907982D01*
X95462538Y-72869779D01*
X97568270Y-72869779D01*
X97581174Y-73066652D01*
X97629739Y-73257877D01*
X97712339Y-73437049D01*
X97826207Y-73598169D01*
X97967530Y-73735840D01*
X97972326Y-73739045D01*
X97972329Y-73739047D01*
X98060822Y-73798176D01*
X98131576Y-73845452D01*
X98136879Y-73847730D01*
X98136882Y-73847732D01*
X98268076Y-73904097D01*
X98312849Y-73923333D01*
X98396883Y-73942348D01*
X98499644Y-73965601D01*
X98499647Y-73965601D01*
X98505280Y-73966876D01*
X98511051Y-73967103D01*
X98511053Y-73967103D01*
X98570054Y-73969421D01*
X98702423Y-73974622D01*
X98817789Y-73957894D01*
X98891955Y-73947141D01*
X98891959Y-73947140D01*
X98897677Y-73946311D01*
X98903149Y-73944453D01*
X98903151Y-73944453D01*
X99079038Y-73884747D01*
X99079040Y-73884746D01*
X99084502Y-73882892D01*
X99256642Y-73786490D01*
X99408331Y-73660331D01*
X99534490Y-73508642D01*
X99546228Y-73487683D01*
X99567110Y-73450395D01*
X99630892Y-73336502D01*
X99638289Y-73314713D01*
X99692453Y-73155151D01*
X99692453Y-73155149D01*
X99694311Y-73149677D01*
X99697746Y-73125991D01*
X99712285Y-73025717D01*
X99722622Y-72954423D01*
X99724099Y-72898000D01*
X99706046Y-72701532D01*
X99698421Y-72674493D01*
X99654060Y-72517203D01*
X99654059Y-72517201D01*
X99652492Y-72511644D01*
X99643620Y-72493652D01*
X99567786Y-72339876D01*
X99565231Y-72334695D01*
X99559938Y-72327606D01*
X99450637Y-72181235D01*
X99450636Y-72181234D01*
X99447184Y-72176611D01*
X99427607Y-72158514D01*
X99306546Y-72046607D01*
X99306544Y-72046605D01*
X99302305Y-72042687D01*
X99135447Y-71937407D01*
X98952197Y-71864297D01*
X98946529Y-71863170D01*
X98946527Y-71863169D01*
X98764360Y-71826934D01*
X98764356Y-71826934D01*
X98758692Y-71825807D01*
X98752917Y-71825731D01*
X98752913Y-71825731D01*
X98654267Y-71824440D01*
X98561413Y-71823224D01*
X98555716Y-71824203D01*
X98555715Y-71824203D01*
X98372664Y-71855657D01*
X98366967Y-71856636D01*
X98181866Y-71924924D01*
X98176905Y-71927876D01*
X98176904Y-71927876D01*
X98017277Y-72022844D01*
X98017274Y-72022846D01*
X98012309Y-72025800D01*
X98007969Y-72029606D01*
X98007965Y-72029609D01*
X97882267Y-72139844D01*
X97863975Y-72155886D01*
X97741830Y-72310825D01*
X97739141Y-72315936D01*
X97739139Y-72315939D01*
X97717395Y-72357268D01*
X97649966Y-72485429D01*
X97591460Y-72673851D01*
X97568270Y-72869779D01*
X95462538Y-72869779D01*
X95457238Y-72818692D01*
X95457237Y-72818688D01*
X95456526Y-72811834D01*
X95434333Y-72745312D01*
X95402868Y-72651002D01*
X95400550Y-72644054D01*
X95307478Y-72493652D01*
X95182303Y-72368695D01*
X95176072Y-72364854D01*
X95037968Y-72279725D01*
X95037966Y-72279724D01*
X95031738Y-72275885D01*
X94903990Y-72233513D01*
X94870389Y-72222368D01*
X94870387Y-72222368D01*
X94863861Y-72220203D01*
X94857025Y-72219503D01*
X94857022Y-72219502D01*
X94813969Y-72215091D01*
X94759400Y-72209500D01*
X94263904Y-72209500D01*
X94206604Y-72195717D01*
X94186715Y-72185561D01*
X94186709Y-72185559D01*
X94180192Y-72182231D01*
X94173086Y-72180492D01*
X94167441Y-72178393D01*
X94161678Y-72176476D01*
X94155050Y-72173378D01*
X94083583Y-72158513D01*
X94079299Y-72157543D01*
X94008390Y-72140192D01*
X94002788Y-72139844D01*
X94002785Y-72139844D01*
X93997236Y-72139500D01*
X93997238Y-72139464D01*
X93993245Y-72139225D01*
X93989053Y-72138851D01*
X93981885Y-72137360D01*
X93915675Y-72139151D01*
X93904479Y-72139454D01*
X93901072Y-72139500D01*
X91902353Y-72139500D01*
X91834232Y-72119498D01*
X91816824Y-72106025D01*
X91752546Y-72046607D01*
X91752544Y-72046605D01*
X91748305Y-72042687D01*
X91581447Y-71937407D01*
X91398197Y-71864297D01*
X91392529Y-71863170D01*
X91392527Y-71863169D01*
X91210360Y-71826934D01*
X91210356Y-71826934D01*
X91204692Y-71825807D01*
X91198917Y-71825731D01*
X91198913Y-71825731D01*
X91100267Y-71824440D01*
X91007413Y-71823224D01*
X91001716Y-71824203D01*
X91001715Y-71824203D01*
X90818664Y-71855657D01*
X90812967Y-71856636D01*
X90627866Y-71924924D01*
X90622905Y-71927876D01*
X90622904Y-71927876D01*
X90463277Y-72022844D01*
X90463274Y-72022846D01*
X90458309Y-72025800D01*
X90453969Y-72029606D01*
X90453965Y-72029609D01*
X90328267Y-72139844D01*
X90309975Y-72155886D01*
X90187830Y-72310825D01*
X90185141Y-72315936D01*
X90185139Y-72315939D01*
X90163395Y-72357268D01*
X90095966Y-72485429D01*
X90037460Y-72673851D01*
X90014270Y-72869779D01*
X90027174Y-73066652D01*
X90075739Y-73257877D01*
X90158339Y-73437049D01*
X90272207Y-73598169D01*
X90413530Y-73735840D01*
X90418326Y-73739045D01*
X90418329Y-73739047D01*
X90506822Y-73798176D01*
X90577576Y-73845452D01*
X90582879Y-73847730D01*
X90582882Y-73847732D01*
X90714076Y-73904097D01*
X90758849Y-73923333D01*
X90842883Y-73942348D01*
X90945644Y-73965601D01*
X90945647Y-73965601D01*
X90951280Y-73966876D01*
X90957051Y-73967103D01*
X90957053Y-73967103D01*
X91016054Y-73969421D01*
X91148423Y-73974622D01*
X91263789Y-73957894D01*
X91337955Y-73947141D01*
X91337959Y-73947140D01*
X91343677Y-73946311D01*
X91349149Y-73944453D01*
X91349151Y-73944453D01*
X91525038Y-73884747D01*
X91525040Y-73884746D01*
X91530502Y-73882892D01*
X91702642Y-73786490D01*
X91823917Y-73685626D01*
X91889081Y-73657445D01*
X91904487Y-73656500D01*
X92931471Y-73656500D01*
X92999592Y-73676502D01*
X93046085Y-73730158D01*
X93050995Y-73742624D01*
X93067450Y-73791946D01*
X93160522Y-73942348D01*
X93285697Y-74067305D01*
X93289916Y-74069906D01*
X93330417Y-74127030D01*
X93333649Y-74197953D01*
X93298024Y-74259365D01*
X93290470Y-74265922D01*
X93284652Y-74269522D01*
X93159695Y-74394697D01*
X93155855Y-74400927D01*
X93155854Y-74400928D01*
X93089147Y-74509147D01*
X93066885Y-74545262D01*
X93050996Y-74593166D01*
X93010566Y-74651527D01*
X92945002Y-74678764D01*
X92931403Y-74679500D01*
X91902353Y-74679500D01*
X91834232Y-74659498D01*
X91816824Y-74646025D01*
X91752546Y-74586607D01*
X91752544Y-74586605D01*
X91748305Y-74582687D01*
X91581447Y-74477407D01*
X91398197Y-74404297D01*
X91392529Y-74403170D01*
X91392527Y-74403169D01*
X91210360Y-74366934D01*
X91210356Y-74366934D01*
X91204692Y-74365807D01*
X91198917Y-74365731D01*
X91198913Y-74365731D01*
X91100267Y-74364440D01*
X91007413Y-74363224D01*
X91001716Y-74364203D01*
X91001715Y-74364203D01*
X90824251Y-74394697D01*
X90812967Y-74396636D01*
X90627866Y-74464924D01*
X90622905Y-74467876D01*
X90622904Y-74467876D01*
X90463277Y-74562844D01*
X90463274Y-74562846D01*
X90458309Y-74565800D01*
X90453969Y-74569606D01*
X90453965Y-74569609D01*
X90314316Y-74692079D01*
X90309975Y-74695886D01*
X90306399Y-74700422D01*
X90297187Y-74712107D01*
X90187830Y-74850825D01*
X90185141Y-74855936D01*
X90185139Y-74855939D01*
X90141457Y-74938966D01*
X90095966Y-75025429D01*
X90037460Y-75213851D01*
X90014270Y-75409779D01*
X89658500Y-75409779D01*
X89658500Y-72137070D01*
X89659933Y-72118120D01*
X89662099Y-72103885D01*
X89662099Y-72103881D01*
X89663199Y-72096651D01*
X89662469Y-72087669D01*
X89658915Y-72043982D01*
X89658500Y-72033767D01*
X89658500Y-72025707D01*
X89655209Y-71997480D01*
X89654778Y-71993121D01*
X89648860Y-71920364D01*
X89646605Y-71913403D01*
X89645418Y-71907463D01*
X89644029Y-71901588D01*
X89643182Y-71894319D01*
X89618264Y-71825670D01*
X89616847Y-71821542D01*
X89596607Y-71759064D01*
X89596606Y-71759062D01*
X89594351Y-71752101D01*
X89590555Y-71745846D01*
X89588049Y-71740372D01*
X89585330Y-71734942D01*
X89582833Y-71728063D01*
X89542814Y-71667024D01*
X89540467Y-71663305D01*
X89502595Y-71600893D01*
X89495197Y-71592516D01*
X89495224Y-71592492D01*
X89492571Y-71589500D01*
X89489868Y-71586267D01*
X89485856Y-71580148D01*
X89429617Y-71526872D01*
X89427175Y-71524494D01*
X89176740Y-71274059D01*
X90540302Y-71274059D01*
X90550184Y-71286548D01*
X90573009Y-71301799D01*
X90583123Y-71307291D01*
X90753697Y-71380576D01*
X90764640Y-71384131D01*
X90945708Y-71425103D01*
X90957118Y-71426605D01*
X91142629Y-71433893D01*
X91154111Y-71433291D01*
X91337846Y-71406652D01*
X91349029Y-71403967D01*
X91524826Y-71344292D01*
X91535339Y-71339611D01*
X91634313Y-71284182D01*
X91644178Y-71274104D01*
X91641222Y-71266432D01*
X91104812Y-70730022D01*
X91090868Y-70722408D01*
X91089035Y-70722539D01*
X91082420Y-70726790D01*
X90546498Y-71262712D01*
X90540302Y-71274059D01*
X89176740Y-71274059D01*
X88392405Y-70489724D01*
X88358379Y-70427412D01*
X88355500Y-70400629D01*
X88355500Y-70335558D01*
X90015150Y-70335558D01*
X90027292Y-70520805D01*
X90029093Y-70532175D01*
X90074789Y-70712107D01*
X90078631Y-70722956D01*
X90156358Y-70891557D01*
X90162105Y-70901511D01*
X90162902Y-70902640D01*
X90173490Y-70911027D01*
X90186791Y-70903999D01*
X90719978Y-70370812D01*
X90726356Y-70359132D01*
X91456408Y-70359132D01*
X91456539Y-70360965D01*
X91460790Y-70367580D01*
X91996518Y-70903308D01*
X92008898Y-70910068D01*
X92015478Y-70905142D01*
X92073611Y-70801339D01*
X92078292Y-70790826D01*
X92137967Y-70615029D01*
X92140652Y-70603846D01*
X92167587Y-70418071D01*
X92168217Y-70410689D01*
X92169500Y-70361704D01*
X92169257Y-70354305D01*
X92167004Y-70329779D01*
X97568270Y-70329779D01*
X97581174Y-70526652D01*
X97629739Y-70717877D01*
X97712339Y-70897049D01*
X97826207Y-71058169D01*
X97967530Y-71195840D01*
X97972326Y-71199045D01*
X97972329Y-71199047D01*
X98084593Y-71274059D01*
X98131576Y-71305452D01*
X98136879Y-71307730D01*
X98136882Y-71307732D01*
X98306432Y-71380576D01*
X98312849Y-71383333D01*
X98404038Y-71403967D01*
X98499644Y-71425601D01*
X98499647Y-71425601D01*
X98505280Y-71426876D01*
X98511051Y-71427103D01*
X98511053Y-71427103D01*
X98570054Y-71429421D01*
X98702423Y-71434622D01*
X98817789Y-71417894D01*
X98891955Y-71407141D01*
X98891959Y-71407140D01*
X98897677Y-71406311D01*
X98903149Y-71404453D01*
X98903151Y-71404453D01*
X99079038Y-71344747D01*
X99079040Y-71344746D01*
X99084502Y-71342892D01*
X99207333Y-71274104D01*
X99251605Y-71249311D01*
X99251606Y-71249310D01*
X99256642Y-71246490D01*
X99408331Y-71120331D01*
X99534490Y-70968642D01*
X99630892Y-70796502D01*
X99633685Y-70788276D01*
X99692453Y-70615151D01*
X99692453Y-70615149D01*
X99694311Y-70609677D01*
X99695157Y-70603846D01*
X99711704Y-70489724D01*
X99722622Y-70414423D01*
X99724099Y-70358000D01*
X99706046Y-70161532D01*
X99699887Y-70139692D01*
X99654060Y-69977203D01*
X99654059Y-69977201D01*
X99652492Y-69971644D01*
X99642381Y-69951139D01*
X99567786Y-69799876D01*
X99565231Y-69794695D01*
X99547407Y-69770825D01*
X99450637Y-69641235D01*
X99450636Y-69641234D01*
X99447184Y-69636611D01*
X99429671Y-69620422D01*
X99306546Y-69506607D01*
X99306544Y-69506605D01*
X99302305Y-69502687D01*
X99135447Y-69397407D01*
X98952197Y-69324297D01*
X98946529Y-69323170D01*
X98946527Y-69323169D01*
X98764360Y-69286934D01*
X98764356Y-69286934D01*
X98758692Y-69285807D01*
X98752917Y-69285731D01*
X98752913Y-69285731D01*
X98654267Y-69284440D01*
X98561413Y-69283224D01*
X98555716Y-69284203D01*
X98555715Y-69284203D01*
X98543919Y-69286230D01*
X98366967Y-69316636D01*
X98181866Y-69384924D01*
X98176905Y-69387876D01*
X98176904Y-69387876D01*
X98017277Y-69482844D01*
X98017274Y-69482846D01*
X98012309Y-69485800D01*
X98007969Y-69489606D01*
X98007965Y-69489609D01*
X97911873Y-69573880D01*
X97863975Y-69615886D01*
X97741830Y-69770825D01*
X97739141Y-69775936D01*
X97739139Y-69775939D01*
X97692732Y-69864144D01*
X97649966Y-69945429D01*
X97591460Y-70133851D01*
X97568270Y-70329779D01*
X92167004Y-70329779D01*
X92152082Y-70167378D01*
X92149985Y-70156064D01*
X92099591Y-69977383D01*
X92095469Y-69966644D01*
X92019954Y-69813515D01*
X92010407Y-69803138D01*
X92003974Y-69805236D01*
X91464022Y-70345188D01*
X91456408Y-70359132D01*
X90726356Y-70359132D01*
X90727592Y-70356868D01*
X90727461Y-70355035D01*
X90723210Y-70348420D01*
X90186459Y-69811669D01*
X90174079Y-69804909D01*
X90168113Y-69809375D01*
X90099122Y-69940505D01*
X90094717Y-69951139D01*
X90039664Y-70128438D01*
X90037272Y-70139692D01*
X90015451Y-70324057D01*
X90015150Y-70335558D01*
X88355500Y-70335558D01*
X88355500Y-69991600D01*
X88354006Y-69977203D01*
X88345238Y-69892692D01*
X88345237Y-69892688D01*
X88344526Y-69885834D01*
X88320399Y-69813515D01*
X88290868Y-69725002D01*
X88288550Y-69718054D01*
X88195478Y-69567652D01*
X88070303Y-69442695D01*
X88069518Y-69442211D01*
X90540323Y-69442211D01*
X90543810Y-69450600D01*
X91079188Y-69985978D01*
X91093132Y-69993592D01*
X91094965Y-69993461D01*
X91101580Y-69989210D01*
X91636905Y-69453885D01*
X91643665Y-69441505D01*
X91637635Y-69433450D01*
X91586102Y-69400935D01*
X91575855Y-69395714D01*
X91403423Y-69326921D01*
X91392386Y-69323652D01*
X91210306Y-69287433D01*
X91198861Y-69286230D01*
X91013235Y-69283801D01*
X91001755Y-69284704D01*
X90818794Y-69316142D01*
X90807674Y-69319122D01*
X90633498Y-69383379D01*
X90623124Y-69388327D01*
X90549921Y-69431878D01*
X90540323Y-69442211D01*
X88069518Y-69442211D01*
X88066084Y-69440094D01*
X88025583Y-69382970D01*
X88022351Y-69312047D01*
X88057976Y-69250635D01*
X88065530Y-69244078D01*
X88071348Y-69240478D01*
X88196305Y-69115303D01*
X88289115Y-68964738D01*
X88330139Y-68841053D01*
X88342632Y-68803389D01*
X88342632Y-68803387D01*
X88344797Y-68796861D01*
X88355500Y-68692400D01*
X88355500Y-68091600D01*
X88355163Y-68088350D01*
X88345238Y-67992692D01*
X88345237Y-67992688D01*
X88344526Y-67985834D01*
X88335069Y-67957486D01*
X88290868Y-67825002D01*
X88288550Y-67818054D01*
X88195478Y-67667652D01*
X88070303Y-67542695D01*
X87959604Y-67474459D01*
X87912111Y-67421687D01*
X87900687Y-67351615D01*
X87928961Y-67286491D01*
X87987955Y-67246992D01*
X88014738Y-67241678D01*
X88032691Y-67240107D01*
X88094655Y-67234686D01*
X88099968Y-67233262D01*
X88099970Y-67233262D01*
X88293600Y-67181379D01*
X88293602Y-67181378D01*
X88298910Y-67179956D01*
X88303892Y-67177633D01*
X88485577Y-67092912D01*
X88485580Y-67092910D01*
X88490558Y-67090589D01*
X88663776Y-66969301D01*
X88813301Y-66819776D01*
X88934589Y-66646558D01*
X88950182Y-66613120D01*
X89021633Y-66459892D01*
X89021634Y-66459891D01*
X89023956Y-66454910D01*
X89034744Y-66414651D01*
X89077262Y-66255970D01*
X89077262Y-66255968D01*
X89078686Y-66250655D01*
X89097116Y-66040000D01*
X89078686Y-65829345D01*
X89072864Y-65807617D01*
X89025379Y-65630400D01*
X89025378Y-65630398D01*
X89023956Y-65625090D01*
X88940749Y-65446652D01*
X88936912Y-65438423D01*
X88936910Y-65438420D01*
X88934589Y-65433442D01*
X88813301Y-65260224D01*
X88663776Y-65110699D01*
X88490558Y-64989411D01*
X88485580Y-64987090D01*
X88485577Y-64987088D01*
X88303892Y-64902367D01*
X88303891Y-64902366D01*
X88298910Y-64900044D01*
X88293602Y-64898622D01*
X88293600Y-64898621D01*
X88099970Y-64846738D01*
X88099968Y-64846738D01*
X88094655Y-64845314D01*
X87884000Y-64826884D01*
X87878525Y-64827363D01*
X87878514Y-64827363D01*
X87698497Y-64843113D01*
X87628892Y-64829125D01*
X87598420Y-64806688D01*
X86827778Y-64036046D01*
X86793752Y-63973734D01*
X86798817Y-63902919D01*
X86841364Y-63846083D01*
X86850569Y-63839807D01*
X86859937Y-63834010D01*
X86896348Y-63811478D01*
X87021305Y-63686303D01*
X87024102Y-63681765D01*
X87081353Y-63641176D01*
X87152276Y-63637946D01*
X87213687Y-63673572D01*
X87221062Y-63682068D01*
X87229098Y-63692207D01*
X87343829Y-63806739D01*
X87355240Y-63815751D01*
X87493243Y-63900816D01*
X87506424Y-63906963D01*
X87660710Y-63958138D01*
X87674086Y-63961005D01*
X87768438Y-63970672D01*
X87774854Y-63971000D01*
X87799885Y-63971000D01*
X87815124Y-63966525D01*
X87816329Y-63965135D01*
X87818000Y-63957452D01*
X87818000Y-63952884D01*
X88326000Y-63952884D01*
X88330475Y-63968123D01*
X88331865Y-63969328D01*
X88339548Y-63970999D01*
X88369095Y-63970999D01*
X88375614Y-63970662D01*
X88471206Y-63960743D01*
X88484600Y-63957851D01*
X88638784Y-63906412D01*
X88651962Y-63900239D01*
X88789807Y-63814937D01*
X88801208Y-63805901D01*
X88915739Y-63691171D01*
X88924751Y-63679760D01*
X89009816Y-63541757D01*
X89015963Y-63528576D01*
X89067138Y-63374290D01*
X89070005Y-63360914D01*
X89079672Y-63266562D01*
X89080000Y-63260146D01*
X89080000Y-63010115D01*
X89075525Y-62994876D01*
X89074135Y-62993671D01*
X89066452Y-62992000D01*
X88344115Y-62992000D01*
X88328876Y-62996475D01*
X88327671Y-62997865D01*
X88326000Y-63005548D01*
X88326000Y-63952884D01*
X87818000Y-63952884D01*
X87818000Y-62610000D01*
X87838002Y-62541879D01*
X87891658Y-62495386D01*
X87944000Y-62484000D01*
X89061884Y-62484000D01*
X89077123Y-62479525D01*
X89078328Y-62478135D01*
X89079999Y-62470452D01*
X89079999Y-62215905D01*
X89079662Y-62209386D01*
X89069032Y-62106937D01*
X89071212Y-62106711D01*
X89075623Y-62046280D01*
X89118253Y-61989506D01*
X89184809Y-61964793D01*
X89254161Y-61979986D01*
X89282709Y-62001390D01*
X89982362Y-62701043D01*
X90016388Y-62763355D01*
X90018996Y-62781893D01*
X90027174Y-62906652D01*
X90075739Y-63097877D01*
X90158339Y-63277049D01*
X90272207Y-63438169D01*
X90413530Y-63575840D01*
X90418326Y-63579045D01*
X90418329Y-63579047D01*
X90483809Y-63622799D01*
X90577576Y-63685452D01*
X90582879Y-63687730D01*
X90582882Y-63687732D01*
X90723142Y-63747992D01*
X90758849Y-63763333D01*
X90852185Y-63784453D01*
X90945644Y-63805601D01*
X90945647Y-63805601D01*
X90951280Y-63806876D01*
X90957051Y-63807103D01*
X90957053Y-63807103D01*
X91016054Y-63809421D01*
X91148423Y-63814622D01*
X91290869Y-63793968D01*
X91337955Y-63787141D01*
X91337959Y-63787140D01*
X91343677Y-63786311D01*
X91349149Y-63784453D01*
X91349151Y-63784453D01*
X91525038Y-63724747D01*
X91525040Y-63724746D01*
X91530502Y-63722892D01*
X91702642Y-63626490D01*
X91732074Y-63602012D01*
X91849899Y-63504017D01*
X91854331Y-63500331D01*
X91932434Y-63406423D01*
X91976799Y-63353080D01*
X91980490Y-63348642D01*
X91985803Y-63339156D01*
X92017039Y-63283378D01*
X92076892Y-63176502D01*
X92081329Y-63163433D01*
X92138453Y-62995151D01*
X92138453Y-62995149D01*
X92140311Y-62989677D01*
X92144990Y-62957411D01*
X92157947Y-62868044D01*
X92168622Y-62794423D01*
X92170099Y-62738000D01*
X92155721Y-62581528D01*
X92152575Y-62547286D01*
X92152574Y-62547283D01*
X92152046Y-62541532D01*
X92148864Y-62530247D01*
X92100060Y-62357203D01*
X92100059Y-62357201D01*
X92098492Y-62351644D01*
X92085565Y-62325429D01*
X92013786Y-62179876D01*
X92011231Y-62174695D01*
X91998543Y-62157703D01*
X91896637Y-62021235D01*
X91896636Y-62021234D01*
X91893184Y-62016611D01*
X91853563Y-61979986D01*
X91752546Y-61886607D01*
X91752544Y-61886605D01*
X91748305Y-61882687D01*
X91581447Y-61777407D01*
X91398197Y-61704297D01*
X91392529Y-61703170D01*
X91392527Y-61703169D01*
X91210360Y-61666934D01*
X91210356Y-61666934D01*
X91204692Y-61665807D01*
X91198916Y-61665731D01*
X91198913Y-61665731D01*
X91161520Y-61665242D01*
X91142220Y-61664989D01*
X91074368Y-61644097D01*
X91054776Y-61628095D01*
X90913276Y-61486595D01*
X90879250Y-61424283D01*
X90884315Y-61353468D01*
X90926862Y-61296632D01*
X90993382Y-61271821D01*
X91002371Y-61271500D01*
X91705134Y-61271500D01*
X91767316Y-61264745D01*
X91903705Y-61213615D01*
X92020261Y-61126261D01*
X92107615Y-61009705D01*
X92158745Y-60873316D01*
X92165500Y-60811134D01*
X92165500Y-59584866D01*
X92158745Y-59522684D01*
X92107615Y-59386295D01*
X92020261Y-59269739D01*
X91903705Y-59182385D01*
X91767316Y-59131255D01*
X91705134Y-59124500D01*
X90478866Y-59124500D01*
X90416684Y-59131255D01*
X90280295Y-59182385D01*
X90163739Y-59269739D01*
X90076385Y-59386295D01*
X90025255Y-59522684D01*
X90018500Y-59584866D01*
X90018500Y-60287629D01*
X89998498Y-60355750D01*
X89944842Y-60402243D01*
X89874568Y-60412347D01*
X89809988Y-60382853D01*
X89803405Y-60376724D01*
X89389770Y-59963089D01*
X89377384Y-59948677D01*
X89368851Y-59937082D01*
X89368846Y-59937077D01*
X89364508Y-59931182D01*
X89358930Y-59926443D01*
X89358927Y-59926440D01*
X89324232Y-59896965D01*
X89316716Y-59890035D01*
X89311021Y-59884340D01*
X89304880Y-59879482D01*
X89288749Y-59866719D01*
X89285345Y-59863928D01*
X89235297Y-59821409D01*
X89235295Y-59821408D01*
X89229715Y-59816667D01*
X89223199Y-59813339D01*
X89218150Y-59809972D01*
X89213021Y-59806805D01*
X89207284Y-59802266D01*
X89141125Y-59771345D01*
X89137225Y-59769439D01*
X89072192Y-59736231D01*
X89065084Y-59734492D01*
X89059441Y-59732393D01*
X89053678Y-59730476D01*
X89047050Y-59727378D01*
X88975583Y-59712513D01*
X88971299Y-59711543D01*
X88968610Y-59710885D01*
X88900390Y-59694192D01*
X88894788Y-59693844D01*
X88894785Y-59693844D01*
X88889236Y-59693500D01*
X88889238Y-59693464D01*
X88885245Y-59693225D01*
X88881053Y-59692851D01*
X88873885Y-59691360D01*
X88807675Y-59693151D01*
X88796479Y-59693454D01*
X88793072Y-59693500D01*
X88717710Y-59693500D01*
X88649589Y-59673498D01*
X88628615Y-59656595D01*
X88587381Y-59615361D01*
X88440699Y-59526528D01*
X88433452Y-59524257D01*
X88433450Y-59524256D01*
X88363152Y-59502226D01*
X88277062Y-59475247D01*
X88203635Y-59468500D01*
X88200737Y-59468500D01*
X87946335Y-59468501D01*
X87690366Y-59468501D01*
X87687508Y-59468764D01*
X87687499Y-59468764D01*
X87651996Y-59472026D01*
X87616938Y-59475247D01*
X87610560Y-59477246D01*
X87610559Y-59477246D01*
X87460550Y-59524256D01*
X87460548Y-59524257D01*
X87453301Y-59526528D01*
X87306619Y-59615361D01*
X87211095Y-59710885D01*
X87148783Y-59744911D01*
X87077968Y-59739846D01*
X87032905Y-59710885D01*
X86937381Y-59615361D01*
X86790699Y-59526528D01*
X86783452Y-59524257D01*
X86783450Y-59524256D01*
X86713152Y-59502226D01*
X86627062Y-59475247D01*
X86553635Y-59468500D01*
X86438371Y-59468500D01*
X86370250Y-59448498D01*
X86349276Y-59431595D01*
X85045276Y-58127595D01*
X85011250Y-58065283D01*
X85016315Y-57994468D01*
X85058862Y-57937632D01*
X85125382Y-57912821D01*
X85134371Y-57912500D01*
X104031616Y-57912500D01*
X104099737Y-57932502D01*
G37*
%TD.AperFunction*%
%TA.AperFunction,Conductor*%
G36*
X123362012Y-60236147D02*
G01*
X123368595Y-60242276D01*
X123451596Y-60325277D01*
X123485622Y-60387589D01*
X123488501Y-60414372D01*
X123488501Y-60529634D01*
X123495247Y-60603062D01*
X123497246Y-60609440D01*
X123497246Y-60609441D01*
X123533900Y-60726402D01*
X123546528Y-60766699D01*
X123635361Y-60913381D01*
X123756619Y-61034639D01*
X123903301Y-61123472D01*
X123910548Y-61125743D01*
X123910550Y-61125744D01*
X123950132Y-61138148D01*
X124066938Y-61174753D01*
X124140365Y-61181500D01*
X124143263Y-61181500D01*
X124397665Y-61181499D01*
X124653634Y-61181499D01*
X124656492Y-61181236D01*
X124656501Y-61181236D01*
X124692004Y-61177974D01*
X124727062Y-61174753D01*
X124750586Y-61167381D01*
X124883450Y-61125744D01*
X124883452Y-61125743D01*
X124890699Y-61123472D01*
X125037381Y-61034639D01*
X125132905Y-60939115D01*
X125195217Y-60905089D01*
X125266032Y-60910154D01*
X125311095Y-60939115D01*
X125406619Y-61034639D01*
X125553301Y-61123472D01*
X125560548Y-61125743D01*
X125560550Y-61125744D01*
X125600132Y-61138148D01*
X125716938Y-61174753D01*
X125790365Y-61181500D01*
X125905629Y-61181500D01*
X125973750Y-61201502D01*
X125994724Y-61218405D01*
X126811225Y-62034906D01*
X126845251Y-62097218D01*
X126840186Y-62168033D01*
X126797639Y-62224869D01*
X126731119Y-62249680D01*
X126722130Y-62250001D01*
X126681017Y-62250001D01*
X126676080Y-62250195D01*
X126647664Y-62252430D01*
X126635069Y-62254730D01*
X126489210Y-62297107D01*
X126474779Y-62303352D01*
X126345322Y-62379911D01*
X126332896Y-62389551D01*
X126226551Y-62495896D01*
X126216911Y-62508322D01*
X126140352Y-62637779D01*
X126134107Y-62652210D01*
X126095061Y-62786605D01*
X126095101Y-62800706D01*
X126102370Y-62804000D01*
X127460500Y-62804000D01*
X127528621Y-62824002D01*
X127575114Y-62877658D01*
X127586500Y-62930000D01*
X127586500Y-63847884D01*
X127590975Y-63863123D01*
X127592365Y-63864328D01*
X127600048Y-63865999D01*
X127835500Y-63865999D01*
X127903621Y-63886001D01*
X127950114Y-63939657D01*
X127961500Y-63991999D01*
X127961500Y-64023500D01*
X127941498Y-64091621D01*
X127887842Y-64138114D01*
X127835500Y-64149500D01*
X126678498Y-64149500D01*
X126676050Y-64149693D01*
X126676042Y-64149693D01*
X126647579Y-64151933D01*
X126647574Y-64151934D01*
X126641169Y-64152438D01*
X126587277Y-64168095D01*
X126489012Y-64196643D01*
X126489010Y-64196644D01*
X126481399Y-64198855D01*
X126473883Y-64203300D01*
X126345020Y-64279509D01*
X126345017Y-64279511D01*
X126338193Y-64283547D01*
X126332585Y-64289155D01*
X126326325Y-64294011D01*
X126324908Y-64292185D01*
X126272833Y-64320621D01*
X126246050Y-64323500D01*
X125603710Y-64323500D01*
X125535589Y-64303498D01*
X125489096Y-64249842D01*
X125478992Y-64179568D01*
X125508486Y-64114988D01*
X125514615Y-64108405D01*
X125550639Y-64072381D01*
X125639472Y-63925699D01*
X125642207Y-63916974D01*
X125674183Y-63814937D01*
X125690753Y-63762062D01*
X125697500Y-63688635D01*
X125697499Y-63323871D01*
X126093456Y-63323871D01*
X126134107Y-63463790D01*
X126140352Y-63478221D01*
X126216911Y-63607678D01*
X126226551Y-63620104D01*
X126332896Y-63726449D01*
X126345322Y-63736089D01*
X126474779Y-63812648D01*
X126489210Y-63818893D01*
X126635065Y-63861269D01*
X126647667Y-63863570D01*
X126676084Y-63865807D01*
X126681014Y-63866000D01*
X127060385Y-63866000D01*
X127075624Y-63861525D01*
X127076829Y-63860135D01*
X127078500Y-63852452D01*
X127078500Y-63330115D01*
X127074025Y-63314876D01*
X127072635Y-63313671D01*
X127064952Y-63312000D01*
X126108122Y-63312000D01*
X126094591Y-63315973D01*
X126093456Y-63323871D01*
X125697499Y-63323871D01*
X125697499Y-63175366D01*
X125697102Y-63171038D01*
X125691690Y-63112135D01*
X125690753Y-63101938D01*
X125667942Y-63029148D01*
X125641744Y-62945550D01*
X125641743Y-62945548D01*
X125639472Y-62938301D01*
X125550639Y-62791619D01*
X125429381Y-62670361D01*
X125282699Y-62581528D01*
X125275452Y-62579257D01*
X125275450Y-62579256D01*
X125173433Y-62547286D01*
X125119062Y-62530247D01*
X125045635Y-62523500D01*
X124930371Y-62523500D01*
X124862250Y-62503498D01*
X124841276Y-62486595D01*
X123333770Y-60979089D01*
X123321384Y-60964677D01*
X123312851Y-60953082D01*
X123312846Y-60953077D01*
X123308508Y-60947182D01*
X123302930Y-60942443D01*
X123302927Y-60942440D01*
X123268232Y-60912965D01*
X123260716Y-60906035D01*
X123255021Y-60900340D01*
X123244923Y-60892351D01*
X123232749Y-60882719D01*
X123229345Y-60879928D01*
X123197920Y-60853230D01*
X123158956Y-60793881D01*
X123153500Y-60757206D01*
X123153500Y-60331371D01*
X123173502Y-60263250D01*
X123227158Y-60216757D01*
X123297432Y-60206653D01*
X123362012Y-60236147D01*
G37*
%TD.AperFunction*%
%TD*%
M02*
